<svg width="24" height="25" viewBox="0 0 24 25" fill="none" xmlns="http://www.w3.org/2000/svg">
<circle cx="12" cy="12.668" r="12" fill="#C8C8C8"/>
<path d="M19.8439 7.24656V7.13056C19.8285 7.01077 19.7912 6.89476 19.732 6.78884C18.9745 5.44973 15.0353 6.16342 10.9237 8.38141C6.8121 10.5994 4.08433 13.468 4.83669 14.8021C5.27009 15.5776 6.78381 15.6596 8.78108 15.159C9.46785 13.7013 10.5816 12.4769 11.9808 11.6422C13.3582 10.8529 14.9967 10.6725 16.5117 10.177C17.5856 9.82519 18.9076 9.21237 19.5147 8.33475C19.7192 8.00691 19.8323 7.63115 19.8439 7.24656Z" fill="black"/>
<path d="M19.8173 7.20703C19.8069 7.59625 19.6922 7.97656 19.4836 8.3098C18.8682 9.20016 17.528 9.81324 16.4394 10.1681C14.9023 10.6629 13.2414 10.8448 11.8451 11.641C10.8308 12.235 9.96122 13.0363 9.29632 13.9903C9.03558 14.4011 8.79961 14.8031 8.59753 15.1885C7.63408 17.0226 7.37464 18.5159 8.06431 19.1099C9.24418 20.1274 12.7499 18.1266 15.8958 14.6466C18.524 11.739 20.0677 8.7181 19.8173 7.20703Z" fill="#323232"/>
</svg>
