<svg width="40" height="41" viewBox="0 0 40 41" fill="none" xmlns="http://www.w3.org/2000/svg">
<g clip-path="url(#clip0_1357_419)">
<path d="M6.66667 30.5H33.3333C34.25 30.5 35 29.75 35 28.8333C35 27.9167 34.25 27.1667 33.3333 27.1667H6.66667C5.75 27.1667 5 27.9167 5 28.8333C5 29.75 5.75 30.5 6.66667 30.5ZM6.66667 22.1667H33.3333C34.25 22.1667 35 21.4167 35 20.5C35 19.5833 34.25 18.8333 33.3333 18.8333H6.66667C5.75 18.8333 5 19.5833 5 20.5C5 21.4167 5.75 22.1667 6.66667 22.1667ZM5 12.1667C5 13.0833 5.75 13.8333 6.66667 13.8333H33.3333C34.25 13.8333 35 13.0833 35 12.1667C35 11.25 34.25 10.5 33.3333 10.5H6.66667C5.75 10.5 5 11.25 5 12.1667Z" fill="#393E46"/>
</g>
<defs>
<clipPath id="clip0_1357_419">
<rect width="40" height="40" fill="white" transform="translate(0 0.5)"/>
</clipPath>
</defs>
</svg>
