<svg width="76" height="33" viewBox="0 0 76 33" fill="none" xmlns="http://www.w3.org/2000/svg">
<g clip-path="url(#clip0_813_118)">
<path d="M10.0806 22.6218C10.575 21.6758 11.1492 20.6699 11.7904 19.6514C11.1365 20.5911 10.5623 21.5844 10.0806 22.6218Z" fill="url(#paint0_linear_813_118)"/>
<path d="M37.5343 2.8351V2.54499C37.496 2.24542 37.4035 1.95531 37.2568 1.69043C35.3778 -1.65845 25.6067 0.126357 15.408 5.67313C5.20943 11.2199 -1.55669 18.3938 0.309493 21.7301C1.38454 23.6694 5.13924 23.8744 10.0934 22.6225C11.7969 18.9772 14.5595 15.9153 18.0303 13.8277C21.4468 11.8537 25.511 11.4028 29.2689 10.1635C31.9326 9.28374 35.2119 7.7512 36.7177 5.55646C37.2249 4.73658 37.5056 3.79688 37.5343 2.8351Z" fill="url(#paint1_linear_813_118)"/>
<path d="M37.5377 2.83496C37.5122 3.79989 37.2314 4.74275 36.721 5.56893C35.2153 7.77629 31.9359 9.29621 29.2722 10.176C25.5112 11.4027 21.447 11.8536 18.0305 13.8276C15.5486 15.3002 13.4208 17.2868 11.7939 19.6519C11.1559 20.6704 10.5785 21.6669 10.084 22.6223C7.72658 27.1695 7.09176 30.8716 8.7793 32.3442C11.6663 34.8669 20.2444 29.9066 27.942 21.279C34.3732 14.0704 38.1502 6.58116 37.5377 2.83496Z" fill="url(#paint2_linear_813_118)"/>
<path d="M22.4008 23.5908V16.8584C22.3848 16.6849 22.5124 16.5304 22.6879 16.5146C22.707 16.5146 22.7261 16.5146 22.7453 16.5146H26.8668C27.0263 16.5146 27.1571 16.6439 27.1571 16.8016C27.1571 16.9593 27.0263 17.0886 26.8668 17.0886H23.0388V19.8162H26.7871C26.9466 19.8162 27.0774 19.9455 27.0774 20.1032C27.0774 20.2609 26.9466 20.3901 26.7871 20.3901H23.0356V23.5908C23.0356 23.7642 22.892 23.9061 22.7166 23.9061C22.5411 23.9061 22.4008 23.7642 22.4008 23.5908Z" fill="#505D65"/>
<path d="M29.2881 23.5909V16.8017C29.2881 16.6282 29.4316 16.4863 29.6071 16.4863C29.7825 16.4863 29.9261 16.6282 29.9261 16.8017V23.5909C29.9261 23.7643 29.7825 23.9062 29.6071 23.9062C29.4316 23.9062 29.2881 23.7643 29.2881 23.5909Z" fill="#505D65"/>
<path d="M37.6076 23.4048C37.6458 23.4647 37.665 23.534 37.6618 23.6034C37.6618 23.7705 37.531 23.9093 37.3619 23.9188C37.2535 23.9188 37.1482 23.8715 37.0812 23.7863L35.0045 20.8379H33.2531V23.5971C33.2531 23.7706 33.1096 23.9125 32.9341 23.9125C32.7587 23.9125 32.6151 23.7706 32.6151 23.5971V16.8584C32.5992 16.6849 32.7268 16.5304 32.9022 16.5146C32.9214 16.5146 32.9437 16.5146 32.9628 16.5146H35.4C36.6761 16.5146 37.665 17.3219 37.665 18.6684C37.7224 19.7752 36.8611 20.7212 35.7382 20.778C35.7318 20.778 35.7254 20.778 35.719 20.778L37.6076 23.4048ZM33.2531 20.2514H35.3394C36.2199 20.2514 36.9345 19.545 36.9345 18.6747C36.9345 17.8044 36.2199 17.098 35.3394 17.098H33.2531V20.2514Z" fill="#505D65"/>
<path d="M40.0863 23.5372V16.8584C40.0704 16.6849 40.198 16.5304 40.3734 16.5146C40.3926 16.5146 40.4117 16.5146 40.4308 16.5146H44.5524C44.7119 16.5146 44.8427 16.6439 44.8427 16.8016C44.8427 16.9593 44.7119 17.0886 44.5524 17.0886H40.7243V19.8162H44.4758C44.6353 19.8162 44.7661 19.9455 44.7661 20.1032C44.7661 20.2608 44.6353 20.3901 44.4758 20.3901H40.7211V23.3039H44.5492C44.7087 23.3039 44.8395 23.4331 44.8395 23.5908C44.8395 23.7485 44.7087 23.8778 44.5492 23.8778H40.4308C40.2554 23.8935 40.1023 23.7642 40.0863 23.5908C40.0863 23.5719 40.0863 23.5561 40.0863 23.5372Z" fill="#505D65"/>
<path d="M47.2191 23.5908V16.8584C47.2032 16.6849 47.3308 16.5304 47.5062 16.5146C47.5254 16.5146 47.5445 16.5146 47.5636 16.5146H51.6852C51.8447 16.5146 51.9755 16.6439 51.9755 16.8016C51.9755 16.9593 51.8447 17.0886 51.6852 17.0886H47.8571V19.8162H51.6086C51.7681 19.8162 51.8989 19.9455 51.8989 20.1032C51.8989 20.2609 51.7681 20.3901 51.6086 20.3901H47.8571V23.5908C47.8571 23.7642 47.7136 23.9061 47.5381 23.9061C47.3627 23.9061 47.2191 23.7642 47.2191 23.5908Z" fill="#505D65"/>
<path d="M54.1064 23.5373V16.8017C54.1064 16.6282 54.25 16.4863 54.4255 16.4863C54.6009 16.4863 54.7445 16.6282 54.7445 16.8017V23.3039H58.094C58.2535 23.3039 58.3843 23.4332 58.3843 23.5909C58.3843 23.7485 58.2535 23.8778 58.094 23.8778H54.4542C54.2787 23.8936 54.1224 23.7675 54.1064 23.594C54.1064 23.5751 54.1064 23.5562 54.1064 23.5373Z" fill="#505D65"/>
<path d="M60.5728 23.5909V16.8017C60.5728 16.6282 60.7163 16.4863 60.8918 16.4863C61.0672 16.4863 61.2108 16.6282 61.2108 16.8017V23.5909C61.2108 23.7643 61.0672 23.9062 60.8918 23.9062C60.7163 23.9062 60.5728 23.7643 60.5728 23.5909Z" fill="#505D65"/>
<path d="M63.9003 23.5372V16.8584C63.8843 16.6849 64.0119 16.5304 64.1874 16.5146C64.2065 16.5146 64.2257 16.5146 64.2448 16.5146H68.3664C68.5259 16.5146 68.6567 16.6439 68.6567 16.8016C68.6567 16.9593 68.5259 17.0886 68.3664 17.0886H64.5383V19.8162H68.2898C68.4493 19.8162 68.5801 19.9455 68.5801 20.1032C68.5801 20.2608 68.4493 20.3901 68.2898 20.3901H64.5351V23.3039H68.3632C68.5227 23.3039 68.6535 23.4331 68.6535 23.5908C68.6535 23.7485 68.5227 23.8778 68.3632 23.8778H64.2448C64.0693 23.8935 63.9162 23.7642 63.9003 23.5908C63.9003 23.5719 63.9003 23.5561 63.9003 23.5372Z" fill="#505D65"/>
<path d="M70.7111 22.809C70.7111 22.6355 70.8547 22.4936 71.0301 22.4936C71.1099 22.4936 71.1896 22.522 71.2534 22.5725C71.8117 23.1243 72.5709 23.4365 73.3621 23.4365C74.8901 23.4365 75.3272 22.5977 75.3272 21.9702C75.3272 20.9296 74.3319 20.6458 73.2823 20.3683C72.1084 20.0529 70.8579 19.7155 70.8579 18.3596C70.8579 17.155 71.9521 16.395 73.3397 16.395C74.1883 16.3698 75.0145 16.6725 75.6398 17.2433C75.7163 17.2969 75.761 17.3852 75.761 17.4766C75.761 17.6501 75.6175 17.792 75.442 17.792C75.3654 17.7983 75.2921 17.7699 75.241 17.7131C74.7242 17.218 74.0256 16.9532 73.3078 16.9752C72.2806 16.9752 71.531 17.5365 71.531 18.3312C71.531 19.2047 72.4593 19.4569 73.4769 19.7218C74.6828 20.0655 76.0003 20.4408 76.0003 21.9292C76.0003 22.8752 75.3622 24.0136 73.3525 24.0136C72.4083 24.0356 71.4927 23.6856 70.81 23.0392C70.743 22.9824 70.7048 22.8973 70.7111 22.809Z" fill="#505D65"/>
<path d="M32.2102 28.7271V26.873H31.5722C31.5275 26.873 31.4893 26.8351 31.4893 26.791C31.4893 26.7468 31.5275 26.709 31.5722 26.709H33.0045C33.0492 26.709 33.0875 26.7468 33.0875 26.791C33.0875 26.8351 33.0492 26.873 33.0045 26.873H32.3665V28.7271C32.3665 28.7776 32.3251 28.8186 32.274 28.8186C32.223 28.8186 32.1815 28.7776 32.1815 28.7271H32.2102Z" fill="#505D65"/>
<path d="M35.081 28.674C35.0874 28.6929 35.0874 28.7119 35.081 28.7308C35.081 28.7781 35.0427 28.8159 34.9949 28.8191C34.963 28.8191 34.9343 28.8065 34.9151 28.7812L34.3218 27.9424H33.8369V28.7276C33.8369 28.7781 33.7986 28.8159 33.7476 28.8191C33.6965 28.8191 33.6582 28.7781 33.655 28.7276V26.8009C33.6487 26.7536 33.6838 26.7095 33.7348 26.7032C33.7412 26.7032 33.7476 26.7032 33.7539 26.7032H34.443C34.7748 26.6842 35.0619 26.9334 35.081 27.2613C35.081 27.2865 35.081 27.3086 35.081 27.3338C35.097 27.6492 34.8513 27.9204 34.5291 27.9361H34.5227L35.081 28.674ZM33.8369 27.7785H34.443C34.695 27.8005 34.9183 27.6145 34.9374 27.3622C34.9598 27.1131 34.7716 26.8924 34.5164 26.8734C34.4908 26.8734 34.4653 26.8734 34.4398 26.8734H33.8337V27.7785H33.8369Z" fill="#505D65"/>
<path d="M37.442 28.7244C37.442 28.778 37.4005 28.819 37.3463 28.819C37.308 28.819 37.2729 28.7938 37.2569 28.7591L37.0687 28.2924H35.9299L35.7417 28.7591C35.7257 28.7938 35.6906 28.819 35.6523 28.819C35.5981 28.819 35.5566 28.778 35.5566 28.7244C35.5566 28.7244 35.5566 28.6992 35.5566 28.6866L36.3573 26.8009C36.3829 26.741 36.4403 26.7031 36.5041 26.7031C36.5679 26.7031 36.6285 26.741 36.654 26.8009L37.4388 28.6929C37.4388 28.6929 37.442 28.715 37.442 28.7244ZM36.9954 28.1316L36.4913 26.8703L35.9905 28.1316H36.9954Z" fill="#505D65"/>
<path d="M38.4146 28.718L37.6299 26.826C37.6299 26.826 37.6299 26.8008 37.6299 26.7882C37.6299 26.7346 37.6745 26.6904 37.7288 26.6904C37.7702 26.6904 37.8053 26.7157 37.8213 26.7503L38.571 28.5982L39.3238 26.7503C39.3398 26.7125 39.3748 26.6904 39.4163 26.6904C39.4705 26.6904 39.512 26.7314 39.512 26.785C39.512 26.785 39.512 26.8134 39.512 26.826L38.7273 28.718C38.6954 28.8 38.6029 28.8379 38.5199 28.8063C38.4784 28.7906 38.4465 28.759 38.4306 28.718H38.4146Z" fill="#505D65"/>
<path d="M40.0418 28.7118V26.8009C40.0354 26.7536 40.0705 26.7094 40.1215 26.7031C40.1279 26.7031 40.1343 26.7031 40.1407 26.7031H41.3178C41.3625 26.7031 41.4007 26.741 41.4007 26.7851C41.4007 26.8293 41.3625 26.8671 41.3178 26.8671H40.2236V27.6523H41.2955C41.3401 27.6523 41.3784 27.6901 41.3784 27.7343C41.3784 27.7784 41.3401 27.8163 41.2955 27.8163H40.2236V28.6456H41.3178C41.3625 28.6456 41.4007 28.6834 41.4007 28.7276C41.4007 28.7717 41.3625 28.8096 41.3178 28.8096H40.1407C40.0928 28.8159 40.0481 28.7812 40.0418 28.7307C40.0418 28.7244 40.0418 28.7181 40.0418 28.7118Z" fill="#505D65"/>
<path d="M42.0229 28.7114V26.8004C42.0229 26.75 42.0644 26.709 42.1155 26.709C42.1633 26.709 42.2048 26.75 42.2048 26.7973C42.2048 26.7973 42.2048 26.7973 42.2048 26.8004V28.6546H43.1618C43.2065 28.6546 43.2447 28.6925 43.2447 28.7366C43.2447 28.7807 43.2065 28.8186 43.1618 28.8186H42.1218C42.074 28.8249 42.0293 28.7902 42.0229 28.7429C42.0229 28.7334 42.0229 28.7208 42.0229 28.7114Z" fill="#505D65"/>
<path d="M44.8206 28.7118V26.8009C44.8142 26.7536 44.8493 26.7094 44.9003 26.7031C44.9067 26.7031 44.9131 26.7031 44.9195 26.7031H46.0966C46.1413 26.7031 46.1795 26.741 46.1795 26.7851C46.1795 26.8293 46.1413 26.8671 46.0966 26.8671H45.0024V27.6523H46.0743C46.1189 27.6523 46.1572 27.6901 46.1572 27.7343C46.1572 27.7784 46.1189 27.8163 46.0743 27.8163H45.0024V28.6456H46.0966C46.1413 28.6456 46.1795 28.6834 46.1795 28.7276C46.1795 28.7717 46.1413 28.8096 46.0966 28.8096H44.9195C44.8716 28.8159 44.827 28.7812 44.8206 28.7307C44.8206 28.7244 44.8206 28.7181 44.8206 28.7118Z" fill="#505D65"/>
<path d="M48.2942 28.7713L46.9831 26.9959V28.7271C46.9831 28.7776 46.9448 28.8154 46.8938 28.8186C46.8427 28.8186 46.8045 28.7776 46.8013 28.7271V26.8351C46.8013 26.7721 46.8523 26.7184 46.9161 26.7153C46.9161 26.7153 46.9161 26.7153 46.9193 26.7153C46.9576 26.7153 46.9959 26.7342 47.0182 26.7657L48.3197 28.5127V26.8004C48.3197 26.7531 48.358 26.7121 48.4059 26.709C48.4059 26.709 48.4059 26.709 48.4091 26.709C48.4601 26.709 48.5016 26.75 48.5016 26.8004V28.6925C48.5016 28.7524 48.4505 28.8028 48.3899 28.806C48.3548 28.8091 48.3197 28.7965 48.2942 28.7713Z" fill="#505D65"/>
<path d="M49.2129 28.7114V26.8004C49.2129 26.75 49.2544 26.709 49.3054 26.709C49.3533 26.709 49.3947 26.75 49.3947 26.7973C49.3947 26.7973 49.3947 26.7973 49.3947 26.8004V28.6546H50.3517C50.3964 28.6546 50.4347 28.6925 50.4347 28.7366C50.4347 28.7807 50.3964 28.8186 50.3517 28.8186H49.3118C49.2639 28.8249 49.2193 28.7902 49.2129 28.7429C49.2129 28.7334 49.2129 28.7208 49.2129 28.7114Z" fill="#505D65"/>
<path d="M51.0026 28.7271V26.8004C51.0026 26.75 51.0441 26.709 51.0951 26.709C51.143 26.709 51.1844 26.75 51.1844 26.7973C51.1844 26.7973 51.1844 26.7973 51.1844 26.8004V28.7366C51.1844 28.7871 51.1462 28.8249 51.0951 28.828C51.0409 28.828 50.9994 28.7839 51.0026 28.7303C51.0026 28.7303 51.0026 28.7303 51.0026 28.7271Z" fill="#505D65"/>
<path d="M53.7018 27.8671V28.4284C53.7049 28.4757 53.6858 28.5198 53.6507 28.5482C53.2073 28.955 52.5151 28.9297 52.1035 28.4946C51.692 28.0563 51.7175 27.372 52.1578 26.9652C52.3587 26.7823 52.6203 26.6782 52.8947 26.6751C53.1722 26.6688 53.4402 26.7728 53.638 26.9683C53.6539 26.9841 53.6603 27.003 53.6603 27.0251C53.6667 27.0692 53.6348 27.1102 53.5869 27.1165C53.5869 27.1165 53.5869 27.1165 53.5837 27.1165C53.5614 27.1165 53.5423 27.1071 53.5263 27.0945C53.1403 26.7697 52.5597 26.8138 52.2311 27.1954C51.9026 27.5769 51.9472 28.1509 52.3332 28.4757C52.4895 28.6081 52.6873 28.6838 52.8947 28.6932C53.1339 28.6932 53.3636 28.6018 53.5327 28.4378V27.9301H52.799C52.7543 27.9396 52.7096 27.9112 52.7001 27.8671C52.6905 27.8229 52.7192 27.7788 52.7639 27.7693C52.7734 27.7693 52.7862 27.7693 52.7958 27.7693H53.6124C53.6603 27.7693 53.7018 27.8103 53.6986 27.8607C53.6986 27.8607 53.6986 27.8639 53.6986 27.8671H53.7018Z" fill="#505D65"/>
<path d="M55.8774 28.7271V27.8127H54.5407V28.7271C54.5407 28.7776 54.5024 28.8154 54.4514 28.8186C54.4004 28.8186 54.3621 28.7776 54.3589 28.7271V26.8004C54.3589 26.75 54.4004 26.709 54.4514 26.709C54.4993 26.709 54.5407 26.75 54.5407 26.7973C54.5407 26.7973 54.5407 26.7973 54.5407 26.8004V27.6581H55.8901V26.8004C55.8901 26.75 55.9316 26.709 55.9826 26.709C56.0337 26.709 56.0751 26.75 56.0751 26.8004V28.7366C56.0751 28.7871 56.0337 28.828 55.9826 28.828C55.9316 28.828 55.8901 28.7871 55.8901 28.7366L55.8774 28.7271Z" fill="#505D65"/>
<path d="M57.3129 28.7271V26.873H56.6909C56.6462 26.873 56.6079 26.8351 56.6079 26.791C56.6079 26.7468 56.6462 26.709 56.6909 26.709H58.1232C58.1678 26.709 58.2061 26.7468 58.2061 26.791C58.2061 26.8351 58.1678 26.873 58.1232 26.873H57.4852V28.7271C57.4852 28.7776 57.4437 28.8186 57.3927 28.8186C57.3416 28.8186 57.3002 28.7776 57.3002 28.7271H57.3129Z" fill="#505D65"/>
<path d="M58.7512 28.7118V26.8009C58.7449 26.7536 58.7799 26.7094 58.831 26.7031C58.8374 26.7031 58.8437 26.7031 58.8501 26.7031H60.0273C60.0719 26.7031 60.1102 26.741 60.1102 26.7851C60.1102 26.8293 60.0719 26.8671 60.0273 26.8671H58.9331V27.6523H60.0049C60.0496 27.6523 60.0879 27.6901 60.0879 27.7343C60.0879 27.7784 60.0496 27.8163 60.0049 27.8163H58.9331V28.6456H60.0273C60.0719 28.6456 60.1102 28.6834 60.1102 28.7276C60.1102 28.7717 60.0719 28.8096 60.0273 28.8096H58.8501C58.8023 28.8159 58.7576 28.7812 58.7512 28.7307C58.7512 28.7244 58.7512 28.7181 58.7512 28.7118Z" fill="#505D65"/>
<path d="M62.2253 28.7713L60.9206 26.9959V28.7271C60.9206 28.7776 60.8823 28.8154 60.8313 28.8186C60.7802 28.8186 60.742 28.7776 60.7388 28.7271V26.8351C60.7388 26.7721 60.7898 26.7184 60.8536 26.7153C60.8536 26.7153 60.8536 26.7153 60.8568 26.7153C60.8951 26.7153 60.9334 26.7342 60.9557 26.7657L62.2572 28.5127V26.8004C62.2572 26.7531 62.2955 26.7121 62.3434 26.709C62.3434 26.709 62.3434 26.709 62.3466 26.709C62.3976 26.709 62.4391 26.75 62.4391 26.8004V28.6925C62.4391 28.7524 62.388 28.8028 62.3274 28.806C62.2891 28.8123 62.2509 28.7997 62.2253 28.7713Z" fill="#505D65"/>
<path d="M63.1536 28.7118V26.8009C63.1472 26.7536 63.1823 26.7094 63.2333 26.7031C63.2397 26.7031 63.2461 26.7031 63.2525 26.7031H64.4296C64.4743 26.7031 64.5125 26.741 64.5125 26.7851C64.5125 26.8293 64.4743 26.8671 64.4296 26.8671H63.3354V27.6523H64.4073C64.4519 27.6523 64.4902 27.6901 64.4902 27.7343C64.4902 27.7784 64.4519 27.8163 64.4073 27.8163H63.3354V28.6456H64.4296C64.4743 28.6456 64.5125 28.6834 64.5125 28.7276C64.5125 28.7717 64.4743 28.8096 64.4296 28.8096H63.2525C63.2046 28.8159 63.16 28.7812 63.1536 28.7307C63.1536 28.7244 63.1536 28.7181 63.1536 28.7118Z" fill="#505D65"/>
<path d="M65.1253 28.7118V26.8009C65.1189 26.7536 65.154 26.7094 65.205 26.7031C65.2114 26.7031 65.2178 26.7031 65.2242 26.7031H65.8047C66.3917 26.7031 66.867 27.173 66.867 27.7532C66.867 28.3334 66.3917 28.8033 65.8047 28.8033H65.2242C65.1763 28.8096 65.1316 28.7749 65.1253 28.7244C65.1253 28.7213 65.1253 28.715 65.1253 28.7118ZM65.8047 28.6456C66.2992 28.6456 66.7012 28.2483 66.7012 27.7595C66.7012 27.2707 66.2992 26.8734 65.8047 26.8734H65.3071V28.6456H65.8047Z" fill="#505D65"/>
</g>
<defs>
<linearGradient id="paint0_linear_813_118" x1="10.0806" y1="21.1335" x2="11.7936" y2="21.1335" gradientUnits="userSpaceOnUse">
<stop stop-color="white"/>
<stop offset="1"/>
</linearGradient>
<linearGradient id="paint1_linear_813_118" x1="5.73737e-05" y1="11.7024" x2="37.5343" y2="11.7024" gradientUnits="userSpaceOnUse">
<stop stop-color="#03659C"/>
<stop offset="1" stop-color="#06B2B8"/>
</linearGradient>
<linearGradient id="paint2_linear_813_118" x1="8.59747" y1="29.2507" x2="37.1771" y2="6.53742" gradientUnits="userSpaceOnUse">
<stop stop-color="#06B2B8"/>
<stop offset="0.2" stop-color="#06ABB5"/>
<stop offset="0.49" stop-color="#0596AE"/>
<stop offset="0.85" stop-color="#0476A2"/>
<stop offset="1" stop-color="#03659C"/>
</linearGradient>
<clipPath id="clip0_813_118">
<rect width="76" height="33" fill="white"/>
</clipPath>
</defs>
</svg>
