<svg width="14" height="15" viewBox="0 0 14 15" fill="none" xmlns="http://www.w3.org/2000/svg">
<g clip-path="url(#clip0_1357_745)">
<path d="M5.83333 9.83333V5.16667C5.83333 4.525 6.3525 4 7 4H12.25V3.41667C12.25 2.775 11.725 2.25 11.0833 2.25H2.91667C2.26917 2.25 1.75 2.775 1.75 3.41667V11.5833C1.75 12.225 2.26917 12.75 2.91667 12.75H11.0833C11.725 12.75 12.25 12.225 12.25 11.5833V11H7C6.3525 11 5.83333 10.475 5.83333 9.83333ZM7.58333 5.16667C7.2625 5.16667 7 5.42917 7 5.75V9.25C7 9.57083 7.2625 9.83333 7.58333 9.83333H12.8333V5.16667H7.58333ZM9.33333 8.375C8.84917 8.375 8.45833 7.98417 8.45833 7.5C8.45833 7.01583 8.84917 6.625 9.33333 6.625C9.8175 6.625 10.2083 7.01583 10.2083 7.5C10.2083 7.98417 9.8175 8.375 9.33333 8.375Z" fill="white"/>
</g>
<defs>
<clipPath id="clip0_1357_745">
<rect width="14" height="14" fill="white" transform="translate(0 0.5)"/>
</clipPath>
</defs>
</svg>
