<svg width="14" height="15" viewBox="0 0 14 15" fill="none" xmlns="http://www.w3.org/2000/svg">
<g clip-path="url(#clip0_1537_1169)">
<path d="M5.08333 10.2513V5.58464C5.08333 4.94297 5.6025 4.41797 6.25 4.41797H11.5V3.83464C11.5 3.19297 10.975 2.66797 10.3333 2.66797H2.16667C1.51917 2.66797 1 3.19297 1 3.83464V12.0013C1 12.643 1.51917 13.168 2.16667 13.168H10.3333C10.975 13.168 11.5 12.643 11.5 12.0013V11.418H6.25C5.6025 11.418 5.08333 10.893 5.08333 10.2513ZM6.83333 5.58464C6.5125 5.58464 6.25 5.84714 6.25 6.16797V9.66797C6.25 9.9888 6.5125 10.2513 6.83333 10.2513H12.0833V5.58464H6.83333ZM8.58333 8.79297C8.09917 8.79297 7.70833 8.40214 7.70833 7.91797C7.70833 7.4338 8.09917 7.04297 8.58333 7.04297C9.0675 7.04297 9.45833 7.4338 9.45833 7.91797C9.45833 8.40214 9.0675 8.79297 8.58333 8.79297Z" fill="#151314"/>
</g>
<defs>
<clipPath id="clip0_1537_1169">
<rect width="14" height="14" fill="white" transform="translate(0 0.667969)"/>
</clipPath>
</defs>
</svg>
