<svg width="72" height="72" viewBox="0 0 72 72" fill="none" xmlns="http://www.w3.org/2000/svg">
<path d="M66 36H69M36 6V3M36 69V66M60 60L57 57M60 12L57 15M12 60L15 57M12 12L15 15M3 36H6M29.856 28.869L34.533 18.954C34.659 18.6701 34.8647 18.4289 35.1251 18.2595C35.3855 18.0902 35.6894 18.0001 36 18.0001C36.3106 18.0001 36.6145 18.0902 36.8749 18.2595C37.1353 18.4289 37.341 18.6701 37.467 18.954L42.144 28.869L52.599 30.468C53.94 30.672 54.474 32.4 53.505 33.39L45.939 41.1L47.724 51.993C47.955 53.394 46.551 54.459 45.351 53.799L36 48.654L26.649 53.799C25.449 54.459 24.045 53.394 24.276 51.993L26.061 41.103L18.495 33.39C17.526 32.4 18.06 30.672 19.401 30.468L29.856 28.869Z" stroke="#00ADB5" stroke-width="1.5" stroke-linecap="round" stroke-linejoin="round"/>
</svg>
