<svg width="72" height="72" viewBox="0 0 72 72" fill="none" xmlns="http://www.w3.org/2000/svg">
<path d="M27 54C27 54 29.7 42.777 36 36" stroke="#00ADB5" stroke-width="1.5" stroke-linecap="round" stroke-linejoin="round"/>
<path d="M48.5579 21.723L49.6799 33.393C50.4089 40.962 44.7329 47.703 37.1639 48.429C29.7389 49.143 23.0099 43.716 22.2959 36.288C21.9524 32.7219 23.0395 29.1655 25.318 26.4008C27.5965 23.6362 30.8799 21.8899 34.4459 21.546L46.8869 20.346C47.0873 20.3266 47.2896 20.3469 47.4821 20.4058C47.6746 20.4647 47.8536 20.561 48.0089 20.6892C48.1641 20.8174 48.2925 20.9749 48.3867 21.1529C48.481 21.3308 48.5391 21.5226 48.5579 21.723Z" stroke="#00ADB5" stroke-width="1.5" stroke-linecap="round" stroke-linejoin="round"/>
<path d="M36 66C52.569 66 66 52.569 66 36C66 19.431 52.569 6 36 6C19.431 6 6 19.431 6 36C6 52.569 19.431 66 36 66Z" stroke="#00ADB5" stroke-width="1.5" stroke-linecap="round" stroke-linejoin="round"/>
</svg>
