<svg width="72" height="72" viewBox="0 0 72 72" fill="none" xmlns="http://www.w3.org/2000/svg">
<path d="M6.50003 36.0008V36C6.50003 32.505 7.06592 29.2134 8.19471 26.1215C9.24189 23.2531 10.6889 20.6176 12.5365 18.2134L26.8829 43H7.36771C7.11514 41.9385 6.91127 40.857 6.75615 39.7553C6.58353 38.5293 6.49807 37.2779 6.50003 36.0008ZM55.878 14.0953C59.1643 17.0777 61.5957 20.5862 63.1771 24.625H34.4706L44.339 7.70764C48.6611 8.90693 52.5057 11.0347 55.878 14.0953ZM38.2055 6.61201C38.7578 6.6614 39.2772 6.71537 39.7638 6.77389L25.2796 31.6243L15.6266 14.7141C18.2186 12.2342 21.2129 10.2574 24.6129 8.78376C28.1222 7.26269 31.916 6.5 36.0001 6.5C36.6314 6.5 37.366 6.53695 38.2055 6.61201ZM65.5001 35.9992V36C65.5001 39.4403 64.8988 42.7296 63.6971 45.8714C62.5848 48.7792 61.1698 51.4107 59.453 53.7684L45.1172 29H64.6324C64.885 30.0615 65.0888 31.143 65.244 32.2447C65.4166 33.4707 65.502 34.7221 65.5001 35.9992ZM16.1598 57.9036C12.8512 54.9212 10.4075 51.413 8.82343 47.375H37.4608L27.7337 64.2917C23.4117 63.0922 19.5553 60.9643 16.1598 57.9036ZM36.0001 65.5C35.2723 65.5 34.5307 65.4515 33.775 65.3541C33.2686 65.2888 32.779 65.2236 32.3063 65.1584L46.721 40.3764L56.3735 57.2859C53.7815 59.7658 50.7881 61.7426 47.3901 63.2163C43.883 64.7373 40.0882 65.5 36.0001 65.5Z" stroke="#00ADB5"/>
</svg>
