<svg width="72" height="72" viewBox="0 0 72 72" fill="none" xmlns="http://www.w3.org/2000/svg">
<path d="M36 66C19.431 66 6 52.569 6 36C6 19.431 19.431 6 36 6C52.569 6 66 19.431 66 36C66 52.569 52.569 66 36 66Z" stroke="#00ADB5" stroke-width="1.5" stroke-linecap="round" stroke-linejoin="round"/>
<path d="M36 48C32.8174 48 29.7652 46.7357 27.5147 44.4853M36 48C39.1826 48 42.2348 46.7357 44.4853 44.4853M36 48V66M27.5147 44.4853C25.2643 42.2348 24 39.1826 24 36M27.5147 44.4853L14.787 57.213M24 36C24 32.8174 25.2643 29.7652 27.5147 27.5147C29.7652 25.2643 32.8174 24 36 24M24 36H6M36 24C39.1826 24 42.2348 25.2643 44.4853 27.5147M36 24V6M44.4853 27.5147C46.7357 29.7652 48 32.8174 48 36M44.4853 27.5147L57.213 14.787M48 36C48 39.1826 46.7357 42.2348 44.4853 44.4853M48 36H66M44.4853 44.4853L57.213 57.213M14.787 14.787L27.516 27.51" stroke="#00ADB5" stroke-width="1.5" stroke-linecap="round" stroke-linejoin="round"/>
</svg>
