<svg width="80" height="80" viewBox="0 0 80 80" fill="none" xmlns="http://www.w3.org/2000/svg">
<g clip-path="url(#clip0_104_10294)">
<path d="M40.0001 6.66699C21.6001 6.66699 6.66675 21.6003 6.66675 40.0003C6.66675 58.4003 21.6001 73.3337 40.0001 73.3337C58.4001 73.3337 73.3334 58.4003 73.3334 40.0003C73.3334 21.6003 58.4001 6.66699 40.0001 6.66699ZM40.0001 66.667C25.3001 66.667 13.3334 54.7003 13.3334 40.0003C13.3334 25.3003 25.3001 13.3337 40.0001 13.3337C54.7001 13.3337 66.6667 25.3003 66.6667 40.0003C66.6667 54.7003 54.7001 66.667 40.0001 66.667ZM52.9334 27.6337L33.3334 47.2337L27.0667 40.967C25.7667 39.667 23.6667 39.667 22.3667 40.967C21.0667 42.267 21.0667 44.367 22.3667 45.667L31.0001 54.3003C32.3001 55.6003 34.4001 55.6003 35.7001 54.3003L57.6667 32.3337C58.9667 31.0337 58.9667 28.9337 57.6667 27.6337C56.3667 26.3337 54.2334 26.3337 52.9334 27.6337Z" fill="url(#paint0_linear_104_10294)"/>
</g>
<defs>
<linearGradient id="paint0_linear_104_10294" x1="73.3334" y1="40.0003" x2="6.66675" y2="40.0003" gradientUnits="userSpaceOnUse">
<stop stop-color="#10507F"/>
<stop offset="1" stop-color="#00ADB5"/>
</linearGradient>
<clipPath id="clip0_104_10294">
<rect width="80" height="80" fill="white"/>
</clipPath>
</defs>
</svg>
