<svg width="73" height="72" viewBox="0 0 73 72" fill="none" xmlns="http://www.w3.org/2000/svg">
<path d="M36.5 66C19.931 66 6.5 52.569 6.5 36C6.5 19.431 19.931 6 36.5 6C53.069 6 66.5 19.431 66.5 36C66.5 52.569 53.069 66 36.5 66Z" stroke="#393E46" stroke-width="1.5" stroke-linecap="round" stroke-linejoin="round"/>
<path d="M36.5 48C33.3174 48 30.2652 46.7357 28.0147 44.4853M36.5 48C39.6826 48 42.7348 46.7357 44.9853 44.4853M36.5 48V66M28.0147 44.4853C25.7643 42.2348 24.5 39.1826 24.5 36M28.0147 44.4853L15.287 57.213M24.5 36C24.5 32.8174 25.7643 29.7652 28.0147 27.5147C30.2652 25.2643 33.3174 24 36.5 24M24.5 36H6.5M36.5 24C39.6826 24 42.7348 25.2643 44.9853 27.5147M36.5 24V6M44.9853 27.5147C47.2357 29.7652 48.5 32.8174 48.5 36M44.9853 27.5147L57.713 14.787M48.5 36C48.5 39.1826 47.2357 42.2348 44.9853 44.4853M48.5 36H66.5M44.9853 44.4853L57.713 57.213M15.287 14.787L28.016 27.51" stroke="#393E46" stroke-width="1.5" stroke-linecap="round" stroke-linejoin="round"/>
</svg>
