<svg width="496" height="346" viewBox="0 0 496 346" fill="none" xmlns="http://www.w3.org/2000/svg">
<path d="M82.0007 189.627C87.4785 232.015 54.1389 236.116 53.0346 261.841C52.6719 270.286 65.8142 317.447 103.854 286.364C117.561 275.165 119.839 274.559 147.663 272.779C175.486 270.999 201.115 257.67 202.322 227.754C203.529 197.838 217.552 213.875 245.879 196.664C274.207 179.453 258.122 105.751 217.901 81.5676C177.68 57.3837 177.132 90.2004 133.388 90.3021C89.6439 90.4038 65.6742 136.8 74.8871 162.428C84.0999 188.056 80.1741 175.492 82.0007 189.627Z" fill="#D6FDFF"/>
<path d="M409.52 177.558C395.245 140.261 424.93 128.844 420.329 105.188C418.819 97.4216 396.472 57.5503 368.364 94.5961C358.236 107.944 356.278 109.021 331.146 117.055C306.014 125.089 285.416 143.124 290.838 170.615C296.26 198.108 279.897 186.752 257.67 208.94C235.444 231.128 241.68 315.331 308.452 307.191C352.175 301.861 343.961 289.938 384.062 279.76C424.163 269.582 436.024 221.85 421.981 200.661C407.938 179.471 414.28 189.995 409.52 177.558Z" fill="#00ADB5"/>
<path d="M406.472 100.073L301.196 162.639L292.434 167.447L323.999 223.534L443.899 157.523L440.375 152.397C427.753 153.291 429.406 144.334 432.116 139.644L428.967 134.927C418.362 137.246 415.835 128.073 420.475 122.346L417.558 117.891C407.012 118.307 406.325 108.143 409.997 105.054L406.472 100.073Z" fill="white"/>
<path fill-rule="evenodd" clip-rule="evenodd" d="M406.557 99.6768L301.048 162.381L292.027 167.33L323.885 223.937L444.332 157.626L440.525 152.089L440.355 152.1C437.229 152.322 435.025 151.93 433.512 151.175C432.01 150.425 431.171 149.309 430.782 148.028C430.389 146.737 430.447 145.262 430.779 143.807C431.111 142.355 431.71 140.944 432.374 139.793L432.467 139.633L429.103 134.592L428.905 134.636C423.691 135.776 420.569 134.082 419.271 131.519C417.956 128.924 418.447 125.323 420.708 122.534L420.844 122.365L417.716 117.587L417.547 117.594C414.959 117.696 413.001 117.148 411.571 116.244C410.142 115.339 409.222 114.067 408.727 112.686C407.728 109.901 408.469 106.729 410.189 105.282L410.398 105.105L406.557 99.6768ZM409.601 105.009C407.802 106.715 407.141 110.029 408.167 112.887C408.702 114.382 409.702 115.766 411.253 116.747C412.77 117.707 414.799 118.27 417.402 118.194L420.109 122.329C417.844 125.244 417.327 129 418.739 131.788C420.178 134.628 423.555 136.354 428.833 135.26L431.767 139.657C431.113 140.821 430.53 142.224 430.199 143.675C429.853 145.191 429.779 146.779 430.212 148.202C430.648 149.635 431.594 150.883 433.246 151.708C434.86 152.513 437.129 152.906 440.227 152.706L443.469 157.421L324.115 223.131L292.842 167.563L301.344 162.898L406.388 100.47L409.601 105.009Z" fill="#393E46"/>
<path d="M401.972 115.14L341.043 149.398L344.503 156.223L406.044 121.924L401.972 115.14Z" fill="#F0F0F0"/>
<path fill-rule="evenodd" clip-rule="evenodd" d="M402.023 114.939L406.249 121.979L344.439 156.429L340.844 149.338L402.023 114.939ZM341.238 149.458L344.564 156.018L405.836 121.869L401.916 115.341L341.238 149.458Z" fill="#393E46"/>
<path d="M399.991 132.48L350.316 158.252L352.908 163.801L403.073 138.013L399.991 132.48Z" fill="#F0F0F0"/>
<path fill-rule="evenodd" clip-rule="evenodd" d="M400.05 132.281L403.278 138.075L352.838 164.004L350.121 158.185L400.05 132.281ZM350.512 158.318L352.977 163.598L402.868 137.951L399.931 132.679L350.512 158.318Z" fill="#393E46"/>
<path d="M403.261 152.963L410.553 163.791L411.768 163.206C412.078 163.754 412.829 165.166 413.095 165.606C413.361 166.047 413.755 165.814 413.95 165.745L415.945 164.714C416.378 164.258 416.088 163.772 415.889 163.587L414.758 161.666L420.741 158.573C421.138 159.218 421.971 160.577 422.119 160.848C422.266 161.119 422.582 161.139 422.722 161.114C423.312 160.889 424.601 160.183 424.857 160.012C425.113 159.841 425.049 159.638 425.006 159.452L423.545 156.935C424.13 156.517 424.122 155.99 424.06 155.701L416.939 145.267C415.367 143.612 413.467 143.881 412.714 144.222L403.51 148.98C401.844 150.304 402.65 152.186 403.261 152.963Z" fill="#393E46"/>
<path fill-rule="evenodd" clip-rule="evenodd" d="M402.648 151.165C402.715 151.87 403.057 152.514 403.353 152.889L403.355 152.892L410.592 163.639L411.717 163.097L411.792 163.063L411.838 163.165L411.869 163.147C411.999 163.375 412.201 163.746 412.412 164.135C412.716 164.692 413.039 165.285 413.195 165.545C413.252 165.639 413.311 165.69 413.365 165.717C413.419 165.744 413.477 165.753 413.538 165.748C413.6 165.743 413.665 165.725 413.729 165.702C413.761 165.69 413.792 165.678 413.821 165.666L413.827 165.664C413.851 165.654 413.877 165.644 413.901 165.635L415.869 164.617C416.046 164.424 416.07 164.235 416.035 164.074C415.998 163.902 415.892 163.754 415.805 163.674L415.793 163.662L414.589 161.618L420.782 158.417L420.84 158.511C421.237 159.154 422.072 160.516 422.221 160.791C422.277 160.893 422.364 160.949 422.456 160.978C422.545 161.006 422.634 161.006 422.689 160.998C422.978 160.887 423.435 160.661 423.857 160.438C424.286 160.211 424.666 159.995 424.789 159.913C424.891 159.845 424.917 159.782 424.923 159.725C424.93 159.661 424.915 159.595 424.895 159.506C424.894 159.503 424.893 159.499 424.892 159.496L423.385 156.901L423.473 156.838C423.745 156.644 423.873 156.43 423.929 156.236C423.982 156.052 423.972 155.878 423.946 155.749L416.844 145.341C415.319 143.743 413.485 144.005 412.764 144.329L403.573 149.081C402.782 149.713 402.582 150.47 402.648 151.165ZM411.717 163.362C411.841 163.584 412.014 163.902 412.196 164.235C412.502 164.799 412.833 165.406 412.991 165.668C413.067 165.794 413.157 165.879 413.258 165.93C413.358 165.981 413.461 165.992 413.556 165.985C413.649 165.978 413.737 165.952 413.81 165.926C413.847 165.913 413.881 165.899 413.911 165.887L413.914 165.886C413.943 165.874 413.967 165.864 413.988 165.857L413.995 165.854L416.015 164.81L416.029 164.796C416.274 164.538 416.32 164.263 416.268 164.024C416.221 163.802 416.091 163.619 415.981 163.512L414.922 161.714L420.695 158.729C421.112 159.406 421.874 160.65 422.012 160.905C422.104 161.073 422.248 161.163 422.386 161.205C422.52 161.247 422.654 161.246 422.74 161.231L422.751 161.23L422.762 161.226C423.065 161.11 423.54 160.874 423.968 160.648C424.396 160.422 424.787 160.2 424.921 160.111C425.075 160.008 425.145 159.885 425.16 159.751C425.172 159.643 425.146 159.535 425.127 159.453C425.124 159.444 425.122 159.434 425.12 159.425L425.116 159.408L423.698 156.966C423.956 156.758 424.093 156.525 424.157 156.303C424.228 156.058 424.208 155.833 424.174 155.676L424.17 155.653L417.029 145.191L417.023 145.184C415.408 143.484 413.45 143.757 412.663 144.113L412.66 144.115L403.443 148.879L403.434 148.887C402.566 149.576 402.338 150.419 402.411 151.187C402.483 151.947 402.848 152.631 403.163 153.033L410.509 163.944L411.717 163.362Z" fill="#393E46"/>
<path d="M413.374 159.387C413.255 160.117 412.568 160.614 411.837 160.496C411.107 160.378 410.61 159.69 410.728 158.96C410.846 158.229 411.534 157.732 412.265 157.85C412.995 157.968 413.492 158.656 413.374 159.387Z" fill="white"/>
<path d="M420.6 155.729C420.482 156.459 419.795 156.956 419.064 156.838C418.333 156.72 417.837 156.032 417.955 155.301C418.073 154.571 418.761 154.074 419.491 154.192C420.222 154.31 420.718 154.998 420.6 155.729Z" fill="white"/>
<path d="M344.382 34.8594L271.425 133.22L265.199 141.038L315.972 180.589L401.088 73.4037L395.858 70.0364C384.56 75.7343 382.627 66.8337 383.316 61.4607L378.59 58.3247C369.702 64.5594 363.829 57.0728 365.899 49.9983L361.488 47.0153C351.921 51.4703 347.362 42.3601 349.556 38.0927L344.382 34.8594Z" fill="white"/>
<path fill-rule="evenodd" clip-rule="evenodd" d="M344.305 34.4619L271.188 133.04L264.777 141.089L316.02 181.006L401.525 73.3324L395.875 69.6946L395.723 69.7715C392.925 71.1823 390.741 71.6719 389.054 71.5594C387.378 71.4478 386.174 70.7417 385.32 69.7108C384.459 68.6717 383.944 67.288 383.688 65.8183C383.433 64.3508 383.441 62.8172 383.609 61.4992L383.633 61.3156L378.584 57.9649L378.418 58.0814C374.049 61.1464 370.514 60.7895 368.327 58.9265C366.112 57.0397 365.175 53.5288 366.183 50.0827L366.244 49.8743L361.514 46.6748L361.361 46.7459C359.013 47.8394 356.995 48.0901 355.327 47.8079C353.66 47.5253 352.319 46.7068 351.33 45.6245C349.333 43.4407 348.792 40.2284 349.82 38.2296L349.945 37.986L344.305 34.4619ZM349.172 38.2052C348.171 40.473 348.841 43.7854 350.89 46.0264C351.962 47.1982 353.418 48.0887 355.228 48.3947C356.999 48.6944 359.087 48.4316 361.459 47.3561L365.553 50.1254C364.588 53.6881 365.562 57.3533 367.941 59.3797C370.364 61.4443 374.146 61.7323 378.592 58.6853L382.996 61.6081C382.843 62.9342 382.847 64.4543 383.101 65.9204C383.368 67.4522 383.913 68.9453 384.861 70.0906C385.817 71.2444 387.171 72.031 389.014 72.1534C390.813 72.2735 393.057 71.7601 395.838 70.3795L400.649 73.4768L315.921 180.174L265.618 140.989L271.66 133.403L344.456 35.2583L349.172 38.2052Z" fill="#393E46"/>
<path d="M223.219 104.335C223.219 128.568 243.746 148.213 269.068 148.213C294.391 148.213 314.918 128.568 314.918 104.335C314.918 80.1013 294.391 60.4561 269.068 60.4561C243.746 60.4561 223.219 80.1013 223.219 104.335Z" fill="white"/>
<path fill-rule="evenodd" clip-rule="evenodd" d="M269.068 147.617C244.05 147.617 223.814 128.215 223.814 104.335C223.814 80.4545 244.05 61.0514 269.068 61.0514C294.087 61.0514 314.323 80.4545 314.323 104.335C314.323 128.215 294.087 147.617 269.068 147.617ZM269.068 148.213C243.746 148.213 223.219 128.568 223.219 104.335C223.219 80.1013 243.746 60.4561 269.068 60.4561C294.391 60.4561 314.918 80.1013 314.918 104.335C314.918 128.568 294.391 148.213 269.068 148.213Z" fill="#393E46"/>
<path d="M299.621 88.9502C300.299 88.6694 303.102 88.4237 304.418 88.3359C308.256 91.0508 310.815 96.2928 311.615 98.5748C311.517 98.7309 311.305 99.1598 311.234 99.6278C311.147 100.213 311.849 101.529 312.053 102.524C312.258 103.518 309.947 106.707 309.538 107.263C309.128 107.819 305.618 109.779 305.267 110.042C304.916 110.305 304.009 111.358 303.863 113.728C303.716 116.097 301.61 116.946 300.44 117.707C299.504 118.315 299.601 120.047 299.767 120.836C300.381 125.429 298.977 125.371 298.86 125.576C298.767 125.739 298.315 125.858 298.1 125.897V125.722C298.041 124.639 296.374 121.597 295.028 120.544C293.683 119.491 294.18 118.584 293.566 116.946C292.951 115.308 292.951 115.015 293.068 114.489C293.185 113.962 297.603 110.978 298.831 110.803C300.06 110.627 302.4 110.598 303.248 110.305C304.097 110.013 305.823 107.965 306.203 107.468C306.583 106.97 306.203 106.005 305.823 105.332C305.443 104.659 303.746 104.601 302.02 104.337C300.294 104.074 296.549 99.189 295.876 98.2823C295.204 97.3755 296.198 96.1173 297.105 94.8888C298.012 93.6603 297.251 92.3729 297.105 91.5831C296.959 90.7934 298.773 89.3012 299.621 88.9502Z" fill="#F0F0F0"/>
<path d="M239.764 117.324C240.097 116.669 242.064 114.658 243.006 113.734C247.687 113.296 253.042 115.61 255.134 116.822C255.162 117.003 255.28 117.467 255.531 117.868C255.845 118.37 259.121 115.506 259.925 116.128C260.727 116.749 262.979 121.816 263.03 122.505C263.081 123.193 260.728 129.565 260.633 129.993C260.538 130.422 259.956 131.289 261.387 133.182C262.819 135.076 259.499 137.279 259.106 138.619C258.792 139.69 263.614 138.127 264.254 138.619C267.71 141.705 264.494 144.189 264.43 144.416C264.371 144.62 263.075 145.153 262.937 145.322L262.265 145.147C261.855 145.205 258.553 144.219 256.846 144.295C255.138 144.372 254.926 143.36 253.393 142.517C251.86 141.673 251.951 141.043 251.416 140.975C236.902 139.12 240.443 132.623 241.261 131.69C242.079 130.757 249.701 130.767 250.154 129.993C250.607 129.219 254.395 129.993 255.134 129.291C255.588 128.86 255.122 127.705 254.395 127.442C253.669 127.179 253.084 126.519 251.602 127.442C250.121 128.366 244.098 127.095 242.997 126.845C241.896 126.595 241.832 124.992 241.721 123.469C241.609 121.946 240.194 121.465 239.568 120.96C238.943 120.456 239.349 118.143 239.764 117.324Z" fill="#F0F0F0"/>
<path d="M267.535 71.7699C264.454 71.2502 266.198 70.1585 265.233 67.0746C264.497 64.7189 262.093 63.9507 260.829 63.8387L259.527 63.6357C258.168 63.9593 254.048 65.1864 249.281 68.3175C242.577 72.7208 237.747 80.9922 236.388 87.0996C235.465 91.2509 249.143 104.798 264.67 100.364C273.947 97.7147 274.294 88.0136 274.403 84.959L274.404 84.9275C274.518 81.7338 277.541 82.2959 277.677 80.6111C277.813 78.9258 276.499 77.912 274.331 78.1401C272.164 78.3683 272.384 76.7717 271.339 73.8728C270.502 71.553 268.455 71.5044 267.535 71.7699Z" fill="#F0F0F0"/>
<path d="M346.044 50.4951L303.066 105.621L308.894 110.581L352.42 55.181L346.044 50.4951Z" fill="#F0F0F0"/>
<path fill-rule="evenodd" clip-rule="evenodd" d="M346.017 50.2891L352.634 55.1513L308.917 110.795L302.863 105.642L346.017 50.2891ZM303.273 105.6L308.874 110.367L352.209 55.2094L346.074 50.7004L303.273 105.6Z" fill="#393E46"/>
<path d="M350.911 67.2549L315.039 110.207L319.572 114.326L355.89 71.169L350.911 67.2549Z" fill="#F0F0F0"/>
<path fill-rule="evenodd" clip-rule="evenodd" d="M350.892 67.0488L356.106 71.1474L319.589 114.54L314.836 110.222L350.892 67.0488ZM315.248 110.193L319.56 114.112L355.68 71.1911L350.935 67.4615L315.248 110.193Z" fill="#393E46"/>
<path d="M361.838 84.8881L372.745 92.062L373.64 91.0526C374.138 91.4383 375.376 92.4503 375.791 92.7545C376.206 93.0583 376.479 92.6911 376.633 92.552L378.075 90.8312C378.299 90.2435 377.844 89.9074 377.588 89.8129L375.804 88.4777L380.129 83.3149C380.745 83.7563 382.037 84.6883 382.278 84.8813C382.518 85.0744 382.817 84.97 382.937 84.8939C383.395 84.4583 384.311 83.3099 384.481 83.053C384.651 82.796 384.514 82.6336 384.402 82.4783L382.082 80.7211C382.46 80.1095 382.25 79.6267 382.082 79.3841L371.483 72.5077C369.395 71.5883 367.746 72.5698 367.183 73.1755L360.53 81.1184C359.504 82.9819 360.975 84.4079 361.838 84.8881Z" fill="#393E46"/>
<path fill-rule="evenodd" clip-rule="evenodd" d="M360.582 83.4659C360.916 84.0905 361.481 84.5522 361.898 84.7839L361.901 84.7862L372.726 91.9061L373.555 90.971L373.611 90.9111L373.692 90.9872L373.715 90.9588C373.922 91.119 374.252 91.3832 374.597 91.6599C375.092 92.0568 375.619 92.4794 375.863 92.6585C375.953 92.7237 376.026 92.7476 376.087 92.7521C376.147 92.7561 376.203 92.7413 376.258 92.7134C376.314 92.6846 376.366 92.6432 376.417 92.5973C376.442 92.5743 376.465 92.5514 376.488 92.5284L376.492 92.5248C376.511 92.5059 376.53 92.4866 376.549 92.4695L377.972 90.7703C378.06 90.5241 378.01 90.3401 377.916 90.2051C377.815 90.0602 377.659 89.9657 377.549 89.9243L377.533 89.9184L375.633 88.4978L380.11 83.1536L380.2 83.2179C380.814 83.6585 382.11 84.5927 382.354 84.7884C382.445 84.8613 382.546 84.8793 382.643 84.8699C382.736 84.8613 382.818 84.8276 382.866 84.7992C383.089 84.585 383.424 84.1994 383.727 83.8308C384.035 83.4569 384.302 83.1099 384.384 82.9871C384.452 82.8849 384.451 82.8161 384.435 82.7612C384.417 82.7 384.377 82.6446 384.324 82.5713C384.322 82.5681 384.32 82.5654 384.318 82.5627L381.926 80.7506L381.983 80.6583C382.159 80.3748 382.194 80.1278 382.171 79.928C382.149 79.7367 382.072 79.581 381.998 79.4708L371.428 72.6132C369.405 71.7267 367.813 72.6767 367.274 73.2545L360.63 81.1857C360.145 82.0745 360.253 82.8503 360.582 83.4659ZM373.657 91.2153C373.857 91.3724 374.14 91.5987 374.436 91.8363C374.937 92.2377 375.476 92.6702 375.723 92.8506C375.841 92.9375 375.957 92.9816 376.07 92.9897C376.182 92.9973 376.282 92.9685 376.366 92.9253C376.45 92.883 376.52 92.8254 376.578 92.7728C376.606 92.7467 376.633 92.7206 376.656 92.6976L376.658 92.6958C376.68 92.6733 376.699 92.6553 376.715 92.6405L376.721 92.6351L378.181 90.8922L378.188 90.8738C378.315 90.5417 378.25 90.2694 378.111 90.0692C377.981 89.8824 377.791 89.7641 377.648 89.7074L375.977 88.4577L380.151 83.4762C380.796 83.9388 381.979 84.7925 382.205 84.9743C382.355 85.0944 382.523 85.121 382.666 85.107C382.807 85.0935 382.929 85.0413 383.003 84.9945L383.013 84.9882L383.021 84.9801C383.256 84.7569 383.603 84.3555 383.911 83.982C384.218 83.6085 384.493 83.253 384.582 83.1189C384.685 82.9646 384.701 82.8237 384.664 82.6941C384.633 82.5902 384.567 82.5006 384.518 82.4327C384.512 82.4246 384.506 82.4165 384.501 82.4088L384.49 82.3944L382.24 80.6894C382.397 80.3982 382.434 80.1309 382.407 79.9005C382.378 79.6476 382.273 79.4478 382.181 79.316L382.168 79.2966L371.542 72.4026L371.533 72.399C369.387 71.454 367.687 72.4616 367.098 73.0947L367.096 73.097L360.433 81.0507L360.427 81.0611C359.893 82.0317 360.008 82.8971 360.372 83.5784C360.732 84.2507 361.332 84.7412 361.778 84.99L372.768 92.2184L373.657 91.2153Z" fill="#393E46"/>
<path d="M373.643 86.9095C373.816 87.629 373.373 88.3526 372.653 88.5259C371.934 88.6991 371.211 88.2559 371.038 87.5368C370.864 86.8172 371.307 86.0936 372.027 85.9204C372.746 85.7471 373.47 86.1899 373.643 86.9095Z" fill="white"/>
<path d="M378.9 80.7444C379.074 81.464 378.631 82.1876 377.911 82.3604C377.192 82.5336 376.469 82.0908 376.295 81.3713C376.122 80.6522 376.565 79.9286 377.284 79.7553C378.004 79.5821 378.728 80.0249 378.9 80.7444Z" fill="white"/>
<path d="M121.504 256.836C133.776 242.552 146.048 228.269 157.946 213.998C156.871 213.144 155.796 212.292 154.069 211.422C142.027 225.956 129.987 240.493 117.945 255.027C119.096 256.14 120.246 257.252 121.504 256.836Z" fill="#393E46"/>
<path d="M146.403 253.345L120.208 230.69C118.855 229.521 116.828 229.686 115.677 231.06L68.3528 287.519C67.2022 288.892 67.3646 290.952 68.7173 292.122L94.9118 314.778C96.2641 315.946 98.2922 315.782 99.4429 314.408L146.767 257.949C147.918 256.575 147.755 254.514 146.403 253.345Z" fill="white"/>
<path fill-rule="evenodd" clip-rule="evenodd" d="M146.208 253.57C147.437 254.632 147.586 256.508 146.539 257.758L99.2147 314.217L99.4429 314.408L146.767 257.949C147.918 256.575 147.755 254.514 146.403 253.345L120.208 230.69C118.855 229.521 116.828 229.686 115.677 231.06L68.3528 287.519C67.2022 288.892 67.3646 290.952 68.7173 292.122L94.9118 314.778C96.2641 315.946 98.2922 315.782 99.4429 314.408L99.2147 314.217C98.1703 315.463 96.3329 315.612 95.1062 314.552L68.9122 291.897C67.6828 290.834 67.5343 288.959 68.581 287.71L115.905 231.251C116.949 230.005 118.787 229.856 120.013 230.916L146.208 253.57Z" fill="#393E46"/>
<path fill-rule="evenodd" clip-rule="evenodd" d="M106.45 272.22C97.8667 282.404 89.283 292.589 80.6992 302.772L81.61 303.54C90.2545 293.284 98.899 283.027 107.544 272.771L107.593 272.712C116.221 262.475 124.849 252.238 133.477 242.002L132.567 241.234C123.946 251.462 115.325 261.69 106.704 271.919L106.45 272.22Z" fill="#393E46"/>
<path fill-rule="evenodd" clip-rule="evenodd" d="M102.344 268.228C93.6992 278.485 85.0547 288.741 76.4102 298.997L77.3205 299.765C85.8863 289.603 94.4516 279.44 103.017 269.277L103.254 268.996C111.899 258.739 120.543 248.483 129.188 238.227L128.278 237.459C119.633 247.715 110.988 257.972 102.344 268.228Z" fill="#393E46"/>
<path fill-rule="evenodd" clip-rule="evenodd" d="M97.5194 264.207C88.8997 274.434 80.2799 284.661 71.6602 294.888L72.571 295.656C81.1876 285.433 89.8037 275.209 98.4203 264.986L98.5045 264.887C107.149 254.63 115.793 244.373 124.438 234.117L123.528 233.35C114.883 243.606 106.239 253.862 97.5937 264.119L97.5194 264.207Z" fill="#393E46"/>
<path fill-rule="evenodd" clip-rule="evenodd" d="M94.2191 261.357C85.5993 271.584 76.9796 281.811 68.3594 292.038L69.2702 292.806C77.8868 282.583 86.5034 272.359 95.12 262.136L95.2041 262.036C103.849 251.78 112.493 241.524 121.138 231.267L120.227 230.5C111.582 240.756 102.938 251.012 94.2933 261.269L94.2191 261.357Z" fill="#393E46"/>
<path d="M67.7357 290.896C78.105 299.959 88.4721 309.024 99.2073 318.13C98.8788 318.521 98.5499 318.91 98.207 319.338C97.3052 320.462 95.6573 320.588 94.5912 319.624L66.6449 294.385C66.0135 293.816 65.9748 292.827 66.5562 292.206C66.9788 291.757 67.3802 291.317 67.7357 290.896Z" fill="white"/>
<path fill-rule="evenodd" clip-rule="evenodd" d="M66.6449 294.385C66.0135 293.815 65.9748 292.827 66.5562 292.206C66.9036 291.837 67.2371 291.474 67.5417 291.122C67.6079 291.047 67.6722 290.971 67.7357 290.896L68.0993 291.214C78.3471 300.171 88.5977 309.13 99.2073 318.13C99.1835 318.159 99.1596 318.188 99.1358 318.216C98.8307 318.578 98.5247 318.941 98.207 319.338C97.3052 320.462 95.6573 320.588 94.5912 319.624L66.6449 294.385ZM97.9748 319.152C97.181 320.142 95.7306 320.253 94.791 319.404L66.8442 294.163C66.3375 293.707 66.3051 292.91 66.7736 292.41M97.9748 319.152C98.2533 318.804 98.5229 318.482 98.7888 318.166C88.2579 309.228 78.0789 300.332 67.904 291.439L67.7663 291.319" fill="#393E46"/>
<path d="M88.6394 322.78C86.3143 322.78 84.4297 320.9 84.4297 318.58C84.4297 316.259 86.3143 314.379 88.6394 314.379C90.9641 314.379 92.8487 316.259 92.8487 318.58C92.8487 320.9 90.9641 322.78 88.6394 322.78Z" fill="white"/>
<path fill-rule="evenodd" clip-rule="evenodd" d="M88.6394 322.483C86.4781 322.483 84.7276 320.735 84.7276 318.58C84.7276 316.425 86.4781 314.677 88.6394 314.677C90.8003 314.677 92.5513 316.425 92.5513 318.58C92.5513 320.735 90.8003 322.483 88.6394 322.483ZM84.4297 318.58C84.4297 320.9 86.3143 322.78 88.6394 322.78C90.9641 322.78 92.8487 320.9 92.8487 318.58C92.8487 316.259 90.9641 314.379 88.6394 314.379C86.3143 314.379 84.4297 316.259 84.4297 318.58Z" fill="#393E46"/>
<path d="M67.1785 304.006C64.8538 304.006 62.9688 302.125 62.9688 299.805C62.9688 297.485 64.8538 295.604 67.1785 295.604C69.5032 295.604 71.3883 297.485 71.3883 299.805C71.3883 302.125 69.5032 304.006 67.1785 304.006Z" fill="white"/>
<path fill-rule="evenodd" clip-rule="evenodd" d="M67.1785 303.709C65.0176 303.709 63.2667 301.96 63.2667 299.805C63.2667 297.65 65.0176 295.902 67.1785 295.902C69.3394 295.902 71.0904 297.65 71.0904 299.805C71.0904 301.96 69.3394 303.709 67.1785 303.709ZM62.9688 299.805C62.9688 302.125 64.8538 304.006 67.1785 304.006C69.5032 304.006 71.3883 302.125 71.3883 299.805C71.3883 297.485 69.5032 295.604 67.1785 295.604C64.8538 295.604 62.9688 297.485 62.9688 299.805Z" fill="#393E46"/>
<path d="M200.203 146.83C200.387 144.2 198.892 141.387 196.077 140.689C196.048 137.746 196.02 134.802 196.197 131.961C192.673 131.842 189.231 130.128 187.016 127.345C186.512 130.635 186.008 133.927 185.483 136.915C182.37 137.62 179.258 138.324 176.145 139.029C178.029 141.218 179.64 143.633 181.463 145.875C183.286 148.117 185.365 150.215 187.914 151.536C190.464 152.857 193.551 153.323 196.215 152.263C198.879 151.202 200.94 148.416 200.203 146.83Z" fill="white"/>
<path fill-rule="evenodd" clip-rule="evenodd" d="M199.901 146.886L199.933 146.955C200.23 147.593 199.985 148.561 199.245 149.567C198.52 150.551 197.383 151.477 196.105 151.986C193.542 153.006 190.546 152.564 188.051 151.272C185.555 149.978 183.507 147.917 181.694 145.687C180.905 144.716 180.155 143.713 179.402 142.704C179.29 142.554 179.178 142.404 179.065 142.254C178.297 141.227 177.518 140.2 176.69 139.211C178.083 138.895 179.475 138.58 180.868 138.265L180.879 138.262C182.436 137.91 183.992 137.558 185.549 137.205L185.742 137.161L185.776 136.966C186.268 134.171 186.74 131.111 187.211 128.038C189.414 130.512 192.598 132.05 195.882 132.244C195.724 135.002 195.752 137.85 195.779 140.686L195.781 140.923L196.005 140.978C198.647 141.632 200.083 144.287 199.906 146.809L199.901 146.886ZM196.179 132.258C196.185 132.159 196.191 132.06 196.197 131.961C196.098 131.958 195.999 131.953 195.9 131.947C192.612 131.753 189.424 130.177 187.27 127.653C187.183 127.552 187.099 127.449 187.016 127.345L187.01 127.383C186.992 127.502 186.973 127.622 186.955 127.741C186.472 130.899 185.987 134.047 185.483 136.915C183.926 137.267 182.37 137.62 180.814 137.972C179.367 138.3 177.92 138.627 176.473 138.955C176.364 138.979 176.254 139.004 176.145 139.029C176.218 139.114 176.29 139.2 176.363 139.285C177.343 140.445 178.253 141.663 179.163 142.881C179.916 143.89 180.669 144.899 181.463 145.875C183.286 148.117 185.365 150.215 187.914 151.536C190.464 152.857 193.551 153.323 196.215 152.263C198.879 151.202 200.94 148.416 200.203 146.83C200.387 144.2 198.892 141.387 196.077 140.689V140.689C196.05 137.848 196.022 135.007 196.179 132.258Z" fill="#393E46"/>
<path d="M191.746 108.834C194.757 110.165 197.159 113.014 198.185 116.341C198.432 117.142 198.973 117.793 199.689 118.111C200.745 118.577 201.668 119.426 202.271 120.582C202.531 121.079 202.414 121.728 201.99 122.06C201.979 122.069 201.969 122.076 201.96 122.083C201.355 122.538 201.09 123.367 201.33 124.125C201.947 126.072 202.172 128.216 202.036 130.46C201.995 131.137 201.719 131.768 201.27 132.235C199.142 134.45 196.102 135.605 193.176 135.255C189.92 134.866 186.894 132.626 185.272 129.235C183.534 130.027 181.301 129.092 180.493 127.232C179.685 125.373 180.432 122.889 182.206 122.074C181.2 118.996 181.789 115.359 183.698 112.844C185.609 110.33 188.772 109.028 191.746 108.834Z" fill="white"/>
<path fill-rule="evenodd" clip-rule="evenodd" d="M185.271 129.235C183.533 130.027 181.301 129.092 180.493 127.232C179.685 125.373 180.432 122.889 182.206 122.074C181.2 118.996 181.789 115.359 183.698 112.844C185.609 110.33 188.772 109.028 191.746 108.834C194.757 110.165 197.159 113.014 198.185 116.341C198.432 117.142 198.973 117.793 199.689 118.111C200.745 118.577 201.668 119.426 202.271 120.582C202.531 121.079 202.414 121.728 201.99 122.06C201.983 122.065 201.978 122.07 201.972 122.074C201.967 122.077 201.963 122.08 201.96 122.083C201.355 122.538 201.09 123.367 201.33 124.125C201.947 126.072 202.172 128.216 202.036 130.46C201.995 131.137 201.719 131.768 201.27 132.235C199.142 134.45 196.102 135.605 193.176 135.255C189.92 134.866 186.894 132.626 185.271 129.235ZM201.778 121.847C201.071 122.38 200.769 123.341 201.047 124.215C201.651 126.122 201.873 128.229 201.739 130.442C201.702 131.05 201.454 131.614 201.056 132.029C198.986 134.182 196.038 135.297 193.212 134.959C190.067 134.583 187.124 132.416 185.54 129.106L185.414 128.843L185.148 128.964C183.577 129.68 181.514 128.836 180.766 127.113C180.394 126.257 180.377 125.247 180.665 124.353C180.953 123.459 181.535 122.711 182.33 122.345L182.571 122.234L182.489 121.982C181.512 118.994 182.087 115.46 183.935 113.024C185.766 110.616 188.803 109.343 191.692 109.136C194.585 110.441 196.905 113.2 197.901 116.429C198.17 117.301 198.765 118.025 199.569 118.383L199.569 118.383C200.561 118.821 201.434 119.621 202.007 120.72V120.72C202.207 121.102 202.106 121.591 201.806 121.826L201.803 121.829L201.8 121.831C201.799 121.831 201.798 121.832 201.797 121.833L201.789 121.839C201.786 121.841 201.782 121.844 201.778 121.847Z" fill="#393E46"/>
<path d="M183.198 126.135C183.044 126.672 183.188 127.286 183.557 127.717C183.741 127.932 183.488 128.234 183.223 128.126C183.042 128.052 182.896 127.921 182.855 127.751C182.779 127.435 182.627 127.176 182.579 126.843C182.534 126.522 182.44 126.174 182.631 125.907C182.648 125.884 182.666 125.861 182.687 125.842C182.907 125.621 183.283 125.842 183.198 126.135Z" fill="#393E46"/>
<path d="M150.523 256.639L137.361 245.255C136.567 244.566 135.374 244.664 134.696 245.472L84.8886 304.894C84.6339 305.198 84.6694 305.656 84.97 305.916L99.0271 318.074C100.679 319.503 103.155 319.299 104.563 317.623L150.967 262.262C152.373 260.583 152.174 258.065 150.523 256.639Z" fill="white"/>
<path fill-rule="evenodd" clip-rule="evenodd" d="M150.328 256.864C151.856 258.183 152.041 260.515 150.739 262.071L104.335 317.432C103.033 318.982 100.747 319.168 99.222 317.849L85.1649 305.69C84.988 305.537 84.966 305.265 85.1167 305.085M85.1167 305.085L134.925 245.663C135.496 244.982 136.498 244.901 137.166 245.48L150.328 256.864M84.8886 304.894C84.6339 305.198 84.6694 305.656 84.97 305.916L99.0271 318.074C100.679 319.503 103.155 319.299 104.563 317.623L150.967 262.262C152.373 260.583 152.174 258.065 150.523 256.639L137.361 245.255C136.567 244.566 135.374 244.664 134.696 245.472L84.8886 304.894Z" fill="#393E46"/>
<path d="M134.267 261.254C136.005 262.656 137.762 264.065 139.636 265.526C140.304 266.047 140.403 267.034 139.852 267.681L138.064 269.779C137.548 270.384 136.654 270.467 136.038 269.967L130.681 265.603C130.048 265.087 129.949 264.15 130.457 263.506C131.042 262.762 131.652 262.035 132.329 261.356C132.856 260.83 133.688 260.787 134.267 261.254Z" fill="white"/>
<path fill-rule="evenodd" clip-rule="evenodd" d="M134.08 261.485C135.818 262.888 137.577 264.298 139.453 265.76C139.987 266.177 140.067 266.969 139.625 267.488H139.625L137.838 269.586C137.426 270.068 136.715 270.133 136.226 269.736M136.226 269.736L130.869 265.373C130.364 264.96 130.282 264.208 130.691 263.691C131.272 262.951 131.874 262.234 132.54 261.567C132.959 261.148 133.62 261.114 134.08 261.485M130.681 265.603L136.038 269.967C136.654 270.467 137.548 270.384 138.064 269.779L139.852 267.681C140.403 267.034 140.304 266.047 139.636 265.526C137.762 264.065 136.005 262.656 134.267 261.254C133.688 260.787 132.856 260.83 132.329 261.356C131.652 262.035 131.042 262.762 130.457 263.506C129.949 264.15 130.048 265.087 130.681 265.603Z" fill="#393E46"/>
<path opacity="0.3294" d="M189.295 223.194C192.562 234.109 192.608 245.746 189.414 256.679C188.989 258.131 187.303 258.939 185.754 258.449C182.351 257.376 179.596 254.69 178.342 251.667C176.744 247.809 177.179 243.534 178.228 239.535C179.274 235.538 180.908 231.657 181.682 227.612C182.064 225.614 183.058 223.718 184.363 222.246C185.818 220.605 188.685 221.153 189.295 223.194Z" fill="#ADFBFF"/>
<path d="M216.697 207.751C213.992 209.33 209.856 212.613 208.091 215.672C207.564 216.584 206.859 217.345 207.453 218.165C208.52 219.637 209.969 221.441 211.052 222.937C211.922 224.135 213.632 224.786 214.652 223.656C218.649 219.226 219.91 217.726 222.898 214.415C223.501 213.748 223.428 212.756 222.915 212.033C221.887 210.586 220.541 209.357 219.268 208.059C218.252 207.027 217.507 207.279 216.697 207.751Z" fill="#393E46"/>
<path d="M207.576 206.848C207.713 207.619 207.648 208.596 207.404 209.284C206.676 211.326 206.854 214.188 207.876 215.912C208.459 215.256 209.043 214.598 209.556 213.746C210.427 213.31 211.412 213.605 212.146 214.522C212.879 215.44 213.343 216.959 213.169 218.546C213.332 219.51 214.106 219.98 214.585 219.409C215.066 218.836 215.077 217.429 214.607 216.833C214.83 218.053 215.812 218.635 216.426 217.91C217.039 217.185 217.075 215.403 216.49 214.611C216.528 215.383 216.99 215.986 217.441 215.933C217.891 215.88 218.284 215.251 218.399 214.501C218.514 213.752 218.376 212.926 218.093 212.321C218.335 213.403 219.244 213.831 219.775 213.113C220.305 212.396 220.273 210.781 219.746 210.053C218.178 207.562 216.072 205.817 214.018 205.419C211.932 206.132 209.815 206.283 207.576 206.848Z" fill="#F0F0F0"/>
<path fill-rule="evenodd" clip-rule="evenodd" d="M207.404 209.284C207.648 208.596 207.713 207.619 207.576 206.848C208.489 206.618 209.381 206.456 210.26 206.297C211.536 206.066 212.783 205.841 214.018 205.419C216.072 205.817 218.178 207.562 219.746 210.053C220.273 210.781 220.305 212.396 219.775 213.113C219.471 213.523 219.045 213.559 218.69 213.313C218.537 213.208 218.397 213.049 218.286 212.846C218.343 213.046 218.385 213.258 218.411 213.474C218.451 213.814 218.451 214.165 218.399 214.501C218.284 215.251 217.891 215.88 217.441 215.933C217.358 215.943 217.275 215.93 217.195 215.899C217.079 215.854 216.968 215.77 216.869 215.656C216.889 215.795 216.902 215.939 216.906 216.083C216.928 216.785 216.765 217.509 216.426 217.91C216.083 218.315 215.626 218.312 215.249 218.018C215.129 217.924 215.016 217.8 214.919 217.65C214.944 217.814 214.955 217.985 214.952 218.155C214.944 218.644 214.822 219.128 214.585 219.409C214.106 219.98 213.332 219.51 213.169 218.546C213.343 216.959 212.879 215.44 212.146 214.522C211.412 213.605 210.427 213.31 209.556 213.746C209.104 214.497 208.597 215.097 208.084 215.678C208.015 215.756 207.945 215.834 207.876 215.912C207.823 215.822 207.772 215.73 207.724 215.635C206.838 213.894 206.713 211.22 207.404 209.284ZM207.937 215.394C207.572 214.633 207.348 213.686 207.281 212.697C207.202 211.544 207.336 210.36 207.684 209.384C207.918 208.724 207.997 207.835 207.909 207.072C208.721 206.878 209.516 206.734 210.309 206.591C210.509 206.555 210.709 206.519 210.908 206.482C211.955 206.288 212.998 206.075 214.038 205.727C215.956 206.131 217.969 207.789 219.494 210.211L219.499 210.22L219.505 210.228C219.718 210.522 219.852 211.038 219.859 211.591C219.866 212.146 219.745 212.652 219.535 212.936C219.435 213.071 219.333 213.133 219.245 213.157C219.157 213.181 219.058 213.172 218.952 213.123C218.82 213.06 218.678 212.931 218.563 212.731C218.508 212.541 218.44 212.361 218.363 212.195L217.803 212.386C217.849 212.594 217.919 212.786 218.008 212.956C218.136 213.424 218.181 213.96 218.105 214.456C218.052 214.796 217.939 215.099 217.797 215.315C217.65 215.54 217.505 215.626 217.406 215.638C217.349 215.644 217.255 215.62 217.149 215.519C217.08 215.11 216.944 214.724 216.729 214.434L216.143 213.64L216.192 214.626C216.214 215.064 216.356 215.466 216.571 215.758C216.576 215.764 216.58 215.771 216.585 215.777C216.604 215.939 216.613 216.108 216.61 216.28C216.598 216.885 216.441 217.431 216.198 217.717C216.085 217.852 215.969 217.909 215.868 217.925C215.766 217.941 215.647 217.919 215.521 217.845C215.412 217.78 215.301 217.676 215.202 217.537C215.142 217.202 215.026 216.884 214.84 216.649L214.314 216.887C214.373 217.213 214.484 217.507 214.633 217.754C214.648 217.873 214.656 217.998 214.655 218.127C214.651 218.595 214.533 219.008 214.358 219.218C214.277 219.313 214.201 219.347 214.141 219.356C214.079 219.365 214.002 219.352 213.913 219.299C213.737 219.192 213.546 218.934 213.47 218.536C213.638 216.894 213.16 215.314 212.378 214.337C211.582 213.341 210.452 212.964 209.422 213.48L209.345 213.519L209.3 213.593C208.885 214.284 208.42 214.844 207.937 215.394Z" fill="#393E46"/>
<path d="M203.678 175.776C208.414 185.274 213.151 194.77 218.248 204.51C213.879 207.46 208.268 208.679 202.992 207.818C200.116 201.386 197.241 194.954 195.073 189.296C194.783 183.306 198.827 177.346 203.678 175.776Z" fill="#393E46"/>
<path fill-rule="evenodd" clip-rule="evenodd" d="M217.86 204.41C213.632 207.182 208.265 208.334 203.198 207.549C200.35 201.181 197.514 194.829 195.368 189.235C195.239 186.325 196.154 183.417 197.697 181.041C199.197 178.732 201.274 176.946 203.528 176.142C208.187 185.485 212.85 194.83 217.86 204.41ZM203.678 175.776C208.414 185.274 213.151 194.77 218.248 204.51C213.879 207.46 208.268 208.679 202.992 207.818C200.116 201.386 197.241 194.954 195.073 189.296C194.783 183.306 198.827 177.346 203.678 175.776Z" fill="#393E46"/>
<path d="M209.877 192.834C208.811 192.484 207.489 192.977 207.013 193.903C206.537 194.829 206.976 196.055 207.964 196.557C208.952 197.059 210.346 196.767 210.984 195.922C211.622 195.079 211.64 193.413 209.877 192.834Z" fill="white"/>
<path d="M207.447 183.596C208.021 184.761 208.594 185.926 209.168 187.093C208.182 187.34 207.036 186.905 206.545 186.097C206.053 185.289 206.262 184.188 207.447 183.596Z" fill="white"/>
<path d="M214.33 253.418C214.587 253.442 217.096 254.318 216.979 254.551C214.239 260.06 208.848 264.294 202.985 265.795C196.951 267.341 190.263 265.995 185.263 262.231C181.291 259.24 175.238 255.597 171.522 252.603C171.489 252.574 171.45 252.553 171.408 252.539C168.225 251.462 166.841 252.507 163.524 252.999C160.186 253.494 156.758 254.073 153.469 253.302C150.211 252.539 145.004 249.42 146.145 246.425C146.166 246.372 146.198 246.324 146.24 246.286C151.818 241.08 159.696 236.404 166.859 233.894C174.047 231.374 183.036 232.451 187.76 238.505C194.63 247.309 203.194 252.304 214.33 253.418Z" fill="#393E46"/>
<path d="M212.207 253.807C213.894 267.282 215.579 280.76 217.522 293.894C217.564 294.184 217.631 294.468 217.725 294.748C219.909 301.27 223.121 307.433 227.142 312.85C228.039 313.007 228.937 313.167 229.822 313.259C229.696 313.673 229.569 314.086 229.487 314.323C226.415 315.214 223.105 315.251 219.956 314.747C216.854 310.982 213.749 307.214 210.533 303.507C209.69 302.534 209.281 301.244 209.421 299.955C209.536 298.904 209.698 297.838 209.979 296.73C210.402 295.066 210.031 293.298 209.014 291.924C200.623 280.593 196.405 266.119 197.455 251.972C201.829 252.035 206.201 252.099 212.207 253.807Z" fill="#F0F0F0"/>
<path fill-rule="evenodd" clip-rule="evenodd" d="M226.973 313.123L227.166 313.157C227.918 313.289 228.678 313.422 229.432 313.514C229.367 313.727 229.306 313.924 229.255 314.08C226.312 314.904 223.146 314.943 220.114 314.471C217.035 310.734 213.952 306.994 210.758 303.311C209.969 302.401 209.586 301.193 209.717 299.987C209.831 298.945 209.992 297.894 210.268 296.803C210.713 295.05 210.321 293.191 209.254 291.747C200.96 280.548 196.763 266.26 197.732 252.273C201.961 252.336 206.195 252.431 211.936 254.039L211.945 254.112C213.621 267.498 215.297 280.886 217.227 293.937M212.207 253.807L212.241 254.073C213.916 267.46 215.591 280.846 217.522 293.894C217.564 294.184 217.631 294.468 217.725 294.748C219.909 301.27 223.121 307.433 227.142 312.85L227.214 312.863C227.986 312.998 228.758 313.133 229.521 313.225C229.621 313.237 229.721 313.248 229.822 313.259C229.792 313.356 229.762 313.454 229.733 313.549C229.639 313.857 229.549 314.142 229.487 314.323C226.415 315.214 223.105 315.251 219.956 314.747C216.854 310.982 213.749 307.214 210.533 303.507C209.69 302.534 209.281 301.244 209.421 299.955C209.536 298.904 209.698 297.838 209.979 296.73C210.402 295.066 210.031 293.298 209.014 291.924C200.623 280.593 196.405 266.119 197.455 251.972C201.829 252.035 206.201 252.099 212.207 253.807ZM217.443 294.842C219.636 301.394 222.863 307.585 226.902 313.028L226.973 313.123M217.443 294.842C217.343 294.546 217.272 294.244 217.227 293.937L217.443 294.842Z" fill="#393E46"/>
<path d="M179.006 243.15C178.564 248.869 175.942 254.387 171.983 258.164C164.255 270.116 158.974 283.692 156.448 297.811C156.552 302.499 156.656 307.19 157.107 311.767C158.023 312.692 158.939 313.615 160.079 314.693C159.517 315.669 159.464 313.761 158.902 314.737C156.938 314.103 155.129 313.937 153.203 313.388C151.39 310.475 149.874 308.32 148.38 304.978C148.018 301.547 147.357 298.644 146.773 295.148C147.583 293.61 148.393 292.074 150.346 290.85C147.104 276.344 150.476 260.453 159.878 248.611C156.973 245.728 157.745 240.406 160.684 237.56C163.624 234.715 168 233.948 172.052 234.231C176.104 234.513 180.041 235.7 184.461 235.76C182.565 238.078 179.255 239.929 179.006 243.15Z" fill="#F0F0F0"/>
<path fill-rule="evenodd" clip-rule="evenodd" d="M178.709 243.127C178.272 248.775 175.682 254.224 171.778 257.948L171.752 257.973L171.733 258.002C163.983 269.988 158.688 283.602 156.155 297.759L156.15 297.788L156.151 297.825C156.254 302.509 156.359 307.209 156.811 311.796L156.821 311.902L156.896 311.977C157.595 312.683 158.296 313.39 159.098 314.166C159.029 314.183 158.966 314.216 158.91 314.259C158.864 314.294 158.82 314.337 158.78 314.387C157.857 314.102 156.969 313.915 156.097 313.739C156.004 313.72 155.911 313.701 155.818 313.683C155.009 313.52 154.212 313.36 153.395 313.133C153.068 312.609 152.752 312.11 152.444 311.625C151.069 309.458 149.864 307.56 148.672 304.9C148.424 302.575 148.039 300.483 147.637 298.296C147.452 297.294 147.264 296.271 147.083 295.198C147.876 293.694 148.661 292.257 150.504 291.103L150.683 290.991L150.637 290.785C147.413 276.364 150.767 260.566 160.111 248.796L160.277 248.587L160.088 248.4C158.713 247.036 158.195 245.081 158.386 243.1C158.577 241.118 159.476 239.144 160.891 237.774C163.744 235.013 168.018 234.247 172.031 234.528C173.771 234.649 175.489 234.939 177.251 235.235C177.523 235.281 177.796 235.327 178.07 235.372C179.92 235.68 181.822 235.967 183.822 236.041C183.458 236.438 183.056 236.828 182.639 237.223C182.531 237.325 182.422 237.428 182.313 237.531C181.837 237.978 181.351 238.435 180.9 238.911C179.789 240.082 178.841 241.413 178.709 243.127ZM184.212 236.053C183.701 236.634 183.11 237.189 182.514 237.75C180.868 239.298 179.181 240.886 179.006 243.15C178.564 248.869 175.942 254.387 171.983 258.164C164.255 270.116 158.974 283.692 156.448 297.811V297.813C156.552 302.501 156.656 307.191 157.107 311.767C158.023 312.692 158.939 313.615 160.079 314.693C159.798 315.181 159.644 314.948 159.49 314.715C159.337 314.482 159.183 314.25 158.902 314.737C157.822 314.389 156.79 314.181 155.759 313.974C154.914 313.805 154.071 313.635 153.203 313.388C152.857 312.833 152.522 312.304 152.196 311.79C150.812 309.609 149.59 307.682 148.38 304.978C148.134 302.646 147.75 300.558 147.346 298.363C147.155 297.328 146.96 296.268 146.773 295.148C147.583 293.61 148.393 292.074 150.346 290.85C147.104 276.344 150.476 260.453 159.878 248.611C156.973 245.728 157.745 240.406 160.684 237.56C163.624 234.715 168 233.948 172.052 234.231C173.807 234.353 175.541 234.645 177.302 234.942C179.488 235.31 181.717 235.686 184.08 235.752C184.207 235.755 184.334 235.758 184.461 235.76C184.381 235.858 184.298 235.956 184.212 236.053Z" fill="#393E46"/>
<path d="M210.083 294.023C212.107 295.579 213.12 298.332 212.906 300.895C212.804 302.122 213.157 303.342 213.907 304.309C215.64 306.549 217.393 308.796 219.25 311.08C220.445 312.551 222.383 313.168 224.19 312.656C225.885 312.175 227.611 311.717 231.447 313.114C231.988 313.31 232.542 313.474 233.109 313.563C233.673 313.651 234.196 314.031 234.43 314.563C234.732 315.255 234.514 316.141 233.056 316.872C229.085 317.718 224.953 317.887 220.839 317.682C219.853 317.632 218.921 317.213 218.21 316.517C215.707 314.065 213.242 311.627 210.891 309.102C210.532 308.717 209.895 308.987 209.913 309.518C209.989 311.71 210.088 313.899 210.311 316.073C210.376 316.715 209.878 317.274 209.243 317.256C208.856 317.245 208.449 317.249 208.005 317.284C207.659 317.313 207.355 317.047 207.328 316.696C207.127 313.835 206.934 310.981 206.888 308.218C206.872 307.241 206.627 306.284 206.193 305.409C204.805 302.603 205.753 298.453 209.987 294.032C210.012 294.003 210.053 294 210.083 294.023Z" fill="#393E46"/>
<path d="M150.122 289.353C151.51 291.228 151.794 294.058 151.083 296.476C150.742 297.633 150.788 298.87 151.222 299.94C152.222 302.415 153.237 304.901 154.333 307.442C155.038 309.077 156.101 309.581 157.734 309.431C159.057 309.431 160.234 309.91 164.221 311.694C164.679 312.002 165.072 312.245 165.533 312.438C166.297 312.757 166.355 313.092 166.442 313.647C166.553 314.367 166.187 315.177 164.801 315.601C161.27 315.663 157.742 315.046 154.306 314.071C153.483 313.838 152.783 313.26 152.324 312.459C150.716 309.636 149.138 306.832 147.676 303.968C147.454 303.531 146.86 303.671 146.764 304.181C146.374 306.298 146.002 308.416 145.741 310.543C145.663 311.17 145.125 311.612 144.591 311.476C144.266 311.393 143.921 311.321 143.54 311.271C143.241 311.232 143.037 310.921 143.09 310.578C143.513 307.797 143.942 305.025 144.476 302.364C144.665 301.423 144.657 300.46 144.473 299.539C143.882 296.586 145.431 292.539 150.038 289.344C150.067 289.323 150.102 289.325 150.122 289.353Z" fill="#393E46"/>
<path d="M203.267 184.946C204.209 208.117 209.242 231.11 218.686 252.962C218.943 253.56 218.738 254.26 218.201 254.615C210.943 259.415 201.483 260.653 193.278 257.812C185.606 255.156 179.21 248.996 176.971 241.235C176.586 239.899 175.791 246.377 175.137 248.207C173.83 251.868 167.529 256.797 161.149 249.515C159.961 250.123 157.488 250.299 156.935 248.333C155.005 249.776 151.475 250.561 148.194 248.636C147.756 248.572 145.826 246.735 146.145 246.424C154.346 238.442 155.627 226.112 156.982 214.645C158.547 201.406 160.604 186.692 171.965 179.417C178.541 176.18 190.192 183.576 203.267 184.946Z" fill="white"/>
<path fill-rule="evenodd" clip-rule="evenodd" d="M156.679 248.515C154.703 249.838 151.334 250.478 148.194 248.636C147.756 248.572 145.826 246.735 146.145 246.424C154.155 238.628 155.563 226.685 156.887 215.449C156.919 215.181 156.951 214.912 156.982 214.645C158.547 201.406 160.604 186.692 171.965 179.417C175.801 177.529 181.364 179.259 187.929 181.3C192.619 182.758 197.819 184.375 203.267 184.946C204.209 208.117 209.242 231.11 218.686 252.962C218.943 253.56 218.738 254.26 218.201 254.615C210.943 259.415 201.483 260.653 193.278 257.812C185.636 255.166 179.259 249.044 176.998 241.324C176.996 241.319 176.994 241.314 176.993 241.309C176.986 241.285 176.979 241.26 176.971 241.235C176.893 240.962 176.797 241.015 176.689 241.288C176.687 241.294 176.684 241.3 176.682 241.305C176.478 241.835 176.23 243.131 175.971 244.492C175.694 245.94 175.404 247.461 175.137 248.207C173.83 251.868 167.529 256.797 161.149 249.515C160.024 250.091 157.746 250.279 157.038 248.627C156.999 248.535 156.964 248.437 156.935 248.333C156.852 248.395 156.767 248.456 156.679 248.515ZM218.412 253.08C218.614 253.547 218.452 254.092 218.037 254.367C210.855 259.116 201.491 260.341 193.375 257.53C185.784 254.903 179.466 248.81 177.258 241.152C177.232 241.066 177.19 240.942 177.098 240.856C177.043 240.804 176.954 240.753 176.84 240.757C176.733 240.762 176.656 240.814 176.612 240.853C176.531 240.924 176.478 241.026 176.444 241.103C176.404 241.191 176.366 241.297 176.33 241.415C176.185 241.881 176.026 242.64 175.863 243.477C175.801 243.789 175.74 244.112 175.677 244.44C175.571 244.999 175.462 245.566 175.354 246.098C175.18 246.945 175.012 247.673 174.856 248.108C174.232 249.856 172.398 251.93 169.958 252.68C167.554 253.419 164.501 252.888 161.373 249.319L161.22 249.144L161.013 249.25C160.47 249.528 159.618 249.71 158.848 249.595C158.093 249.481 157.458 249.093 157.221 248.253L157.104 247.835L156.757 248.095C154.909 249.476 151.509 250.236 148.345 248.379L148.294 248.35L148.237 248.341C148.246 248.342 148.212 248.336 148.121 248.28C148.041 248.232 147.941 248.162 147.828 248.073C147.602 247.896 147.339 247.659 147.098 247.414C146.855 247.167 146.645 246.922 146.518 246.728C146.472 246.659 146.443 246.605 146.426 246.566C150.533 242.536 152.904 237.431 154.418 231.92C155.868 226.641 156.537 220.969 157.183 215.491C157.215 215.22 157.247 214.949 157.278 214.679C158.061 208.057 158.964 201.099 161.082 194.891C163.196 188.693 166.514 183.267 172.111 179.677C173.68 178.91 175.571 178.763 177.757 179.019C179.95 179.275 182.41 179.932 185.093 180.739C185.983 181.007 186.898 181.291 187.833 181.582C192.449 183.018 197.593 184.617 202.98 185.215C203.95 208.334 208.989 231.274 218.412 253.08ZM146.407 246.512C146.407 246.51 146.406 246.508 146.406 246.508C146.406 246.508 146.406 246.509 146.407 246.512Z" fill="#393E46"/>
<path d="M137.61 265.937C149.229 252.412 160.843 238.887 172.135 225.375C172.862 224.505 172.696 223.182 171.768 222.539C171.531 222.374 171.281 222.208 171.014 222.044C170.21 221.543 169.169 221.711 168.561 222.443L134.649 263.379C133.911 264.27 134.113 265.613 135.075 266.248C135.122 266.28 135.171 266.31 135.218 266.338C136.005 266.811 137.011 266.634 137.61 265.937Z" fill="#393E46"/>
<path d="M155.717 210.337C161.436 214.017 167.163 217.705 173.061 221.586C174.201 222.335 174.527 224.078 173.741 225.295C173.471 225.714 173.211 226.131 172.965 226.548C172.367 227.563 171.183 227.844 170.294 227.176L153.473 214.57C152.633 213.941 152.381 212.638 152.923 211.664C153.143 211.268 153.399 210.9 153.714 210.576C154.263 210.009 155.071 209.922 155.717 210.337Z" fill="#2D1E0E"/>
<path d="M197.384 141.245C197.324 141.229 197.289 141.307 197.338 141.346C198.931 142.557 199.099 145.348 197.572 146.69C195.968 148.1 194.347 145.837 192.268 145.403C186.483 144.201 184.816 137.96 178.546 138.26C178.424 138.266 178.223 138.273 178.104 138.305C160.195 143.022 162.451 167.972 162.451 209.931C162.451 211.719 164.017 213.112 165.771 213.264C168.886 213.533 172.002 213.75 175.111 213.748C176.409 213.748 177.507 212.769 177.685 211.462C178.964 202.177 180.253 192.904 181.681 183.799C188.4 185.581 195.521 185.772 202.559 185.547C202.9 185.537 203.192 185.289 203.263 184.95C203.64 183.153 204.004 181.352 204.244 179.492C204.411 178.199 205.096 177.029 206.138 176.267C209.606 173.726 211.774 169.369 211.585 165.012C211.385 160.405 208.561 156.031 204.824 153.992C204.042 153.566 203.532 152.764 203.45 151.867C203.36 150.87 203.484 149.827 203.855 148.775C204.006 148.35 203.993 147.884 203.836 147.463C202.701 144.419 200.142 141.972 197.384 141.245Z" fill="#393E46"/>
<path fill-rule="evenodd" clip-rule="evenodd" d="M178.546 138.26C181.995 138.095 184.051 139.909 186.166 141.775C187.896 143.301 189.665 144.862 192.268 145.403C193.024 145.561 193.719 145.96 194.375 146.338C195.524 146.997 196.551 147.587 197.572 146.69C198.987 145.447 198.947 142.96 197.667 141.638C197.618 141.587 197.567 141.539 197.515 141.492C197.463 141.446 197.41 141.401 197.354 141.358C197.349 141.354 197.344 141.35 197.338 141.346C197.289 141.307 197.324 141.229 197.384 141.245C197.393 141.247 197.401 141.249 197.41 141.252C197.41 141.252 197.411 141.252 197.412 141.253C197.479 141.27 197.545 141.289 197.612 141.309C197.684 141.331 197.756 141.353 197.828 141.377C200.414 142.237 202.762 144.583 203.836 147.463C203.993 147.884 204.005 148.35 203.855 148.775C203.484 149.827 203.36 150.87 203.45 151.867C203.532 152.764 204.042 153.566 204.824 153.992C208.561 156.031 211.385 160.405 211.585 165.012C211.774 169.369 209.606 173.726 206.138 176.267C205.096 177.029 204.41 178.199 204.244 179.492C204.004 181.352 203.64 183.153 203.263 184.95C203.192 185.289 202.9 185.537 202.559 185.547C195.622 185.768 188.604 185.586 181.971 183.874C181.874 183.85 181.777 183.824 181.681 183.799C181.666 183.897 181.65 183.996 181.635 184.094C180.225 193.105 178.95 202.277 177.685 211.462C177.507 212.769 176.409 213.748 175.111 213.748C172.001 213.75 168.886 213.533 165.771 213.264C164.017 213.112 162.451 211.719 162.451 209.931C162.451 205.518 162.426 201.292 162.402 197.259C162.199 162.947 162.078 142.526 178.104 138.305C178.216 138.275 178.403 138.267 178.526 138.261L178.546 138.26ZM203.949 179.454C204.125 178.082 204.854 176.838 205.962 176.027C209.352 173.543 211.472 169.279 211.287 165.025C211.092 160.522 208.327 156.242 204.681 154.253C203.809 153.778 203.244 152.885 203.154 151.894C203.06 150.853 203.189 149.767 203.574 148.676V148.675C203.7 148.321 203.691 147.926 203.557 147.567C202.578 144.943 200.517 142.787 198.219 141.84C198.65 142.454 198.886 143.205 198.923 143.954C198.976 145.042 198.614 146.171 197.768 146.914C197.312 147.315 196.835 147.467 196.344 147.442C195.869 147.418 195.405 147.23 194.962 147.003C194.739 146.888 194.513 146.76 194.289 146.631C194.268 146.619 194.248 146.608 194.228 146.596C194.022 146.477 193.817 146.36 193.608 146.248C193.147 146.002 192.686 145.794 192.207 145.695" fill="#393E46"/>
<path d="M169.396 165.648C167.659 167.952 169.106 171.788 171.967 172.457C174.828 173.125 177.916 170.349 177.45 167.531C176.983 164.711 172.133 162.018 169.396 165.648Z" fill="white"/>
<path d="M166.475 159.456C167.688 160.006 169.302 159.467 169.91 158.309C170.518 157.15 170.019 155.566 168.849 154.937C167.679 154.306 166.029 154.735 165.339 155.848C164.65 156.963 164.931 158.758 166.475 159.456Z" fill="white"/>
<path d="M139.621 186.958C139.987 186.88 140.353 186.802 140.719 186.725L139.621 186.958Z" fill="#00ADB5"/>
<path d="M175.881 190.93C174.781 192.148 172.66 192.322 171.367 191.298C170.075 190.274 169.822 188.223 170.832 186.933C171.841 185.642 173.945 185.328 175.308 186.263C176.673 187.196 177.279 189.382 175.881 190.93Z" fill="white"/>
<path d="M164.617 203.417C166.32 204.211 168.608 203.463 169.467 201.832C170.326 200.2 169.609 197.962 167.947 197.09C166.284 196.218 163.963 196.862 163.026 198.453C162.089 200.044 162.604 202.477 164.617 203.417Z" fill="white"/>
<path d="M162.391 182.062C163.696 182.265 165.097 181.671 165.828 180.602C166.558 179.532 166.577 178.049 165.877 176.962C165.175 175.875 163.791 175.243 162.481 175.415" fill="white"/>
<path d="M182.966 170.333C182.186 170.404 181.384 169.965 181.039 169.281C180.696 168.597 180.834 167.715 181.371 167.159C181.909 166.606 182.809 166.419 183.533 166.712" fill="white"/>
<path d="M182.28 152.751C181.647 151.106 179.552 150.153 177.844 150.731C176.136 151.31 175.109 153.322 175.67 154.991C176.23 156.659 178.279 157.699 180.01 157.193C181.742 156.688 183.019 154.669 182.28 152.751Z" fill="white"/>
<path d="M172.585 140.933C173.713 141.771 173.824 143.613 172.802 144.571C171.78 145.529 169.887 145.359 169.031 144.224C169.965 142.914 171.165 141.786 172.585 140.933Z" fill="white"/>
<path d="M187.123 183.655C188.702 183.418 189.869 181.736 189.529 180.221C189.19 178.706 187.436 177.651 185.88 178.004C184.324 178.356 183.237 180.03 183.55 181.549C183.865 183.07 185.431 183.909 187.123 183.655Z" fill="white"/>
<path d="M200.99 183.194C202.482 182.388 203.108 180.362 202.319 178.893C201.531 177.424 199.462 176.759 197.926 177.48C196.389 178.203 195.647 180.192 196.347 181.702C197.047 183.212 199.172 184.176 200.99 183.194Z" fill="white"/>
<path d="M208.178 165.795C208.231 167.202 207.066 168.556 205.63 168.758C204.193 168.959 202.681 167.983 202.319 166.618C201.957 165.254 202.795 163.689 204.152 163.192C205.51 162.697 208.081 163.162 208.178 165.795Z" fill="white"/>
<path d="M195.788 165.429C195.935 164.069 194.802 162.702 193.401 162.55C192.001 162.398 190.585 163.489 190.419 164.847C190.253 166.205 191.368 167.587 192.765 167.757C194.163 167.927 195.634 166.857 195.788 165.429Z" fill="white"/>
<path d="M202.517 154.337C202.052 153.768 201.108 153.642 200.504 154.07C199.899 154.498 199.731 155.409 200.148 156.013C200.564 156.618 201.496 156.816 202.134 156.438C202.772 156.058 203.129 155.087 202.517 154.337Z" fill="white"/>
<path d="M194.333 158.408C195.134 158.099 195.682 157.263 195.634 156.428C195.586 155.594 194.944 154.821 194.114 154.6C193.417 154.415 192.632 154.83 192.335 155.469C192.038 156.107 192.197 156.897 192.651 157.443C193.106 157.988 193.815 158.301 194.333 158.408Z" fill="white"/>
<path d="M202.575 145.186C203.333 146.089 203.724 147.275 203.66 148.527C202.824 148.594 201.977 148.035 201.739 147.256C201.5 146.476 201.889 145.557 202.575 145.186Z" fill="white"/>
<path d="M197.417 141.313C199.011 140.792 200.928 141.724 201.527 143.311C202.128 144.899 201.317 146.895 199.789 147.59C200.962 149.167 200.583 151.697 199.001 152.848C197.42 153.999 194.94 153.551 193.845 151.916C193.023 154.075 190.244 155.198 188.186 154.202C186.13 153.205 185.239 150.304 186.374 148.297C183.519 149.328 180.009 147.795 178.779 144.982C177.548 142.169 178.784 138.497 181.673 137.109C184.701 140.679 188.612 143.471 192.945 145.152C194.102 145.601 195.497 145.325 196.403 144.471C197.314 143.617 197.689 142.224 197.417 141.313Z" fill="white"/>
<path fill-rule="evenodd" clip-rule="evenodd" d="M185.974 148.424C183.199 149.183 179.952 147.665 178.779 144.982C177.548 142.169 178.784 138.497 181.673 137.109C184.701 140.679 188.612 143.471 192.945 145.152C194.102 145.601 195.497 145.325 196.403 144.471C197.314 143.617 197.689 142.224 197.417 141.313C197.463 141.298 197.51 141.284 197.556 141.271C197.605 141.258 197.655 141.246 197.704 141.236C199.234 140.905 200.963 141.818 201.527 143.311C202.092 144.803 201.409 146.657 200.057 147.451C199.97 147.502 199.881 147.548 199.789 147.59C199.85 147.671 199.906 147.754 199.958 147.84C200.92 149.423 200.502 151.756 199.001 152.848C197.514 153.931 195.23 153.599 194.054 152.194C193.98 152.105 193.91 152.013 193.845 151.916C193.804 152.025 193.757 152.131 193.706 152.235C192.745 154.183 190.14 155.147 188.186 154.202C186.255 153.265 185.351 150.649 186.189 148.672C186.243 148.544 186.305 148.419 186.374 148.297C186.242 148.345 186.108 148.387 185.974 148.424ZM188.316 153.934C187.375 153.478 186.686 152.577 186.368 151.541C186.05 150.505 186.112 149.364 186.633 148.444L187.029 147.744L186.273 148.017C183.568 148.993 180.22 147.535 179.051 144.863C177.912 142.258 179.006 138.868 181.598 137.481C184.637 141.002 188.53 143.758 192.838 145.429C194.102 145.92 195.618 145.62 196.607 144.688C197.105 144.221 197.452 143.612 197.639 143C197.79 142.503 197.841 141.986 197.769 141.526C199.154 141.228 200.737 142.061 201.249 143.417C201.795 144.86 201.048 146.69 199.666 147.319L199.33 147.472L199.55 147.768C200.082 148.483 200.269 149.426 200.134 150.334C199.998 151.243 199.542 152.086 198.826 152.607C197.384 153.658 195.094 153.247 194.093 151.751L193.772 151.271L193.567 151.81C192.806 153.809 190.213 154.852 188.316 153.934Z" fill="#393E46"/>
<path d="M184.62 106.535C190.244 104.827 197.111 108.287 198.837 115.023C198.965 115.523 198.331 115.885 197.914 115.548L192.993 111.574C192.586 111.245 191.975 111.623 192.141 112.101C192.387 112.809 192.625 113.522 192.848 114.247C193.202 115.389 192.944 116.635 192.12 117.542C191.255 118.495 190.173 119.266 188.966 119.768C188.826 118.099 188.1 116.48 186.936 115.237C186.906 115.205 186.855 115.237 186.869 115.278C187.871 117.982 187.574 121.094 186.298 123.567C185.881 124.376 184.878 124.757 183.976 124.444C183.124 124.149 182.113 124.248 181.402 124.798C180.299 125.652 180.345 127.367 181.284 128.387C182.222 129.407 183.865 129.529 185.152 128.974C188.43 132.155 188.695 136.918 185.691 139.822C184.752 140.731 183.478 141.221 182.15 141.223C180.214 141.226 178.284 140.627 176.793 139.573L178.041 134.883C177.201 136.428 176.362 137.971 175.427 139.775C171.88 140.558 168.034 140.01 164.875 138.272C168.938 136.016 170.701 131.251 171.374 126.778C172.048 122.305 171.979 117.643 173.761 113.464C175.543 109.282 179.991 105.642 184.62 106.535Z" fill="#393E46"/>
<path d="M172.715 213.707C172.525 214.335 172.614 215.134 172.951 215.694C173.952 217.36 173.708 219.693 172.303 221.099C171.5 220.563 170.696 220.028 169.99 219.333C168.792 218.977 167.435 219.218 166.426 219.965C165.417 220.713 164.778 221.953 165.017 223.247C164.794 224.032 163.728 224.417 163.069 223.951C162.408 223.484 162.391 222.335 163.038 221.85C162.731 222.845 161.378 223.319 160.533 222.727C159.688 222.137 159.64 220.683 160.447 220.038C160.394 220.667 159.759 221.159 159.138 221.117C158.518 221.074 157.979 220.559 157.819 219.948C157.66 219.336 157.849 218.663 158.24 218.169C157.908 219.052 156.656 219.4 155.926 218.815C155.196 218.229 155.238 216.912 155.963 216.32C158.122 214.289 161.019 212.865 163.847 212.54C166.718 213.122 169.631 213.247 172.715 213.707Z" fill="#F0F0F0"/>
<path fill-rule="evenodd" clip-rule="evenodd" d="M157.539 218.923C157.03 219.182 156.378 219.177 155.926 218.815C155.196 218.229 155.238 216.912 155.963 216.32C158.122 214.289 161.019 212.865 163.847 212.54C165.55 212.885 167.268 213.07 169.027 213.259C170.139 213.378 171.266 213.499 172.417 213.664C172.516 213.678 172.615 213.692 172.715 213.707C172.686 213.8 172.664 213.898 172.649 213.998C172.557 214.568 172.664 215.218 172.951 215.694C173.952 217.36 173.708 219.693 172.303 221.099L172.29 221.09C171.492 220.558 170.692 220.024 169.99 219.333C168.792 218.977 167.435 219.218 166.426 219.965C165.417 220.713 164.778 221.953 165.017 223.247C164.794 224.032 163.728 224.417 163.069 223.951C162.744 223.721 162.574 223.327 162.563 222.928C162.56 222.789 162.575 222.649 162.61 222.516C162.507 222.609 162.392 222.691 162.269 222.758C161.732 223.054 161.041 223.083 160.533 222.727C160.072 222.405 159.849 221.827 159.871 221.263C159.876 221.137 159.893 221.012 159.923 220.891C159.82 220.961 159.708 221.018 159.59 221.057C159.445 221.105 159.291 221.127 159.138 221.117C158.518 221.074 157.979 220.559 157.819 219.948C157.749 219.677 157.747 219.393 157.8 219.119C157.836 218.939 157.894 218.764 157.973 218.599C157.85 218.732 157.702 218.841 157.539 218.923ZM157.726 218.426C157.805 218.269 157.899 218.12 158.007 217.985L158.519 218.274C158.449 218.459 158.348 218.624 158.224 218.765C158.065 219.119 158.014 219.515 158.108 219.873C158.24 220.382 158.686 220.787 159.159 220.82C159.335 220.832 159.512 220.785 159.667 220.7C159.772 220.357 159.967 220.041 160.261 219.806L160.801 219.373L160.743 220.063C160.709 220.467 160.494 220.819 160.191 221.062C160.172 221.169 160.165 221.281 160.168 221.393C160.183 221.839 160.374 222.253 160.704 222.483H160.704C161.033 222.714 161.478 222.747 161.889 222.603C162.058 222.544 162.214 222.457 162.348 222.348C162.439 222.064 162.607 221.801 162.86 221.612L163.594 221.063L163.323 221.938C163.235 222.223 163.079 222.468 162.88 222.668C162.866 222.744 162.859 222.823 162.861 222.903C162.865 223.237 163.004 223.541 163.24 223.707V223.708C163.474 223.873 163.799 223.898 164.105 223.788C164.389 223.686 164.616 223.48 164.711 223.225C164.486 221.825 165.187 220.513 166.249 219.727C167.333 218.923 168.786 218.665 170.075 219.047L170.146 219.068L170.199 219.12C170.822 219.734 171.527 220.221 172.258 220.711C173.416 219.391 173.588 217.331 172.696 215.848C172.372 215.309 172.254 214.591 172.354 213.955C171.216 213.793 170.102 213.674 168.998 213.555C168.721 213.525 168.445 213.495 168.168 213.465C166.71 213.305 165.268 213.13 163.834 212.841C161.091 213.169 158.272 214.556 156.167 216.537L156.16 216.544L156.152 216.55C155.87 216.781 155.705 217.168 155.697 217.576C155.688 217.984 155.836 218.361 156.112 218.582C156.388 218.803 156.779 218.859 157.152 218.755C157.374 218.693 157.574 218.579 157.726 218.426Z" fill="#393E46"/>
<path d="M311.656 262.56C308.986 279.343 319.175 290.911 328.288 298.098L333.301 301.949H400.26C399.08 300.522 395.324 294.807 389.741 283.367C382.761 269.067 378.008 246.632 376.794 234.13C375.58 221.628 372.509 214.148 368.766 208.668C365.024 203.187 355.728 193.781 350.367 187.359C345.006 180.937 317.381 182.994 307.064 184.022C296.748 185.049 268.321 185.046 260.937 188.557C255.031 191.365 255.888 193.093 255.375 195.403C255.375 201.651 264.691 201.22 268.973 200.307V202.961C265.655 204.673 259.268 207.64 257.514 209.438C254.862 217.568 263.248 219.365 267.527 218.082C269.853 216.883 276.559 217.124 278.986 220.001C281.414 222.879 271.877 219.621 267.527 220.735L259.74 230.405C258.116 235.751 261.504 239.904 268.297 237.936C278.116 235.091 300.429 243.807 303.16 250.999C305.345 256.754 309.735 260.247 311.656 261.275C312.769 254.71 314.326 245.776 311.656 262.56Z" fill="white"/>
<path fill-rule="evenodd" clip-rule="evenodd" d="M330.57 183.193C321.721 183.033 312.249 183.803 307.095 184.317C304.056 184.619 299.441 184.833 294.263 185.073C290.643 185.241 286.746 185.421 282.92 185.654C278.263 185.938 273.703 186.298 269.849 186.806C265.983 187.315 262.865 187.97 261.066 188.825C258.13 190.222 256.938 191.321 256.396 192.309C256.125 192.803 256.006 193.285 255.925 193.799C255.898 193.967 255.876 194.144 255.851 194.327C255.805 194.679 255.756 195.056 255.673 195.434C255.682 196.895 256.226 197.948 257.095 198.709C257.98 199.484 259.221 199.973 260.626 200.247C263.437 200.796 266.793 200.466 268.912 200.014L269.272 199.937V203.141L269.11 203.225C268.451 203.565 267.679 203.951 266.849 204.365C265.57 205.004 264.152 205.713 262.797 206.43C261.684 207.019 260.625 207.608 259.736 208.16C258.876 208.695 258.194 209.184 257.777 209.597C257.151 211.55 257.192 213.094 257.638 214.294C258.089 215.507 258.967 216.405 260.069 217.03C262.279 218.284 265.344 218.416 267.417 217.803C268.044 217.486 268.931 217.276 269.929 217.174C270.945 217.071 272.099 217.079 273.255 217.217C275.548 217.489 277.926 218.282 279.215 219.809C279.375 219.999 279.499 220.178 279.576 220.345C279.654 220.511 279.697 220.691 279.662 220.87C279.586 221.259 279.207 221.405 278.887 221.465C278.539 221.53 278.079 221.532 277.557 221.501C277.031 221.469 276.42 221.403 275.763 221.324C275.473 221.289 275.172 221.252 274.866 221.213C273.78 221.078 272.611 220.931 271.474 220.851C270.056 220.751 268.723 220.756 267.697 220.999L260.009 230.546C259.241 233.125 259.691 235.35 261.071 236.699C262.46 238.058 264.879 238.616 268.215 237.649C270.73 236.921 274.014 236.938 277.548 237.47C281.087 238.003 284.903 239.057 288.493 240.424C292.083 241.792 295.457 243.476 298.109 245.276C300.75 247.068 302.722 249.005 303.439 250.893C305.465 256.227 309.414 259.589 311.435 260.805C311.975 257.622 312.596 254.023 312.784 253.101C312.796 253.04 312.807 252.989 312.816 252.949C312.823 252.919 312.834 252.872 312.848 252.837C312.85 252.832 312.863 252.796 312.891 252.76C312.9 252.749 312.949 252.682 313.044 252.654C313.09 252.644 313.188 252.647 313.238 252.662C313.279 252.682 313.341 252.73 313.364 252.755C313.404 252.807 313.417 252.857 313.42 252.869C313.425 252.889 313.426 252.906 313.427 252.915C313.429 252.933 313.429 252.949 313.429 252.957C313.429 252.99 313.425 253.033 313.42 253.078C313.399 253.266 313.341 253.69 313.234 254.398C313.022 255.82 312.619 258.41 311.951 262.605C309.307 279.223 319.385 290.696 328.472 297.862L328.473 297.863L333.403 301.65H399.652C398.147 299.622 394.565 293.929 389.474 283.497C382.474 269.153 377.714 246.681 376.498 234.158C375.288 221.696 372.231 214.266 368.522 208.835C366.664 206.114 363.418 202.408 359.954 198.565C359.134 197.656 358.302 196.74 357.475 195.828C354.811 192.893 352.188 190.003 350.14 187.549C349.511 186.795 348.539 186.148 347.274 185.602C346.011 185.056 344.473 184.619 342.734 184.275C339.253 183.585 334.995 183.273 330.57 183.193ZM311.518 261.537C311.468 261.852 311.416 262.177 311.363 262.512C308.667 279.459 318.965 291.124 328.105 298.33L328.107 298.333L333.201 302.245H400.893L400.49 301.758C399.334 300.359 395.59 294.672 390.009 283.236C383.051 268.978 378.303 246.581 377.091 234.101C375.873 221.559 372.789 214.028 369.014 208.499C367.129 205.739 363.855 202.003 360.396 198.166C359.573 197.253 358.738 196.334 357.909 195.42C355.248 192.488 352.637 189.611 350.597 187.167C349.885 186.315 348.822 185.622 347.509 185.055C346.195 184.488 344.614 184.04 342.849 183.691C339.319 182.991 335.022 182.678 330.58 182.598C321.697 182.437 312.198 183.21 307.036 183.724C304.008 184.025 299.425 184.238 294.265 184.477C290.643 184.645 286.736 184.826 282.884 185.06C278.222 185.343 273.646 185.704 269.771 186.216C265.908 186.725 262.703 187.387 260.811 188.287C257.841 189.7 256.508 190.867 255.874 192.023C255.556 192.601 255.424 193.159 255.337 193.706C255.305 193.907 255.28 194.099 255.255 194.289C255.21 194.633 255.167 194.971 255.085 195.338L255.078 195.37V195.402C255.078 197.049 255.696 198.275 256.702 199.156C257.697 200.028 259.053 200.546 260.512 200.831C263.273 201.37 266.504 201.092 268.676 200.67V202.778C268.068 203.091 267.36 203.444 266.6 203.824C265.312 204.468 263.874 205.186 262.518 205.903C261.401 206.495 260.327 207.092 259.422 207.655C258.521 208.214 257.767 208.753 257.302 209.23L257.254 209.279L257.232 209.345C256.554 211.425 256.571 213.132 257.08 214.502C257.589 215.872 258.577 216.868 259.775 217.548C262.156 218.899 265.408 219.028 267.613 218.366L267.64 218.358L267.664 218.345C268.199 218.07 269.012 217.866 269.988 217.766C270.96 217.668 272.07 217.675 273.184 217.808C275.432 218.075 277.62 218.842 278.759 220.192C278.902 220.361 278.989 220.494 279.036 220.596C279.084 220.699 279.08 220.745 279.078 220.755C279.077 220.759 279.076 220.761 279.074 220.764C279.071 220.768 279.062 220.778 279.042 220.791C278.997 220.821 278.914 220.854 278.777 220.88C278.505 220.931 278.105 220.937 277.593 220.906C277.085 220.876 276.49 220.812 275.834 220.733C275.55 220.699 275.253 220.662 274.949 220.624C273.861 220.488 272.67 220.339 271.516 220.257C270.042 220.153 268.59 220.154 267.454 220.445L267.358 220.47L259.472 230.262L259.455 230.317C258.622 233.061 259.058 235.564 260.655 237.125C262.252 238.687 264.924 239.222 268.381 238.221C270.776 237.527 273.962 237.532 277.459 238.059C280.95 238.585 284.725 239.626 288.281 240.981C291.839 242.336 295.169 244.001 297.775 245.769C300.394 247.546 302.234 249.396 302.883 251.104C305.097 256.938 309.543 260.481 311.517 261.537L311.518 261.537Z" fill="#393E46"/>
<path d="M264.695 93.21C264.695 86.6323 270.028 81.2998 276.605 81.2998H349.341C355.919 81.2998 361.251 86.6323 361.251 93.21V251.027C361.251 257.604 355.919 262.937 349.341 262.937H276.605C270.028 262.937 264.695 257.604 264.695 251.027V93.21Z" fill="#393E46"/>
<path d="M271.414 94.192C271.414 94.0277 271.547 93.8945 271.712 93.8945H353.119C353.283 93.8945 353.417 94.0277 353.417 94.192V253.124C353.417 253.288 353.283 253.421 353.119 253.421H271.712C271.547 253.421 271.414 253.288 271.414 253.124V94.192Z" fill="white"/>
<path d="M289.624 146.136H284.752C274.575 167.989 296.992 192.08 309.473 201.393H315.337C325.482 192.106 330.39 187.236 336.67 177.433C342.949 167.63 342.283 153.264 342.314 146.76H337.803H334.374C320.949 149.695 315.427 143.248 314.345 139.658H309.473C302.905 148.274 293.504 147.567 289.624 146.136Z" fill="white"/>
<path fill-rule="evenodd" clip-rule="evenodd" d="M309.323 139.36H314.564L314.627 139.572C315.658 142.991 321.011 149.376 334.308 146.469L334.339 146.463H342.61L342.608 146.762C342.606 147.326 342.609 147.951 342.612 148.628C342.626 151.839 342.644 156.226 342.128 160.892C341.504 166.542 340.093 172.637 336.918 177.594C330.617 187.429 325.686 192.32 315.536 201.613L315.451 201.691H309.371L309.292 201.632C303.029 196.958 294.274 188.58 288.357 178.619C282.442 168.661 279.331 157.065 284.48 146.01L284.56 145.838H289.675L289.724 145.857C293.525 147.258 302.77 147.958 309.233 139.477L309.323 139.36ZM309.617 139.956C302.977 148.548 293.54 147.875 289.569 146.434H284.94C280.022 157.181 283.032 168.488 288.869 178.315C294.712 188.15 303.357 196.445 309.569 201.096H315.219C325.3 191.865 330.175 187.015 336.416 177.272C339.52 172.427 340.916 166.437 341.537 160.827C342.048 156.198 342.03 151.853 342.016 148.641C342.014 148.076 342.011 147.548 342.012 147.058H334.404C321.124 149.949 315.404 143.74 314.125 139.956H309.617Z" fill="#393E46"/>
<path d="M292.273 149.921H288.004C279.086 168.472 298.729 188.921 309.665 196.827H314.804C323.693 188.943 327.993 184.809 333.496 176.488C338.998 168.167 338.415 155.973 338.441 150.452H334.489H331.484C319.721 152.943 314.883 147.47 313.934 144.423H309.665C303.91 151.737 295.672 151.136 292.273 149.921Z" fill="white"/>
<path fill-rule="evenodd" clip-rule="evenodd" d="M309.522 144.125H314.155L314.219 144.334C315.114 147.207 319.781 152.626 331.424 150.16L331.454 150.154H338.742L338.74 150.453C338.738 150.931 338.74 151.461 338.743 152.036C338.755 154.762 338.771 158.489 338.319 162.454C337.772 167.253 336.534 172.435 333.745 176.652C328.222 185.006 323.898 189.161 315.002 197.05L314.918 197.125H309.57L309.492 197.068C304.001 193.098 296.326 185.983 291.137 177.521C285.95 169.063 283.214 159.199 287.737 149.792L287.818 149.624H292.326L292.374 149.641C295.698 150.829 303.782 151.419 309.432 144.238L309.522 144.125ZM309.81 144.72C303.982 152.013 295.709 151.443 292.223 150.219H288.193C283.91 159.312 286.537 168.882 291.644 177.21C296.757 185.548 304.323 192.582 309.763 196.529H314.692C323.518 188.699 327.786 184.585 333.249 176.324C335.963 172.219 337.185 167.144 337.727 162.386C338.175 158.46 338.159 154.775 338.147 152.049C338.146 151.587 338.144 151.153 338.144 150.749H331.517C319.908 153.197 314.87 147.962 313.721 144.72H309.81Z" fill="#393E46"/>
<path d="M298.691 174.345L301.977 168.705L310.232 173.795L324.952 155.91L330.053 160.061L311.195 181.499L298.691 174.345Z" fill="#393E46"/>
<path fill-rule="evenodd" clip-rule="evenodd" d="M324.913 155.493L330.484 160.026L311.26 181.879L298.285 174.455L301.875 168.292L310.169 173.406L324.913 155.493ZM324.996 156.329L310.298 174.186L302.083 169.119L299.102 174.237L311.134 181.121L329.628 160.097L324.996 156.329Z" fill="#393E46"/>
<path d="M341.411 213.601C344.763 217.725 356.936 229.488 362.603 234.855C377.913 243.537 386.212 274.468 387.501 277.724C388.533 280.329 399.299 296.944 400.346 301.949L366.976 301.392L345.682 280.709C333.111 270.001 337.415 250.318 334.803 241.005C334.673 240.54 334.435 238.66 330.309 233.089C326.183 227.517 324.145 226.943 323.496 226.64C307.579 219.793 306.892 215.771 305.952 212.69C304.905 209.253 306.923 205.008 309.179 203.923C311.436 202.838 318.204 204.285 325.617 205.008C333.031 205.732 337.221 208.446 341.411 213.601Z" fill="white"/>
<path fill-rule="evenodd" clip-rule="evenodd" d="M319.418 203.975C321.374 204.228 323.473 204.5 325.647 204.712C329.386 205.077 332.329 205.946 334.87 207.384C337.411 208.821 339.533 210.818 341.643 213.413C344.974 217.512 357.097 229.229 362.782 234.614C366.65 236.816 370.058 240.407 373.015 244.586C375.981 248.779 378.503 253.579 380.582 258.202C382.662 262.826 384.302 267.278 385.503 270.777C386.103 272.526 386.593 274.037 386.973 275.212L387.008 275.317C387.372 276.442 387.627 277.231 387.779 277.615C388.026 278.239 388.877 279.741 390.054 281.754C390.473 282.471 390.932 283.25 391.416 284.072C392.282 285.542 393.23 287.15 394.176 288.788C395.653 291.341 397.132 293.974 398.308 296.283C399.479 298.582 400.367 300.592 400.638 301.888L400.715 302.253L366.853 301.687L345.482 280.929C339.115 275.501 337.037 267.811 336.212 260.366C335.881 257.373 335.751 254.406 335.63 251.635C335.6 250.96 335.572 250.296 335.54 249.646C335.38 246.32 335.16 243.376 334.517 241.085C334.507 241.049 334.497 241.006 334.484 240.954C334.413 240.662 334.278 240.108 333.787 239.091C333.206 237.889 332.126 236.042 330.07 233.266C328.018 230.494 326.494 228.979 325.414 228.122C324.504 227.4 323.908 227.143 323.544 226.986C323.481 226.959 323.425 226.934 323.375 226.911C315.407 223.484 311.217 220.75 308.899 218.465C306.728 216.325 306.209 214.585 305.769 213.11C305.735 212.997 305.702 212.886 305.669 212.777C305.12 210.977 305.378 208.986 306.052 207.313C306.723 205.649 307.831 204.242 309.051 203.655C309.678 203.353 310.581 203.241 311.656 203.236C312.741 203.23 314.044 203.333 315.498 203.492C316.715 203.625 318.03 203.795 319.418 203.975ZM311.66 203.831C310.599 203.837 309.81 203.951 309.309 204.192C308.273 204.69 307.244 205.948 306.604 207.536C305.967 209.117 305.739 210.966 306.238 212.603C306.272 212.714 306.305 212.826 306.339 212.938C306.772 214.388 307.256 216.008 309.317 218.041C311.557 220.248 315.668 222.948 323.615 226.366L323.619 226.368L323.623 226.37C323.669 226.391 323.722 226.414 323.784 226.441C324.151 226.599 324.81 226.882 325.785 227.656C326.917 228.555 328.476 230.112 330.549 232.912C332.619 235.707 333.721 237.586 334.323 238.832C334.842 239.907 334.989 240.512 335.06 240.804C335.072 240.852 335.082 240.892 335.091 240.924C335.754 243.29 335.975 246.299 336.135 249.617C336.167 250.272 336.196 250.94 336.226 251.618C336.347 254.387 336.475 257.329 336.804 260.301C337.624 267.699 339.677 275.203 345.875 280.483L345.883 280.489L367.099 301.096L399.967 301.645C399.637 300.429 398.84 298.64 397.777 296.554C396.609 294.259 395.135 291.637 393.661 289.086C392.715 287.45 391.77 285.847 390.905 284.378C390.421 283.556 389.961 282.775 389.54 282.055C388.376 280.064 387.494 278.512 387.225 277.834C387.067 277.432 386.806 276.63 386.451 275.532L386.407 275.395C386.027 274.221 385.538 272.714 384.939 270.97C383.742 267.482 382.109 263.048 380.039 258.446C377.969 253.844 375.465 249.081 372.528 244.93C369.591 240.777 366.232 237.254 362.457 235.114L362.425 235.096L362.399 235.071C356.739 229.711 344.548 217.932 341.18 213.788C339.1 211.229 337.032 209.291 334.577 207.902C332.123 206.514 329.264 205.664 325.589 205.305C323.42 205.094 321.287 204.817 319.315 204.562C317.927 204.383 316.619 204.213 315.433 204.084C313.986 203.926 312.71 203.826 311.66 203.831Z" fill="#393E46"/>
<path d="M310.515 213.877C308.181 211.476 309.534 207.689 310.503 206.097C312.65 203.301 324.257 206.512 324.841 208.613C325.424 210.714 322.469 218.274 320.281 218.385C318.093 218.496 313.433 216.879 310.515 213.877Z" fill="white"/>
<path fill-rule="evenodd" clip-rule="evenodd" d="M324.325 207.547C324.714 207.839 325.028 208.17 325.128 208.532C325.214 208.842 325.23 209.229 325.199 209.652C325.169 210.079 325.09 210.562 324.973 211.075C324.739 212.102 324.35 213.265 323.874 214.363C323.399 215.459 322.831 216.503 322.236 217.286C321.939 217.677 321.628 218.012 321.311 218.255C320.996 218.496 320.653 218.663 320.296 218.681C319.139 218.74 317.379 218.345 315.556 217.572C313.726 216.794 311.795 215.62 310.302 214.084C309.052 212.798 308.801 211.148 308.975 209.648C309.148 208.152 309.747 206.766 310.249 205.941L310.257 205.927L310.267 205.914C310.584 205.502 311.059 205.22 311.617 205.033C312.177 204.846 312.838 204.747 313.555 204.716C314.989 204.656 316.686 204.866 318.323 205.227C319.961 205.589 321.555 206.105 322.781 206.669C323.394 206.95 323.924 207.247 324.325 207.547ZM310.749 206.265C310.97 205.984 311.323 205.759 311.807 205.598C312.295 205.434 312.897 205.341 313.58 205.312C314.945 205.254 316.588 205.454 318.195 205.809C319.8 206.163 321.352 206.668 322.533 207.21C323.124 207.481 323.613 207.758 323.967 208.024C324.333 208.298 324.509 208.528 324.555 208.691C324.615 208.907 324.634 209.216 324.605 209.609C324.578 209.998 324.505 210.45 324.392 210.943C324.168 211.929 323.791 213.057 323.328 214.125C322.864 215.196 322.318 216.194 321.762 216.925C321.484 217.292 321.209 217.582 320.948 217.782C320.686 217.983 320.457 218.077 320.267 218.086C319.236 218.139 317.572 217.78 315.789 217.023C314.012 216.269 312.154 215.134 310.729 213.669C309.645 212.554 309.405 211.109 309.566 209.717C309.727 208.331 310.284 207.034 310.749 206.265Z" fill="#393E46"/>
<path d="M398.523 294.929L332.562 301.132C327.873 304.02 334.515 316.697 338.423 322.674C367.492 325.562 399.482 321.472 411.843 319.065C415.036 313.024 405.35 296.738 398.523 294.929Z" fill="#393E46"/>
<path fill-rule="evenodd" clip-rule="evenodd" d="M398.549 294.628L398.6 294.641C400.385 295.114 402.317 296.518 404.148 298.407C405.986 300.303 407.752 302.718 409.2 305.263C410.648 307.807 411.786 310.493 412.36 312.932C412.931 315.359 412.956 317.598 412.107 319.205L412.041 319.331L411.901 319.358C399.523 321.767 367.502 325.862 338.394 322.971L338.252 322.957L338.175 322.838C336.214 319.838 333.563 315.153 331.99 310.847C331.205 308.696 330.678 306.617 330.653 304.88C330.629 303.145 331.105 301.68 332.407 300.879L332.466 300.843L398.549 294.628ZM332.662 301.422C331.659 302.073 331.226 303.262 331.249 304.872C331.272 306.511 331.772 308.516 332.55 310.643C334.081 314.835 336.657 319.411 338.595 322.392C367.477 325.238 399.219 321.204 411.644 318.801C412.328 317.392 412.324 315.381 411.78 313.068C411.223 310.698 410.111 308.066 408.683 305.558C407.255 303.05 405.519 300.676 403.721 298.821C401.935 296.979 400.114 295.676 398.498 295.231L332.662 301.422Z" fill="#393E46"/>
<path fill-rule="evenodd" clip-rule="evenodd" d="M397.209 304.902C399.279 304.801 400.876 303.04 400.776 300.969C400.674 298.898 398.914 297.301 396.843 297.402C394.772 297.503 393.175 299.264 393.276 301.334C393.377 303.405 395.138 305.002 397.209 304.902ZM397.237 305.497C399.637 305.38 401.487 303.34 401.37 300.94C401.253 298.54 399.213 296.69 396.814 296.807C394.414 296.924 392.564 298.964 392.681 301.364C392.798 303.763 394.838 305.614 397.237 305.497Z" fill="white"/>
<path fill-rule="evenodd" clip-rule="evenodd" d="M397.71 315.246C399.095 315.178 400.164 314 400.096 312.615C400.029 311.229 398.851 310.161 397.465 310.229C396.08 310.296 395.012 311.474 395.079 312.859C395.147 314.245 396.324 315.313 397.71 315.246ZM397.739 315.84C399.453 315.757 400.774 314.3 400.691 312.586C400.607 310.872 399.15 309.55 397.436 309.634C395.722 309.717 394.401 311.174 394.484 312.888C394.568 314.602 396.025 315.924 397.739 315.84Z" fill="white"/>
<path fill-rule="evenodd" clip-rule="evenodd" d="M384.691 305.512C386.019 305.447 387.043 304.318 386.979 302.99C386.914 301.661 385.785 300.637 384.456 300.702C383.128 300.767 382.104 301.896 382.168 303.224C382.233 304.553 383.363 305.577 384.691 305.512ZM384.72 306.107C386.377 306.026 387.654 304.617 387.573 302.961C387.493 301.304 386.084 300.027 384.427 300.107C382.771 300.188 381.493 301.597 381.574 303.253C381.655 304.91 383.063 306.188 384.72 306.107Z" fill="white"/>
<path fill-rule="evenodd" clip-rule="evenodd" d="M384.352 317.764C386.195 317.674 387.615 316.108 387.525 314.265C387.436 312.423 385.869 311.002 384.027 311.091C382.184 311.181 380.764 312.748 380.853 314.59C380.943 316.433 382.51 317.854 384.352 317.764ZM384.381 318.358C386.552 318.253 388.226 316.407 388.12 314.236C388.014 312.065 386.169 310.391 383.998 310.497C381.827 310.603 380.153 312.448 380.259 314.619C380.364 316.79 382.21 318.464 384.381 318.358Z" fill="white"/>
<path fill-rule="evenodd" clip-rule="evenodd" d="M372.677 307.963C374.519 307.873 375.94 306.307 375.85 304.464C375.76 302.622 374.194 301.201 372.351 301.291C370.509 301.381 369.088 302.947 369.178 304.789C369.268 306.632 370.834 308.053 372.677 307.963ZM372.705 308.558C374.877 308.452 376.551 306.606 376.445 304.435C376.339 302.264 374.493 300.59 372.322 300.696C370.151 300.802 368.477 302.647 368.583 304.819C368.689 306.989 370.535 308.663 372.705 308.558Z" fill="white"/>
<path fill-rule="evenodd" clip-rule="evenodd" d="M371.765 318.999C372.808 318.948 373.612 318.061 373.561 317.019C373.51 315.976 372.624 315.172 371.581 315.223C370.539 315.274 369.735 316.16 369.785 317.203C369.836 318.246 370.723 319.049 371.765 318.999ZM371.794 319.593C373.165 319.527 374.222 318.361 374.156 316.99C374.089 315.618 372.923 314.561 371.552 314.628C370.181 314.695 369.123 315.861 369.191 317.232C369.258 318.603 370.423 319.66 371.794 319.593Z" fill="white"/>
<path fill-rule="evenodd" clip-rule="evenodd" d="M358.21 319.66C360.452 319.551 362.181 317.644 362.072 315.402C361.963 313.16 360.056 311.431 357.814 311.54C355.572 311.649 353.843 313.556 353.952 315.798C354.061 318.04 355.968 319.77 358.21 319.66ZM358.239 320.255C360.81 320.13 362.792 317.944 362.667 315.373C362.542 312.802 360.356 310.82 357.785 310.945C355.214 311.07 353.232 313.256 353.357 315.827C353.482 318.398 355.668 320.38 358.239 320.255Z" fill="white"/>
<path fill-rule="evenodd" clip-rule="evenodd" d="M355.591 306.308C356.748 306.251 357.64 305.268 357.584 304.111C357.528 302.954 356.544 302.062 355.387 302.119C354.23 302.175 353.338 303.159 353.395 304.315C353.451 305.472 354.435 306.364 355.591 306.308ZM355.621 306.903C357.106 306.83 358.251 305.567 358.179 304.082C358.107 302.597 356.844 301.451 355.358 301.524C353.873 301.596 352.728 302.859 352.8 304.344C352.872 305.83 354.135 306.975 355.621 306.903Z" fill="white"/>
<path fill-rule="evenodd" clip-rule="evenodd" d="M339.76 311.228C341.774 311.13 343.327 309.417 343.229 307.404C343.131 305.39 341.418 303.837 339.405 303.935C337.391 304.033 335.838 305.745 335.936 307.759C336.034 309.773 337.746 311.326 339.76 311.228ZM339.789 311.823C342.131 311.708 343.937 309.717 343.824 307.374C343.709 305.032 341.718 303.226 339.375 303.34C337.033 303.454 335.227 305.446 335.341 307.788C335.455 310.13 337.447 311.936 339.789 311.823Z" fill="white"/>
<path fill-rule="evenodd" clip-rule="evenodd" d="M342.878 322.066C344.263 321.998 345.332 320.82 345.264 319.435C345.197 318.05 344.019 316.981 342.633 317.049C341.248 317.116 340.18 318.294 340.247 319.68C340.315 321.065 341.493 322.133 342.878 322.066ZM342.907 322.661C344.621 322.577 345.942 321.12 345.859 319.406C345.775 317.692 344.318 316.371 342.604 316.454C340.891 316.538 339.569 317.995 339.652 319.709C339.736 321.422 341.193 322.744 342.907 322.661Z" fill="white"/>
<path fill-rule="evenodd" clip-rule="evenodd" d="M65.6128 74.7172C75.8967 64.4662 88.3851 57.7153 105.953 57.3513C153.402 56.3329 174.403 92.134 151.365 132.447C137.938 155.943 151.324 156.914 158.842 151.705C161.88 149.584 162.976 150.376 161.611 153.62C155.367 168.182 99.6765 191.549 65.134 157.622C50.608 143.375 45.2915 127.892 48.9471 110.584C50.4676 103.389 52.1848 103.795 51.1228 111.137C50.2894 116.758 50.622 123.139 51.9877 128.18C54.3318 136.754 59.8236 145.777 66.8629 152.543C87.3982 172.242 116.886 175.391 139.974 164.845C142.384 163.726 150.344 159.404 150.647 159.027C150.928 158.677 134.076 157.047 146.814 135.345C153.108 124.589 155.35 119.701 156.934 113.09C162.52 89.8462 147.795 70.4328 120.088 64.4617C85.3782 56.9814 68.001 73.6246 56.8288 94.8138C53.4084 101.278 51.4486 100.678 54.2922 93.6604C57.4665 85.6239 61.6227 78.6867 65.6128 74.7172Z" fill="#393E46"/>
<path d="M82.729 134.785L71.9749 126.326C71.3872 125.884 71.195 125.104 71.5478 124.593C73.2713 122.097 76.5914 121.245 79.8539 122.46L89.5798 127.978L82.729 134.785Z" fill="white"/>
<path fill-rule="evenodd" clip-rule="evenodd" d="M71.9749 126.326L82.729 134.785L89.5798 127.978L79.8539 122.46C76.5914 121.245 73.2713 122.097 71.5478 124.593C71.195 125.104 71.3872 125.884 71.9749 126.326ZM79.6024 123.002L88.6033 128.108L82.6826 133.991L72.338 125.854L72.3326 125.85C71.9263 125.544 71.915 125.109 72.0374 124.932C73.5692 122.713 76.5581 121.886 79.6024 123.002Z" fill="#393E46"/>
<path d="M86.3398 138.394L94.8205 149.17C95.2624 149.757 96.0427 149.95 96.553 149.597L97.1943 149.154C99.3057 147.696 100.027 144.888 98.9983 142.128L93.169 131.564L86.3398 138.394Z" fill="white"/>
<path fill-rule="evenodd" clip-rule="evenodd" d="M97.1943 149.154C99.3057 147.696 100.027 144.888 98.9983 142.128L93.169 131.564L86.3398 138.394L94.8205 149.17C95.2624 149.757 96.0427 149.95 96.553 149.597L97.1943 149.154ZM87.135 138.441L95.2926 148.807L95.2966 148.812C95.6022 149.218 96.0373 149.23 96.2146 149.107L96.8559 148.664C98.6905 147.398 99.3858 144.919 98.4552 142.377L93.03 132.545L87.135 138.441Z" fill="#393E46"/>
<path d="M85.6438 101.657C84.2933 100.306 84.1862 98.1539 85.3927 96.6734C87.1184 94.5557 89.2807 92.1977 90.5776 90.9008C92.3519 89.1265 92.5072 89.3384 94.403 88.1761C94.682 88.0051 95.042 88.0465 95.2738 88.2778L99.0227 92.0267C99.254 92.2585 99.2954 92.6185 99.1244 92.8975C97.9621 94.7933 98.174 94.9481 96.3997 96.7225C95.1028 98.0194 92.7448 100.182 90.6271 101.907C89.1461 103.114 86.9942 103.007 85.6438 101.657Z" fill="white"/>
<path d="M102.574 114.44L115.841 101.173L74.7412 88.259C73.8947 88.043 73.0537 88.2486 72.4934 88.8089L69.0212 92.2811C67.8584 93.4439 68.3575 95.5755 69.9991 96.4571L102.574 114.44Z" fill="white"/>
<path fill-rule="evenodd" clip-rule="evenodd" d="M70.2839 95.9342L102.47 113.702L114.726 101.446L74.5792 88.8323C73.9168 88.668 73.3052 88.839 72.9146 89.2296L69.4424 92.7023C69.0316 93.1127 68.8921 93.7139 69.0383 94.3389C69.185 94.9653 69.6143 95.5746 70.2808 95.9328L70.2839 95.9342ZM74.7412 88.259L115.841 101.173L102.574 114.44L69.9991 96.4571C68.3575 95.5755 67.8584 93.4439 69.0212 92.2811L72.4934 88.8089C73.0537 88.2486 73.8947 88.043 74.7412 88.259Z" fill="#393E46"/>
<path d="M106.707 118.572L119.975 105.305L132.888 146.405C133.104 147.251 132.898 148.093 132.339 148.653L128.866 152.125C127.704 153.288 125.571 152.789 124.69 151.147L106.707 118.572Z" fill="white"/>
<path fill-rule="evenodd" clip-rule="evenodd" d="M125.213 150.862L125.215 150.865C125.573 151.532 126.182 151.961 126.809 152.108C127.434 152.255 128.035 152.115 128.445 151.704L131.918 148.232C132.308 147.841 132.479 147.229 132.315 146.567L119.701 106.42L107.445 118.676L125.213 150.862ZM106.707 118.572L119.975 105.305L132.888 146.405C133.104 147.251 132.898 148.093 132.339 148.653L128.866 152.125C127.704 153.288 125.571 152.789 124.69 151.147L106.707 118.572Z" fill="#393E46"/>
<path d="M131.75 99.7262L109.46 122.016C105.72 125.756 101.744 129.244 97.5811 132.438L86.9764 140.573C84.5212 142.456 81.6011 142.684 80.032 141.115C78.4628 139.545 78.6905 136.626 80.5738 134.171L88.7093 123.566C91.9025 119.403 95.3909 115.427 99.1313 111.687L121.421 89.3973C124.468 86.3504 127.967 83.8115 131.664 82.0686C134.848 80.5674 138.232 79.6274 139.876 81.2712C141.52 82.9151 140.579 86.2991 139.078 89.4828C137.335 93.18 134.797 96.6792 131.75 99.7262Z" fill="white"/>
<path fill-rule="evenodd" clip-rule="evenodd" d="M81.0463 134.533C79.2454 136.88 79.1932 139.434 80.4532 140.694C81.7132 141.954 84.266 141.901 86.6137 140.1L86.9764 140.573C84.5212 142.456 81.6011 142.684 80.032 141.115C78.4628 139.545 78.6905 136.626 80.5738 134.171L88.7093 123.566C91.9025 119.403 95.3909 115.427 99.1313 111.687L121.421 89.3973C124.468 86.3504 127.967 83.8115 131.664 82.0686C134.848 80.5674 138.232 79.6274 139.876 81.2712C141.52 82.9151 140.579 86.2991 139.078 89.4828L138.54 89.2286C139.28 87.6576 139.863 86.0768 140.067 84.711C140.274 83.3295 140.076 82.3139 139.454 81.692C138.833 81.0705 137.817 80.8725 136.435 81.0795C135.07 81.2843 133.489 81.8666 131.918 82.6073C128.29 84.3177 124.846 86.8143 121.841 89.8185L99.5521 112.107C95.8301 115.829 92.3593 119.786 89.1818 123.928L81.0463 134.533ZM139.078 89.4828C137.335 93.18 134.797 96.6792 131.75 99.7262L109.46 122.016C105.72 125.756 101.744 129.244 97.5811 132.438L86.9764 140.573L86.6137 140.1L97.2184 131.965C101.361 128.788 105.317 125.316 109.039 121.594L131.328 99.3054C134.333 96.3012 136.829 92.8569 138.54 89.2286L139.078 89.4828Z" fill="#393E46"/>
<path d="M133.596 95.4576L132.835 96.219C132.128 96.9259 124.221 89.0185 124.927 88.3116L125.689 87.5506C126.169 87.0709 126.873 86.9197 127.446 87.1735C130.303 88.4371 132.709 90.8433 133.973 93.7003C134.227 94.2736 134.075 94.9779 133.596 95.4576Z" fill="white"/>
<path fill-rule="evenodd" clip-rule="evenodd" d="M132.598 95.6137L133.175 95.0368C133.499 94.7124 133.572 94.2664 133.429 93.9415C132.225 91.2195 129.927 88.9218 127.205 87.718C126.88 87.574 126.434 87.6469 126.11 87.9718L125.533 88.5487C125.541 88.5658 125.551 88.5843 125.561 88.6041C125.686 88.8394 125.914 89.1706 126.233 89.5765C126.866 90.3811 127.793 91.3954 128.772 92.3742C129.751 93.3534 130.765 94.2799 131.57 94.9131C131.976 95.2326 132.307 95.4603 132.542 95.5849C132.562 95.5957 132.581 95.6052 132.598 95.6137ZM132.835 96.219L133.596 95.4576C134.075 94.9779 134.227 94.2736 133.973 93.7003C132.709 90.8433 130.303 88.4371 127.446 87.1735C126.873 86.9197 126.169 87.0709 125.689 87.5506L124.927 88.3116C124.221 89.0185 132.128 96.9259 132.835 96.219Z" fill="#393E46"/>
<path d="M82.4387 139.767C82.1673 139.767 81.896 139.663 81.6894 139.456C81.2754 139.043 81.2754 138.371 81.6894 137.958L90.945 128.702C91.3586 128.288 92.03 128.288 92.4435 128.702C92.8575 129.116 92.8575 129.787 92.4435 130.201L83.1879 139.456C82.9809 139.663 82.71 139.767 82.4387 139.767Z" fill="white"/>
<path fill-rule="evenodd" clip-rule="evenodd" d="M82.1102 139.035C82.2006 139.126 82.319 139.171 82.4387 139.171C82.5584 139.171 82.6763 139.126 82.7667 139.035L92.0223 129.78H92.0228C92.2037 129.598 92.2041 129.305 92.0223 129.123C91.8414 128.942 91.5471 128.941 91.3658 129.123L82.1102 138.378V138.379C81.9288 138.56 81.9288 138.854 82.1102 139.035ZM81.6894 137.958C81.2754 138.371 81.2754 139.043 81.6894 139.456C81.896 139.663 82.1673 139.767 82.4387 139.767C82.71 139.767 82.9809 139.663 83.1879 139.456L92.4435 130.201C92.8575 129.787 92.8575 129.116 92.4435 128.702C92.03 128.288 91.3586 128.288 90.945 128.702L81.6894 137.958Z" fill="#393E46"/>
</svg>
