<svg width="50" height="50" viewBox="0 0 50 50" fill="none" xmlns="http://www.w3.org/2000/svg">
<path d="M42.1555 21.95C41.7055 21.5 41.0555 21.25 40.4555 21.25C40.4555 21.25 40.4055 21.25 40.3555 21.25C39.4055 21.3 38.6055 21.95 38.3055 22.85L36.1055 29.4C35.6555 29.1 35.1055 28.9 34.5555 28.95C33.8555 29 33.2555 29.3 32.8055 29.8L28.2555 35C27.2555 36.1 26.7055 37.5 26.6055 39L26.1055 46.7C26.1055 46.9 26.1555 47.1 26.3055 47.25C26.4555 47.4 26.6555 47.5 26.8555 47.5H34.1555C34.5055 47.5 34.8055 47.25 34.9055 46.9L35.4555 43.8L39.7055 40.75C40.8555 39.95 41.6055 38.6 41.7555 37.15L42.8055 23.75C42.8555 23.1 42.6055 22.45 42.1555 21.95ZM40.2555 37.05C40.1555 38.05 39.6555 38.95 38.8555 39.55L34.3555 42.8C34.2055 42.9 34.1055 43.1 34.0555 43.25L33.5555 46.05H27.6555L28.1055 39.15C28.1555 38 28.6555 36.9 29.4055 36.05L33.9555 30.85C34.1555 30.65 34.4055 30.5 34.7055 30.5C34.9555 30.5 35.1555 30.55 35.3555 30.7C35.5055 30.8 35.6555 31 35.7055 31.2V31.25C35.8055 31.6 35.7555 31.95 35.5055 32.2L31.8055 36.85C31.5555 37.15 31.6055 37.65 31.9055 37.9C32.2055 38.15 32.7055 38.1 32.9555 37.8L36.6555 33.15C37.1055 32.55 37.3055 31.8 37.1555 31.1L39.7055 23.4C39.8055 23.1 40.1055 22.85 40.4555 22.85C40.7055 22.85 40.9055 22.95 41.0555 23.1C41.2055 23.25 41.3055 23.5 41.3055 23.7L40.2555 37.05Z" fill="#00ADB5"/>
<path d="M22.0563 35L17.5063 29.8C17.0563 29.3 16.4063 28.95 15.7563 28.95C15.2063 28.9 14.6563 29.05 14.2063 29.4L12.0063 22.85C11.7063 21.95 10.8563 21.35 9.90631 21.25C9.25631 21.25 8.60631 21.5 8.15631 21.95C7.70631 22.4 7.45631 23.05 7.50631 23.7L8.55631 37.1C8.65631 38.55 9.40631 39.85 10.6063 40.65L14.8563 43.7L15.4063 46.8C15.4563 47.15 15.7563 47.4 16.1563 47.4H23.4563C23.6563 47.4 23.8563 47.3 24.0063 47.15C24.1563 47 24.2063 46.8 24.2063 46.6L23.7063 38.9C23.6063 37.55 23.0563 36.1 22.0563 35ZM16.8063 46L16.3063 43.2C16.2563 43 16.1563 42.85 16.0063 42.75L11.5063 39.5C10.7063 38.95 10.2063 38.05 10.1063 37L9.05631 23.6C9.05631 23.35 9.10631 23.15 9.30631 23C9.45631 22.85 9.70631 22.75 9.95631 22.75C10.3063 22.75 10.5563 23 10.7063 23.3L13.1563 31C13.0063 31.75 13.2063 32.5 13.6563 33.05L17.3563 37.7C17.6063 38 18.1063 38.1 18.4063 37.8C18.7063 37.55 18.8063 37.05 18.5063 36.75L14.8063 32.1C14.6063 31.85 14.5563 31.5 14.6563 31.15C14.6563 31.15 14.6563 31.15 14.6563 31.1C14.7063 30.9 14.8563 30.7 15.0563 30.6C15.2563 30.45 15.4563 30.4 15.7063 30.4C15.9563 30.4 16.2563 30.55 16.4063 30.75L20.9563 36C21.7063 36.85 22.1563 37.95 22.2563 39.1L22.6563 46H16.8063Z" fill="#00ADB5"/>
<path d="M35.2055 20.0998C35.2055 14.5498 30.7055 10.0498 25.1555 10.0498C19.6055 10.0498 15.1055 14.5498 15.1055 20.0998C15.1055 25.6498 19.6055 30.1498 25.1555 30.1498C30.7055 30.1498 35.2055 25.6498 35.2055 20.0998ZM25.1555 28.6498C20.4555 28.6498 16.6055 24.7998 16.6055 20.0998C16.6055 15.3998 20.4555 11.4998 25.1555 11.4998C29.8555 11.4998 33.7055 15.3498 33.7055 20.0498C33.7055 24.7498 29.8555 28.6498 25.1555 28.6498Z" fill="#00ADB5"/>
<path d="M24.557 16.7004H25.757C26.357 16.7004 26.857 17.2004 26.857 17.8004C26.857 18.2004 27.207 18.5504 27.607 18.5504C28.007 18.5504 28.357 18.2004 28.357 17.8004C28.357 16.4004 27.257 15.3004 25.907 15.2004V14.4004C25.907 14.0004 25.557 13.6504 25.157 13.6504C24.757 13.6504 24.407 14.0004 24.407 14.4004V15.2004C23.057 15.3004 21.957 16.4004 21.957 17.8004V18.2004C21.957 19.6504 23.107 20.8004 24.557 20.8004H25.757C26.357 20.8004 26.857 21.3004 26.857 21.9004V22.3004C26.857 22.9004 26.357 23.4004 25.757 23.4004H24.557C23.957 23.4004 23.457 22.9004 23.457 22.3004C23.457 21.9004 23.107 21.5504 22.707 21.5504C22.307 21.5504 21.957 21.9004 21.957 22.3004C21.957 23.7004 23.057 24.8004 24.407 24.9004V25.7004C24.407 26.1004 24.757 26.4504 25.157 26.4504C25.557 26.4504 25.907 26.1004 25.907 25.7004V24.9004C27.257 24.8004 28.357 23.7004 28.357 22.3004V21.9004C28.357 20.4504 27.207 19.3004 25.757 19.3004H24.557C23.957 19.3004 23.457 18.8004 23.457 18.2004V17.8004C23.457 17.2004 23.957 16.7004 24.557 16.7004Z" fill="#00ADB5"/>
<path d="M25.1562 8.4C25.5562 8.4 25.9062 8.05 25.9062 7.65V3.25C25.9062 2.85 25.5562 2.5 25.1562 2.5C24.7562 2.5 24.4062 2.85 24.4062 3.25V7.65C24.4062 8.05 24.7562 8.4 25.1562 8.4Z" fill="#00ADB5"/>
<path d="M21.0078 9.1998C21.4078 9.1998 21.7578 8.8498 21.7578 8.4498V5.5498C21.7578 5.1498 21.4078 4.7998 21.0078 4.7998C20.6078 4.7998 20.2578 5.1498 20.2578 5.5498V8.4498C20.2578 8.8498 20.6078 9.1998 21.0078 9.1998Z" fill="#00ADB5"/>
<path d="M29.3047 9.1998C29.7047 9.1998 30.0547 8.8498 30.0547 8.4498V5.5498C30.0547 5.1498 29.7047 4.7998 29.3047 4.7998C28.9047 4.7998 28.5547 5.1498 28.5547 5.5498V8.4498C28.5547 8.8498 28.9047 9.1998 29.3047 9.1998Z" fill="#00ADB5"/>
</svg>
