<svg width="50" height="50" viewBox="0 0 50 50" fill="none" xmlns="http://www.w3.org/2000/svg">
<path d="M18.3588 24.1375H17.5298V22.7794C17.5254 22.6236 17.4608 22.4757 17.3498 22.3671C17.2387 22.2584 17.0898 22.1977 16.9349 22.1977C16.7799 22.1977 16.6311 22.2584 16.52 22.3671C16.4089 22.4757 16.3443 22.6236 16.34 22.7794V24.1375H15.51C15.1955 24.1378 14.8941 24.2636 14.6717 24.4872C14.4494 24.7108 14.3243 25.014 14.3239 25.3302V33.245C14.3243 33.5612 14.4494 33.8644 14.6717 34.088C14.8941 34.3116 15.1955 34.4374 15.51 34.4377H16.3404V35.7968C16.3448 35.9525 16.4094 36.1004 16.5205 36.2091C16.6316 36.3177 16.7804 36.3785 16.9354 36.3785C17.0903 36.3785 17.2391 36.3177 17.3502 36.2091C17.4613 36.1004 17.5259 35.9525 17.5303 35.7968V34.4377H18.3603C18.6748 34.4375 18.9764 34.3118 19.1988 34.0881C19.4213 33.8645 19.5464 33.5613 19.5468 33.245V25.3312C19.5467 25.1744 19.5159 25.0191 19.4562 24.8742C19.3965 24.7294 19.309 24.5977 19.1986 24.4869C19.0883 24.3761 18.9574 24.2881 18.8133 24.2282C18.6692 24.1682 18.5148 24.1374 18.3588 24.1375ZM15.5123 33.245V25.335L18.3551 25.3312L18.3588 33.2412L15.5123 33.245ZM9.26267 30.3913H8.43032V29.0323C8.42597 28.8765 8.36139 28.7286 8.25029 28.62C8.1392 28.5114 7.99037 28.4506 7.83542 28.4506C7.68048 28.4506 7.53164 28.5114 7.42055 28.62C7.30946 28.7286 7.24487 28.8765 7.24052 29.0323V30.3913H6.41052C6.09583 30.3913 5.79401 30.5169 5.57136 30.7406C5.34871 30.9642 5.22343 31.2676 5.22306 31.5841V39.4979C5.22343 39.8142 5.34858 40.1174 5.57102 40.341C5.79347 40.5647 6.09505 40.6904 6.40958 40.6906H7.24287V42.0497C7.24722 42.2054 7.31181 42.3534 7.4229 42.462C7.53399 42.5706 7.68282 42.6314 7.83777 42.6314C7.99272 42.6314 8.14155 42.5706 8.25264 42.462C8.36373 42.3534 8.42832 42.2054 8.43267 42.0497V40.6906H9.26267C9.57712 40.6903 9.87858 40.5645 10.1009 40.3409C10.3233 40.1173 10.4483 39.8141 10.4487 39.4979V31.5841C10.4483 31.2679 10.3233 30.9647 10.1009 30.7411C9.87858 30.5175 9.57712 30.3917 9.26267 30.3913ZM6.41381 39.4979V31.5879L9.25704 31.5841L9.26267 39.4941L6.41381 39.4979ZM27.4574 30.3913H26.6274V29.0323C26.623 28.8765 26.5584 28.7286 26.4473 28.62C26.3362 28.5114 26.1874 28.4506 26.0325 28.4506C25.8775 28.4506 25.7287 28.5114 25.6176 28.62C25.5065 28.7286 25.4419 28.8765 25.4376 29.0323V30.3913H24.6071C24.2926 30.3917 23.9912 30.5175 23.7688 30.7411C23.5465 30.9647 23.4214 31.2679 23.421 31.5841V39.4979C23.4214 39.8141 23.5465 40.1173 23.7688 40.3409C23.9912 40.5645 24.2926 40.6903 24.6071 40.6906H25.4376V42.0497C25.4419 42.2054 25.5065 42.3534 25.6176 42.462C25.7287 42.5706 25.8775 42.6314 26.0325 42.6314C26.1874 42.6314 26.3362 42.5706 26.4473 42.462C26.5584 42.3534 26.623 42.2054 26.6274 42.0497V40.6906H27.4574C27.7719 40.6904 28.0734 40.5646 28.2958 40.341C28.5181 40.1174 28.6432 39.8141 28.6434 39.4979V31.5841C28.643 31.2679 28.518 30.9647 28.2956 30.7411C28.0733 30.5175 27.7718 30.3917 27.4574 30.3913ZM24.6109 39.4979L24.6071 31.5879H27.4536L27.4574 39.4941L24.6109 39.4979ZM36.5559 24.1375H35.7259V22.7794C35.7259 22.6206 35.6632 22.4684 35.5516 22.3562C35.44 22.2439 35.2886 22.1809 35.1308 22.1809C34.9729 22.1809 34.8215 22.2439 34.7099 22.3562C34.5983 22.4684 34.5356 22.6206 34.5356 22.7794V24.1375H33.7056C33.3912 24.1378 33.0897 24.2636 32.8674 24.4872C32.645 24.7108 32.5199 25.014 32.5196 25.3302V33.245C32.5199 33.5612 32.645 33.8644 32.8674 34.088C33.0897 34.3116 33.3912 34.4374 33.7056 34.4377H34.5337V35.7968C34.5337 35.9555 34.5964 36.1077 34.708 36.22C34.8197 36.3322 34.971 36.3953 35.1289 36.3953C35.2867 36.3953 35.4381 36.3322 35.5497 36.22C35.6613 36.1077 35.724 35.9555 35.724 35.7968V34.4377H36.554C36.8688 34.4379 37.1707 34.3123 37.3935 34.0886C37.6162 33.865 37.7416 33.5615 37.7419 33.245V25.3312C37.7418 25.0148 37.6168 24.7114 37.3945 24.4876C37.1721 24.2638 36.8705 24.1378 36.5559 24.1375ZM33.7094 33.245L33.7056 25.335H36.5535L36.5573 33.2412L33.7094 33.245ZM45.6544 20.8379H44.8239V19.4793C44.8262 19.3993 44.8124 19.3197 44.7836 19.2452C44.7547 19.1706 44.7112 19.1027 44.6557 19.0453C44.6003 18.9879 44.5339 18.9423 44.4606 18.9112C44.3874 18.88 44.3086 18.864 44.229 18.864C44.1495 18.864 44.0707 18.88 43.9974 18.9112C43.9241 18.9423 43.8578 18.9879 43.8023 19.0453C43.7469 19.1027 43.7034 19.1706 43.6745 19.2452C43.6456 19.3197 43.6319 19.3993 43.6341 19.4793V20.8379H42.8041C42.4896 20.8383 42.1881 20.9641 41.9657 21.1878C41.7434 21.4115 41.6183 21.7148 41.6181 22.0311V29.9444C41.6183 30.2608 41.7434 30.564 41.9657 30.7877C42.1881 31.0115 42.4896 31.1373 42.8041 31.1377H43.6341V32.4986C43.6319 32.5786 43.6456 32.6582 43.6745 32.7328C43.7034 32.8073 43.7469 32.8753 43.8023 32.9326C43.8578 32.99 43.9241 33.0356 43.9974 33.0667C44.0707 33.0979 44.1495 33.1139 44.229 33.1139C44.3086 33.1139 44.3874 33.0979 44.4606 33.0667C44.5339 33.0356 44.6003 32.99 44.6557 32.9326C44.7112 32.8753 44.7547 32.8073 44.7836 32.7328C44.8124 32.6582 44.8262 32.5786 44.8239 32.4986V31.1377H45.6544C45.9689 31.1373 46.2705 31.0115 46.4928 30.7877C46.7152 30.564 46.8402 30.2608 46.8405 29.9444V22.0311C46.8402 21.7148 46.7152 21.4115 46.4928 21.1878C46.2705 20.9641 45.9689 20.8383 45.6544 20.8379ZM42.8079 29.9444L42.8041 22.0344H45.6507L45.6544 29.9407L42.8079 29.9444ZM43.3035 9.08458C43.2549 9.01589 43.1926 8.95824 43.1205 8.91535C43.0484 8.87246 42.9681 8.8453 42.8849 8.83563L34.6817 7.89843C34.5676 7.88527 34.4521 7.90562 34.3493 7.95703C34.2464 8.00844 34.1606 8.0887 34.1021 8.18812C34.0436 8.28754 34.015 8.40186 34.0198 8.51727C34.0245 8.63268 34.0624 8.74424 34.1288 8.83846L35.7259 11.1087L25.3666 19.1123L17.7064 14.6247C17.5921 14.5578 17.4589 14.5312 17.3278 14.5489C17.1968 14.5666 17.0753 14.6276 16.9826 14.7224L3.32679 28.7115C3.22157 28.8193 3.16073 28.963 3.15649 29.114C3.15224 29.265 3.2049 29.412 3.30391 29.5255C3.40292 29.6391 3.54094 29.7108 3.69032 29.7263C3.8397 29.7418 3.98938 29.6999 4.10935 29.6091L17.3992 19.5322L25.9679 25.0378C26.0706 25.1037 26.1909 25.1362 26.3126 25.1312C26.4343 25.1261 26.5516 25.0836 26.6485 25.0095L38.9083 15.6327L40.4804 17.8671C40.5467 17.9614 40.6387 18.0343 40.7454 18.0772C40.852 18.1201 40.9687 18.131 41.0813 18.1087C41.194 18.0864 41.2978 18.0317 41.3803 17.9514C41.4628 17.8711 41.5204 17.7685 41.5462 17.6559L43.3974 9.56451C43.4162 9.48237 43.4175 9.39717 43.4013 9.31447C43.3851 9.23177 43.3518 9.15344 43.3035 9.08458ZM40.6871 16.0853L39.5269 14.4362C39.4808 14.3706 39.4221 14.315 39.3542 14.2727C39.2864 14.2304 39.2107 14.2023 39.1318 14.1901C39.0529 14.1779 38.9723 14.1818 38.8949 14.2016C38.8175 14.2214 38.7449 14.2567 38.6814 14.3053L26.2586 23.8068L17.6914 18.3003C17.5891 18.2346 17.4693 18.2019 17.348 18.2067C17.2268 18.2115 17.1099 18.2536 17.0131 18.3272L9.77467 23.8148L17.5077 15.8935L25.113 20.3485C25.215 20.4082 25.3325 20.4361 25.4503 20.4285C25.5682 20.421 25.6811 20.3783 25.7748 20.306L36.9044 11.7087C37.0264 11.6145 37.1073 11.4765 37.1303 11.3236C37.1534 11.1708 37.1167 11.0149 37.028 10.8886L35.8677 9.23952L42.0883 9.95045L40.6871 16.0853Z" fill="#00ADB5"/>
</svg>