<svg width="50" height="51" viewBox="0 0 50 51" fill="none" xmlns="http://www.w3.org/2000/svg">
<path fill-rule="evenodd" clip-rule="evenodd" d="M37.747 30.2695L39.866 29.1553L42.4123 30.4941C44.5285 31.6069 44.5285 34.514 42.4123 35.6268L26.2262 44.1374C25.3068 44.6209 24.1926 44.6209 23.2733 44.1374L7.08721 35.6268C4.97093 34.514 4.97093 31.6069 7.0872 30.4941L9.63346 29.1553L11.7526 30.2695L8.07149 32.205C7.36607 32.5759 7.36607 33.5449 8.07149 33.9158L24.2576 42.4266C24.5641 42.5877 24.9355 42.5877 25.2418 42.4266L41.428 33.9158C42.1334 33.5449 42.1334 32.5759 41.428 32.205L37.747 30.2695Z" fill="#00ADB5"/>
<path fill-rule="evenodd" clip-rule="evenodd" d="M9.63361 21.3447L7.0872 22.6836C4.97093 23.7964 4.97093 26.7035 7.08721 27.8162L23.2733 36.327C24.1926 36.8103 25.3068 36.8103 26.2262 36.327L42.4123 27.8162C44.5285 26.7034 44.5285 23.7964 42.4123 22.6836L39.8661 21.3448L37.7471 22.4591L41.428 24.3945C42.1334 24.7654 42.1334 25.7345 41.428 26.1054L25.2418 34.6161C24.9355 34.7772 24.5641 34.7772 24.2576 34.6161L8.07149 26.1054C7.36607 25.7345 7.36607 24.7654 8.07149 24.3945L11.7527 22.459L9.63361 21.3447Z" fill="#00ADB5"/>
<path fill-rule="evenodd" clip-rule="evenodd" d="M25.2419 8.07342C24.9354 7.91228 24.564 7.91228 24.2576 8.07342L8.07149 16.5841C7.36606 16.9551 7.36606 17.924 8.07149 18.295L24.2576 26.8057C24.564 26.9669 24.9354 26.9669 25.2419 26.8057L41.428 18.295C42.1334 17.924 42.1334 16.9551 41.428 16.5841L25.2419 8.07342ZM23.2733 6.36255C24.1927 5.87915 25.3068 5.87915 26.2261 6.36254L42.4122 14.8733C44.5286 15.986 44.5286 18.8931 42.4122 20.0059L26.2261 28.5166C25.3068 29 24.1927 29 23.2733 28.5166L7.08721 20.0059C4.97094 18.8931 4.97093 15.986 7.08721 14.8733L23.2733 6.36255Z" fill="#00ADB5"/>
</svg>
