<svg width="27" height="26" viewBox="0 0 27 26" fill="none" xmlns="http://www.w3.org/2000/svg">
<path d="M13.332 0C6.15239 0 0.332031 5.82036 0.332031 13C0.332031 19.0965 4.52947 24.2122 10.1918 25.6173V16.9728H7.51115V13H10.1918V11.2882C10.1918 6.86348 12.1943 4.8126 16.5384 4.8126C17.362 4.8126 18.7832 4.97432 19.3646 5.13552V8.73652C19.0578 8.70428 18.5248 8.68816 17.8628 8.68816C15.7313 8.68816 14.9076 9.49572 14.9076 11.595V13H19.154L18.4244 16.9728H14.9076V25.9048C21.3447 25.1274 26.3326 19.6466 26.3326 13C26.332 5.82036 20.5117 0 13.332 0Z" fill="#5A616C"/>
</svg>
