<svg width="360" height="239" viewBox="0 0 360 239" fill="none" xmlns="http://www.w3.org/2000/svg">
<path d="M-218.211 191.345L-226 189.402V255.45H476V0L471.132 2.91388L462.369 25.2536L457.501 29.1388L448.738 27.1962L439.002 17.4833L433.16 18.4546L424.397 39.823L418.555 53.4211H410.766L402.977 40.7943L397.755 39.823H392.266L381.556 70.9044L378.635 72.847L373.767 74.7896L368.899 67.9905L361.11 27.1962L356.241 22.3397L351.373 24.2823L341.637 57.3063L335.795 61.1915L325.085 55.3637L319.243 50.5072H311.454L303.664 68.9618L298.796 75.7608L289.06 77.7034L281.271 87.4164L276.402 89.3589L271.534 87.4164L260.824 62.1627L252.061 60.2202L241.351 86.4451L237.456 90.3302L231.615 89.3589L219.931 72.847L211.168 71.8757L204.352 61.1915L199.484 53.4211L194.616 51.4785L190.721 54.3924L180.985 91.3015L178.064 97.1293L174.169 98.1006L169.301 88.3877L159.565 36.9091L156.644 33.024H154.696L149.828 35.9378L142.039 65.0766L138.144 70.9044L130.355 72.847L120.619 92.2728L117.698 95.1867H112.829L106.988 91.3015L101.146 82.5599L96.2775 80.6173L88.4883 85.4738L83.62 101.986L78.7518 107.814L73.8835 109.756L65.1207 104.9L58.3052 99.0719L51.4897 98.1006L48.5687 95.1867L40.7795 84.5025L35.9113 81.5886L31.043 84.5025L23.2539 126.268L17.412 141.809H11.5701L2.80725 131.125L-2.06099 129.182L-9.85017 128.211L-16.6657 142.78L-23.4812 150.55L-27.3758 151.522L-35.165 139.866L-43.9278 135.01L-49.7697 136.952L-61.4535 180.66L-66.3217 182.603L-74.1109 174.833L-84.821 167.062H-89.6893L-95.5312 160.263L-104.294 157.349L-110.136 160.263L-117.925 184.546L-125.714 189.402L-130.583 191.345L-137.398 194.259L-148.108 196.201L-153.95 191.345L-160.766 180.66L-169.528 178.718L-177.318 172.89L-184.133 169.005L-188.028 169.976L-191.922 177.747L-199.712 196.201L-204.58 200.086L-210.422 199.115L-218.211 191.345Z" fill="url(#paint0_linear_1319_1897)"/>
<path d="M476 0C465.971 0 465.971 29.7084 455.943 29.7084C445.914 29.7084 446.332 17.2415 435.886 17.2415C425.439 17.2415 426.275 53.8465 415.829 53.8465C405.382 53.8465 407.054 39.1514 395.771 39.1514C384.489 39.1514 387.414 74.8546 375.714 74.8546C364.014 74.8546 365.686 22.2813 355.657 22.2813C345.629 22.2813 346.464 60.637 335.6 60.637C324.736 60.637 326.407 50.1329 315.543 50.1329C304.679 50.1329 306.35 76.393 295.486 76.393C284.621 76.393 285.875 89.1252 275.429 89.1252C264.982 89.1252 265.818 60.4778 255.371 60.4778C244.925 60.4778 246.179 90.6106 235.314 90.6106C224.45 90.6106 226.957 72.4142 215.257 72.4142C203.557 72.4142 205.646 52.1489 195.2 52.1489C184.754 52.1489 186.007 98.4091 175.143 98.4091C164.279 98.4091 165.95 32.3609 155.086 32.3609C144.221 32.3609 145.475 71.8307 135.029 71.8307C124.582 71.8307 126.671 95.4382 114.971 95.4382C103.271 95.4382 106.196 81.1146 94.9142 81.1146C83.6321 81.1146 86.5571 110.292 74.8571 110.292C63.1571 110.292 66.0821 99.0457 54.7999 99.0457C43.5178 99.0457 45.6071 82.0164 34.7428 82.0164C23.8785 82.0164 25.5499 143.184 14.6857 143.184C3.82136 143.184 6.32849 128.224 -5.37151 128.224C-17.0715 128.224 -15.4001 151.619 -25.4286 151.619C-35.4572 151.619 -34.2037 134.908 -45.4858 134.908C-56.768 134.908 -55.0965 183.184 -65.543 183.184C-75.9894 183.184 -73.9001 168.648 -85.6001 168.648C-97.3001 168.648 -94.3751 158.091 -105.657 158.091C-116.939 158.091 -114.85 190.452 -125.714 190.452C-136.579 190.452 -134.072 197.243 -145.772 197.243C-157.472 197.243 -154.129 179.364 -165.829 179.364C-177.529 179.364 -175.857 169.815 -185.886 169.815C-195.914 169.815 -195.914 200.85 -205.943 200.85C-215.972 200.85 -215.136 189.922 -226 189.922" stroke="#00ADB5" stroke-width="3.9"/>
<circle cx="34.3266" cy="80.9252" r="8.775" fill="#00ADB5" stroke="white" stroke-width="3.9"/>
<circle cx="94.7758" cy="84.8246" r="8.775" fill="#00ADB5" stroke="white" stroke-width="3.9"/>
<circle cx="155.225" cy="36.0746" r="8.775" fill="#00ADB5" stroke="white" stroke-width="3.9"/>
<circle cx="198.123" cy="51.6752" r="8.775" fill="#00ADB5" stroke="white" stroke-width="3.9"/>
<circle cx="276.123" cy="84.8246" r="8.775" fill="#00ADB5" stroke="white" stroke-width="3.9"/>
<circle cx="354.123" cy="24.3754" r="8.775" fill="#00ADB5" stroke="white" stroke-width="3.9"/>
<circle cx="16.7758" cy="139.425" r="8.775" fill="#00ADB5" stroke="white" stroke-width="3.9"/>
<defs>
<linearGradient id="paint0_linear_1319_1897" x1="125" y1="-14.625" x2="125" y2="319.5" gradientUnits="userSpaceOnUse">
<stop offset="0.881058" stop-color="#00ADB5" stop-opacity="0.21"/>
<stop offset="1" stop-color="white" stop-opacity="0"/>
</linearGradient>
</defs>
</svg>
