<svg width="360" height="176" viewBox="0 0 360 176" fill="none" xmlns="http://www.w3.org/2000/svg">
<path d="M-26.648 92.3222L-90 64.472V211.25H450V12.5352L442.458 10.2771L401.732 56.1922L385.14 51.676L333.855 94.5803L327.821 98.3439L275.782 47.9125L259.944 56.1922L231.285 10.2771H226.006L192.821 47.9125H189.05L166.425 76.5153L140.028 110.387L133.24 114.903L118.156 97.5912L86.4805 8.77166L78.9386 2.75L66.8715 8.77166L45 57.6977L36.7039 64.472L20.1117 53.9341L5.02794 57.6977L-26.648 92.3222Z" fill="url(#paint0_linear_783_6381)"/>
<path d="M-90 64.5826L-31.6124 90.3277C-27.3605 92.2025 -22.3697 90.5573 -19.8187 86.6732C-10.6396 72.6973 11.5422 43.8424 29.6634 59.367C53.1417 79.481 54.5105 -2.49448 81.9215 3.49595C95.554 6.47522 98.4262 44.6502 110.701 76.5014C119.288 98.783 123.326 110.715 133.487 113.24C136.245 113.925 138.967 112.408 140.666 110.129L186.33 48.8796C187.241 47.6572 188.947 47.3559 190.222 48.192V48.192C191.499 49.0293 193.207 48.7257 194.118 47.4995L219.028 13.9406C222.924 8.69297 230.937 9.21581 234.117 14.9251L253.407 49.5533C255.764 53.7836 261.045 55.3911 265.359 53.191L272.033 49.7872C275.611 47.9619 279.967 48.7297 282.706 51.6688L322.101 93.9415C325.422 97.5048 330.975 97.7796 334.631 94.5617L381.199 53.578C383.886 51.2127 387.72 50.6653 390.962 52.1838L395.018 54.0836C398.826 55.867 403.361 54.7766 405.941 51.4573L435.243 13.7668C438.35 9.77089 444.14 9.12167 448.054 12.3303L450 13.9254" stroke="#00ADB5" stroke-width="6"/>
<defs>
<linearGradient id="paint0_linear_783_6381" x1="180" y1="2.75" x2="180" y2="211.25" gradientUnits="userSpaceOnUse">
<stop offset="0.371699" stop-color="#00ADB5" stop-opacity="0.21"/>
<stop offset="1" stop-color="#00ADB5" stop-opacity="0"/>
</linearGradient>
</defs>
</svg>
