<svg width="73" height="72" viewBox="0 0 73 72" fill="none" xmlns="http://www.w3.org/2000/svg">
<path d="M27.5 54C27.5 54 30.2 42.777 36.5 36" stroke="#393E46" stroke-width="1.5" stroke-linecap="round" stroke-linejoin="round"/>
<path d="M49.0587 21.723L50.1807 33.393C50.9097 40.962 45.2337 47.703 37.6647 48.429C30.2397 49.143 23.5107 43.716 22.7967 36.288C22.4531 32.7219 23.5402 29.1655 25.8187 26.4008C28.0972 23.6362 31.3806 21.8899 34.9467 21.546L47.3877 20.346C47.5881 20.3266 47.7903 20.3469 47.9828 20.4058C48.1754 20.4647 48.3544 20.561 48.5096 20.6892C48.6648 20.8174 48.7933 20.9749 48.8875 21.1529C48.9817 21.3308 49.0399 21.5226 49.0587 21.723Z" stroke="#393E46" stroke-width="1.5" stroke-linecap="round" stroke-linejoin="round"/>
<path d="M36.5 66C53.069 66 66.5 52.569 66.5 36C66.5 19.431 53.069 6 36.5 6C19.931 6 6.5 19.431 6.5 36C6.5 52.569 19.931 66 36.5 66Z" stroke="#6A727F" stroke-width="1.5" stroke-linecap="round" stroke-linejoin="round"/>
</svg>
