<svg width="36" height="36" viewBox="0 0 36 36" fill="none" xmlns="http://www.w3.org/2000/svg">
<path d="M33 18H34.5M18 3V1.5M18 34.5V33M30 30L28.5 28.5M30 6L28.5 7.5M6 30L7.5 28.5M6 6L7.5 7.5M1.5 18H3M14.928 14.4345L17.2665 9.477C17.3295 9.33505 17.4323 9.21443 17.5625 9.12977C17.6927 9.04511 17.8447 9.00005 18 9.00005C18.1553 9.00005 18.3073 9.04511 18.4375 9.12977C18.5677 9.21443 18.6705 9.33505 18.7335 9.477L21.072 14.4345L26.2995 15.234C26.97 15.336 27.237 16.2 26.7525 16.695L22.9695 20.55L23.862 25.9965C23.9775 26.697 23.2755 27.2295 22.6755 26.8995L18 24.327L13.3245 26.8995C12.7245 27.2295 12.0225 26.697 12.138 25.9965L13.0305 20.5515L9.2475 16.695C8.763 16.2 9.03 15.336 9.7005 15.234L14.928 14.4345Z" stroke="#393E46" stroke-width="1.5" stroke-linecap="round" stroke-linejoin="round"/>
</svg>
