<svg width="27" height="26" viewBox="0 0 27 26" fill="none" xmlns="http://www.w3.org/2000/svg">
<path fill-rule="evenodd" clip-rule="evenodd" d="M26.668 13C26.668 20.1797 20.8477 26 13.668 26C6.48827 26 0.667969 20.1797 0.667969 13C0.667969 5.8203 6.48827 0 13.668 0C20.8477 0 26.668 5.8203 26.668 13ZM14.1338 9.59717C12.8694 10.1231 10.3423 11.2116 6.55252 12.8628C5.93712 13.1075 5.61475 13.3469 5.5854 13.581C5.5358 13.9766 6.03124 14.1324 6.70589 14.3445C6.79766 14.3734 6.89275 14.4033 6.99023 14.435C7.65399 14.6508 8.54686 14.9032 9.01103 14.9132C9.43207 14.9223 9.90201 14.7487 10.4208 14.3925C13.9617 12.0023 15.7895 10.7941 15.9043 10.7681C15.9853 10.7497 16.0975 10.7266 16.1735 10.7942C16.2495 10.8617 16.242 10.9897 16.234 11.024C16.1849 11.2332 14.2401 13.0413 13.2337 13.9769C12.9199 14.2686 12.6974 14.4755 12.6519 14.5228C12.55 14.6286 12.4461 14.7288 12.3463 14.825C11.7296 15.4194 11.2672 15.8652 12.3719 16.5932C12.9027 16.943 13.3275 17.2323 13.7513 17.5209C14.2142 17.8361 14.6758 18.1505 15.2731 18.542C15.4252 18.6417 15.5705 18.7453 15.7121 18.8462C16.2507 19.2302 16.7346 19.5752 17.3324 19.5202C17.6798 19.4882 18.0386 19.1616 18.2209 18.1874C18.6515 15.8851 19.4981 10.8967 19.6937 8.84105C19.7108 8.66096 19.6893 8.43047 19.672 8.32929C19.6547 8.22811 19.6185 8.08395 19.4869 7.97723C19.3312 7.85085 19.0907 7.8242 18.9832 7.82609C18.4942 7.8347 17.7441 8.09555 14.1338 9.59717Z" fill="#5A616C"/>
</svg>
