<svg width="147" height="254" viewBox="0 0 147 254" fill="none" xmlns="http://www.w3.org/2000/svg">
<path d="M3 6.91092C53.1715 -2.9301 151.52 -0.305829 143.543 88.9195C135.565 178.145 46.5235 232.817 3 249" stroke="#84FAFF" stroke-width="5" stroke-linecap="round" stroke-dasharray="10 10"/>
<path d="M3 6.91092C53.1715 -2.9301 151.52 -0.305832 143.543 88.9195C139.62 132.788 116.102 168.304 88.033 195" stroke="white" stroke-width="5" stroke-linecap="round"/>
<path d="M59.8735 182.258L64.9814 207.47L52.6035 217.373C50.7356 218.868 50.5446 221.48 52.1761 223.222C53.8075 224.964 56.6323 225.164 58.5003 223.67L70.8782 213.766L97.1411 222.052C98.1752 222.4 99.356 222.189 100.189 221.523C101.764 220.263 101.572 217.956 99.8279 216.892L81.0281 205.646L93.3835 195.76L100.864 198.073C101.361 198.226 101.921 198.108 102.303 197.802L103.429 196.902L103.609 196.758C104.351 196.164 104.282 195.081 103.493 194.574L96.1104 189.76L94.9362 189.011L94.3918 188.051L93.8138 186.971L91.1595 182.119L90.2251 180.407C89.7761 179.591 88.6463 179.394 87.9037 179.988L87.071 180.654L86.5984 181.032C86.1933 181.356 86.0101 181.833 86.1024 182.31L87.4867 189.464L75.1088 199.367L65.7613 180.558C64.8944 178.792 62.4522 178.286 60.8768 179.546C60.0442 180.212 59.6496 181.262 59.8735 182.258Z" fill="#D6FDFF"/>
</svg>
