<svg width="147" height="123" viewBox="0 0 147 123" fill="none" xmlns="http://www.w3.org/2000/svg">
<g opacity="0.32" clip-path="url(#clip0_783_6346)">
<path d="M138.666 71.0882C138.659 70.9002 138.633 70.7286 138.582 70.5717C138.571 70.533 138.572 70.4759 138.547 70.4336C138.474 70.2276 138.398 70.0284 138.282 69.8469C138.258 69.8045 138.23 69.7755 138.205 69.7332C138.104 69.5771 137.987 69.4527 137.856 69.3246C137.828 69.2956 137.812 69.2769 137.784 69.2479L114.083 48.2315C113.458 47.6774 112.602 47.4482 111.791 47.6174L80.7569 53.9676C80.7181 53.9787 80.6945 53.9867 80.6557 53.9977C80.4787 54.0434 80.3115 54.1061 80.1493 54.1772C80.1069 54.2016 80.0681 54.2127 80.0258 54.2372C79.8363 54.3296 79.6494 54.4657 79.5027 54.6126C79.4737 54.6406 79.4514 54.6704 79.4036 54.7149C79.2756 54.8453 79.1676 54.9811 79.073 55.1204C79.0386 55.1685 79.0127 55.2117 78.9784 55.2598C78.8694 55.4526 78.7823 55.6441 78.7214 55.8712L69.5554 90.0794C69.294 91.0548 69.6038 92.0902 70.3578 92.7505L94.059 113.767C94.3697 114.051 94.7406 114.243 95.1349 114.349C95.5291 114.454 95.9466 114.473 96.3575 114.383L127.392 108.033C128.381 107.84 129.161 107.096 129.422 106.121L138.584 71.9261C138.643 71.7057 138.666 71.4896 138.668 71.2681C138.667 71.2178 138.661 71.1586 138.666 71.0882ZM111.548 53.0948L130.285 69.7019L105.754 74.7153L87.0168 58.1082L111.548 53.0948ZM96.5881 108.924L75.1089 89.8781L82.7355 61.4152L103.221 79.5721C103.532 79.8558 103.903 80.0483 104.297 80.154C104.691 80.2596 105.108 80.2784 105.519 80.188L132.339 74.7064L124.709 103.181L96.5881 108.924ZM153.067 113.66L162.83 77.2266C169.003 77.599 174.802 73.5959 176.462 67.4023C178.36 60.3202 174.153 53.0346 167.071 51.1369C163.202 50.1003 159.141 50.9026 155.964 53.1664L130.956 29.7805C131.614 28.6892 132.145 27.5355 132.476 26.2993C134.374 19.2172 130.167 11.9316 123.085 10.0339C116.003 8.13616 108.717 12.3424 106.819 19.4245C106.49 20.6539 106.366 21.9454 106.395 23.1993L73.041 30.9616C71.4076 27.4089 68.3057 24.6872 64.4371 23.6506C57.3547 21.7529 50.069 25.9591 48.1713 33.0412C46.5117 39.2348 49.5341 45.5943 55.0649 48.3654L45.3026 84.7988C39.1291 84.4264 33.3301 88.4295 31.6705 94.6231C29.7729 101.705 33.9794 108.991 41.0618 110.889C44.9437 111.929 48.9911 111.123 52.1818 108.863L77.1758 132.245C76.5182 133.336 75.9871 134.49 75.6523 135.739C73.7546 142.821 77.9612 150.107 85.0436 152.005C92.126 153.902 99.4118 149.696 101.309 142.614C101.644 141.365 101.763 140.093 101.737 138.826L135.074 131.073C136.707 134.626 139.809 137.348 143.691 138.388C150.773 140.286 158.059 136.079 159.957 128.997C161.62 122.79 158.598 116.431 153.067 113.66ZM165.694 56.2759C169.936 57.4128 172.465 61.7926 171.328 66.0352C170.192 70.2779 165.812 72.8065 161.569 71.6696C157.326 70.5327 154.797 66.153 155.934 61.9103C156.283 60.6075 156.911 59.494 157.81 58.5459C159.838 56.3753 162.854 55.515 165.694 56.2759ZM121.712 15.1598C125.955 16.2967 128.484 20.6764 127.347 24.9191C127.003 26.2019 126.37 27.3355 125.492 28.2889C123.469 30.4395 120.447 31.3197 117.587 30.5535C117.227 30.4568 116.891 30.3454 116.543 30.202C114.537 29.3494 112.97 27.7408 112.192 25.6993C112.064 25.3498 111.954 25.0124 111.869 24.6603C111.565 23.3901 111.604 22.097 111.947 20.8142C113.09 16.5516 117.469 14.0229 121.712 15.1598ZM53.3055 34.4111C54.4424 30.1684 58.8222 27.6398 63.065 28.7767C65.9048 29.5376 68.0867 31.7908 68.7544 34.6979C69.0621 35.9548 69.049 37.233 68.6999 38.536C67.5631 42.7787 63.1832 45.3073 58.9404 44.1704C54.6976 43.0335 52.1687 38.6538 53.3055 34.4111ZM42.4414 105.745C38.1986 104.608 35.6698 100.228 36.8067 95.9858C37.9435 91.7431 42.3233 89.2145 46.5662 90.3514C50.809 91.4882 53.3378 95.868 52.2009 100.111C52.1132 100.438 52.0108 100.74 51.8915 101.052C51.5188 101.962 51.0067 102.777 50.342 103.494C48.3174 105.651 45.3012 106.511 42.4414 105.745ZM86.4229 146.861C82.18 145.724 79.6513 141.345 80.7881 137.102C81.1372 135.799 81.765 134.686 82.6635 133.737C84.6863 131.587 87.708 130.707 90.5477 131.468C90.9085 131.564 91.2439 131.676 91.5721 131.814C93.8929 132.801 95.6572 134.849 96.237 137.389C96.5447 138.646 96.5316 139.924 96.1825 141.227C95.0457 145.47 90.6657 147.998 86.4229 146.861ZM100.545 133.631C100.466 133.445 100.365 133.289 100.265 133.098C100.181 132.932 100.098 132.759 100 132.59C99.8053 132.222 99.566 131.886 99.3266 131.55C99.2497 131.436 99.1861 131.326 99.1007 131.217C98.7808 130.781 98.4356 130.359 98.0412 129.959C97.9589 129.866 97.861 129.804 97.7804 129.703C97.4751 129.4 97.1645 129.116 96.8351 128.849C96.6792 128.735 96.5435 128.627 96.3961 128.509C96.1045 128.288 95.796 128.076 95.4839 127.878C95.3111 127.774 95.1499 127.681 94.9772 127.577C94.6396 127.394 94.3021 127.21 93.9605 127.069C93.7958 126.989 93.651 126.914 93.4894 126.849C92.9794 126.641 92.4405 126.461 91.906 126.318C91.3581 126.171 90.8159 126.083 90.2689 125.986C90.0898 125.96 89.9138 125.949 89.7511 125.941C89.3724 125.911 88.9937 125.881 88.6163 125.873C88.4149 125.876 88.2153 125.873 88.0139 125.876C87.6597 125.889 87.3067 125.923 86.9471 125.956C86.7555 125.976 86.5505 125.993 86.3602 126.035C85.9783 126.097 85.5874 126.193 85.1898 126.287C85.0516 126.321 84.9001 126.352 84.7601 126.394C84.2391 126.548 83.7545 126.726 83.2628 126.931C83.1023 126.995 82.9498 127.083 82.8009 127.158C82.4679 127.305 82.1496 127.477 81.8191 127.668C81.6243 127.78 81.4428 127.897 81.2626 128.034C81.1066 128.136 80.9541 128.224 80.7962 128.332L55.831 104.979C55.8689 104.918 55.9055 104.834 55.9489 104.753C56.1493 104.406 56.3383 104.048 56.5107 103.672C56.5942 103.494 56.6742 103.329 56.7577 103.151C56.9749 102.607 57.1859 102.034 57.3416 101.453C57.4508 101.045 57.5418 100.625 57.6042 100.205C57.62 100.066 57.6389 99.9424 57.6564 99.7968C57.6964 99.5139 57.7364 99.231 57.751 98.9628C57.7587 98.8001 57.7665 98.6375 57.7743 98.4749C57.7853 98.2201 57.7829 97.9616 57.7805 97.7032C57.7682 97.5352 57.7627 97.369 57.7504 97.201C57.7426 96.9626 57.7166 96.7122 57.6889 96.4684C57.6632 96.2969 57.651 96.1289 57.6217 95.9707C57.5806 95.7233 57.5292 95.4875 57.488 95.2402C57.457 95.0887 57.4278 94.9305 57.3901 94.7771C57.3289 94.5244 57.2562 94.2615 57.1695 94.0234C57.135 93.8853 57.095 93.7671 57.0404 93.6236C56.912 93.2741 56.7832 92.9532 56.6294 92.6184C56.6183 92.5796 56.5938 92.5372 56.5894 92.5002C56.4277 92.1418 56.2508 91.7865 56.0502 91.4392C55.9768 91.3121 55.9132 91.2019 55.8296 91.0864C55.6891 90.8626 55.5467 90.6454 55.4062 90.4216C55.3128 90.2892 55.2158 90.1701 55.1242 90.0309C54.9729 89.8472 54.8288 89.6367 54.6721 89.473C54.5618 89.3503 54.4483 89.2125 54.338 89.0898C54.1831 88.9195 54.0082 88.7437 53.8534 88.5733C53.743 88.4506 53.6005 88.3409 53.4902 88.2182C53.3099 88.0625 53.1381 87.9019 52.9378 87.7408C52.802 87.6328 52.6796 87.5284 52.5403 87.4338C52.3266 87.2691 52.1258 87.1365 51.9067 86.9919C51.7874 86.9026 51.6596 86.8182 51.535 86.749C51.2344 86.5611 50.9169 86.3829 50.5941 86.2248C50.546 86.1904 50.5028 86.1645 50.4494 86.1502L60.2117 49.7168C60.2705 49.7111 60.3208 49.7103 60.3743 49.7246C60.7329 49.7491 61.0836 49.75 61.4512 49.7411C61.5938 49.7435 61.7484 49.7276 61.8946 49.7166C62.1584 49.6942 62.4222 49.6718 62.6642 49.6507C62.8358 49.6251 62.994 49.5959 63.162 49.5836C63.396 49.5389 63.6397 49.5111 63.8791 49.4463C64.0507 49.4207 64.2142 49.3715 64.3711 49.3204C64.6105 49.2556 64.8298 49.1855 65.0491 49.1154C65.206 49.0643 65.3696 49.0151 65.5301 48.9506C65.753 48.8671 65.9776 48.777 66.2005 48.6935C66.3476 48.6255 66.4912 48.5708 66.6401 48.4962C66.8737 48.3726 67.1056 48.2557 67.3392 48.1321C67.4627 48.0721 67.5964 48.0005 67.7066 47.9369C68.0539 47.7364 68.3812 47.5305 68.7041 47.2876C68.7331 47.2596 68.7755 47.2351 68.7978 47.2053C69.0917 46.9904 69.3722 46.772 69.6563 46.5402C69.75 46.4579 69.849 46.3555 69.9681 46.2585C70.1608 46.0739 70.3566 45.9044 70.536 45.7161C70.6386 45.6004 70.743 45.478 70.8523 45.364C71.008 45.1838 71.1874 44.9955 71.3333 44.7983C71.4413 44.6625 71.5324 44.5365 71.6404 44.4008C71.7863 44.2036 71.934 43.9997 72.0599 43.7971C72.1545 43.6578 72.2425 43.5166 72.3371 43.3773C72.4684 43.1547 72.5863 42.9285 72.7175 42.7058C72.7921 42.5611 72.8667 42.4164 72.9413 42.2717C73.0681 42.0121 73.1696 41.7671 73.2764 41.5021C73.3322 41.3739 73.3778 41.2572 73.4355 41.1223C73.5781 40.7237 73.7225 40.3184 73.8317 39.9108C73.9874 39.3296 74.0897 38.734 74.1751 38.1482C74.2016 37.9691 74.1996 37.7895 74.2163 37.5935C74.2551 37.1814 74.2739 36.7639 74.2739 36.3629C74.2718 36.2907 74.2817 36.2003 74.2795 36.1281L107.558 28.3815C107.637 28.5674 107.738 28.7234 107.837 28.9147C107.922 29.0806 108.018 29.2567 108.102 29.4225C108.303 29.7699 108.517 30.1208 108.766 30.4454C108.843 30.5592 108.923 30.688 109 30.8017C109.32 31.2383 109.671 31.6402 110.045 32.0341C110.127 32.1278 110.233 32.2134 110.322 32.3089C110.608 32.6073 110.924 32.871 111.251 33.145C111.407 33.2584 111.556 33.3699 111.71 33.49C112.002 33.7113 112.294 33.9042 112.608 34.0957C112.781 34.1993 112.955 34.2962 113.128 34.3997C113.465 34.5833 113.808 34.7468 114.145 34.9085C114.309 34.9884 114.467 35.0666 114.616 35.1278C115.126 35.336 115.665 35.5163 116.212 35.6631C116.76 35.8099 117.302 35.8979 117.863 35.9979C118.042 36.0244 118.218 36.0358 118.381 36.0435C118.759 36.0734 119.138 36.1033 119.515 36.1113C119.717 36.108 119.916 36.1113 120.104 36.1044C120.472 36.0955 120.832 36.063 121.185 36.0286C121.376 36.0084 121.561 35.9863 121.755 35.9594C122.162 35.8823 122.568 35.812 122.964 35.6962C123.102 35.6616 123.216 35.635 123.355 35.6004C123.876 35.4464 124.38 35.2737 124.876 35.0555C124.999 34.9955 125.133 34.9239 125.276 34.8693C125.638 34.6942 125.996 34.5106 126.343 34.3101C126.512 34.2123 126.67 34.1042 126.846 34.0082C127.002 33.9068 127.174 33.8022 127.35 33.7062L152.296 57.0541C152.258 57.1155 152.222 57.1988 152.184 57.2603C151.983 57.6076 151.794 57.9651 151.622 58.3414C151.538 58.5196 151.458 58.6843 151.375 58.8624C151.138 59.4004 150.947 59.9794 150.791 60.5606C150.682 60.9682 150.591 61.3878 150.528 61.8079C150.513 61.9469 150.494 62.0707 150.476 62.2164C150.436 62.4993 150.396 62.7822 150.382 63.0504C150.374 63.213 150.366 63.3756 150.358 63.5382C150.347 63.7931 150.35 64.0515 150.352 64.31C150.364 64.4779 150.37 64.6442 150.382 64.8121C150.39 65.0505 150.416 65.301 150.444 65.5447C150.469 65.7163 150.482 65.8843 150.511 66.0425C150.552 66.2898 150.603 66.5256 150.644 66.7729C150.675 66.9245 150.705 67.0827 150.742 67.236C150.804 67.4887 150.876 67.7517 150.963 67.9897C150.998 68.1279 151.038 68.246 151.092 68.3895C151.22 68.739 151.349 69.06 151.503 69.3948C151.514 69.4336 151.539 69.4759 151.543 69.5129C151.705 69.8713 151.882 70.2266 152.082 70.574C152.156 70.7011 152.219 70.8112 152.303 70.9267C152.443 71.1505 152.586 71.3677 152.726 71.5915C152.82 71.724 152.917 71.8431 153.008 71.9822C153.16 72.166 153.304 72.3764 153.46 72.5401C153.571 72.6628 153.684 72.8006 153.795 72.9233C153.949 73.0937 154.124 73.2695 154.279 73.4398C154.389 73.5625 154.532 73.6723 154.642 73.7949C154.823 73.9507 154.994 74.1113 155.195 74.2724C155.33 74.3803 155.453 74.4848 155.592 74.5794C155.806 74.7441 156.007 74.8766 156.226 75.0213C156.345 75.1105 156.473 75.1949 156.598 75.2641C156.898 75.4521 157.216 75.6302 157.538 75.7883C157.586 75.8227 157.63 75.8486 157.683 75.8629L147.921 112.296C147.862 112.302 147.812 112.303 147.758 112.289C147.4 112.264 147.049 112.263 146.681 112.272C146.539 112.27 146.384 112.286 146.238 112.297C145.974 112.319 145.71 112.341 145.468 112.362C145.297 112.388 145.139 112.417 144.971 112.43C144.737 112.474 144.493 112.502 144.253 112.567C144.082 112.592 143.918 112.642 143.761 112.693C143.522 112.758 143.303 112.828 143.083 112.898C142.926 112.949 142.763 112.998 142.602 113.063C142.38 113.146 142.155 113.236 141.932 113.32C141.785 113.388 141.641 113.442 141.492 113.517C141.259 113.641 141.027 113.757 140.793 113.881C140.67 113.941 140.536 114.013 140.426 114.076C140.079 114.277 139.751 114.483 139.428 114.726C139.399 114.754 139.357 114.778 139.335 114.808C139.041 115.023 138.76 115.241 138.476 115.473C138.383 115.555 138.283 115.658 138.164 115.755C137.972 115.939 137.776 116.109 137.597 116.297C137.494 116.413 137.389 116.535 137.28 116.649C137.124 116.829 136.945 117.018 136.799 117.215C136.691 117.351 136.6 117.477 136.492 117.612C136.346 117.81 136.198 118.013 136.073 118.216C135.978 118.355 135.89 118.497 135.795 118.636C135.664 118.859 135.546 119.085 135.415 119.307C135.34 119.452 135.266 119.597 135.191 119.742C135.064 120.001 134.963 120.246 134.856 120.511C134.8 120.639 134.755 120.756 134.697 120.891C134.554 121.29 134.41 121.695 134.301 122.102C134.145 122.684 134.043 123.279 133.957 123.865C133.927 124.057 133.928 124.244 133.911 124.44C133.872 124.852 133.859 125.249 133.857 125.657C133.859 125.729 133.849 125.82 133.846 125.912L100.545 133.631ZM145.069 133.244C142.209 132.478 140.027 130.225 139.356 127.331C139.052 126.061 139.091 124.768 139.434 123.485C140.571 119.242 144.951 116.713 149.194 117.85C153.437 118.987 155.965 123.367 154.829 127.61C153.692 131.852 149.312 134.381 145.069 133.244Z" fill="url(#paint0_linear_783_6346)"/>
</g>
<defs>
<linearGradient id="paint0_linear_783_6346" x1="132.619" y1="144.034" x2="81.6191" y2="16.5338" gradientUnits="userSpaceOnUse">
<stop stop-color="#10507F"/>
<stop offset="1" stop-color="#00ADB5"/>
</linearGradient>
<clipPath id="clip0_783_6346">
<rect width="170" height="170" fill="white" transform="translate(44.5859 -22) rotate(15)"/>
</clipPath>
</defs>
</svg>
