<svg width="139" height="123" viewBox="0 0 139 123" fill="none" xmlns="http://www.w3.org/2000/svg">
<g opacity="0.32">
<path d="M89.7303 94.3751L89.7291 94.3736C89.3665 93.893 89.2684 93.1519 89.5524 92.1087C89.8345 91.0726 90.4732 89.8263 91.4407 88.4471C93.3724 85.6934 96.5466 82.5059 100.509 79.5499C104.471 76.5942 108.439 74.4619 111.643 73.3953C113.247 72.8612 114.632 72.6037 115.716 72.6276C116.806 72.6518 117.501 72.9557 117.868 73.4402C117.979 73.5887 118.062 73.7578 118.115 73.94L118.144 74.1471C118.224 74.8803 118.113 75.6225 117.821 76.2981C117.36 77.2267 116.524 78.1069 115.512 78.8973C114.5 79.6866 113.343 80.3622 112.287 80.8869C111.272 81.3902 110.229 81.8163 109.169 82.2496C108.657 82.4585 108.142 82.6692 107.623 82.891C106.051 83.5637 104.488 84.3254 103.105 85.4141L103.105 85.414L103.098 85.4196C100.39 87.6298 98.3869 90.5758 97.3304 93.8965C95.4209 94.6609 93.7401 95.0929 92.4144 95.1701C91.017 95.2514 90.1495 94.9351 89.7303 94.3751Z" fill="url(#paint0_linear_783_6356)" stroke="url(#paint1_linear_783_6356)"/>
<path d="M116.071 79.2961C116.849 78.6906 117.57 78.0027 118.119 77.2412C117.946 78.2356 117.649 79.3475 117.233 80.547C116.22 83.4709 114.517 86.8786 112.241 90.3143C109.516 94.4286 106.506 97.7737 103.857 99.8584C102.53 100.903 101.317 101.612 100.293 101.955C99.2613 102.301 98.5096 102.248 98.0055 101.916L98.0052 101.916C97.4158 101.528 97.0477 100.676 97.0516 99.2686C97.0555 97.8823 97.4243 96.089 98.1416 94.0326L98.1417 94.0322C98.44 93.1751 98.8032 92.2707 99.2161 91.3371C100.279 89.1914 101.797 87.3007 103.666 85.7938C104.944 84.7887 106.408 84.0686 107.957 83.4076C108.453 83.1957 108.963 82.9883 109.477 82.7789C110.546 82.3436 111.636 81.8998 112.674 81.3897L112.675 81.3888C113.772 80.8443 114.991 80.1374 116.071 79.2961Z" fill="url(#paint2_linear_783_6356)" stroke="url(#paint3_linear_783_6356)"/>
<path d="M140.543 7.9398C139.823 6.9561 138.559 6.54214 137.391 6.91035C136.228 7.27988 135.432 8.35199 135.412 9.57012C135.227 21.0863 133.366 34.8359 126.294 41.1469C130.566 23.966 125.538 5.13054 112.189 -10.5L111.719 -11.0445C110.999 -11.8675 109.865 -12.2015 108.816 -11.9066C107.763 -11.6112 106.973 -10.7365 106.786 -9.65749C103.965 6.61818 92.7153 16.9922 80.8047 27.975C65.1729 42.3898 49.0089 57.2953 54.5173 85.9186C60.1165 115.013 87.6391 134.435 116.658 130.357C117.589 130.226 118.521 130.071 119.453 129.892C133.614 127.167 145.988 119.173 154.295 107.385L154.292 107.384C154.315 107.354 154.337 107.324 154.357 107.293C162.033 96.3555 165.504 83.0373 164.142 69.8616C162.489 48.7353 153.886 26.1644 140.543 7.9398ZM158.487 70.3766C159.716 82.2631 156.6 94.2138 149.71 104.032C149.707 104.036 149.696 104.053 149.682 104.074C149.673 104.086 149.663 104.099 149.654 104.113C142.199 114.695 131.091 121.868 118.382 124.316C91.4293 129.502 65.2839 111.797 60.0976 84.847C55.1862 59.3285 69.5013 46.1289 84.6581 32.1532C95.3972 22.2497 106.461 12.0493 111.002 -2.85953C122.196 12.4217 125.143 30.3117 118.806 45.8377C118.4 46.8323 118.59 47.9718 119.3 48.7813C120.009 49.5908 121.113 49.9289 122.151 49.6602C132.772 46.8972 138.978 36.3305 140.65 18.2053C150.699 34.205 157.109 52.7972 158.487 70.3766ZM100.025 57.6142C84.2943 59.825 73.2944 74.4224 75.5052 90.1533C77.7161 105.884 92.3135 116.884 108.044 114.673C123.775 112.463 134.775 97.8651 132.564 82.1342C130.352 66.4035 115.756 55.4033 100.025 57.6142ZM107.254 109.048C94.6238 110.823 82.9055 101.991 81.1304 89.3609C79.3554 76.7309 88.1856 65.0128 100.816 63.2378C113.446 61.4627 125.166 70.2927 126.941 82.9227C128.716 95.5527 119.882 107.273 107.254 109.048Z" fill="url(#paint4_linear_783_6356)"/>
</g>
<defs>
<linearGradient id="paint0_linear_783_6356" x1="119.706" y1="81.6668" x2="87.8631" y2="86.142" gradientUnits="userSpaceOnUse">
<stop stop-color="#10507F"/>
<stop offset="1" stop-color="#00ADB5"/>
</linearGradient>
<linearGradient id="paint1_linear_783_6356" x1="119.706" y1="81.6668" x2="87.8631" y2="86.142" gradientUnits="userSpaceOnUse">
<stop stop-color="#10507F"/>
<stop offset="1" stop-color="#00ADB5"/>
</linearGradient>
<linearGradient id="paint2_linear_783_6356" x1="120.45" y1="86.5659" x2="95.1909" y2="90.1158" gradientUnits="userSpaceOnUse">
<stop stop-color="#10507F"/>
<stop offset="1" stop-color="#00ADB5"/>
</linearGradient>
<linearGradient id="paint3_linear_783_6356" x1="120.45" y1="86.5659" x2="95.1909" y2="90.1158" gradientUnits="userSpaceOnUse">
<stop stop-color="#10507F"/>
<stop offset="1" stop-color="#00ADB5"/>
</linearGradient>
<linearGradient id="paint4_linear_783_6356" x1="161.869" y1="52.3073" x2="51.881" y2="67.7651" gradientUnits="userSpaceOnUse">
<stop stop-color="#10507F"/>
<stop offset="1" stop-color="#00ADB5"/>
</linearGradient>
</defs>
</svg>
