<svg width="376" height="144" viewBox="0 0 376 144" fill="none" xmlns="http://www.w3.org/2000/svg">
<path d="M134.5 56.264C91.5232 52.5044 47.0075 53.4502 3 59.9596" stroke="#D6FDFF" stroke-width="6" stroke-linecap="round" stroke-linejoin="round"/>
<path d="M239 75C286.247 90.1744 336.029 113.957 373 140.967" stroke="#84FAFF" stroke-width="6" stroke-linecap="round" stroke-linejoin="round" stroke-dasharray="24 24"/>
<g clip-path="url(#clip0_127_5367)">
<path d="M161.212 111.95L193.605 73.7512L222.915 78.8148C227.338 79.5789 231.525 76.6253 232.29 72.2022C233.054 67.7791 230.1 63.5918 225.677 62.8276L196.367 57.764L178.667 10.911C178.003 9.04002 176.322 7.65198 174.35 7.31134C170.62 6.66687 167.338 9.77701 167.734 13.5224L172.333 53.6118L143.076 48.5574L137.963 35.2709C137.621 34.3887 136.798 33.7525 135.892 33.596L133.228 33.1357L132.802 33.062C131.043 32.7582 129.479 34.1893 129.62 35.9149L130.821 52.1479L131.037 54.7097L130.208 56.6519L129.235 58.7888L124.928 68.4721L123.405 71.8861C122.684 73.5177 123.687 75.3374 125.446 75.6412L127.417 75.9819L128.536 76.1752C129.496 76.3409 130.431 76.0086 131.049 75.2921L140.315 64.5446L169.624 69.6082L151.841 105.831C150.159 109.217 152.206 113.248 155.937 113.892C157.909 114.233 159.958 113.49 161.212 111.95Z" fill="#D6FDFF"/>
</g>
<defs>
<clipPath id="clip0_127_5367">
<rect width="129.792" height="129.792" fill="white" transform="matrix(0 1 -1 0 244.074 0.283203)"/>
</clipPath>
</defs>
</svg>
