<svg width="25" height="24" viewBox="0 0 25 24" fill="none" xmlns="http://www.w3.org/2000/svg">
    <path
        d="M17.833 12C17.4352 12 17.0537 11.842 16.7723 11.5607C16.491 11.2794 16.333 10.8978 16.333 10.5C16.333 10.1022 16.491 9.72064 16.7723 9.43934C17.0537 9.15804 17.4352 9 17.833 9C18.2308 9 18.6124 9.15804 18.8937 9.43934C19.175 9.72064 19.333 10.1022 19.333 10.5C19.333 10.8978 19.175 11.2794 18.8937 11.5607C18.6124 11.842 18.2308 12 17.833 12ZM14.833 8C14.4352 8 14.0537 7.84196 13.7723 7.56066C13.491 7.27936 13.333 6.89782 13.333 6.5C13.333 6.10218 13.491 5.72064 13.7723 5.43934C14.0537 5.15804 14.4352 5 14.833 5C15.2308 5 15.6124 5.15804 15.8937 5.43934C16.175 5.72064 16.333 6.10218 16.333 6.5C16.333 6.89782 16.175 7.27936 15.8937 7.56066C15.6124 7.84196 15.2308 8 14.833 8ZM9.83301 8C9.43518 8 9.05365 7.84196 8.77235 7.56066C8.49104 7.27936 8.33301 6.89782 8.33301 6.5C8.33301 6.10218 8.49104 5.72064 8.77235 5.43934C9.05365 5.15804 9.43518 5 9.83301 5C10.2308 5 10.6124 5.15804 10.8937 5.43934C11.175 5.72064 11.333 6.10218 11.333 6.5C11.333 6.89782 11.175 7.27936 10.8937 7.56066C10.6124 7.84196 10.2308 8 9.83301 8ZM6.83301 12C6.43518 12 6.05365 11.842 5.77235 11.5607C5.49104 11.2794 5.33301 10.8978 5.33301 10.5C5.33301 10.1022 5.49104 9.72064 5.77235 9.43934C6.05365 9.15804 6.43518 9 6.83301 9C7.23083 9 7.61236 9.15804 7.89367 9.43934C8.17497 9.72064 8.33301 10.1022 8.33301 10.5C8.33301 10.8978 8.17497 11.2794 7.89367 11.5607C7.61236 11.842 7.23083 12 6.83301 12ZM12.333 3C9.94606 3 7.65687 3.94821 5.96905 5.63604C4.28122 7.32387 3.33301 9.61305 3.33301 12C3.33301 14.3869 4.28122 16.6761 5.96905 18.364C7.65687 20.0518 9.94606 21 12.333 21C12.7308 21 13.1124 20.842 13.3937 20.5607C13.675 20.2794 13.833 19.8978 13.833 19.5C13.833 19.11 13.683 18.76 13.443 18.5C13.213 18.23 13.063 17.88 13.063 17.5C13.063 17.1022 13.221 16.7206 13.5023 16.4393C13.7837 16.158 14.1652 16 14.563 16H16.333C17.6591 16 18.9309 15.4732 19.8685 14.5355C20.8062 13.5979 21.333 12.3261 21.333 11C21.333 6.58 17.303 3 12.333 3Z"
        fill="black" />
</svg>
    