<svg width="26" height="25" viewBox="0 0 26 25" fill="none" xmlns="http://www.w3.org/2000/svg">
    <path
        d="M1.70898 19.7917V4.16666H3.79232V14.5833H12.1257V6.24999H20.459C21.6048 6.24999 22.5857 6.65798 23.4017 7.47395C24.2177 8.28992 24.6257 9.27082 24.6257 10.4167V19.7917H22.5423V16.6667H3.79232V19.7917H1.70898ZM7.95898 13.5417C7.09093 13.5417 6.35308 13.2378 5.74544 12.6302C5.1378 12.0226 4.83398 11.2847 4.83398 10.4167C4.83398 9.5486 5.1378 8.81075 5.74544 8.20311C6.35308 7.59548 7.09093 7.29166 7.95898 7.29166C8.82704 7.29166 9.56489 7.59548 10.1725 8.20311C10.7802 8.81075 11.084 9.5486 11.084 10.4167C11.084 11.2847 10.7802 12.0226 10.1725 12.6302C9.56489 13.2378 8.82704 13.5417 7.95898 13.5417Z"
        fill="black" />
</svg>
    