<svg width="25" height="25" viewBox="0 0 25 25" fill="none" xmlns="http://www.w3.org/2000/svg">
    <path
        d="M5.52845 2.08333C5.35604 2.08306 5.18928 2.14477 5.05858 2.25721C4.92789 2.36964 4.84196 2.52532 4.81647 2.69583C4.74355 3.18958 4.16699 7.1177 4.16699 8.85416C4.16699 9.99791 4.6597 11.0281 5.44199 11.7417C5.80397 12.0714 5.98991 12.4047 5.98991 12.701C5.98991 12.7245 5.98939 12.7437 5.9873 12.7646C5.93835 13.376 5.46908 19.2583 5.46908 20.3125C5.46908 21.0032 5.74344 21.6655 6.23182 22.1539C6.72019 22.6423 7.38257 22.9167 8.07324 22.9167C8.76391 22.9167 9.42629 22.6423 9.91467 22.1539C10.403 21.6655 10.6774 21.0032 10.6774 20.3125C10.6774 19.2583 10.2081 13.376 10.1592 12.7646L10.1566 12.701C10.1566 12.4047 10.3425 12.0714 10.7045 11.7417C11.1067 11.376 11.4279 10.9301 11.6475 10.4328C11.8671 9.93553 11.9802 9.39778 11.9795 8.85416C11.9795 7.1177 11.4029 3.1875 11.33 2.69583C11.3045 2.5254 11.2187 2.3698 11.0881 2.25738C10.9575 2.14495 10.7909 2.08318 10.6186 2.08333H10.6092C10.1946 2.08333 9.8972 2.42447 9.8972 2.79687V8.27083C9.8972 8.34743 9.88211 8.42329 9.8528 8.49406C9.82348 8.56483 9.78051 8.62914 9.72635 8.68331C9.67218 8.73747 9.60787 8.78044 9.5371 8.80976C9.46633 8.83907 9.39047 8.85416 9.31387 8.85416C9.23726 8.85416 9.16141 8.83907 9.09063 8.80976C9.01986 8.78044 8.95556 8.73747 8.90139 8.68331C8.84722 8.62914 8.80425 8.56483 8.77494 8.49406C8.74562 8.42329 8.73053 8.34743 8.73053 8.27083V2.77031C8.73342 2.68106 8.7181 2.59216 8.68552 2.50902C8.65294 2.42589 8.60377 2.35025 8.54101 2.28673C8.47826 2.22321 8.40322 2.17313 8.32049 2.13955C8.23775 2.10596 8.14904 2.08957 8.05976 2.09138C7.97049 2.09318 7.88252 2.11315 7.8012 2.15005C7.71989 2.18695 7.64695 2.24002 7.58681 2.30603C7.52667 2.37204 7.4806 2.44959 7.45141 2.53398C7.42221 2.61837 7.4105 2.70781 7.41699 2.79687V8.27083C7.41699 8.42554 7.35553 8.57391 7.24614 8.68331C7.13674 8.7927 6.98837 8.85416 6.83366 8.85416C6.67895 8.85416 6.53058 8.7927 6.42118 8.68331C6.31178 8.57391 6.25033 8.42554 6.25033 8.27083V2.79687C6.25033 2.6079 6.17536 2.42664 6.04189 2.29287C5.90841 2.1591 5.72732 2.08374 5.53835 2.08333H5.52845ZM16.0993 12.5L16.0665 12.975C16.0175 13.6844 15.9519 14.6417 15.8873 15.6333C15.7581 17.599 15.6253 19.7453 15.6253 20.3125C15.6253 21.0032 15.8997 21.6655 16.3881 22.1539C16.8764 22.6423 17.5388 22.9167 18.2295 22.9167C18.9202 22.9167 19.5825 22.6423 20.0709 22.1539C20.5593 21.6655 20.8337 21.0032 20.8337 20.3125C20.8337 19.6828 20.6696 17.2948 20.5274 15.2333L20.5227 15.1656C20.4092 13.5135 20.3128 12.1042 20.3128 11.849V2.73437C20.3128 2.375 20.0212 2.08333 19.6618 2.08333H19.4014C16.1654 2.08333 13.542 4.70677 13.542 7.9427V10.8073C13.542 11.2562 13.7203 11.6868 14.0378 12.0042C14.3552 12.3217 14.7858 12.5 15.2347 12.5H16.0993Z"
        fill="black" />
</svg>
    