<svg width="26" height="25" viewBox="0 0 26 25" fill="none" xmlns="http://www.w3.org/2000/svg">
    <g clip-path="url(#clip0_189_10456)">
        <path
            d="M24.2825 20.5H16.167V22.5H24.3655C24.5462 22.5086 24.7243 22.455 24.8702 22.3481C25.0161 22.2411 25.1208 22.0874 25.167 21.9125V21.4275C25.167 21.4275 25.161 20.5 24.2825 20.5ZM23.16 20.105C23.6927 20.1042 24.2034 19.892 24.5797 19.5149C24.956 19.1378 25.1673 18.6267 25.167 18.094C25.167 16.9805 24.267 16.0825 23.16 16.0825C22.8964 16.083 22.6354 16.1354 22.3921 16.2367C22.1487 16.3381 21.9277 16.4864 21.7417 16.6732C21.5557 16.86 21.4083 17.0816 21.308 17.3254C21.2076 17.5692 21.1563 17.8304 21.157 18.094C21.157 19.2035 22.0545 20.105 23.16 20.105ZM18.933 20C19.986 20 20.833 19.258 20.833 18.2065C20.8325 17.157 19.9825 16.6065 18.9375 16.5985L16.167 16.9495V20H18.933ZM9.92849 6.9665C11.158 6.9665 12.1525 5.9665 12.1525 4.733C12.1525 3.4995 11.158 2.5 9.92849 2.5C8.69999 2.5 7.70399 3.4995 7.70399 4.733C7.70399 5.9665 8.69999 6.9665 9.92849 6.9665ZM7.65749 14.1945L7.63749 14.1655L6.62949 11.8185L6.62799 16.5H9.64049L10.2985 15.8L8.51399 15.113C8.09099 14.954 7.79049 14.594 7.65749 14.1945ZM8.29599 13.984C8.39349 14.203 8.57399 14.3805 8.80099 14.462L12.2395 15.7365C12.3443 15.7825 12.4571 15.8073 12.5715 15.8096C12.6859 15.8119 12.7996 15.7916 12.9061 15.7499C13.0127 15.7082 13.1099 15.6459 13.1924 15.5666C13.2748 15.4872 13.3408 15.3924 13.3865 15.2875C13.4793 15.0747 13.4843 14.8339 13.4004 14.6175C13.3165 14.4011 13.1505 14.2266 12.9385 14.132L9.76599 12.934L8.78599 10.5835L9.42499 10.3455L10.2555 12.3595L12.667 13.2535V10.7925L13.947 11.554L14.585 14.768C14.6217 14.8767 14.6797 14.9771 14.7554 15.0633C14.8312 15.1496 14.9233 15.2199 15.0264 15.2703C15.1296 15.3207 15.2417 15.3502 15.3562 15.357C15.4708 15.3638 15.5856 15.3478 15.694 15.31C15.9122 15.2324 16.0911 15.0718 16.1917 14.8632C16.2923 14.6545 16.3066 14.4146 16.2315 14.1955L15.5165 11.1C15.4695 10.9287 15.3715 10.7758 15.2355 10.6615C14.869 10.2555 13.0155 8.183 12.8835 8.0445C12.69 7.8505 12.2475 7.5 11.4115 7.5H8.41149C6.70649 7.5 6.37849 9.24 6.72699 10.125L8.29599 13.984ZM15.667 17H2.15049C1.65849 17 1.16699 17.2775 1.16699 17.888V22.5H15.667V17Z"
            fill="black" />
    </g>
    <defs>
        <clipPath id="clip0_189_10456">
            <rect width="25" height="25" fill="white" transform="translate(0.666992)" />
        </clipPath>
    </defs>
</svg>
    