<svg width="25" height="25" viewBox="0 0 25 25" fill="none" xmlns="http://www.w3.org/2000/svg">
    <path
        d="M12.4997 2.08334C13.433 2.08334 14.3372 2.20626 15.1976 2.43647L12.983 4.65001C12.815 4.81869 12.6668 5.00602 12.5413 5.20834H12.4997C11.0575 5.20834 9.64775 5.63599 8.44864 6.43721C7.24953 7.23843 6.31494 8.37723 5.76305 9.70961C5.21116 11.042 5.06676 12.5081 5.34812 13.9225C5.62947 15.337 6.32393 16.6362 7.34369 17.656C8.36345 18.6758 9.6627 19.3702 11.0771 19.6516C12.4916 19.9329 13.9577 19.7885 15.2901 19.2366C16.6225 18.6847 17.7613 17.7502 18.5625 16.551C19.3637 15.3519 19.7913 13.9422 19.7913 12.5V12.4583C19.9927 12.3333 20.1785 12.1858 20.3486 12.0156L22.5632 9.80209C22.7934 10.6625 22.9163 11.5667 22.9163 12.5C22.9163 18.2531 18.2528 22.9167 12.4997 22.9167C6.74655 22.9167 2.08301 18.2531 2.08301 12.5C2.08301 6.74689 6.74655 2.08334 12.4997 2.08334ZM12.0684 7.30939C12.0684 8.19584 12.0247 9.0948 12.0726 9.98022L11.5101 10.5427C11.3166 10.7362 11.1631 10.9659 11.0584 11.2187C10.9537 11.4716 10.8998 11.7425 10.8998 12.0162C10.8998 12.2898 10.9537 12.5608 11.0584 12.8136C11.1631 13.0664 11.3166 13.2961 11.5101 13.4896C11.7036 13.6831 11.9333 13.8366 12.1861 13.9413C12.4389 14.046 12.7099 14.0999 12.9835 14.0999C13.2572 14.0999 13.5281 14.046 13.7809 13.9413C14.0338 13.8366 14.2635 13.6831 14.457 13.4896L15.0195 12.9271C15.9049 12.975 16.8028 12.9313 17.6903 12.9313C17.608 13.9212 17.2444 14.867 16.6422 15.657C16.0401 16.447 15.2245 17.0484 14.2918 17.3902C13.3591 17.7319 12.3481 17.7999 11.3781 17.5859C10.4081 17.372 9.51942 16.8851 8.81702 16.1827C8.11461 15.4803 7.62772 14.5916 7.41377 13.6216C7.19982 12.6516 7.26774 11.6406 7.60951 10.7079C7.95128 9.77515 8.55264 8.95963 9.34268 8.35748C10.1327 7.75533 11.0785 7.39167 12.0684 7.30939ZM19.2747 2.21564C19.4648 2.29447 19.6273 2.42786 19.7417 2.59898C19.8561 2.7701 19.9172 2.97126 19.9174 3.17709V5.08334H21.8226C22.0286 5.08339 22.2299 5.1445 22.4012 5.25897C22.5725 5.37343 22.7059 5.5361 22.7848 5.72641C22.8636 5.91672 22.8842 6.12613 22.844 6.32817C22.8039 6.5302 22.7047 6.71579 22.5591 6.86147L18.8747 10.5417C18.6794 10.737 18.4145 10.8468 18.1382 10.8469H15.6247L13.7205 12.7521C13.525 12.9476 13.26 13.0574 12.9835 13.0574C12.7071 13.0574 12.442 12.9476 12.2466 12.7521C12.0511 12.5566 11.9413 12.2915 11.9413 12.0151C11.9413 11.7387 12.0511 11.4736 12.2466 11.2781L14.1518 9.37501V6.86043C14.1517 6.72347 14.1786 6.58783 14.2309 6.46129C14.2833 6.33474 14.3601 6.21976 14.457 6.12293L18.1393 2.44064C18.2849 2.29487 18.4706 2.19559 18.6727 2.15536C18.8748 2.11512 19.0843 2.13573 19.2747 2.21459"
        fill="black" />
</svg>
    