<svg width="82" height="100" viewBox="0 0 82 100" fill="none" xmlns="http://www.w3.org/2000/svg">
    <path
        d="M82 99.9705C70.9741 100.585 62.3695 91.4742 59.0463 82.7073C56.6311 76.3381 56.0504 69.6123 55.4821 63.1079C55.2721 60.6795 55.056 58.1896 54.7409 55.7304C53.4067 45.3713 49.9476 38.1414 44.4624 34.2559C40.2435 31.2681 34.9128 30.2106 29.2732 29.0917C24.2822 28.1019 19.1182 27.0814 14.4484 24.6222C5.44235 19.8822 -0.376366 9.99029 0.0189611 0L5.84386 0.190582C5.75769 4.15775 6.7754 8.07137 8.78449 11.4988C10.7936 14.9263 13.7158 17.734 17.228 19.6117C21.1443 21.6712 25.6658 22.5688 30.453 23.5156C36.457 24.7083 42.6649 25.9379 47.903 29.6635C54.7409 34.508 59.0216 43.0412 60.535 55.0173C60.8623 57.5564 61.0847 60.1323 61.3009 62.6161C61.8568 69.0283 62.3818 75.0778 64.5253 80.7215C67.2123 87.81 73.9637 94.751 81.6726 94.2961L82 99.9705Z"
        fill="#FC543D" />
</svg>
    