<svg width="185" height="174" viewBox="0 0 185 174" fill="none" xmlns="http://www.w3.org/2000/svg">
    <path d="M60.092 124.66L52.6504 116.12L31.6885 134.387L39.1301 142.927L60.092 124.66Z"
        fill="#FC543D" />
    <path d="M17.4165 78.3421L22.5859 71.2686L5.21921 58.5766L0.0497722 65.6501L17.4165 78.3421Z"
        fill="#00ADB5" />
    <path
        d="M178.459 32.3838C175.417 36.7478 171.479 40.4156 166.908 43.1436C162.337 45.8716 157.237 47.5973 151.947 48.2061C148.442 48.5095 144.919 48.5531 141.407 48.3365C138.198 48.1303 134.979 48.1614 131.775 48.4297C116.183 50.1442 103.036 65.9355 104.187 81.5527L98.0891 82C96.6829 62.9723 112.107 44.4477 131.109 42.3605C134.611 42.057 138.129 42.0134 141.637 42.23C144.848 42.4362 148.069 42.4051 151.275 42.1368C155.848 41.6323 160.252 40.1194 164.168 37.7077C168.084 35.296 171.414 32.0456 173.918 28.1917C176.421 24.3377 178.036 19.9764 178.645 15.4232C179.254 10.8699 178.842 6.23845 177.439 1.86364L183.262 0C184.918 5.23889 185.398 10.7772 184.67 16.2222C183.942 21.6673 182.024 26.8858 179.05 31.5079C178.857 31.7998 178.658 32.0918 178.459 32.3838Z"
        fill="#00ADB5" />
    <path
        d="M144.424 106L145 111.174C137.974 112.029 131.231 114.462 125.272 118.293C119.313 122.124 114.292 127.254 110.583 133.301C110.144 134.034 109.754 134.748 109.401 135.444C115.958 133.53 123.166 133.853 129.216 137.928C133.365 140.736 135.823 144.854 135.78 148.954C135.751 150.417 135.426 151.858 134.825 153.191C134.223 154.524 133.358 155.72 132.281 156.707C129.074 159.642 124.856 161.214 120.516 161.092C111.122 160.806 102.88 153.576 102.057 144.941C101.392 145.46 100.755 146.013 100.15 146.6C92.533 154.017 89.1459 165.161 87.0529 174L82 172.801C84.2602 163.247 87.9569 151.209 96.5766 142.854C98.4383 141.069 100.519 139.528 102.769 138.27C103.555 135.575 104.705 133 106.187 130.617C110.305 123.894 115.882 118.189 122.502 113.927C129.123 109.665 136.616 106.955 144.424 106ZM114.206 154.098C116.206 155.198 118.434 155.815 120.714 155.899C123.654 155.975 126.513 154.924 128.708 152.961C129.285 152.454 129.752 151.834 130.079 151.138C130.406 150.442 130.587 149.686 130.609 148.917C130.64 146.159 128.417 143.668 126.337 142.258C120.763 138.531 113.463 138.984 107.314 141.786C107.204 142.63 107.183 143.484 107.252 144.333C107.586 148.333 110.391 152.004 114.206 154.098Z"
        fill="#F4D34D" />
</svg>
    