<svg width="179" height="82" viewBox="0 0 179 82" fill="none" xmlns="http://www.w3.org/2000/svg">
<path d="M57.068 49.4021C54.7492 35.1013 55.6959 20.6042 63.6733 7.51489C64.737 5.79953 67.0664 4.46208 68.786 5.43646C70.5233 6.42195 70.5871 9.25247 69.456 11.0716C66.7735 15.2507 64.5349 19.723 62.7798 24.4091C59.986 31.8188 58.2522 44.2153 57.7417 49.3725C57.7215 49.4478 57.679 49.5145 57.6204 49.563C57.5617 49.6116 57.4899 49.6395 57.4151 49.6428C57.3404 49.6461 57.2665 49.6246 57.2042 49.5813C57.1418 49.5381 57.0941 49.4754 57.068 49.4021Z" fill="#A6B5FF"/>
<path d="M51.8455 58.093C36.9085 59.6947 22.6527 64.4699 11.709 75.6633C10.2595 77.1262 9.56738 79.7407 11.0096 81.1324C12.4591 82.5428 15.3183 81.8414 16.833 80.2696C20.3334 76.5341 24.2003 73.1863 28.371 70.2804C35.035 65.6102 46.9716 60.6213 51.9977 58.7457C52.0736 58.7177 52.1368 58.6616 52.1751 58.5883C52.2134 58.5149 52.2241 58.4295 52.2052 58.3485C52.1864 58.2674 52.1391 58.1965 52.0727 58.1493C52.0063 58.1021 51.9254 58.0821 51.8455 58.093Z" fill="#A6B5FF"/>
<path d="M44.4886 53.1741C38.7407 52.8174 20.0207 52.2422 5.52899 58.5429C3.33762 59.4978 0.880423 58.1863 0.499628 55.8278C0.373651 54.8751 0.587768 53.9066 1.0995 53.1146C1.61123 52.3225 2.38318 51.7647 3.26218 51.5519C16.0942 47.9165 30.744 47.6902 44.5963 52.7024C44.6406 52.7298 44.6753 52.7718 44.6954 52.8221C44.7154 52.8723 44.7197 52.9282 44.7076 52.9812C44.6955 53.0343 44.6676 53.0818 44.6281 53.1165C44.5886 53.1513 44.5397 53.1715 44.4886 53.1741Z" fill="#F4D34D"/>
<path d="M49.2061 43.1734C47.7486 37.7238 43.5828 19.887 46.8649 4.80291C47.3638 2.51891 45.6247 0.413464 43.2763 0.502741C42.3779 0.521108 41.5168 0.881236 40.8547 1.51549C40.1926 2.14975 39.7751 3.0145 39.6807 3.94734C38.6472 16.9371 41.2593 31.028 48.7536 43.378C48.7853 43.4307 48.834 43.4698 48.891 43.4883C48.9479 43.5068 49.0093 43.5033 49.064 43.4786C49.1188 43.4538 49.1632 43.4094 49.1893 43.3534C49.2153 43.2975 49.2213 43.2336 49.2061 43.1734Z" fill="#F4D34D"/>
<path d="M52.0204 52.7135L15.9796 31.156C15.4854 30.8829 15.0557 30.502 14.7209 30.0402C14.3861 29.5783 14.1544 29.0467 14.042 28.483C13.9296 27.9193 13.9393 27.3371 14.0706 26.7777C14.2018 26.2182 14.4512 25.6951 14.8013 25.2453C15.1668 24.7712 15.6217 24.3773 16.139 24.0873C16.6562 23.7972 17.2251 23.6169 17.8118 23.557C18.3985 23.4972 18.991 23.559 19.5538 23.7389C20.1167 23.9188 20.6385 24.213 21.088 24.604L52.2144 52.4585L52.0204 52.7135Z" fill="#FC543D"/>
<path d="M168.355 22.7459L163.079 21.9387C163.011 21.9281 162.941 21.9381 162.878 21.9676C162.815 21.9971 162.761 22.0448 162.723 22.1051C162.685 22.1655 162.664 22.2359 162.663 22.3083C162.661 22.3806 162.68 22.4519 162.716 22.5137L165.556 27.4334C165.594 27.5006 165.612 27.5787 165.607 27.6571C165.602 27.7355 165.574 27.8103 165.526 27.8713L162.04 32.4406C161.995 32.5023 161.968 32.5772 161.965 32.6552C161.961 32.7331 161.98 32.8104 162.02 32.8764C162.06 32.9425 162.118 32.9942 162.186 33.0245C162.255 33.0549 162.331 33.0624 162.403 33.0461L168.181 31.4163C168.245 31.398 168.313 31.3986 168.377 31.4181C168.441 31.4375 168.499 31.4751 168.544 31.5267L172.64 36.2065C172.691 36.2657 172.758 36.3068 172.833 36.3238C172.907 36.3408 172.984 36.333 173.054 36.3015C173.124 36.27 173.182 36.2163 173.222 36.148C173.261 36.0798 173.278 36.0003 173.272 35.921L172.88 30.2626C172.876 30.1795 172.898 30.0973 172.942 30.0286C172.987 29.9598 173.052 29.9083 173.127 29.8818L178.211 28.0883C178.279 28.0656 178.34 28.0221 178.385 27.9633C178.43 27.9046 178.457 27.8333 178.463 27.7583C178.469 27.6833 178.454 27.6081 178.42 27.5422C178.385 27.4762 178.333 27.4224 178.269 27.3877L173.334 24.5737C173.28 24.5436 173.233 24.4995 173.2 24.4455C173.166 24.3916 173.146 24.3295 173.142 24.2653L172.749 19.0257C172.744 18.9517 172.719 18.8808 172.676 18.8218C172.633 18.7628 172.575 18.7182 172.508 18.6935C172.441 18.6689 172.369 18.6652 172.3 18.6829C172.232 18.7007 172.169 18.7391 172.121 18.7934L168.682 22.6279C168.641 22.6745 168.59 22.7097 168.533 22.7303C168.476 22.7509 168.415 22.7563 168.355 22.7459Z" fill="#F4D34D"/>
</svg>
