<svg width="333" height="251" viewBox="0 0 333 251" fill="none" xmlns="http://www.w3.org/2000/svg">
<g clip-path="url(#clip0_1_14268)">
<path d="M323.149 0.0146484H10.1848C4.66197 0.0146484 0.184814 4.49179 0.184814 10.0146V240.525C0.184814 246.048 4.66198 250.525 10.1848 250.525H323.149C328.672 250.525 333.149 246.048 333.149 240.525V10.0146C333.149 4.4918 328.672 0.0146484 323.149 0.0146484Z" fill="#ADFBFF"/>
<path d="M333.149 35.0468H177.205L333.149 0.0146484V35.0468Z" fill="white"/>
<path d="M179.88 35.3043H177.27C177.151 35.3043 177.037 35.2572 176.953 35.1733C176.869 35.0894 176.822 34.9757 176.822 34.857C176.822 34.7384 176.869 34.6246 176.953 34.5407C177.037 34.4568 177.151 34.4097 177.27 34.4097H179.88C179.999 34.4097 180.112 34.4568 180.196 34.5407C180.28 34.6246 180.327 34.7384 180.327 34.857C180.327 34.9757 180.28 35.0894 180.196 35.1733C180.112 35.2572 179.999 35.3043 179.88 35.3043Z" fill="#9FCECB"/>
<path d="M118.195 44.8579C127.418 44.8579 134.894 37.385 134.894 28.1667C134.894 18.9485 127.418 11.4756 118.195 11.4756C108.973 11.4756 101.497 18.9485 101.497 28.1667C101.497 37.385 108.973 44.8579 118.195 44.8579Z" fill="#005458"/>
<path d="M333.149 92.4209C329.361 92.4209 325.729 93.9249 323.05 96.6021C320.372 99.2793 318.867 102.91 318.867 106.696V136.072H333.149V92.4209Z" fill="#3B3F46"/>
<path d="M214.266 136.073H186.519C186.206 134.513 186.229 132.904 186.586 131.354C186.943 129.804 187.625 128.347 188.589 127.081C189.552 125.814 190.773 124.767 192.172 124.009C193.571 123.251 195.116 122.799 196.703 122.683C196.818 120.439 197.792 118.325 199.423 116.778C201.054 115.232 203.217 114.371 205.465 114.375C207.713 114.379 209.874 115.246 211.5 116.798C213.126 118.35 214.092 120.467 214.2 122.711L214.266 136.073Z" fill="#A9AEB7"/>
<path d="M181.417 136.23H76.002L111.942 100.665C116.437 96.1722 122.533 93.6484 128.89 93.6484C135.246 93.6484 141.342 96.1722 145.837 100.665L181.417 136.23Z" fill="#A9AEB7"/>
<path d="M323.149 136.088H10.1846C4.66172 136.088 0.18457 140.566 0.18457 146.088V240.525C0.18457 246.048 4.66174 250.525 10.1846 250.525H323.149C328.672 250.525 333.149 246.048 333.149 240.525V146.088C333.149 140.566 328.672 136.088 323.149 136.088Z" fill="#285152"/>
<path d="M181.484 174.125H179.16V184.21H181.484V174.125Z" fill="white"/>
<path d="M187.586 174.125H185.263V184.21H187.586V174.125Z" fill="white"/>
<path d="M193.689 174.125H191.365V184.21H193.689V174.125Z" fill="white"/>
<path d="M199.791 174.125H197.468V184.21H199.791V174.125Z" fill="white"/>
<path d="M205.892 174.125H203.568V184.21H205.892V174.125Z" fill="white"/>
<path d="M211.994 174.125H209.671V184.21H211.994V174.125Z" fill="white"/>
<path d="M218.097 174.125H215.773V184.21H218.097V174.125Z" fill="white"/>
<path d="M224.198 174.125H221.874V184.21H224.198V174.125Z" fill="white"/>
<path d="M230.3 174.125H227.977V184.21H230.3V174.125Z" fill="white"/>
<path d="M205.178 170.038H204.283V154.127H230.302V155.022H205.178V170.038Z" fill="white"/>
<path d="M205.178 204.557H179.16V203.662H204.283V188.171H205.178V204.557Z" fill="white"/>
<path d="M218.557 158.359H215.314L215.45 157.822C215.493 157.649 215.593 157.496 215.734 157.386C215.875 157.277 216.048 157.217 216.227 157.218H217.644C217.823 157.217 217.996 157.277 218.137 157.386C218.278 157.496 218.378 157.649 218.421 157.822L218.557 158.359Z" fill="#6A727F"/>
<path d="M222.857 163.65H211.014L213.139 159.279C213.273 159.003 213.481 158.771 213.741 158.608C214.001 158.445 214.302 158.359 214.608 158.359H219.263C219.569 158.359 219.87 158.445 220.13 158.608C220.389 158.771 220.598 159.003 220.732 159.279L222.857 163.65Z" fill="#86C9D3"/>
<path d="M210.625 167.614H212.809V168.899C212.809 169.1 212.729 169.294 212.586 169.436C212.444 169.579 212.25 169.659 212.048 169.659H211.384C211.183 169.659 210.989 169.579 210.846 169.436C210.704 169.294 210.624 169.1 210.624 168.899V167.614H210.625Z" fill="#6A727F"/>
<path d="M221.192 167.614H223.376V168.899C223.376 169.1 223.296 169.294 223.154 169.436C223.011 169.579 222.817 169.659 222.616 169.659H221.951C221.75 169.659 221.556 169.579 221.414 169.436C221.271 169.294 221.191 169.1 221.191 168.899V167.614H221.192Z" fill="#6A727F"/>
<path d="M224.2 164.416V166.848C224.2 167.051 224.119 167.245 223.976 167.389C223.833 167.532 223.638 167.613 223.435 167.614H210.436C210.233 167.613 210.038 167.532 209.895 167.389C209.752 167.245 209.671 167.051 209.671 166.848V164.416C209.671 164.213 209.752 164.019 209.895 163.875C210.038 163.732 210.233 163.651 210.436 163.65H223.435C223.638 163.651 223.833 163.732 223.976 163.875C224.119 164.019 224.2 164.213 224.2 164.416Z" fill="#6A727F"/>
<path d="M219.139 166.331H214.732C214.229 166.331 213.746 166.131 213.391 165.776C213.035 165.421 212.835 164.939 212.834 164.436V163.65H213.192V164.436C213.193 164.844 213.356 165.234 213.644 165.522C213.933 165.81 214.324 165.973 214.732 165.973H219.139C219.547 165.973 219.938 165.81 220.227 165.522C220.515 165.234 220.678 164.844 220.679 164.436V163.65H221.037V164.436C221.036 164.939 220.835 165.42 220.48 165.775C220.124 166.131 219.642 166.33 219.139 166.331Z" fill="white"/>
<path d="M209.673 166.393V164.872H210.835C210.93 164.872 211.021 164.91 211.088 164.977C211.155 165.044 211.193 165.135 211.193 165.23V166.039C211.193 166.134 211.155 166.225 211.088 166.292C211.021 166.359 210.93 166.397 210.835 166.397H209.673V166.393Z" fill="#00ADB5"/>
<path d="M222.68 166.036V165.227C222.68 165.132 222.718 165.041 222.785 164.974C222.852 164.907 222.943 164.869 223.038 164.869H224.2V166.39H223.038C222.944 166.39 222.853 166.353 222.786 166.286C222.719 166.22 222.681 166.13 222.68 166.036Z" fill="#00ADB5"/>
<path d="M87.3749 28.5837H59.2251V136.089H87.3749V28.5837Z" fill="#008C92"/>
<path d="M119.345 28.5837H87.375V136.089H119.345V28.5837Z" fill="white"/>
<path d="M119.345 133.381H87.375V136.089H119.345V133.381Z" fill="#008C92"/>
<path d="M119.345 109.343H87.375V133.381H119.345V109.343Z" fill="#008C92"/>
<path d="M95.6525 36.0598H92.7991V48.045H95.6525V36.0598Z" fill="#D6FDFF"/>
<path d="M95.6525 49.9846H92.7991V61.9698H95.6525V49.9846Z" fill="#D6FDFF"/>
<path d="M95.6525 63.9111H92.7991V75.8963H95.6525V63.9111Z" fill="#D6FDFF"/>
<path d="M95.6525 77.8376H92.7991V89.8228H95.6525V77.8376Z" fill="#D6FDFF"/>
<path d="M95.6525 91.7644H92.7991V103.75H95.6525V91.7644Z" fill="#D6FDFF"/>
<path d="M101.707 36.0598H98.8533V48.045H101.707V36.0598Z" fill="#D6FDFF"/>
<path d="M101.707 49.9846H98.8533V61.9698H101.707V49.9846Z" fill="#D6FDFF"/>
<path d="M101.707 63.9111H98.8533V75.8963H101.707V63.9111Z" fill="#D6FDFF"/>
<path d="M101.707 77.8376H98.8533V89.8228H101.707V77.8376Z" fill="#D6FDFF"/>
<path d="M101.707 91.7644H98.8533V103.75H101.707V91.7644Z" fill="#D6FDFF"/>
<path d="M107.761 36.0598H104.907V48.045H107.761V36.0598Z" fill="#D6FDFF"/>
<path d="M107.761 49.9846H104.907V61.9698H107.761V49.9846Z" fill="#D6FDFF"/>
<path d="M107.761 63.9111H104.907V75.8963H107.761V63.9111Z" fill="#D6FDFF"/>
<path d="M107.761 77.8376H104.907V89.8228H107.761V77.8376Z" fill="#D6FDFF"/>
<path d="M107.761 91.7644H104.907V103.75H107.761V91.7644Z" fill="#D6FDFF"/>
<path d="M113.815 36.0596H110.962V48.0447H113.815V36.0596Z" fill="#D6FDFF"/>
<path d="M113.815 49.9844H110.962V61.9695H113.815V49.9844Z" fill="#D6FDFF"/>
<path d="M113.815 63.9111H110.962V75.8963H113.815V63.9111Z" fill="#D6FDFF"/>
<path d="M113.815 77.8376H110.962V89.8228H113.815V77.8376Z" fill="#D6FDFF"/>
<path d="M113.815 91.7644H110.962V103.75H113.815V91.7644Z" fill="#D6FDFF"/>
<path d="M95.7188 36.0598H94.8237V48.045H95.7188V36.0598Z" fill="#ADFBFF"/>
<path d="M95.7188 49.9846H94.8237V61.9698H95.7188V49.9846Z" fill="#ADFBFF"/>
<path d="M95.7188 63.9111H94.8237V75.8963H95.7188V63.9111Z" fill="#ADFBFF"/>
<path d="M95.7188 77.8376H94.8237V89.8228H95.7188V77.8376Z" fill="#ADFBFF"/>
<path d="M95.7188 91.7644H94.8237V103.75H95.7188V91.7644Z" fill="#ADFBFF"/>
<path d="M101.773 36.0598H100.878V48.045H101.773V36.0598Z" fill="#ADFBFF"/>
<path d="M101.773 49.9846H100.878V61.9698H101.773V49.9846Z" fill="#ADFBFF"/>
<path d="M101.773 63.9111H100.878V75.8963H101.773V63.9111Z" fill="#ADFBFF"/>
<path d="M101.773 77.8376H100.878V89.8228H101.773V77.8376Z" fill="#ADFBFF"/>
<path d="M101.773 91.7644H100.878V103.75H101.773V91.7644Z" fill="#ADFBFF"/>
<path d="M107.827 36.0598H106.932V48.045H107.827V36.0598Z" fill="#ADFBFF"/>
<path d="M107.827 49.9846H106.932V61.9698H107.827V49.9846Z" fill="#ADFBFF"/>
<path d="M107.827 63.9111H106.932V75.8963H107.827V63.9111Z" fill="#ADFBFF"/>
<path d="M107.827 77.8376H106.932V89.8228H107.827V77.8376Z" fill="#ADFBFF"/>
<path d="M107.827 91.7644H106.932V103.75H107.827V91.7644Z" fill="#ADFBFF"/>
<path d="M113.881 36.0598H112.986V48.045H113.881V36.0598Z" fill="#ADFBFF"/>
<path d="M113.881 49.9846H112.986V61.9698H113.881V49.9846Z" fill="#ADFBFF"/>
<path d="M113.881 63.9111H112.986V75.8963H113.881V63.9111Z" fill="#ADFBFF"/>
<path d="M113.881 77.8376H112.986V89.8228H113.881V77.8376Z" fill="#ADFBFF"/>
<path d="M113.881 91.7644H112.986V103.75H113.881V91.7644Z" fill="#ADFBFF"/>
<path d="M119.347 25.8496H59.2251V26.7443H119.347V25.8496Z" fill="white"/>
<path d="M95.8155 132.487V112.179H102.913V132.487H95.8155ZM103.808 132.487V112.179H110.906V132.487H103.808ZM119.347 112.179V111.284H87.375V112.179H94.9204V132.487H87.3643V133.381H119.341V132.487H111.796V112.179H119.347Z" fill="white"/>
<path d="M55.405 79.7057V136.089H0.184814V78.7914L27.2552 55.7623L27.257 55.7605L27.2623 55.7641L55.405 79.7057Z" fill="#008C92"/>
<path d="M86.4352 79.7061H55.405V136.089H86.4352V79.7061Z" fill="white"/>
<path d="M62.8771 88.6365H60.72V94.0278H62.8771V88.6365Z" fill="#D6FDFF"/>
<path d="M69.2714 88.6365H67.1143V94.0278H69.2714V88.6365Z" fill="#D6FDFF"/>
<path d="M75.6657 88.6365H73.5085V94.0278H75.6657V88.6365Z" fill="#D6FDFF"/>
<path d="M82.0599 88.6365H79.9028V94.0278H82.0599V88.6365Z" fill="#D6FDFF"/>
<path d="M62.8771 100.069H60.72V105.46H62.8771V100.069Z" fill="#D6FDFF"/>
<path d="M69.2714 100.069H67.1143V105.46H69.2714V100.069Z" fill="#D6FDFF"/>
<path d="M75.6657 100.069H73.5085V105.46H75.6657V100.069Z" fill="#D6FDFF"/>
<path d="M82.0599 100.069H79.9028V105.46H82.0599V100.069Z" fill="#D6FDFF"/>
<path d="M62.8771 111.501H60.72V116.892H62.8771V111.501Z" fill="#D6FDFF"/>
<path d="M69.2714 111.501H67.1143V116.892H69.2714V111.501Z" fill="#D6FDFF"/>
<path d="M75.6657 111.501H73.5085V116.892H75.6657V111.501Z" fill="#D6FDFF"/>
<path d="M82.0599 111.501H79.9028V116.892H82.0599V111.501Z" fill="#D6FDFF"/>
<path d="M62.8771 122.931H60.72V128.323H62.8771V122.931Z" fill="#D6FDFF"/>
<path d="M69.2714 122.931H67.1143V128.323H69.2714V122.931Z" fill="#D6FDFF"/>
<path d="M75.6657 122.931H73.5085V128.323H75.6657V122.931Z" fill="#D6FDFF"/>
<path d="M82.0599 122.931H79.9028V128.323H82.0599V122.931Z" fill="#D6FDFF"/>
<path d="M86.4352 133.381H55.405V136.089H86.4352V133.381Z" fill="#008C92"/>
<path d="M86.4352 79.6897H55.405V82.397H86.4352V79.6897Z" fill="#008C92"/>
<path d="M87.3767 79.7059H55.4049L27.2551 55.7571H59.2251L87.3767 79.7059Z" fill="#3B3F46"/>
<path d="M59.2251 54.687H27.2551V55.7606H59.2251V54.687Z" fill="white"/>
<path d="M87.375 79.6234V80.5181H55.405V79.6234H60.813L32.8171 55.7605H34.1955L62.1932 79.6234H67.3577L39.3833 55.7605H40.7653L68.7379 79.6234H73.9006L45.8958 55.7605H47.276L75.2826 79.6234H80.4454L52.4549 55.7605H53.8333L81.8255 79.6234H87.375Z" fill="#00ADB5"/>
<path d="M234.616 49.3259H206.907V136.088H234.616V49.3259Z" fill="white"/>
<path d="M253.341 49.3259H234.616V136.051H253.341V49.3259Z" fill="#008C92"/>
<path d="M213.278 115.699H211.368V132.007H213.278V115.699Z" fill="#D6FDFF"/>
<path d="M218.887 115.699H216.977V132.007H218.887V115.699Z" fill="#D6FDFF"/>
<path d="M224.685 115.699H222.775V132.007H224.685V115.699Z" fill="#D6FDFF"/>
<path d="M230.485 115.699H228.575V132.007H230.485V115.699Z" fill="#D6FDFF"/>
<path d="M211.434 115.699H210.539V132.007H211.434V115.699Z" fill="#ADFBFF"/>
<path d="M217.043 115.699H216.148V132.007H217.043V115.699Z" fill="#ADFBFF"/>
<path d="M222.841 115.699H221.946V132.007H222.841V115.699Z" fill="#ADFBFF"/>
<path d="M228.639 115.699H227.744V132.007H228.639V115.699Z" fill="#ADFBFF"/>
<path d="M213.278 55.3687V86.6199C212.589 85.6409 211.973 84.6128 211.434 83.5439C211.411 83.4992 211.389 83.4545 211.368 83.4097V55.3687H213.278Z" fill="#D6FDFF"/>
<path d="M218.887 55.3687V92.3548C218.267 91.8913 217.65 91.3885 217.043 90.8427L216.977 90.7819V55.3687H218.887Z" fill="#D6FDFF"/>
<path d="M224.685 55.3687V95.7456C224.092 95.4826 223.475 95.1873 222.841 94.8509L222.775 94.8151V55.3687H224.685Z" fill="#D6FDFF"/>
<path d="M230.485 55.3687V97.6405C230.485 97.6405 229.787 97.5189 228.639 97.1878L228.575 97.1699V55.3687H230.485Z" fill="#D6FDFF"/>
<path d="M211.434 55.3687V83.5422C211.114 82.9087 210.816 82.2473 210.539 81.5578V55.3687H211.434Z" fill="#ADFBFF"/>
<path d="M217.043 55.3687V90.8427C216.742 90.5708 216.444 90.2892 216.148 89.9982V55.3687H217.043Z" fill="#ADFBFF"/>
<path d="M222.841 55.3687V94.8509C222.547 94.6946 222.249 94.5312 221.946 94.3606V55.3687H222.841Z" fill="#ADFBFF"/>
<path d="M228.639 55.3687V97.1878C228.365 97.1091 228.066 97.0172 227.744 96.9123V55.3687H228.639Z" fill="#ADFBFF"/>
<path d="M242.08 55.3687V74.5864L240.169 76.5815V55.3687H242.08Z" fill="#00ADB5"/>
<path d="M247.878 55.3687V68.5276L245.968 70.5228V55.3687H247.878Z" fill="#00ADB5"/>
<path d="M253.341 46.667H206.907V47.5617H253.341V46.667Z" fill="white"/>
<path d="M318.867 86.6824H271.618V136.087H318.867V86.6824Z" fill="#008C92"/>
<path d="M271.618 86.6826V136.089H235.064V136.073H235.511V86.2155L253.341 67.5901L271.618 86.6826Z" fill="white"/>
<path d="M253.341 83.6889C254.835 83.6889 256.046 82.4784 256.046 80.9852C256.046 79.492 254.835 78.2815 253.341 78.2815C251.847 78.2815 250.636 79.492 250.636 80.9852C250.636 82.4784 251.847 83.6889 253.341 83.6889Z" fill="#00ADB5"/>
<path d="M271.618 118.945V119.839H256.161V136.083H255.266V119.839H248.984V136.083H248.089V119.839H235.511V118.945H271.618Z" fill="#008C92"/>
<path d="M253.341 67.5901H300.71L318.878 86.6826H271.619L253.341 67.5901Z" fill="#3B3F46"/>
<path d="M300.719 66.6953H253.341V67.59H300.719V66.6953Z" fill="white"/>
<path d="M318.867 86.7094V87.6041H271.618V86.7094H279.849L261.547 67.5901H262.786L281.088 86.7094H287.662L269.297 67.5901H270.598L288.9 86.7094H295.474L277.171 67.5901H278.41L296.712 86.7094H303.286L284.982 67.5901H286.222L304.525 86.7094H311.098L292.796 67.5901H294.034L312.337 86.7094H318.867Z" fill="#00ADB5"/>
<path d="M256.017 92.4209H250.667V97.7693H256.017V92.4209Z" fill="#9FCECB"/>
<path d="M246.37 92.4209H241.02V97.7693H246.37V92.4209Z" fill="#9FCECB"/>
<path d="M265.663 92.4209H260.312V97.7693H265.663V92.4209Z" fill="#9FCECB"/>
<path d="M256.017 110.356H250.667V115.704H256.017V110.356Z" fill="#9FCECB"/>
<path d="M246.37 110.356H241.02V115.704H246.37V110.356Z" fill="#9FCECB"/>
<path d="M265.663 110.356H260.312V115.704H265.663V110.356Z" fill="#9FCECB"/>
<path d="M256.017 101.387H250.667V106.736H256.017V101.387Z" fill="#9FCECB"/>
<path d="M246.37 101.387H241.02V106.736H246.37V101.387Z" fill="#9FCECB"/>
<path d="M265.663 101.387H260.312V106.736H265.663V101.387Z" fill="#9FCECB"/>
<path d="M241.85 92.4209H240.955V97.7693H241.85V92.4209Z" fill="#00ADB5"/>
<path d="M241.85 101.402H240.955V106.75H241.85V101.402Z" fill="#00ADB5"/>
<path d="M241.85 110.356H240.955V115.704H241.85V110.356Z" fill="#00ADB5"/>
<path d="M251.562 92.4209H250.667V97.7693H251.562V92.4209Z" fill="#00ADB5"/>
<path d="M251.562 101.402H250.667V106.75H251.562V101.402Z" fill="#00ADB5"/>
<path d="M251.562 110.356H250.667V115.704H251.562V110.356Z" fill="#00ADB5"/>
<path d="M261.207 92.4209H260.312V97.7693H261.207V92.4209Z" fill="#00ADB5"/>
<path d="M261.207 101.402H260.312V106.75H261.207V101.402Z" fill="#00ADB5"/>
<path d="M261.207 110.356H260.312V115.704H261.207V110.356Z" fill="#00ADB5"/>
<path d="M295.955 125.27V136.089H281.323V110.356L295.955 125.27Z" fill="white"/>
<path d="M333.149 125.27H295.955V136.087H333.149V125.27Z" fill="#008C92"/>
<path d="M288.29 125.27C288.949 125.27 289.582 125.532 290.048 125.998C290.514 126.464 290.776 127.096 290.776 127.755V136.087H285.802V127.757C285.801 127.431 285.865 127.107 285.99 126.805C286.115 126.503 286.299 126.229 286.53 125.998C286.761 125.767 287.035 125.584 287.337 125.459C287.639 125.334 287.963 125.27 288.29 125.27Z" fill="#00ADB5"/>
<path d="M318.867 110.352L333.149 125.27H295.955L281.323 110.356L318.867 110.352Z" fill="#3B3F46"/>
<path d="M333.149 125.293V126.188H295.955V125.293H303.105L288.8 110.352H290.039L304.342 125.293H310.917L296.612 110.352H297.851L312.154 125.293H318.729L304.424 110.352H305.663L319.966 125.293H326.541L312.236 110.352H313.475L327.778 125.293H333.149Z" fill="#00ADB5"/>
<path d="M318.898 109.458H281.323V110.352H318.898V109.458Z" fill="white"/>
<path d="M295.139 92.4209H290.146V97.7693H295.139V92.4209Z" fill="#00ADB5"/>
<path d="M295.139 101.387H290.146V106.736H295.139V101.387Z" fill="#00ADB5"/>
<path d="M286.315 92.4209H281.323V97.7693H286.315V92.4209Z" fill="#00ADB5"/>
<path d="M286.315 101.387H281.323V106.736H286.315V101.387Z" fill="#00ADB5"/>
<path d="M312.788 92.4209H307.795V97.7693H312.788V92.4209Z" fill="#00ADB5"/>
<path d="M312.788 101.387H307.795V106.736H312.788V101.387Z" fill="#00ADB5"/>
<path d="M303.964 92.4209H298.972V97.7693H303.964V92.4209Z" fill="#00ADB5"/>
<path d="M303.964 101.387H298.972V106.736H303.964V101.387Z" fill="#00ADB5"/>
<path d="M286.584 92.4209H285.689V97.7693H286.584V92.4209Z" fill="#84FAFF"/>
<path d="M286.584 101.387H285.689V106.736H286.584V101.387Z" fill="#84FAFF"/>
<path d="M313.056 92.4209H312.161V97.7693H313.056V92.4209Z" fill="#84FAFF"/>
<path d="M313.056 101.387H312.161V106.736H313.056V101.387Z" fill="#84FAFF"/>
<path d="M304.231 101.387H303.336V106.736H304.231V101.387Z" fill="#84FAFF"/>
<path d="M304.231 92.4209H303.336V97.7693H304.231V92.4209Z" fill="#84FAFF"/>
<path d="M295.407 92.4209H294.512V97.7693H295.407V92.4209Z" fill="#84FAFF"/>
<path d="M295.407 101.387H294.512V106.736H295.407V101.387Z" fill="#84FAFF"/>
<path d="M27.2569 55.7606L27.2551 55.7624V55.7588L27.2569 55.7606Z" fill="#008C92"/>
<path d="M27.2622 55.7571V55.7642L27.2568 55.7607L27.2622 55.7571Z" fill="#008C92"/>
<path d="M55.405 107.117H0.184814V136.088H55.405V107.117Z" fill="white"/>
<path d="M55.405 107.117H0.184814V109.824H55.405V107.117Z" fill="#008C92"/>
<path d="M0.184814 107.115H55.405L27.2534 83.1682H0.184814V107.115Z" fill="#3B3F46"/>
<path d="M55.405 106.859V107.754H0.184814V106.859H7.17169L0.184814 100.919V99.7448L8.55367 106.859H14.1532L0.184814 94.9834V93.8095L15.5352 106.859H20.9557L0.184814 89.2019V88.0263L22.3377 106.859H27.7582L0.184814 83.4187V83.1682H1.27321L29.1402 106.859H34.2027L6.3357 83.1682H7.71768L35.5846 106.859H41.0052L13.1382 83.1682H14.5202L42.3871 106.859H47.8077L19.9407 83.1682H21.3227L49.1896 106.859H55.405Z" fill="#00ADB5"/>
<path d="M49.7716 124.597V136.08H32.896V124.597C32.9283 122.383 33.8311 120.27 35.4093 118.715C36.9875 117.16 39.1144 116.289 41.3302 116.289C43.546 116.289 45.6729 117.16 47.2511 118.715C48.8293 120.27 49.7321 122.383 49.7644 124.597H49.7716Z" fill="#008C92"/>
<path d="M41.3291 118.768C42.8764 118.768 44.3603 119.382 45.4544 120.476C46.5484 121.569 47.1631 123.052 47.1631 124.599V136.081H35.4968V124.597C35.4973 123.051 36.1119 121.569 37.2056 120.476C38.2992 119.382 39.7824 118.768 41.3291 118.768Z" fill="#285152"/>
<path d="M49.7715 124.15V125.045H47.6233V129.949H49.7715V130.844H47.6233V136.08H46.7283V124.597C46.7025 123.187 46.1238 121.842 45.1166 120.854C44.1094 119.865 42.7542 119.311 41.3426 119.311C39.9311 119.311 38.5759 119.865 37.5687 120.854C36.5615 121.842 35.9828 123.187 35.957 124.597V136.08H35.062V130.844H32.9138V129.949H35.062V125.045H32.9138V124.15H35.0835C35.1814 122.694 35.7848 121.318 36.7894 120.26L35.2714 118.741C35.478 118.525 35.6967 118.32 35.9266 118.129L37.459 119.662C38.4427 118.887 39.6372 118.425 40.8871 118.336V116.168H41.7821V118.336C43.0324 118.424 44.2274 118.885 45.212 119.661L46.7426 118.131C46.9359 118.29 47.1221 118.46 47.2993 118.637C47.3333 118.671 47.3673 118.705 47.3996 118.741L45.8708 120.26C46.8812 121.315 47.491 122.69 47.5947 124.146L49.7715 124.15Z" fill="white"/>
<path d="M9.71008 111.501H7.55298V116.892H9.71008V111.501Z" fill="#D6FDFF"/>
<path d="M16.1044 111.501H13.9473V116.892H16.1044V111.501Z" fill="#D6FDFF"/>
<path d="M22.4989 111.501H20.3418V116.892H22.4989V111.501Z" fill="#D6FDFF"/>
<path d="M9.71008 122.931H7.55298V128.323H9.71008V122.931Z" fill="#D6FDFF"/>
<path d="M16.1044 122.931H13.9473V128.323H16.1044V122.931Z" fill="#D6FDFF"/>
<path d="M22.4989 122.931H20.3418V128.323H22.4989V122.931Z" fill="#D6FDFF"/>
<path d="M55.405 133.381V136.089H0.184814V133.381H32.8959V136.08H49.7643V133.381H55.405Z" fill="#008C92"/>
<path d="M144.02 134.122V136.09H119.346V117.859H123.56C126.039 117.859 128.416 118.843 130.169 120.595C131.922 122.347 132.907 124.723 132.907 127.201V127.738H137.624C139.318 127.738 140.944 128.41 142.143 129.607C143.343 130.804 144.017 132.428 144.02 134.122Z" fill="#5A616C"/>
<path d="M195.713 136.089V134.884C195.715 133.236 196.371 131.657 197.537 130.491C198.703 129.326 200.284 128.671 201.932 128.67H213.747C214.333 126.52 215.61 124.621 217.381 123.268C219.153 121.915 221.32 121.182 223.55 121.181H224.91C227.049 121.182 229.132 121.857 230.865 123.11C232.597 124.363 233.89 126.13 234.559 128.16H235.777C237.765 128.16 239.672 128.948 241.08 130.352C242.487 131.756 243.28 133.661 243.284 135.648V136.149L195.713 136.089Z" fill="#5A616C"/>
<path d="M236.636 223.161H181.289L190.209 212.886C190.884 212.108 191.719 211.485 192.656 211.058C193.593 210.63 194.612 210.409 195.642 210.41H230.449C231.237 210.409 232.003 210.668 232.629 211.147C233.254 211.626 233.705 212.297 233.909 213.058L236.636 223.161Z" fill="#86C9D3"/>
<path d="M233.936 213.158H189.972L190.207 212.886C190.883 212.108 191.718 211.485 192.655 211.057C193.593 210.629 194.611 210.408 195.642 210.408H230.449C231.237 210.407 232.004 210.667 232.629 211.146C233.255 211.625 233.705 212.297 233.909 213.058L233.936 213.158Z" fill="white"/>
<path d="M210.987 213.986H210.092V223.16H210.987V213.986Z" fill="white"/>
<path d="M234.16 213.986H189.253L190.03 213.092H233.918L234.16 213.986Z" fill="#285152"/>
<path d="M236.636 223.161H173.347C169.094 223.161 165.014 224.849 162.006 227.856C158.998 230.862 157.308 234.94 157.308 239.191V242.028H241.734L236.636 223.161Z" fill="#00ADB5"/>
<path d="M241.154 239.116H157.179C156.238 239.116 155.475 239.879 155.475 240.82V242.695C155.475 243.636 156.238 244.398 157.179 244.398H241.154C242.095 244.398 242.858 243.636 242.858 242.695V240.82C242.858 239.879 242.095 239.116 241.154 239.116Z" fill="#6A727F"/>
<path d="M240.988 239.182H157.308V238.288H240.744L240.988 239.182Z" fill="#285152"/>
<path d="M187.074 239.163H186.179C186.179 236.221 183.712 233.142 181.407 232.111L181.142 231.993V223.161H182.037V231.42C184.502 232.664 187.074 235.883 187.074 239.163Z" fill="#285152"/>
<path d="M210.987 223.161H210.092V239.116H210.987V223.161Z" fill="#285152"/>
<path d="M204.46 225.27C203.014 225.27 201.836 226.333 201.836 227.641C201.836 228.949 203.014 230.012 204.46 230.012C205.906 230.012 207.083 228.947 207.083 227.641C207.083 226.335 205.906 225.27 204.46 225.27ZM204.46 229.296C203.549 229.296 202.786 228.74 202.598 227.999H204.46V227.283H202.598C202.777 226.542 203.549 225.986 204.46 225.986C205.511 225.986 206.367 226.728 206.367 227.641C206.367 228.554 205.513 229.296 204.46 229.296Z" fill="white"/>
<path d="M229.502 250.493C234.274 250.493 238.143 246.626 238.143 241.856C238.143 237.086 234.274 233.219 229.502 233.219C224.73 233.219 220.861 237.086 220.861 241.856C220.861 246.626 224.73 250.493 229.502 250.493Z" fill="#285152"/>
<path d="M229.502 248.766C233.32 248.766 236.416 245.672 236.416 241.856C236.416 238.039 233.32 234.945 229.502 234.945C225.684 234.945 222.589 238.039 222.589 241.856C222.589 245.672 225.684 248.766 229.502 248.766Z" fill="#6A727F"/>
<path d="M229.5 246.725C228.537 246.725 227.594 246.439 226.793 245.904C225.992 245.368 225.367 244.608 224.998 243.717C224.63 242.827 224.533 241.848 224.721 240.903C224.91 239.958 225.374 239.09 226.056 238.409C226.737 237.728 227.606 237.264 228.551 237.077C229.496 236.889 230.476 236.986 231.366 237.355C232.257 237.723 233.018 238.348 233.553 239.149C234.088 239.95 234.374 240.892 234.373 241.856C234.371 243.147 233.857 244.384 232.944 245.297C232.03 246.21 230.792 246.723 229.5 246.725ZM229.5 237.88C228.714 237.88 227.945 238.113 227.291 238.55C226.636 238.987 226.127 239.608 225.826 240.334C225.524 241.061 225.446 241.86 225.599 242.631C225.753 243.403 226.132 244.111 226.688 244.667C227.244 245.223 227.953 245.602 228.724 245.755C229.496 245.909 230.296 245.83 231.023 245.529C231.749 245.228 232.371 244.718 232.808 244.065C233.245 243.411 233.478 242.642 233.478 241.856C233.477 240.802 233.058 239.791 232.312 239.045C231.566 238.3 230.555 237.881 229.5 237.88Z" fill="white"/>
<path d="M229.5 232.157C227.551 232.16 225.646 232.745 224.032 233.837C222.417 234.93 221.166 236.479 220.439 238.288H221.633C222.318 236.776 223.425 235.494 224.82 234.595C226.216 233.696 227.841 233.217 229.501 233.217C231.162 233.217 232.787 233.696 234.182 234.595C235.578 235.494 236.684 236.776 237.37 238.288H238.564C237.836 236.479 236.585 234.929 234.97 233.837C233.355 232.745 231.45 232.16 229.5 232.157Z" fill="white"/>
<path d="M172.812 250.493C177.585 250.493 181.453 246.626 181.453 241.856C181.453 237.086 177.585 233.219 172.812 233.219C168.04 233.219 164.171 237.086 164.171 241.856C164.171 246.626 168.04 250.493 172.812 250.493Z" fill="#285152"/>
<path d="M172.812 248.766C176.63 248.766 179.726 245.672 179.726 241.856C179.726 238.039 176.63 234.945 172.812 234.945C168.994 234.945 165.899 238.039 165.899 241.856C165.899 245.672 168.994 248.766 172.812 248.766Z" fill="#6A727F"/>
<path d="M172.812 246.725C171.848 246.725 170.906 246.439 170.105 245.904C169.303 245.368 168.679 244.608 168.31 243.717C167.941 242.827 167.845 241.848 168.033 240.903C168.221 239.958 168.686 239.09 169.367 238.409C170.049 237.728 170.917 237.264 171.863 237.077C172.808 236.889 173.788 236.986 174.678 237.355C175.568 237.723 176.329 238.348 176.865 239.149C177.4 239.95 177.685 240.892 177.685 241.856C177.683 243.147 177.169 244.384 176.256 245.297C175.342 246.21 174.104 246.723 172.812 246.725ZM172.812 237.88C172.025 237.88 171.256 238.113 170.602 238.55C169.948 238.987 169.438 239.608 169.137 240.334C168.836 241.061 168.757 241.86 168.911 242.631C169.064 243.403 169.443 244.111 170 244.667C170.556 245.223 171.265 245.602 172.036 245.755C172.808 245.909 173.608 245.83 174.334 245.529C175.061 245.228 175.682 244.718 176.12 244.065C176.557 243.411 176.79 242.642 176.79 241.856C176.789 240.802 176.37 239.791 175.624 239.045C174.878 238.3 173.867 237.881 172.812 237.88Z" fill="white"/>
<path d="M172.812 232.157C170.863 232.16 168.958 232.745 167.344 233.837C165.729 234.93 164.478 236.479 163.751 238.288H164.945C165.63 236.776 166.737 235.494 168.132 234.595C169.528 233.696 171.153 233.217 172.813 233.217C174.474 233.217 176.099 233.696 177.494 234.595C178.89 235.494 179.996 236.776 180.682 238.288H181.883C181.155 236.478 179.903 234.927 178.286 233.835C176.67 232.743 174.764 232.158 172.812 232.157Z" fill="white"/>
<path d="M234.617 103.025V102.13C227.196 102.003 220.263 99.1509 215.043 94.0673C212.426 91.5455 210.346 88.5214 208.926 85.1764C207.506 81.8314 206.777 78.2344 206.782 74.6008V71.1277H205.887V74.6008C205.887 89.7836 193.08 102.136 177.338 102.136C161.595 102.136 148.789 89.7889 148.789 74.6008V71.1277H147.894V74.6008C147.894 89.7836 135.087 102.136 119.346 102.136V103.03C121.14 103.032 122.931 102.874 124.697 102.558V107.45H119.346V108.345H147.894V109.375H119.346V110.27H147.894V114.761C147.295 113.706 146.427 112.829 145.379 112.218C144.33 111.608 143.139 111.285 141.925 111.285H119.346V112.179H141.925C143.508 112.181 145.025 112.81 146.143 113.929C147.262 115.047 147.892 116.563 147.894 118.145V136.089H148.789V118.145C148.791 116.563 149.42 115.046 150.54 113.928C151.659 112.81 153.176 112.181 154.759 112.179H199.917C201.499 112.181 203.017 112.81 204.136 113.928C205.255 115.046 205.885 116.563 205.887 118.145V136.089H206.782V118.145C206.784 116.563 207.413 115.047 208.532 113.929C209.651 112.81 211.168 112.181 212.75 112.179H234.617V111.285H212.75C211.537 111.285 210.345 111.608 209.297 112.218C208.249 112.829 207.381 113.706 206.782 114.761V110.27H234.617V109.375H206.782V108.345H234.617V107.45H229.978V102.595C231.511 102.857 233.062 103.001 234.617 103.025ZM130.506 107.45H125.601V102.386C127.275 102.036 128.916 101.543 130.506 100.913V107.45ZM136.304 107.45H131.401V100.539C133.117 99.7944 134.759 98.8885 136.304 97.8339V107.45ZM142.104 107.45H137.199V97.1987C139.005 95.8685 140.651 94.3344 142.104 92.6269V107.45ZM147.903 107.45H142.999V91.5246C145.283 88.5675 146.95 85.1827 147.903 81.5704V107.45ZM195.192 97.1987C196.997 95.8686 198.642 94.3352 200.096 92.6287V107.45H195.184L195.192 97.1987ZM189.392 100.541C191.109 99.7956 192.752 98.8891 194.297 97.8339V107.45H189.392V100.541ZM183.594 102.386C185.268 102.036 186.908 101.544 188.497 100.913V107.45H183.594V102.386ZM177.794 103.027C179.439 103.005 181.08 102.848 182.699 102.558V107.45H177.794V103.027ZM171.996 102.56C173.615 102.848 175.255 103.004 176.899 103.027V107.45H171.996V102.56ZM166.196 100.913C167.786 101.543 169.427 102.036 171.101 102.388V107.45H166.196V100.913ZM160.398 97.8357C161.943 98.8896 163.585 99.7955 165.301 100.541V107.45H160.398V97.8357ZM154.598 92.6287C156.052 94.3357 157.698 95.8698 159.503 97.2005V107.45H154.598V92.6287ZM148.798 81.5686C149.749 85.1826 151.417 88.5688 153.703 91.5264V107.452H148.798V81.5686ZM205.903 114.761C205.304 113.706 204.436 112.829 203.387 112.218C202.338 111.607 201.146 111.285 199.933 111.285H154.759C153.545 111.285 152.353 111.607 151.305 112.218C150.256 112.829 149.388 113.706 148.789 114.761V110.27H205.894L205.903 114.761ZM205.903 109.375H148.798V108.345H205.903V109.375ZM205.903 107.45H200.998V91.5246C203.283 88.567 204.951 85.1808 205.903 81.5668V107.45ZM211.701 107.45H206.798V81.6527C207.742 85.2781 209.409 88.675 211.701 91.6391V107.45ZM217.501 107.45H212.596V92.7432C213.173 93.4207 213.785 94.0768 214.435 94.7115C215.395 95.6484 216.42 96.5177 217.501 97.3132V107.45ZM223.299 107.45H218.396V97.9413C219.941 98.9911 221.583 99.89 223.299 100.625V107.45ZM229.099 107.45H224.194V100.99C225.785 101.608 227.426 102.087 229.099 102.422V107.45Z" fill="#005458"/>
<path d="M174.4 164.3V196.102C174.4 198.884 173.294 201.552 171.326 203.519C169.358 205.486 166.69 206.591 163.907 206.591H0.184814V153.805H163.907C165.285 153.805 166.65 154.077 167.924 154.604C169.197 155.132 170.354 155.905 171.329 156.879C172.303 157.854 173.076 159.011 173.603 160.284C174.13 161.557 174.401 162.922 174.4 164.3Z" fill="#007277"/>
<path d="M333.149 153.811V206.597H246.258C240.075 206.597 235.064 201.676 235.064 195.605V164.804C235.064 158.731 240.077 153.811 246.258 153.811H333.149Z" fill="#007277"/>
<path d="M174.4 174.125H0.184814V184.21H174.4V174.125Z" fill="#86C9D3"/>
<path d="M174.4 173.678H0.184814V174.572H174.4V173.678Z" fill="white"/>
<path d="M174.4 183.763H0.184814V184.657H174.4V183.763Z" fill="white"/>
<path d="M333.149 174.125H235.062V184.21H333.149V174.125Z" fill="#86C9D3"/>
<path d="M333.149 183.763H235.062V184.657H333.149V183.763Z" fill="white"/>
<path d="M333.147 173.678H235.062V174.572H333.147V173.678Z" fill="white"/>
<path d="M333.149 151.135V152.03H330.118V153.896H329.223V152.03H319.603V153.896H318.708V152.03H309.086V153.896H308.191V152.03H298.567V153.896H297.672V152.03H288.05V153.896H287.155V152.03H277.535V153.896H276.64V152.03H267.018V153.896H266.123V152.03H256.501V153.896H255.606V152.03H246.174V153.896H245.279V151.135H333.149Z" fill="white"/>
<path d="M164.18 151.135V153.896H163.285V152.03H153.855V153.896H152.96V152.03H143.34V153.896H142.445V152.03H132.823V153.896H131.928V152.03H122.308V153.896H121.412V152.03H111.79V153.896H110.895V152.03H101.275V153.896H100.38V152.03H90.7583V153.896H89.8632V152.03H80.2412V153.896H79.3462V152.03H69.726V153.896H68.8309V152.03H59.209V153.896H58.3139V152.03H48.6938V153.896H47.7987V152.03H38.1768V153.896H37.2817V152.03H27.6973V153.896H26.8023V152.03H17.1803V153.896H16.2852V152.03H6.66509V153.896H5.77002V152.03H0.184814V151.135H164.18Z" fill="white"/>
<path d="M165.138 209.712H0.184814V208.817H165.138C167.355 208.815 169.481 207.935 171.049 206.368C172.618 204.801 173.5 202.677 173.503 200.461V184.856H174.399V200.454C174.397 202.908 173.42 205.262 171.684 206.998C169.948 208.733 167.594 209.71 165.138 209.712Z" fill="#007277"/>
<path d="M333.149 209.712H244.323C241.869 209.71 239.515 208.734 237.779 207C236.043 205.266 235.066 202.914 235.062 200.461V184.856H235.958V200.454C235.96 202.67 236.843 204.794 238.411 206.361C239.978 207.927 242.104 208.808 244.321 208.81H333.149V209.712Z" fill="#007277"/>
<path d="M283.287 166.767H271.969V167.721H283.287V166.767Z" fill="white"/>
<path d="M271.075 165.873V169.428H269.442C268.959 169.429 268.496 169.621 268.154 169.963C267.813 170.304 267.621 170.767 267.62 171.25V173.431H268.515V171.257C268.515 171.011 268.612 170.775 268.786 170.601C268.96 170.428 269.196 170.33 269.442 170.33H271.075V173.438H271.97V170.33H280.328C280.159 170.61 280.071 170.93 280.072 171.257V173.438H280.967V171.257C280.967 171.011 281.065 170.775 281.24 170.601C281.414 170.427 281.65 170.33 281.896 170.33H283.287V173.438H284.182V165.88L271.075 165.873ZM283.287 169.428H271.97V166.767H283.287V169.428Z" fill="#393E46"/>
<path d="M56.973 169.437H55.3404V165.889H42.2349V173.449H43.1299V170.341H44.5209C44.7666 170.341 45.0022 170.439 45.176 170.613C45.3498 170.786 45.4477 171.022 45.4481 171.268V173.449H46.3432V171.257C46.3434 170.931 46.2556 170.61 46.089 170.33H54.4453V173.438H55.3404V170.33H56.973C57.2189 170.33 57.4548 170.428 57.6287 170.601C57.8026 170.775 57.9003 171.011 57.9003 171.257V173.438H58.7954V171.257C58.7949 170.774 58.6027 170.311 58.261 169.97C57.9193 169.629 57.456 169.437 56.973 169.437ZM43.1299 169.437V166.783H54.4453V169.446L43.1299 169.437Z" fill="#393E46"/>
<path d="M54.4455 166.774H43.1301V167.73H54.4455V166.774Z" fill="white"/>
<path d="M133.566 169.437H131.938V165.889H118.831V173.449H119.726V170.341H121.117C121.363 170.341 121.598 170.439 121.772 170.613C121.946 170.786 122.044 171.022 122.044 171.268V173.449H122.939V171.257C122.94 170.931 122.852 170.61 122.685 170.33H131.043V173.438H131.938V170.33H133.569C133.815 170.33 134.051 170.427 134.226 170.601C134.4 170.775 134.498 171.011 134.498 171.257V173.438H135.393V171.257C135.393 171.017 135.345 170.78 135.253 170.559C135.161 170.338 135.026 170.137 134.857 169.968C134.687 169.8 134.485 169.666 134.264 169.574C134.042 169.483 133.805 169.436 133.566 169.437ZM119.723 169.437V166.783H131.043V169.446L119.723 169.437Z" fill="#393E46"/>
<path d="M131.04 166.774H119.723V167.73H131.04V166.774Z" fill="white"/>
<path d="M74.3162 160.984L77.8605 164.527C79.7689 166.435 81.2827 168.7 82.3153 171.192C83.3479 173.685 83.8793 176.357 83.8789 179.055C83.8786 181.753 83.3465 184.424 82.3132 186.917C81.2799 189.409 79.7656 191.674 77.8567 193.581L74.3124 197.124L70.7681 193.581C66.9138 189.728 64.7485 184.503 64.7485 179.055C64.7485 173.606 66.9138 168.381 70.7681 164.528L74.3124 160.985L74.3162 160.984Z" fill="#008C92"/>
<path d="M74.7635 182.329H73.8684V206.591H74.7635V182.329Z" fill="#393E46"/>
<path d="M96.2987 192.951C96.2988 193.943 96.0523 194.92 95.5813 195.793C95.1103 196.666 94.4296 197.408 93.6004 197.953C92.7712 198.498 91.8194 198.828 90.8308 198.915C89.8422 199.001 88.8476 198.84 87.9366 198.447C87.0255 198.053 86.2265 197.44 85.6115 196.661C84.9964 195.883 84.5846 194.964 84.413 193.987C84.2414 193.01 84.3154 192.006 84.6283 191.064C84.9413 190.123 85.4835 189.274 86.206 188.594C85.6739 187.803 85.37 186.881 85.3278 185.928C85.2856 184.976 85.5067 184.03 85.9668 183.195C86.4269 182.36 87.1082 181.668 87.9359 181.195C88.7637 180.721 89.7059 180.485 90.6593 180.512C91.6126 180.538 92.5401 180.827 93.3401 181.346C94.1402 181.865 94.7817 182.594 95.1943 183.453C95.607 184.313 95.7749 185.269 95.6795 186.218C95.5841 187.166 95.2291 188.07 94.6536 188.83C95.7111 189.942 96.3002 191.417 96.2987 192.951Z" fill="#4B5059"/>
<path d="M90.7583 194.107H89.8633V206.593H90.7583V194.107Z" fill="#393E46"/>
<path d="M268.525 155.743C268.525 156.921 268.227 158.08 267.659 159.111C267.09 160.143 266.269 161.014 265.273 161.643C264.277 162.273 263.137 162.64 261.961 162.71C260.785 162.78 259.61 162.552 258.545 162.046C257.481 161.54 256.562 160.773 255.875 159.817C255.187 158.86 254.753 157.745 254.612 156.576C254.472 155.406 254.63 154.22 255.071 153.128C255.513 152.036 256.224 151.074 257.138 150.33C256.617 149.496 256.331 148.537 256.311 147.553C256.292 146.57 256.539 145.6 257.027 144.746C257.515 143.892 258.225 143.186 259.082 142.703C259.94 142.22 260.912 141.978 261.895 142.003C262.879 142.029 263.837 142.32 264.669 142.846C265.5 143.372 266.173 144.113 266.617 144.991C267.06 145.869 267.258 146.851 267.188 147.832C267.118 148.813 266.783 149.757 266.22 150.563C266.946 151.216 267.527 152.015 267.924 152.908C268.321 153.8 268.526 154.766 268.525 155.743Z" fill="#008C92"/>
<path d="M261.986 158.771H261.091V166.998H261.986V158.771Z" fill="#393E46"/>
<path d="M333.149 184.856V206.584H266.787V202.553C266.787 199.789 267.885 197.139 269.84 195.185C271.795 193.231 274.446 192.133 277.211 192.133H290.186C289.736 190.695 289.507 189.197 289.509 187.69V185.699C289.509 181.757 291.076 177.976 293.864 175.189C296.652 172.401 300.434 170.835 304.378 170.834H306.759C310.609 170.835 314.319 172.273 317.162 174.867C320.005 177.462 321.776 181.024 322.127 184.856H333.149Z" fill="#4B5059"/>
<path d="M302.454 193.407C303.134 194.125 303.512 195.075 303.512 196.064C303.512 197.052 303.134 198.002 302.454 198.72C301.774 198.002 301.395 197.052 301.395 196.064C301.395 195.075 301.774 194.125 302.454 193.407Z" fill="#007277"/>
<path d="M296.432 197.841C297.316 197.4 298.336 197.314 299.282 197.601C300.228 197.888 301.028 198.527 301.517 199.386C300.633 199.827 299.613 199.913 298.667 199.626C297.721 199.339 296.921 198.7 296.432 197.841Z" fill="#007277"/>
<path d="M284.173 187.089C285.16 187.026 286.133 187.344 286.893 187.976C287.652 188.608 288.141 189.508 288.258 190.489C287.271 190.552 286.298 190.235 285.538 189.602C284.778 188.97 284.289 188.071 284.173 187.089Z" fill="#4B5059"/>
<path d="M72.2161 204.281V206.591H12.9324V204.086C12.9328 199.977 14.5664 196.036 17.4736 193.13C20.3808 190.225 24.3237 188.592 28.4349 188.592H34.4802C37.2276 188.592 39.9033 189.469 42.1183 191.093C44.3333 192.718 45.972 195.007 46.7963 197.627H65.5515C67.3178 197.627 69.0119 198.328 70.2616 199.575C71.5112 200.823 72.2142 202.516 72.2161 204.281Z" fill="#4B5059"/>
<path d="M39.6287 195.327C40.5716 195.031 41.5924 195.107 42.481 195.539C43.3697 195.972 44.0588 196.729 44.4065 197.653C43.4636 197.95 42.443 197.873 41.5544 197.441C40.6658 197.008 39.9767 196.252 39.6287 195.327Z" fill="#007277"/>
<path d="M50.8044 192.062C50.9141 193.044 50.643 194.031 50.0469 194.819C49.4509 195.608 48.5752 196.138 47.6 196.301C47.4904 195.319 47.7614 194.332 48.3575 193.543C48.9535 192.755 49.8292 192.225 50.8044 192.062Z" fill="#4B5059"/>
<path d="M113.765 173.44H93.728C93.3463 172.552 93.1501 171.595 93.1516 170.629C93.1516 170.228 93.1845 169.829 93.2501 169.434C93.7764 166.291 96.3416 163.908 99.426 163.908C102.584 163.908 105.196 166.413 105.634 169.655C105.652 169.788 105.668 169.924 105.677 170.058C106.02 169.921 106.375 169.815 106.737 169.741C107.146 169.658 107.562 169.616 107.979 169.616C109.21 169.625 110.412 169.992 111.439 170.671C112.466 171.349 113.274 172.311 113.765 173.44Z" fill="#4B5059"/>
<path d="M164.18 203.449V206.591H163.285V204.344H153.855V206.591H152.96V204.344H143.34V206.591H142.445V204.344H132.823V206.591H131.928V204.344H122.308V206.591H121.412V204.344H111.79V206.591H110.895V204.344H101.275V206.591H100.38V204.344H90.7583V206.591H89.8632V204.344H80.2412V206.591H79.3462V204.344H69.726V206.591H68.8309V204.344H59.209V206.591H58.3139V204.344H48.6938V206.591H47.7987V204.344H38.1768V206.591H37.2817V204.344H27.6973V206.591H26.8023V204.344H17.1803V206.591H16.2852V204.344H6.66509V206.591H5.77002V204.344H0.184814V203.449H164.18Z" fill="white"/>
<path d="M333.149 203.449V204.344H330.118V206.591H329.223V204.344H319.603V206.591H318.708V204.344H309.086V206.591H308.191V204.344H298.567V206.591H297.672V204.344H288.05V206.591H287.155V204.344H277.535V206.591H276.64V204.344H267.018V206.591H266.123V204.344H256.501V206.591H255.606V204.344H246.174V206.591H245.279V203.449H333.149Z" fill="white"/>
<path d="M221.205 136.115H204.605V141.438H221.205V136.115Z" fill="white"/>
<path d="M213.013 140.383C213.713 140.383 214.28 139.815 214.28 139.116C214.28 138.416 213.713 137.849 213.013 137.849C212.313 137.849 211.746 138.416 211.746 139.116C211.746 139.815 212.313 140.383 213.013 140.383Z" fill="#00ADB5"/>
<path d="M208.598 140.383C209.298 140.383 209.866 139.815 209.866 139.116C209.866 138.416 209.298 137.849 208.598 137.849C207.898 137.849 207.331 138.416 207.331 139.116C207.331 139.815 207.898 140.383 208.598 140.383Z" fill="#005458"/>
<path d="M217.429 140.383C218.129 140.383 218.697 139.815 218.697 139.116C218.697 138.416 218.129 137.849 217.429 137.849C216.729 137.849 216.162 138.416 216.162 139.116C216.162 139.815 216.729 140.383 217.429 140.383Z" fill="#86C9D3"/>
<path d="M235.957 173.998H235.062V146.563C235.059 144.025 234.049 141.592 232.254 139.798C230.458 138.003 228.024 136.994 225.485 136.992H204.605V136.097H225.485C228.261 136.1 230.923 137.204 232.886 139.166C234.849 141.128 235.954 143.788 235.957 146.563V173.998Z" fill="white"/>
</g>
<defs>
<clipPath id="clip0_1_14268">
<rect width="332.67" height="250.54" fill="white" transform="translate(0.331787)"/>
</clipPath>
</defs>
</svg>
