<svg width="183" height="121" viewBox="0 0 183 121" fill="none" xmlns="http://www.w3.org/2000/svg">
<path d="M152.563 10.0483L183 36.1843L157.8 35.8685L164.198 63.1662L132.1 35.6064L152.563 10.0483Z" fill="#FC543D"/>
<path d="M121.926 48.0039L144.055 82.0932L119.975 74.3245L118.736 102.403L95.3901 66.4546L121.926 48.0039Z" fill="#A6B5FF"/>
<path d="M79.1533 73.1089L84.9712 113.883L66.4938 95.9324L53.7433 120.662L47.6068 77.6664L79.1533 73.1089Z" fill="#F4D34D"/>
<path d="M29.5103 75.6597L19.1995 115.45L9.16181 91.2388L-12 108.522L-1.12623 66.5625L29.5103 75.6597Z" fill="#FCBDB6"/>
<path d="M159.063 -1.55127C159.063 -1.55127 133.187 49.4398 86.8878 69.207C40.5891 88.9743 -10.5893 63.4043 -10.5893 63.4043" stroke="#F4D34D" stroke-width="5" stroke-miterlimit="10"/>
</svg>
