<svg width="181" height="175" viewBox="0 0 181 175" fill="none" xmlns="http://www.w3.org/2000/svg">
    <path
        d="M15.7097 13.8966C-2.93495 33.0368 -4.39684 68.8682 11.0966 79.2167C11.7389 79.7275 21.1334 85.9895 53.5751 106.95C94.1267 133.151 179.392 107.181 153.298 81.548C135.693 64.2528 166.169 34.1411 148.863 16.0621C130.738 -2.87361 110.776 10.9066 89.9482 21.1385C69.1205 31.3705 39.0156 -10.0288 15.7097 13.8966Z"
        fill="#00ADB5" />
    <path
        d="M94.5968 136.463C92.0342 152.571 101.813 163.674 110.559 170.57L115.37 174.266H179.631C178.5 172.897 174.894 167.413 169.536 156.433C162.838 142.709 158.276 121.178 157.111 109.179C155.946 97.181 152.999 90.0021 149.407 84.7425C145.816 79.4829 136.894 70.4551 131.749 64.2916C126.604 58.128 100.091 60.1023 90.1901 61.0883C80.2887 62.0747 53.0071 62.0721 45.9209 65.4414C40.252 68.1371 41.0752 69.7944 40.5825 72.012C40.5825 78.0078 49.5231 77.5943 53.6326 76.7178V79.2652C50.4487 80.909 44.3182 83.7559 42.6356 85.4817C40.0895 93.2841 48.1385 95.009 52.245 93.7771C54.4777 92.6264 60.9129 92.858 63.2426 95.6193C65.5726 98.3806 56.4194 95.2549 52.245 96.3232L44.7711 105.604C43.2126 110.735 46.4643 114.721 52.9842 112.832C62.4071 110.102 83.8218 118.466 86.4429 125.369C88.5396 130.892 92.7524 134.244 94.5968 135.231C95.6646 128.93 97.1597 120.356 94.5968 136.463Z"
        fill="white" />
    <path fill-rule="evenodd" clip-rule="evenodd"
        d="M112.746 60.4171C104.261 60.2636 95.1761 61.0021 90.2309 61.4945C87.3116 61.7853 82.8765 61.9907 77.9032 62.2214C74.4289 62.3823 70.6916 62.5558 67.0248 62.7787C62.5561 63.0504 58.1833 63.3961 54.4887 63.8833C50.7783 64.3724 47.8034 64.9985 46.0967 65.8101C43.285 67.1469 42.1704 68.1885 41.669 69.1021C41.4186 69.558 41.3081 70.0054 41.2309 70.4923C41.2067 70.6464 41.1847 70.8128 41.1618 70.9869C41.1179 71.3242 41.0697 71.6909 40.9912 72.055C41.0019 73.4148 41.5088 74.3875 42.3132 75.0922C43.1403 75.8171 44.3081 76.2794 45.645 76.5405C48.3203 77.0626 51.5233 76.7495 53.5476 76.3176L54.0413 76.2122V79.5137L53.8203 79.6277C53.1845 79.956 52.4424 80.3269 51.6454 80.7249C50.4193 81.3374 49.0628 82.0152 47.7624 82.7034C46.6956 83.2678 45.6815 83.8318 44.8319 84.3601C44.0226 84.8631 43.3861 85.3192 42.9946 85.7005C42.4101 87.5423 42.4547 88.9858 42.8689 90.1C43.2895 91.2321 44.1098 92.0724 45.1475 92.6613C47.2319 93.8441 50.1315 93.9723 52.0935 93.3953C52.7138 93.0845 53.5773 92.8817 54.5365 92.7841C55.5216 92.6839 56.6381 92.692 57.7559 92.8251C59.9664 93.0881 62.2883 93.8538 63.5553 95.3554C63.7133 95.5428 63.839 95.7237 63.9198 95.8982C63.9999 96.0704 64.0519 96.2703 64.0115 96.4768C63.922 96.9333 63.4801 97.0867 63.1699 97.1452C62.82 97.2108 62.3652 97.2111 61.8634 97.1811C61.3543 97.151 60.7653 97.0871 60.1344 97.0111C59.8539 96.9775 59.5654 96.9413 59.2705 96.9045C58.2289 96.7743 57.1111 96.6348 56.0233 96.5579C54.6839 96.4629 53.4368 96.4677 52.4763 96.6871L45.1397 105.797C44.4212 108.234 44.8558 110.307 46.1341 111.558C47.4245 112.82 49.6934 113.359 52.8708 112.439C55.3083 111.732 58.4809 111.751 61.8799 112.264C65.287 112.777 68.9577 113.79 72.41 115.106C75.8617 116.42 79.1086 118.041 81.664 119.775C84.2024 121.498 86.123 123.374 86.8251 125.223C88.7073 130.181 92.3328 133.352 94.2931 134.58C94.8042 131.571 95.3812 128.232 95.5583 127.362C95.5702 127.303 95.5809 127.253 95.5899 127.213L95.5903 127.213C95.5964 127.185 95.609 127.132 95.6258 127.088C95.6277 127.083 95.6458 127.034 95.6836 126.985L95.6843 126.984C95.6978 126.966 95.7647 126.878 95.8927 126.839C95.9563 126.826 96.0913 126.83 96.1595 126.85C96.2154 126.878 96.301 126.944 96.332 126.979C96.3866 127.048 96.4037 127.117 96.4079 127.134V127.134C96.4147 127.162 96.4173 127.184 96.4186 127.196C96.4209 127.22 96.4209 127.24 96.4205 127.25C96.4202 127.288 96.4157 127.335 96.4112 127.377C96.3911 127.56 96.334 127.97 96.2325 128.649C96.0287 130.014 95.6413 132.5 95.0007 136.527C92.4739 152.408 102.1 163.378 110.81 170.247C110.811 170.248 110.811 170.248 110.812 170.249L115.509 173.857H178.807C177.276 171.745 173.9 166.306 169.169 156.612C162.443 142.829 157.872 121.245 156.705 109.218C155.545 97.2751 152.616 90.165 149.07 84.9723C147.293 82.3696 144.184 78.8184 140.857 75.129C140.071 74.2577 139.274 73.3789 138.48 72.5044C135.923 69.6869 133.403 66.9107 131.435 64.553C130.848 63.85 129.935 63.2387 128.73 62.7186C127.529 62.1998 126.063 61.7823 124.398 61.4525C121.068 60.7931 116.99 60.4936 112.746 60.4171ZM94.3287 135.549C94.2847 135.824 94.2398 136.108 94.1936 136.399C91.5952 152.731 101.524 163.966 110.306 170.891L110.308 170.892L115.232 174.674H180.5L179.948 174.005C178.846 172.675 175.26 167.228 169.904 156.253C163.235 142.588 158.68 121.109 157.518 109.139C156.348 97.0861 153.382 89.838 149.745 84.5116C147.931 81.855 144.783 78.2624 141.464 74.582C140.673 73.7046 139.872 72.822 139.076 71.9448C136.522 69.1306 134.019 66.3725 132.063 64.0293C131.363 63.1916 130.323 62.516 129.054 61.9684C127.783 61.4192 126.256 60.9873 124.557 60.651C121.159 59.978 117.026 59.6769 112.761 59.5997C104.228 59.4459 95.106 60.1877 90.1498 60.6813C87.2467 60.9705 82.8545 61.174 77.9061 61.4031C74.4292 61.564 70.6777 61.7378 66.9754 61.9629C62.5002 62.235 58.1052 62.5819 54.3818 63.073C50.6746 63.5618 47.5818 64.1989 45.7458 65.0718C42.8886 66.4307 41.5802 67.5653 40.9528 68.709C40.6384 69.2814 40.5082 69.8326 40.4239 70.3644C40.3922 70.5637 40.368 70.7511 40.3441 70.9349C40.3018 71.2615 40.2607 71.5759 40.1838 71.9229L40.1738 71.9668V72.0114C40.1738 73.6267 40.7825 74.8376 41.7746 75.7066C42.7519 76.5631 44.0765 77.0668 45.4883 77.3423C48.0971 77.8518 51.133 77.6066 53.2242 77.2154V79.0155C52.6582 79.305 52.0043 79.6319 51.3033 79.9821C50.0653 80.6008 48.6815 81.2925 47.3802 81.981C46.306 82.5492 45.2732 83.1233 44.4005 83.6658C43.535 84.204 42.8007 84.7271 42.3432 85.1958L42.277 85.264L42.2473 85.3545C41.5899 87.3698 41.6025 89.0381 42.1026 90.3847C42.6033 91.7318 43.5748 92.7085 44.7443 93.3721C47.062 94.6873 50.2184 94.811 52.3626 94.1678L52.3988 94.1571L52.4324 94.1397C52.926 93.8854 53.6894 93.6916 54.6192 93.5973C55.5416 93.5036 56.598 93.5103 57.6593 93.6367C59.8074 93.8922 61.8679 94.6227 62.9305 95.8823C63.0636 96.04 63.1399 96.1586 63.1786 96.2422C63.188 96.2623 63.1942 96.2787 63.1987 96.2913C63.1683 96.3052 63.1134 96.3243 63.019 96.3421C62.7729 96.3883 62.402 96.3947 61.9119 96.3653C61.4289 96.3366 60.8603 96.2755 60.2319 96.1999C59.9596 96.1673 59.6763 96.1317 59.3848 96.0952C58.3404 95.9647 57.1928 95.8213 56.0811 95.7428C54.6645 95.6423 53.2546 95.6426 52.1439 95.9266L52.0124 95.9605L44.4035 105.409L44.3802 105.485C43.5719 108.146 43.988 110.602 45.5626 112.142C47.1386 113.683 49.7554 114.192 53.0982 113.224C55.372 112.565 58.4098 112.567 61.7584 113.072C65.0986 113.575 68.7125 114.572 72.1189 115.869C75.5267 117.167 78.7137 118.761 81.2053 120.451C83.7136 122.154 85.4527 123.911 86.061 125.514C88.1713 131.071 92.3783 134.477 94.3287 135.549ZM63.2326 96.2707C63.2326 96.2707 63.2316 96.2726 63.2277 96.2755C63.2303 96.2719 63.2326 96.2707 63.2326 96.2707Z"
        fill="#393E46" />
    <path
        d="M50.5933 8.17236C50.5933 3.65908 54.252 0 58.7653 0H115.026C119.539 0 123.198 3.65908 123.198 8.17236V136.709C123.198 141.222 119.539 144.881 115.026 144.881H58.7653C54.252 144.881 50.5933 141.222 50.5933 136.709V8.17236Z"
        fill="#393E46" />
    <path
        d="M56.1782 11.5391C56.1782 11.4264 56.2696 11.335 56.3827 11.335H117.409C117.522 11.335 117.613 11.4264 117.613 11.5391V136.135C117.613 136.248 117.522 136.34 117.409 136.34H56.3827C56.2696 136.34 56.1782 136.248 56.1782 136.135V11.5391Z"
        fill="white" />
    <path
        d="M62.8516 83.7658C62.8516 82.5246 63.8576 81.5186 65.0988 81.5186H109.229C110.47 81.5186 111.476 82.5246 111.476 83.7658V91.5295C111.476 92.7707 110.47 93.7768 109.229 93.7768H65.0988C63.8576 93.7768 62.8516 92.7707 62.8516 91.5295V83.7658Z"
        fill="#393E46" />
    <path
        d="M60.4004 116.25C60.4004 115.46 61.0407 114.819 61.8306 114.819H113.724C114.514 114.819 115.154 115.46 115.154 116.25C115.154 117.039 114.514 117.679 113.724 117.679H61.8306C61.0407 117.679 60.4004 117.039 60.4004 116.25Z"
        fill="#ADFBFF" />
    <path fill-rule="evenodd" clip-rule="evenodd"
        d="M113.724 115.024H61.8306C61.1535 115.024 60.6049 115.572 60.6049 116.25C60.6049 116.926 61.1535 117.475 61.8306 117.475H113.724C114.401 117.475 114.95 116.926 114.95 116.25C114.95 115.572 114.401 115.024 113.724 115.024ZM61.8306 114.819C61.0407 114.819 60.4004 115.46 60.4004 116.25C60.4004 117.039 61.0407 117.679 61.8306 117.679H113.724C114.514 117.679 115.154 117.039 115.154 116.25C115.154 115.46 114.514 114.819 113.724 114.819H61.8306Z"
        fill="#393E46" />
    <path
        d="M60.4004 116.25C60.4004 115.46 61.0407 114.819 61.8306 114.819H87.3686C88.1585 114.819 88.7989 115.46 88.7989 116.25C88.7989 117.039 88.1585 117.679 87.3686 117.679H61.8306C61.0407 117.679 60.4004 117.039 60.4004 116.25Z"
        fill="#393E46" />
    <path fill-rule="evenodd" clip-rule="evenodd"
        d="M87.2661 27.7858C76.8141 27.7858 68.3678 35.941 68.3678 45.9691C68.3678 55.9969 76.8141 64.1521 87.2661 64.1521C97.718 64.1521 106.164 55.9969 106.164 45.9691C106.164 35.941 97.718 27.7858 87.2661 27.7858ZM67.5508 45.9691C67.5508 35.461 76.3922 26.9688 87.2661 26.9688C98.14 26.9688 106.981 35.461 106.981 45.9691C106.981 56.4769 98.14 64.9691 87.2661 64.9691C76.3922 64.9691 67.5508 56.4769 67.5508 45.9691Z"
        fill="#393E46" />
    <path fill-rule="evenodd" clip-rule="evenodd"
        d="M87.3688 25.1299C75.5102 25.1299 65.9166 34.4708 65.9166 45.9688C65.9166 57.4672 75.5102 66.8081 87.3688 66.8081C99.2274 66.8081 108.821 57.4672 108.821 45.9688C108.821 34.4708 99.2274 25.1299 87.3688 25.1299ZM65.0996 45.9688C65.0996 33.9975 75.0808 24.3125 87.3688 24.3125C99.6567 24.3125 109.638 33.9975 109.638 45.9688C109.638 57.9401 99.6567 67.6251 87.3688 67.6251C75.0808 67.6251 65.0996 57.9401 65.0996 45.9688Z"
        fill="#393E46" />
    <path
        d="M91.1252 39.2827C90.629 38.9076 90.1376 38.5425 89.5551 38.3102C88.8996 38.0482 88.2056 38.0217 87.5201 38.171C86.9259 38.3022 86.3134 38.4847 85.8139 38.843C85.3142 39.2013 84.9077 39.6458 84.6619 40.1882C84.4163 40.7307 84.3265 41.3248 84.554 41.8789C84.7814 42.4329 85.3061 42.7363 85.8802 42.8658C86.2139 42.9405 86.5573 42.9838 86.8927 43.0468C87.2629 43.1162 87.6312 43.1876 88.0047 43.2374C88.73 43.3353 89.4323 43.5427 90.136 43.7401C90.4661 43.8331 90.8015 43.9242 91.1071 44.0819C91.3956 44.2311 91.6647 44.4153 91.9271 44.6078C92.1891 44.8001 92.4598 44.9826 92.6905 45.21C92.9063 45.4239 93.082 45.6678 93.2533 45.9182C93.6264 46.469 93.9718 47.0066 94.1443 47.657C94.3171 48.3073 94.3104 48.9974 94.2822 49.6461C94.2522 50.3426 93.975 51.0062 93.7211 51.6482C93.492 52.2274 93.0953 52.7149 92.6307 53.1249C91.615 54.0172 90.1741 54.1749 88.8828 54.339C87.4619 54.5199 86.0811 54.3574 84.7465 53.8315C84.1275 53.5876 83.535 53.2658 82.989 52.8875C82.4427 52.5092 81.9549 52.0216 81.4916 51.5222C81.2461 51.2569 80.9989 50.993 80.7382 50.7442C80.3531 50.3743 79.7654 50.9597 80.1505 51.3316C80.6717 51.8323 81.1281 52.3964 81.6609 52.8858C82.1639 53.3472 82.7315 53.7452 83.3292 54.0754C84.574 54.7606 85.9716 55.1903 87.3957 55.2449C88.131 55.273 88.8563 55.1803 89.5816 55.074C90.3069 54.9677 90.9824 54.8566 91.6463 54.6327C92.9228 54.2014 93.9902 53.1763 94.4964 51.9321C94.7652 51.2718 95.034 50.5866 95.097 49.8716C95.1287 49.5198 95.1171 49.1647 95.1038 48.8132C95.0906 48.4614 95.0789 48.0999 95.014 47.7465C94.8896 47.0745 94.5992 46.4358 94.2173 45.872C93.8358 45.3079 93.4839 44.7539 92.9493 44.3423C92.4149 43.931 91.887 43.513 91.2745 43.249C90.6025 42.9589 89.862 42.8061 89.1584 42.6139C88.7933 42.514 88.4279 42.4694 88.0564 42.4145C87.6845 42.3599 87.3259 42.2869 86.9625 42.2187C86.6404 42.1593 86.3118 42.1228 85.9932 42.0398C85.7871 41.9868 85.5681 41.9086 85.4305 41.7477C85.14 41.4075 85.2444 40.8719 85.4321 40.5036C85.6744 40.0274 86.0663 39.631 86.5324 39.3722C86.7767 39.2362 87.0423 39.1632 87.3094 39.085C87.6428 38.989 87.9834 38.9028 88.3316 38.8992C88.9293 38.8944 89.4821 39.1399 89.9715 39.4633C90.2258 39.631 90.4661 39.8167 90.7104 39.9993C90.8897 40.1337 91.175 40.0274 91.278 39.85C91.4024 39.6374 91.3077 39.4187 91.1284 39.2827H91.1252Z"
        fill="#393E46" />
    <path
        d="M92.085 36.0796C91.4592 35.7711 90.815 35.4874 90.143 35.2965C89.4707 35.1059 88.7089 35.0164 87.9785 34.9964C86.5544 34.9582 85.0906 35.124 83.7925 35.7414C82.6688 36.2738 81.6828 37.1199 80.9908 38.1534C80.2122 39.3129 79.9053 40.7347 80.0481 42.1181C80.1195 42.8134 80.2639 43.5067 80.5476 44.147C80.8315 44.7876 81.2612 45.2651 81.8056 45.6567C82.3503 46.0483 82.9525 46.2838 83.5666 46.4828C84.2822 46.7151 85.0456 46.75 85.791 46.8049C86.5363 46.8595 87.2865 46.949 88.0201 47.1134C88.3687 47.1913 88.7054 47.2859 89.0243 47.4468C89.3263 47.5993 89.61 47.7835 89.8855 47.9776C90.1262 48.1469 90.4102 48.3078 90.5976 48.5401C90.7853 48.7724 90.8784 49.0941 90.9181 49.3846C90.9927 49.9419 90.8399 50.5525 90.4135 50.9373C89.4459 51.8083 88.045 51.6936 86.8997 51.312C86.2507 51.0965 85.6747 50.8145 85.1303 50.3981C84.5859 49.9816 84.0697 49.5222 83.5666 49.0625C83.2878 48.8073 83.0142 48.5449 82.7386 48.2878C82.3483 47.923 81.761 48.5084 82.1509 48.8751C82.6905 49.3794 83.2348 49.8773 83.7925 50.3616C84.3171 50.8177 84.8547 51.2791 85.4656 51.6157C86.0762 51.9523 86.7883 52.193 87.4706 52.3323C88.1529 52.4718 88.8598 52.4932 89.5305 52.3026C90.103 52.1401 90.7071 51.8545 91.1171 51.4115C91.5752 50.9172 91.791 50.2155 91.7597 49.5503C91.7264 48.8454 91.4692 48.1453 90.9032 47.6988C90.3372 47.2527 89.7744 46.8627 89.1386 46.5942C87.7313 45.9969 86.1496 46.0799 84.6622 45.8806C84.0151 45.7943 83.3741 45.5821 82.7932 45.2868C82.2472 45.0083 81.7558 44.6264 81.4437 44.0908C81.132 43.5548 80.974 42.8812 80.8929 42.2541C80.7983 41.5327 80.8296 40.7861 81.0173 40.0812C81.3261 38.9133 82.0828 37.9027 83.0355 37.1729C84.0564 36.3917 85.2498 35.995 86.5211 35.8758C87.9685 35.7398 89.4094 35.8457 90.7653 36.3882C91.0725 36.5109 91.371 36.6521 91.6666 36.7981C91.8676 36.8976 92.1163 36.8527 92.2343 36.6485C92.3422 36.4663 92.2873 36.1807 92.085 36.0812V36.0796Z"
        fill="#393E46" />
    <path
        d="M91.4804 39.6408C91.565 39.3652 91.673 39.1 91.7725 38.8296C91.8623 38.5841 91.9321 38.3317 92.0215 38.0862C92.1114 37.8407 92.1744 37.5851 92.2538 37.3347C92.3453 37.0495 92.4448 36.7807 92.4532 36.477C92.4596 36.2531 92.2574 36.0625 92.038 36.0625C91.819 36.0625 91.63 36.2515 91.6232 36.477C91.6167 36.7028 91.5069 36.9416 91.4374 37.169C91.3609 37.4194 91.293 37.6698 91.2032 37.9169C91.1137 38.1644 91.0439 38.4164 90.9525 38.6619C90.8614 38.9074 90.7583 39.1614 90.6805 39.4185C90.6159 39.6324 90.7583 39.8695 90.9709 39.9293C91.1835 39.9891 91.4158 39.8547 91.482 39.6389L91.4804 39.6408Z"
        fill="#393E46" />
    <path
        d="M88.76 34.8856C88.7865 34.2685 88.8314 33.6479 88.8282 33.0293C88.8263 32.7291 88.7352 32.4287 88.4512 32.2826C88.2173 32.1634 87.9369 32.1634 87.6794 32.1583C87.4222 32.1534 87.1499 32.1169 86.8843 32.1069C86.6552 32.0985 86.4297 32.0888 86.2007 32.0788C85.8951 32.0655 85.4951 32.0904 85.4056 32.4487C85.3607 32.6261 85.3972 32.8086 85.4256 32.9863C85.4505 33.1339 85.457 33.2848 85.4586 33.4341C85.4638 33.7859 85.457 34.139 85.457 34.4908C85.457 34.6601 85.4537 34.8275 85.457 34.9967C85.4602 35.166 85.5051 35.3285 85.5384 35.4962C85.5814 35.7169 85.8453 35.8412 86.0495 35.7863C86.2802 35.7233 86.3816 35.4962 86.3399 35.2756C86.3302 35.2258 86.3186 35.176 86.307 35.1247C86.3034 35.1079 86.2853 34.9819 86.2902 35.0433C86.2837 34.9405 86.2902 34.8342 86.2902 34.7315C86.2902 34.494 86.2902 34.2553 86.2902 34.0182C86.2902 33.7807 86.2986 33.5336 86.287 33.2913C86.2802 33.1604 86.2669 33.0293 86.2488 32.9C86.2372 32.8202 86.2039 32.6942 86.2123 32.6429L86.0214 32.89C85.9135 32.9365 85.9965 32.9065 86.0278 32.9016C85.9203 32.923 86.0446 32.9049 86.0711 32.9049C86.1542 32.9049 86.2372 32.9081 86.3202 32.9149C86.4743 32.9249 86.6255 32.9297 86.78 32.933C87.1599 32.9398 87.5434 32.9711 87.9236 32.996C87.9317 32.996 88.0596 33.0112 87.9698 32.996C88.0047 33.0011 88.0396 33.0128 88.0745 33.0192C88.1507 33.0325 88.058 33.0112 88.0347 32.9895C88.0147 32.973 88.0015 32.9514 87.9931 32.9265L88.0015 32.9614C87.9966 32.9097 87.9966 32.9097 88.0015 32.9595C88.0015 32.9779 88.0015 32.996 88.0015 33.0128C88.0015 33.0509 88.0015 33.0874 88.0015 33.1255C87.9999 33.2467 87.9966 33.3678 87.9931 33.4887C87.9798 33.9548 87.955 34.421 87.9352 34.8856C87.9252 35.1095 88.1326 35.3004 88.3501 35.3004C88.5824 35.3004 88.7552 35.1095 88.7649 34.8856H88.76Z"
        fill="#393E46" />
    <path
        d="M89.1996 54.9529C89.143 55.3761 89.1033 55.8023 89.0833 56.2287C89.0736 56.4378 89.0684 56.6468 89.0668 56.8558C89.0668 56.9521 89.07 57.0483 89.0736 57.1446C89.0752 57.196 89.0784 57.2474 89.0784 57.3003C89.0784 57.312 89.0684 57.4299 89.0752 57.3902L89.3656 57.0997C89.3159 57.1081 89.3091 57.1114 89.3456 57.1062C89.3159 57.1097 89.2842 57.1113 89.2545 57.113C89.2063 57.1146 89.1598 57.1146 89.1117 57.113C89.0005 57.1113 88.8891 57.1013 88.7779 57.0965C88.5208 57.0849 88.2633 57.0929 88.0061 57.0929C87.7706 57.0929 87.5348 57.0881 87.2989 57.1062C87.2027 57.113 87.1048 57.1214 87.0085 57.123C86.9604 57.123 86.909 57.123 86.8609 57.1178C86.9074 57.1246 86.9058 57.123 86.8609 57.113C86.909 57.1262 86.9423 57.1595 86.9623 57.2109C87.0121 57.2457 87.0353 57.2923 87.0318 57.3501C87.0334 57.3055 87.0318 57.312 87.0237 57.3701C87.0285 57.3368 87.0369 57.3055 87.0434 57.2722C87.065 57.1727 87.0851 57.0732 87.0915 56.9721C87.1083 56.713 87.0951 56.4462 87.0883 56.1874C87.0851 56.0711 87.0783 55.9567 87.0783 55.8407C87.0783 55.7677 87.0734 55.8239 87.0883 55.7593C87.1083 55.6747 87.1216 55.59 87.1316 55.5038C87.1413 55.4175 87.1448 55.2699 87.1529 55.2233C87.1762 55.0889 87.2162 54.9646 87.2211 54.8269C87.2279 54.603 87.0253 54.4121 86.8063 54.4121C86.5753 54.4121 86.3979 54.603 86.3911 54.8269C86.3879 54.9164 86.3349 55.0792 86.3233 55.2117C86.3116 55.3529 86.3097 55.4324 86.2884 55.5403C86.2335 55.8107 86.2567 56.0762 86.2583 56.3483C86.2583 56.4991 86.2635 56.65 86.2635 56.8028C86.2635 56.8691 86.2635 56.9356 86.2583 57.0018C86.2667 56.8858 86.2483 57.0267 86.2419 57.0516C86.1805 57.3252 86.1753 57.6024 86.4128 57.7946C86.6186 57.9639 86.9106 57.9607 87.1646 57.9442C87.4185 57.9274 87.6659 57.921 87.9199 57.921C88.2055 57.921 88.4943 57.9126 88.7796 57.9242C89.0652 57.9358 89.3175 57.9559 89.5879 57.8961C89.7158 57.8677 89.8551 57.7384 89.8783 57.6056C89.9164 57.3801 89.9016 57.1659 89.8984 56.9388C89.8951 56.7114 89.9032 56.5007 89.9132 56.2817C89.9333 55.8355 89.973 55.391 90.0328 54.9481C90.0628 54.7258 89.8205 54.5333 89.6179 54.5333C89.3689 54.5333 89.2328 54.7258 89.2028 54.9481L89.1996 54.9529Z"
        fill="#393E46" />
    <path
        d="M80.858 50.9767C80.9876 50.7592 81.1236 50.547 81.268 50.3396C81.3394 50.2385 81.4124 50.137 81.4871 50.0375C81.5087 50.0094 81.5284 49.9829 81.5501 49.9545C81.5236 49.9894 81.5501 49.9545 81.5617 49.9396C81.605 49.885 81.6479 49.832 81.6929 49.7787C81.8505 49.5881 82.0198 49.4072 82.1891 49.2247C82.2705 49.1368 82.3568 49.0538 82.4382 48.9675C82.4647 48.9394 82.4895 48.9093 82.516 48.8796C82.5277 48.8664 82.5425 48.8548 82.5525 48.8399C82.579 48.8166 82.5758 48.8166 82.5445 48.8431C82.516 48.868 82.4828 48.8864 82.4462 48.8961C82.6604 48.858 82.8016 48.586 82.737 48.3853C82.6621 48.1563 82.4563 48.0535 82.2256 48.0949C82.098 48.1182 81.9933 48.2209 81.9103 48.3139C81.8389 48.3953 81.7591 48.4684 81.6861 48.5478C81.4971 48.7485 81.3094 48.9494 81.1336 49.1601C80.7666 49.5978 80.4364 50.0659 80.1424 50.5567C80.0313 50.7428 80.0943 51.0196 80.292 51.1243C80.4894 51.2287 80.7401 51.1741 80.8596 50.9747L80.858 50.9767Z"
        fill="#393E46" />
    <path
        d="M123.153 89.4756C126.37 93.4335 138.053 104.723 143.492 109.874C158.185 118.206 166.15 147.892 167.387 151.017C168.377 153.516 178.71 169.462 179.715 174.265L147.688 173.73L127.252 153.881C115.188 143.604 119.318 124.714 116.812 115.776C116.687 115.33 116.458 113.526 112.498 108.179C108.539 102.832 106.583 102.28 105.96 101.989C90.6836 95.4184 90.0243 91.5584 89.1232 88.6017C88.1178 85.3032 90.0546 81.2296 92.2198 80.188C94.3854 79.1464 100.881 80.5353 107.996 81.2296C115.111 81.9242 119.132 84.5281 123.153 89.4756Z"
        fill="white" />
    <path fill-rule="evenodd" clip-rule="evenodd"
        d="M102.049 80.2178C103.925 80.4608 105.939 80.7218 108.026 80.9253C111.615 81.2759 114.443 82.11 116.885 83.4918C119.327 84.8729 121.365 86.791 123.391 89.2831C126.587 93.2152 138.218 104.458 143.675 109.626C147.39 111.742 150.663 115.191 153.5 119.202C156.348 123.227 158.769 127.836 160.765 132.273C162.762 136.711 164.336 140.985 165.488 144.343C166.064 146.022 166.535 147.472 166.9 148.6L166.932 148.7C167.282 149.78 167.527 150.537 167.673 150.905C167.909 151.502 168.724 152.941 169.855 154.875C170.256 155.562 170.697 156.31 171.161 157.098C171.993 158.509 172.902 160.053 173.81 161.625C175.228 164.076 176.646 166.603 177.777 168.82C178.901 171.026 179.754 172.957 180.016 174.203L180.093 174.579L147.562 174.036L127.045 154.109C120.929 148.894 118.934 141.508 118.143 134.361C117.825 131.487 117.7 128.638 117.584 125.98C117.555 125.332 117.528 124.694 117.498 124.071C117.344 120.879 117.133 118.056 116.517 115.859C116.507 115.825 116.497 115.783 116.485 115.733C116.417 115.453 116.287 114.923 115.817 113.949C115.26 112.796 114.224 111.026 112.252 108.362C110.283 105.703 108.822 104.25 107.787 103.429C106.916 102.737 106.346 102.492 105.997 102.341C105.937 102.315 105.883 102.292 105.835 102.27C98.1871 98.9801 94.1629 96.3548 91.9357 94.1592C89.8486 92.1019 89.3489 90.4281 88.926 89.0114C88.8937 88.9035 88.862 88.7969 88.83 88.6919C88.3018 86.9593 88.5499 85.0429 89.1983 83.4346C89.8432 81.8348 90.9099 80.4789 92.0869 79.9128C92.6933 79.6211 93.5636 79.5135 94.5961 79.508C95.6387 79.5025 96.8899 79.6017 98.285 79.7539C99.4545 79.8815 100.717 80.0453 102.049 80.2178ZM94.5994 80.1209C93.5827 80.1264 92.829 80.2359 92.3528 80.465C91.3645 80.9405 90.3801 82.1423 89.7666 83.664C89.1566 85.1776 88.9389 86.9474 89.4161 88.5133C89.4487 88.6192 89.4807 88.7265 89.513 88.8347C89.9281 90.2252 90.3914 91.7763 92.366 93.7228C94.5125 95.8389 98.4552 98.4283 106.081 101.708L106.086 101.71L106.09 101.713C106.134 101.733 106.185 101.755 106.244 101.78C106.597 101.932 107.231 102.205 108.168 102.949C109.257 103.813 110.754 105.31 112.745 107.998C114.732 110.681 115.79 112.485 116.369 113.683C116.868 114.716 117.01 115.299 117.078 115.579C117.089 115.625 117.098 115.664 117.107 115.694C117.744 117.967 117.956 120.857 118.11 124.042C118.14 124.67 118.168 125.311 118.197 125.962C118.313 128.619 118.436 131.442 118.752 134.294C119.538 141.392 121.508 148.587 127.45 153.649L127.458 153.655L147.815 173.427L179.324 173.953C179.005 172.789 178.242 171.085 177.231 169.098C176.11 166.896 174.695 164.38 173.28 161.931C172.372 160.361 171.466 158.823 170.635 157.413C170.171 156.624 169.729 155.875 169.325 155.184C168.209 153.274 167.361 151.783 167.103 151.13C166.95 150.744 166.7 149.973 166.36 148.921L166.317 148.789C165.952 147.662 165.482 146.215 164.908 144.542C163.759 141.194 162.192 136.94 160.206 132.525C158.22 128.108 155.817 123.538 153 119.556C150.181 115.571 146.96 112.193 143.341 110.141L143.308 110.122L143.281 110.097C137.849 104.954 126.148 93.6472 122.915 89.6699C120.92 87.2142 118.937 85.3566 116.584 84.0252C114.231 82.6945 111.491 81.8794 107.966 81.5356C105.885 81.3324 103.837 81.0672 101.943 80.8223C100.611 80.6498 99.3553 80.4873 98.2187 80.3632C96.8295 80.2117 95.6064 80.1157 94.5994 80.1209Z"
        fill="#393E46" />
    <path
        d="M93.5013 89.7416C91.2612 87.4369 92.5599 83.803 93.4894 82.2742C95.5502 79.5918 106.69 82.6725 107.25 84.6891C107.81 86.7054 104.974 93.9612 102.874 94.0675C100.774 94.1738 96.3017 92.6224 93.5013 89.7416Z"
        fill="white" />
    <path fill-rule="evenodd" clip-rule="evenodd"
        d="M106.705 83.7322C107.075 84.0101 107.358 84.3134 107.447 84.6336C107.526 84.9179 107.541 85.2785 107.512 85.6804C107.483 86.0852 107.408 86.5452 107.297 87.0347C107.074 88.0142 106.701 89.1256 106.247 90.1752C105.792 91.2236 105.25 92.2196 104.685 92.9636C104.402 93.3358 104.108 93.6508 103.812 93.8782C103.516 94.1044 103.203 94.2546 102.884 94.2708C101.79 94.3263 100.114 93.9525 98.3701 93.2121C96.6213 92.4697 94.7782 91.3476 93.3545 89.8832C92.1772 88.672 91.9381 87.1174 92.1035 85.6926C92.2683 84.2702 92.8376 82.9517 93.3144 82.1673L93.3202 82.1579L93.327 82.1492C93.6174 81.7709 94.0578 81.5069 94.5841 81.3305C95.111 81.1541 95.7381 81.0605 96.4214 81.0314C97.7876 80.9735 99.4098 81.1735 100.976 81.5192C102.544 81.8652 104.067 82.3595 105.239 82.8974C105.824 83.1659 106.327 83.4483 106.705 83.7322ZM93.6575 82.3896C93.8827 82.1011 94.239 81.8772 94.714 81.7182C95.1927 81.5577 95.7788 81.4675 96.4385 81.4397C97.7579 81.3838 99.3426 81.577 100.888 81.9182C102.433 82.2594 103.929 82.7456 105.068 83.2686C105.638 83.5306 106.113 83.7988 106.46 84.0589C106.814 84.3251 107.002 84.559 107.053 84.7428C107.114 84.9625 107.132 85.2701 107.105 85.6513C107.078 86.0296 107.007 86.4683 106.898 86.9439C106.681 87.8956 106.318 88.9828 105.871 90.0124C105.425 91.0433 104.898 92.0073 104.359 92.7165C104.09 93.0712 103.821 93.3562 103.563 93.5539C103.304 93.7526 103.069 93.8524 102.863 93.8627C101.857 93.9138 100.247 93.5649 98.5297 92.836C96.8174 92.1091 95.0241 91.0145 93.6475 89.5982C92.5846 88.5046 92.3526 87.0902 92.5093 85.7398C92.6654 84.3929 93.2062 83.1352 93.6575 82.3896Z"
        fill="#393E46" />
</svg>
    