<svg width="604" height="426" viewBox="0 0 604 426" fill="none" xmlns="http://www.w3.org/2000/svg">
<path d="M104.482 234.619C111.505 289.076 68.7644 294.345 67.3487 327.394C66.8837 338.244 83.7317 398.832 132.498 358.9C150.07 344.511 152.99 343.733 188.66 341.446C224.329 339.16 257.183 322.035 258.731 283.602C260.278 245.168 278.255 265.771 314.571 243.66C350.886 221.548 330.265 126.862 278.703 95.7928C227.141 64.7232 226.439 106.884 170.36 107.014C114.281 107.145 83.5523 166.751 95.3629 199.676C107.174 232.601 102.141 216.46 104.482 234.619Z" fill="#00ADB5"/>
<path d="M524.351 219.114C506.051 171.197 544.106 156.53 538.208 126.138C536.272 116.161 507.624 64.9369 471.59 112.53C458.606 129.679 456.097 131.062 423.878 141.384C391.659 151.705 365.253 174.875 372.203 210.194C379.154 245.514 358.178 230.926 329.684 259.431C301.19 287.936 309.184 396.114 394.784 385.656C450.837 378.809 440.306 363.491 491.714 350.415C543.123 337.339 558.328 276.016 540.325 248.794C522.322 221.571 530.454 235.092 524.351 219.114Z" fill="#ADFBFF"/>
<path d="M520.446 119.567L385.485 199.946L374.253 206.123L414.718 278.18L568.427 193.374L563.909 186.789C547.729 187.937 549.848 176.43 553.322 170.404L549.285 164.344C535.689 167.324 532.45 155.538 538.399 148.182L534.659 142.458C521.139 142.992 520.258 129.934 524.965 125.966L520.446 119.567Z" fill="white"/>
<path fill-rule="evenodd" clip-rule="evenodd" d="M520.554 119.058L385.295 199.615L373.73 205.974L414.571 278.698L568.981 193.506L564.1 186.392L563.882 186.407C559.876 186.692 557.05 186.188 555.11 185.219C553.184 184.255 552.109 182.821 551.61 181.176C551.106 179.517 551.181 177.622 551.607 175.753C552.032 173.888 552.799 172.074 553.651 170.596L553.77 170.39L549.458 163.914L549.204 163.97C542.52 165.435 538.517 163.259 536.853 159.966C535.167 156.632 535.797 152.006 538.695 148.422L538.87 148.206L534.86 142.067L534.644 142.076C531.326 142.207 528.816 141.503 526.983 140.341C525.15 139.179 523.971 137.545 523.336 135.771C522.055 132.193 523.006 128.117 525.211 126.258L525.479 126.032L520.554 119.058ZM524.457 125.908C522.151 128.099 521.303 132.357 522.618 136.03C523.305 137.95 524.586 139.727 526.575 140.988C528.52 142.221 531.12 142.945 534.457 142.847L537.928 148.16C535.024 151.904 534.361 156.73 536.172 160.312C538.016 163.961 542.345 166.178 549.111 164.772L552.873 170.421C552.035 171.916 551.287 173.719 550.862 175.583C550.419 177.531 550.325 179.571 550.88 181.399C551.439 183.24 552.651 184.844 554.769 185.903C556.838 186.938 559.746 187.442 563.718 187.186L567.874 193.243L414.865 277.662L374.775 206.272L385.674 200.279L520.338 120.076L524.457 125.908Z" fill="#393E46"/>
<path d="M514.676 138.923L436.567 182.935L441.003 191.704L519.897 147.639L514.676 138.923Z" fill="#F0F0F0"/>
<path fill-rule="evenodd" clip-rule="evenodd" d="M514.744 138.665L520.162 147.709L440.922 191.968L436.314 182.858L514.744 138.665ZM436.82 183.012L441.083 191.44L519.632 147.568L514.607 139.181L436.82 183.012Z" fill="#393E46"/>
<path d="M512.137 161.201L448.456 194.31L451.778 201.439L516.089 168.309L512.137 161.201Z" fill="#F0F0F0"/>
<path fill-rule="evenodd" clip-rule="evenodd" d="M512.213 160.945L516.351 168.388L451.688 201.7L448.205 194.224L512.213 160.945ZM448.706 194.395L451.867 201.178L515.825 168.229L512.06 161.456L448.706 194.395Z" fill="#393E46"/>
<path d="M516.328 187.516L525.675 201.428L527.233 200.675C527.631 201.38 528.594 203.193 528.935 203.759C529.275 204.326 529.781 204.026 530.031 203.937L532.588 202.613C533.143 202.028 532.772 201.403 532.516 201.165L531.066 198.697L538.736 194.724C539.246 195.553 540.314 197.298 540.503 197.646C540.691 197.994 541.097 198.02 541.276 197.988C542.033 197.699 543.685 196.792 544.013 196.573C544.342 196.353 544.259 196.092 544.205 195.853L542.331 192.619C543.081 192.082 543.072 191.405 542.991 191.034L533.862 177.628C531.848 175.503 529.412 175.848 528.446 176.287L516.647 182.399C514.512 184.099 515.545 186.518 516.328 187.516Z" fill="#393E46"/>
<path fill-rule="evenodd" clip-rule="evenodd" d="M515.545 185.206C515.631 186.112 516.069 186.939 516.447 187.421L516.451 187.426L525.728 201.232L527.171 200.536L527.267 200.492L527.325 200.623L527.366 200.6C527.532 200.893 527.791 201.37 528.062 201.869C528.451 202.585 528.865 203.347 529.065 203.68C529.138 203.802 529.214 203.867 529.283 203.902C529.352 203.937 529.426 203.947 529.505 203.941C529.585 203.935 529.667 203.912 529.75 203.882C529.791 203.867 529.83 203.852 529.868 203.836L529.875 203.833C529.906 203.821 529.939 203.807 529.97 203.796L532.494 202.489C532.72 202.241 532.751 201.997 532.707 201.791C532.659 201.569 532.523 201.38 532.412 201.276L532.396 201.261L530.852 198.635L538.792 194.523L538.866 194.643C539.375 195.47 540.445 197.22 540.636 197.573C540.708 197.704 540.819 197.776 540.938 197.813C541.052 197.849 541.166 197.849 541.236 197.839C541.606 197.697 542.192 197.406 542.734 197.119C543.283 196.828 543.771 196.55 543.928 196.445C544.059 196.358 544.093 196.276 544.101 196.203C544.11 196.121 544.09 196.036 544.064 195.922C544.063 195.918 544.061 195.914 544.061 195.91L542.129 192.575L542.242 192.495C542.59 192.245 542.754 191.97 542.826 191.722C542.894 191.485 542.881 191.261 542.848 191.095L533.743 177.725C531.788 175.671 529.437 176.007 528.513 176.424L516.73 182.528C515.717 183.341 515.46 184.313 515.545 185.206ZM527.17 200.876C527.329 201.161 527.551 201.569 527.785 201.998C528.177 202.722 528.601 203.501 528.804 203.838C528.901 204 529.016 204.11 529.145 204.175C529.275 204.24 529.407 204.255 529.528 204.246C529.648 204.237 529.76 204.204 529.853 204.17C529.901 204.153 529.944 204.136 529.983 204.12L529.986 204.118C530.025 204.103 530.055 204.091 530.082 204.081L530.091 204.078L532.68 202.737L532.698 202.718C533.012 202.387 533.071 202.033 533.005 201.727C532.944 201.441 532.778 201.206 532.637 201.068L531.279 198.759L538.68 194.924C539.214 195.793 540.191 197.392 540.368 197.719C540.486 197.936 540.671 198.05 540.848 198.105C541.02 198.159 541.191 198.158 541.302 198.139L541.316 198.136L541.33 198.131C541.719 197.983 542.328 197.68 542.876 197.39C543.425 197.099 543.926 196.814 544.098 196.7C544.296 196.567 544.385 196.409 544.404 196.237C544.42 196.099 544.387 195.96 544.361 195.855C544.359 195.842 544.356 195.83 544.353 195.818L544.348 195.796L542.53 192.659C542.86 192.392 543.036 192.093 543.119 191.807C543.209 191.493 543.184 191.204 543.141 191.002L543.134 190.972L533.981 177.531L533.972 177.523C531.902 175.339 529.392 175.689 528.383 176.147L528.38 176.149L516.563 182.27L516.551 182.279C515.439 183.165 515.147 184.248 515.241 185.235C515.333 186.211 515.8 187.09 516.204 187.606L525.622 201.623L527.17 200.876Z" fill="#393E46"/>
<path d="M529.29 195.768C529.138 196.707 528.257 197.344 527.32 197.193C526.384 197.041 525.748 196.157 525.899 195.219C526.05 194.28 526.932 193.643 527.868 193.794C528.805 193.945 529.441 194.829 529.29 195.768Z" fill="white"/>
<path d="M538.554 191.069C538.402 192.007 537.521 192.645 536.584 192.493C535.647 192.342 535.011 191.458 535.162 190.52C535.313 189.581 536.195 188.943 537.132 189.095C538.069 189.247 538.705 190.13 538.554 191.069Z" fill="white"/>
<path d="M440.844 35.7849L347.316 162.152L339.334 172.195L404.423 223.007L513.541 85.3037L506.836 80.9776C492.352 88.2978 489.873 76.8631 490.756 69.9603L484.698 65.9313C473.304 73.9412 465.775 64.323 468.428 55.2343L462.774 51.4019C450.509 57.1253 444.665 45.4212 447.478 39.9389L440.844 35.7849Z" fill="white"/>
<path fill-rule="evenodd" clip-rule="evenodd" d="M440.747 35.2734L347.013 161.919L338.795 172.259L404.487 223.542L514.101 85.2112L506.859 80.5376L506.664 80.6365C503.077 82.4489 500.277 83.0779 498.114 82.9334C495.966 82.79 494.422 81.8829 493.327 80.5584C492.223 79.2235 491.563 77.4458 491.235 75.5576C490.908 73.6724 490.918 71.7021 491.134 70.0088L491.165 69.7729L484.692 65.4682L484.479 65.6179C478.878 69.5556 474.347 69.0971 471.543 66.7037C468.703 64.2796 467.502 59.7691 468.795 55.3418L468.873 55.0741L462.809 50.9636L462.613 51.055C459.603 52.4598 457.016 52.7818 454.877 52.4194C452.74 52.0563 451.022 51.0047 449.753 49.6143C447.193 46.8087 446.499 42.6818 447.817 40.1138L447.977 39.801L440.747 35.2734ZM446.986 40.0825C445.704 42.996 446.562 47.2516 449.189 50.1306C450.563 51.636 452.43 52.7801 454.75 53.1732C457.02 53.5583 459.697 53.2206 462.738 51.8389L467.986 55.3967C466.75 59.9737 467.998 64.6825 471.048 67.2858C474.155 69.9383 479.002 70.3083 484.703 66.3938L490.349 70.1487C490.152 71.8525 490.156 73.8054 490.483 75.6889C490.825 77.6568 491.523 79.575 492.739 81.0464C493.965 82.5287 495.701 83.5392 498.063 83.6965C500.369 83.8509 503.247 83.1912 506.812 81.4175L512.979 85.3968L404.359 222.473L339.873 172.131L347.618 162.385L440.94 36.2965L446.986 40.0825Z" fill="#393E46"/>
<path d="M285.518 125.042C285.518 156.175 311.834 181.413 344.296 181.413C376.759 181.413 403.075 156.175 403.075 125.042C403.075 93.909 376.759 68.6704 344.296 68.6704C311.834 68.6704 285.518 93.909 285.518 125.042Z" fill="white"/>
<path fill-rule="evenodd" clip-rule="evenodd" d="M344.296 180.649C312.223 180.649 286.281 155.722 286.281 125.042C286.281 94.3629 312.223 69.4353 344.296 69.4353C376.369 69.4353 402.311 94.3629 402.311 125.042C402.311 155.722 376.369 180.649 344.296 180.649ZM344.296 181.413C311.834 181.413 285.518 156.175 285.518 125.042C285.518 93.909 311.834 68.6704 344.296 68.6704C376.759 68.6704 403.075 93.909 403.075 125.042C403.075 156.175 376.759 181.413 344.296 181.413Z" fill="#6A727F"/>
<path d="M383.466 105.277C384.336 104.916 387.929 104.601 389.616 104.488C394.536 107.976 397.817 114.71 398.842 117.642C398.717 117.842 398.444 118.393 398.354 118.995C398.242 119.746 399.142 121.438 399.404 122.715C399.667 123.993 396.704 128.09 396.179 128.804C395.655 129.518 391.154 132.036 390.704 132.374C390.254 132.712 389.091 134.065 388.904 137.11C388.716 140.153 386.016 141.243 384.516 142.221C383.316 143.002 383.441 145.227 383.653 146.242C384.441 152.143 382.641 152.067 382.491 152.331C382.371 152.541 381.791 152.694 381.516 152.744V152.518C381.441 151.127 379.303 147.219 377.578 145.866C375.853 144.513 376.491 143.348 375.703 141.243C374.915 139.139 374.915 138.763 375.066 138.087C375.216 137.41 380.879 133.577 382.454 133.351C384.028 133.126 387.029 133.088 388.116 132.712C389.204 132.337 391.417 129.706 391.904 129.067C392.392 128.428 391.904 127.188 391.417 126.324C390.929 125.459 388.754 125.384 386.541 125.045C384.328 124.707 379.528 118.431 378.666 117.266C377.803 116.101 379.078 114.485 380.241 112.906C381.404 111.328 380.428 109.674 380.241 108.66C380.053 107.645 382.379 105.728 383.466 105.277Z" fill="#F0F0F0"/>
<path d="M306.731 141.729C307.157 140.888 309.679 138.305 310.887 137.118C316.887 136.555 323.752 139.527 326.434 141.084C326.47 141.318 326.621 141.914 326.943 142.429C327.346 143.073 331.546 139.394 332.576 140.193C333.605 140.991 336.492 147.501 336.557 148.385C336.623 149.27 333.606 157.456 333.485 158.007C333.363 158.557 332.616 159.67 334.451 162.103C336.286 164.536 332.031 167.367 331.527 169.087C331.124 170.463 337.306 168.456 338.126 169.087C342.557 173.052 338.434 176.243 338.351 176.535C338.276 176.798 336.615 177.482 336.438 177.7L335.576 177.474C335.051 177.549 330.817 176.282 328.629 176.38C326.44 176.479 326.167 175.179 324.202 174.095C322.238 173.011 322.353 172.202 321.668 172.115C303.062 169.732 307.601 161.385 308.65 160.186C309.699 158.988 319.469 159.001 320.05 158.007C320.631 157.012 325.488 158.007 326.434 157.104C327.016 156.55 326.419 155.067 325.488 154.729C324.557 154.391 323.806 153.542 321.907 154.729C320.008 155.915 312.287 154.283 310.875 153.961C309.463 153.64 309.382 151.581 309.239 149.625C309.096 147.668 307.282 147.049 306.48 146.401C305.679 145.753 306.198 142.782 306.731 141.729Z" fill="#F0F0F0"/>
<path d="M342.33 83.2051C338.381 82.5373 340.616 81.1348 339.379 77.1729C338.435 74.1464 335.353 73.1596 333.733 73.0156L332.064 72.7549C330.322 73.1706 325.04 74.7471 318.929 78.7697C310.335 84.4266 304.142 95.0532 302.4 102.899C301.216 108.233 318.752 125.637 338.656 119.94C350.55 116.537 350.994 104.074 351.135 100.149L351.136 100.109C351.282 96.0059 355.157 96.728 355.331 94.5635C355.506 92.3984 353.821 91.0959 351.043 91.389C348.264 91.6821 348.546 89.6309 347.207 85.9066C346.134 82.9264 343.509 82.864 342.33 83.2051Z" fill="#F0F0F0"/>
<path d="M442.979 55.8726L387.883 126.695L395.354 133.067L451.153 61.8926L442.979 55.8726Z" fill="#F0F0F0"/>
<path fill-rule="evenodd" clip-rule="evenodd" d="M442.941 55.6084L451.424 61.855L395.38 133.341L387.62 126.721L442.941 55.6084ZM388.145 126.667L395.325 132.792L450.88 61.9296L443.014 56.1368L388.145 126.667Z" fill="#393E46"/>
<path d="M449.219 77.4048L403.232 132.586L409.043 137.878L455.603 82.4333L449.219 77.4048Z" fill="#F0F0F0"/>
<path fill-rule="evenodd" clip-rule="evenodd" d="M449.191 77.1394L455.876 82.405L409.062 138.153L402.969 132.605L449.191 77.1394ZM403.496 132.568L409.025 137.603L455.33 82.461L449.247 77.6695L403.496 132.568Z" fill="#393E46"/>
<path d="M463.225 100.058L477.207 109.275L478.355 107.978C478.993 108.473 480.58 109.774 481.112 110.164C481.645 110.555 481.995 110.083 482.192 109.904L484.04 107.693C484.328 106.938 483.744 106.507 483.416 106.385L481.129 104.67L486.673 98.037C487.463 98.6042 489.12 99.8014 489.428 100.049C489.736 100.297 490.12 100.163 490.273 100.066C490.861 99.506 492.035 98.0307 492.253 97.7005C492.471 97.3704 492.295 97.1617 492.152 96.9623L489.178 94.7047C489.662 93.919 489.393 93.2987 489.177 92.9871L475.59 84.1528C472.913 82.9716 470.799 84.2325 470.078 85.0107L461.548 95.2152C460.233 97.6092 462.118 99.4413 463.225 100.058Z" fill="#393E46"/>
<path fill-rule="evenodd" clip-rule="evenodd" d="M461.613 98.2307C462.041 99.0332 462.764 99.6263 463.299 99.9241L463.303 99.927L477.18 109.074L478.243 107.873L478.315 107.796L478.419 107.894L478.448 107.857C478.714 108.063 479.136 108.402 479.579 108.758C480.213 109.268 480.889 109.811 481.202 110.041C481.317 110.125 481.411 110.155 481.489 110.161C481.565 110.166 481.637 110.147 481.708 110.111C481.78 110.074 481.847 110.021 481.912 109.962C481.944 109.933 481.974 109.903 482.003 109.874L482.008 109.869C482.032 109.845 482.057 109.82 482.081 109.798L483.906 107.615C484.019 107.299 483.954 107.062 483.833 106.889C483.704 106.703 483.505 106.581 483.363 106.528L483.342 106.52L480.907 104.695L486.646 97.8295L486.761 97.9122C487.549 98.4782 489.211 99.6784 489.524 99.9299C489.64 100.024 489.77 100.047 489.894 100.034C490.013 100.024 490.118 99.9801 490.179 99.9437C490.465 99.6685 490.894 99.1731 491.283 98.6996C491.678 98.2192 492.021 97.7734 492.125 97.6156C492.212 97.4844 492.212 97.3959 492.191 97.3254C492.168 97.2468 492.117 97.1757 492.049 97.0814C492.046 97.0774 492.043 97.0739 492.041 97.0704L488.974 94.7423L489.048 94.6238C489.273 94.2596 489.318 93.9422 489.288 93.6855C489.26 93.4398 489.161 93.2398 489.067 93.0981L475.517 84.2881C472.922 83.1492 470.883 84.3696 470.191 85.1119L461.674 95.3014C461.052 96.4432 461.191 97.4399 461.613 98.2307ZM478.373 108.187C478.63 108.388 478.992 108.679 479.373 108.984C480.014 109.5 480.706 110.056 481.022 110.288C481.174 110.399 481.323 110.456 481.467 110.466C481.611 110.476 481.738 110.439 481.847 110.384C481.954 110.329 482.045 110.255 482.118 110.188C482.155 110.154 482.188 110.12 482.218 110.091L482.221 110.089C482.25 110.06 482.273 110.037 482.294 110.018L482.302 110.011L484.173 107.772L484.183 107.748C484.345 107.321 484.262 106.971 484.084 106.714C483.917 106.474 483.674 106.322 483.49 106.249L481.348 104.644L486.699 98.244C487.526 98.8384 489.042 99.9351 489.332 100.169C489.524 100.323 489.739 100.357 489.923 100.339C490.103 100.322 490.26 100.255 490.355 100.195L490.368 100.187L490.378 100.176C490.679 99.8894 491.124 99.3737 491.519 98.8938C491.912 98.414 492.266 97.9573 492.38 97.785C492.511 97.5867 492.533 97.4058 492.484 97.2393C492.445 97.1057 492.361 96.9907 492.297 96.9034C492.29 96.893 492.282 96.8825 492.275 96.8727L492.261 96.8542L489.377 94.6637C489.578 94.2897 489.626 93.9463 489.592 93.6503C489.554 93.3254 489.419 93.0687 489.301 92.8993L489.284 92.8744L475.662 84.0175L475.651 84.0129C472.9 82.7988 470.72 84.0933 469.965 84.9067L469.962 84.9096L461.42 95.1279L461.414 95.1412C460.729 96.3883 460.876 97.5 461.343 98.3753C461.804 99.239 462.574 99.8691 463.145 100.189L477.234 109.475L478.373 108.187Z" fill="#393E46"/>
<path d="M478.362 102.656C478.583 103.58 478.016 104.51 477.093 104.732C476.172 104.955 475.244 104.385 475.022 103.462C474.8 102.537 475.367 101.607 476.29 101.385C477.212 101.162 478.14 101.731 478.362 102.656Z" fill="white"/>
<path d="M485.096 94.7359C485.319 95.6604 484.751 96.59 483.828 96.812C482.907 97.0346 481.979 96.4657 481.757 95.5413C481.535 94.6174 482.102 93.6878 483.025 93.4652C483.947 93.2426 484.875 93.8115 485.096 94.7359Z" fill="white"/>
<path d="M155.123 320.965C170.855 302.614 186.587 284.264 201.84 265.929C200.462 264.832 199.084 263.737 196.87 262.62C181.432 281.293 165.998 299.968 150.56 318.641C152.036 320.07 153.509 321.498 155.123 320.965Z" fill="#393E46"/>
<path d="M187.04 316.479L153.459 287.373C151.725 285.872 149.126 286.084 147.65 287.849L86.9822 360.382C85.5071 362.147 85.7153 364.793 87.4494 366.297L121.03 395.402C122.764 396.904 125.364 396.692 126.839 394.928L187.507 322.394C188.982 320.629 188.773 317.98 187.04 316.479Z" fill="white"/>
<path fill-rule="evenodd" clip-rule="evenodd" d="M186.79 316.768C188.366 318.133 188.557 320.543 187.214 322.148L126.546 394.682L126.839 394.928L187.507 322.394C188.982 320.629 188.773 317.98 187.04 316.479L153.459 287.373C151.725 285.872 149.126 286.084 147.65 287.849L86.9822 360.382C85.5071 362.147 85.7153 364.793 87.4494 366.297L121.03 395.402C122.764 396.904 125.364 396.692 126.839 394.928L126.546 394.682C125.207 396.283 122.852 396.474 121.279 395.113L87.6992 366.008C86.1232 364.641 85.9328 362.233 87.2746 360.628L147.942 288.094C149.281 286.493 151.637 286.302 153.209 287.663L186.79 316.768Z" fill="#393E46"/>
<path fill-rule="evenodd" clip-rule="evenodd" d="M135.822 340.727C124.818 353.812 113.814 366.896 102.81 379.979L103.978 380.965C115.06 367.789 126.142 354.612 137.224 341.435L137.288 341.359C148.348 328.207 159.409 315.056 170.47 301.905L169.303 300.919C158.251 314.059 147.199 327.2 136.147 340.341L135.822 340.727Z" fill="#393E46"/>
<path fill-rule="evenodd" clip-rule="evenodd" d="M130.558 335.599C119.476 348.776 108.394 361.953 97.3123 375.129L98.4793 376.115C109.46 363.06 120.441 350.003 131.421 336.947L131.726 336.586C142.808 323.409 153.89 310.232 164.972 297.056L163.805 296.07C152.722 309.246 141.64 322.423 130.558 335.599Z" fill="#393E46"/>
<path fill-rule="evenodd" clip-rule="evenodd" d="M124.373 330.433C113.323 343.572 102.272 356.711 91.2222 369.849L92.3898 370.836C103.436 357.702 114.482 344.568 125.528 331.433L125.636 331.306C136.718 318.129 147.8 304.952 158.882 291.776L157.715 290.79C146.633 303.966 135.551 317.143 124.468 330.319L124.373 330.433Z" fill="#393E46"/>
<path fill-rule="evenodd" clip-rule="evenodd" d="M120.144 326.772C109.094 339.911 98.0433 353.05 86.9924 366.188L88.1601 367.174C99.2063 354.041 110.253 340.907 121.299 327.773L121.407 327.644C132.489 314.468 143.571 301.291 154.653 288.115L153.485 287.129C142.403 300.305 131.321 313.482 120.239 326.659L120.144 326.772Z" fill="#393E46"/>
<path d="M86.1922 364.722C99.4854 376.365 112.776 388.011 126.538 399.71C126.117 400.212 125.695 400.712 125.256 401.262C124.099 402.706 121.987 402.867 120.62 401.629L84.7938 369.204C83.9844 368.472 83.9348 367.202 84.6801 366.405C85.2218 365.828 85.7364 365.262 86.1922 364.722Z" fill="white"/>
<path fill-rule="evenodd" clip-rule="evenodd" d="M84.7938 369.204C83.9844 368.472 83.9348 367.202 84.6801 366.405C85.1255 365.931 85.553 365.464 85.9435 365.012C86.0283 364.915 86.1108 364.818 86.1922 364.722L86.6583 365.13C99.7958 376.637 112.937 388.147 126.538 399.71C126.507 399.746 126.477 399.783 126.446 399.82C126.055 400.285 125.663 400.752 125.256 401.261C124.099 402.706 121.987 402.867 120.62 401.629L84.7938 369.204ZM124.958 401.022C123.94 402.294 122.081 402.437 120.876 401.346L85.0494 368.919C84.3998 368.332 84.3582 367.308 84.9588 366.667M124.958 401.022C125.315 400.576 125.661 400.162 126.001 399.755C112.501 388.273 99.4519 376.843 86.4079 365.419L86.2314 365.264" fill="#393E46"/>
<path d="M112.991 405.684C110.01 405.684 107.594 403.268 107.594 400.287C107.594 397.307 110.01 394.891 112.991 394.891C115.971 394.891 118.387 397.307 118.387 400.287C118.387 403.268 115.971 405.684 112.991 405.684Z" fill="white"/>
<path fill-rule="evenodd" clip-rule="evenodd" d="M112.991 405.301C110.22 405.301 107.976 403.056 107.976 400.287C107.976 397.519 110.22 395.273 112.991 395.273C115.761 395.273 118.006 397.519 118.006 400.287C118.006 403.056 115.761 405.301 112.991 405.301ZM107.594 400.287C107.594 403.268 110.01 405.684 112.991 405.684C115.971 405.684 118.387 403.268 118.387 400.287C118.387 397.307 115.971 394.891 112.991 394.891C110.01 394.891 107.594 397.307 107.594 400.287Z" fill="#393E46"/>
<path d="M85.4781 381.564C82.4979 381.564 80.0813 379.148 80.0813 376.167C80.0813 373.187 82.4979 370.77 85.4781 370.77C88.4583 370.77 90.8749 373.187 90.8749 376.167C90.8749 379.148 88.4583 381.564 85.4781 381.564Z" fill="white"/>
<path fill-rule="evenodd" clip-rule="evenodd" d="M85.4781 381.182C82.7079 381.182 80.4632 378.936 80.4632 376.167C80.4632 373.398 82.7079 371.153 85.4781 371.153C88.2483 371.153 90.493 373.398 90.493 376.167C90.493 378.936 88.2483 381.182 85.4781 381.182ZM80.0813 376.167C80.0813 379.148 82.4979 381.564 85.4781 381.564C88.4583 381.564 90.8749 379.148 90.8749 376.167C90.8749 373.187 88.4583 370.77 85.4781 370.77C82.4979 370.77 80.0813 373.187 80.0813 376.167Z" fill="#393E46"/>
<path d="M256.012 179.636C256.248 176.258 254.331 172.643 250.722 171.747C250.686 167.965 250.65 164.184 250.876 160.533C246.359 160.381 241.947 158.178 239.107 154.603C238.461 158.83 237.814 163.059 237.141 166.898C233.15 167.804 229.161 168.708 225.17 169.615C227.586 172.427 229.651 175.529 231.987 178.409C234.324 181.289 236.99 183.985 240.258 185.682C243.526 187.379 247.484 187.978 250.899 186.616C254.315 185.253 256.957 181.673 256.012 179.636Z" fill="white"/>
<path fill-rule="evenodd" clip-rule="evenodd" d="M255.625 179.708L255.666 179.797C256.046 180.616 255.733 181.86 254.784 183.152C253.855 184.417 252.396 185.607 250.758 186.26C247.472 187.571 243.632 187.003 240.434 185.343C237.234 183.681 234.608 181.033 232.284 178.168C231.272 176.92 230.311 175.632 229.345 174.336C229.202 174.142 229.058 173.95 228.914 173.757C227.929 172.438 226.931 171.118 225.869 169.848C227.654 169.442 229.44 169.038 231.225 168.632L231.24 168.629C233.235 168.177 235.23 167.724 237.226 167.271L237.474 167.215L237.517 166.964C238.147 163.373 238.753 159.441 239.357 155.494C242.18 158.672 246.263 160.648 250.473 160.898C250.271 164.44 250.306 168.099 250.34 171.743L250.343 172.047L250.631 172.118C254.017 172.958 255.858 176.369 255.632 179.609L255.625 179.708ZM250.854 160.916C250.861 160.788 250.869 160.661 250.876 160.533C250.749 160.529 250.622 160.523 250.495 160.516C246.281 160.266 242.194 158.242 239.432 154.999C239.321 154.869 239.213 154.737 239.107 154.603L239.099 154.652C239.076 154.805 239.052 154.959 239.029 155.112C238.409 159.169 237.787 163.214 237.141 166.898C235.146 167.351 233.151 167.803 231.155 168.256C229.301 168.677 227.446 169.098 225.591 169.519C225.451 169.55 225.31 169.582 225.17 169.615C225.264 169.723 225.357 169.833 225.449 169.943C226.707 171.433 227.872 172.998 229.039 174.563C230.005 175.86 230.97 177.155 231.987 178.409C234.324 181.289 236.99 183.985 240.258 185.682C243.526 187.379 247.484 187.978 250.899 186.616C254.315 185.253 256.957 181.673 256.012 179.636C256.248 176.258 254.331 172.643 250.722 171.747V171.747C250.688 168.096 250.653 164.447 250.854 160.916Z" fill="#393E46"/>
<path d="M245.171 130.822C249.031 132.532 252.111 136.191 253.426 140.466C253.743 141.495 254.436 142.331 255.354 142.74C256.708 143.339 257.891 144.43 258.664 145.915C258.997 146.553 258.847 147.387 258.303 147.814C258.289 147.825 258.276 147.834 258.265 147.844C257.489 148.427 257.149 149.492 257.458 150.467C258.249 152.967 258.537 155.723 258.362 158.605C258.31 159.475 257.957 160.286 257.381 160.885C254.652 163.732 250.756 165.215 247.005 164.765C242.83 164.265 238.952 161.388 236.871 157.031C234.643 158.049 231.78 156.847 230.745 154.458C229.709 152.07 230.667 148.879 232.941 147.832C231.651 143.878 232.406 139.205 234.854 135.973C237.304 132.743 241.359 131.072 245.171 130.822Z" fill="white"/>
<path fill-rule="evenodd" clip-rule="evenodd" d="M236.871 157.031C234.643 158.049 231.78 156.847 230.745 154.458C229.709 152.07 230.667 148.879 232.941 147.832C231.651 143.878 232.406 139.205 234.854 135.973C237.304 132.743 241.359 131.072 245.171 130.822C249.031 132.532 252.111 136.191 253.426 140.466C253.743 141.495 254.436 142.331 255.354 142.74C256.708 143.339 257.891 144.43 258.664 145.915C258.997 146.553 258.847 147.387 258.303 147.814C258.295 147.82 258.288 147.826 258.28 147.832C258.274 147.836 258.269 147.839 258.265 147.844C257.489 148.427 257.149 149.492 257.458 150.467C258.249 152.967 258.537 155.723 258.362 158.605C258.31 159.475 257.957 160.286 257.381 160.885C254.652 163.732 250.756 165.215 247.005 164.765C242.83 164.266 238.951 161.388 236.871 157.031ZM258.032 147.54C257.126 148.224 256.739 149.459 257.094 150.583C257.869 153.032 258.153 155.739 257.981 158.582C257.934 159.364 257.617 160.088 257.106 160.621C254.453 163.386 250.673 164.82 247.05 164.385C243.019 163.903 239.246 161.118 237.215 156.866L237.054 156.528L236.713 156.683C234.699 157.603 232.054 156.519 231.095 154.305C230.618 153.206 230.596 151.908 230.965 150.76C231.334 149.611 232.081 148.649 233.1 148.179L233.409 148.037L233.304 147.713C232.052 143.875 232.788 139.334 235.158 136.205C237.505 133.111 241.399 131.476 245.102 131.21C248.811 132.887 251.785 136.431 253.061 140.579C253.407 141.7 254.169 142.63 255.2 143.089L255.2 143.09C256.472 143.653 257.591 144.681 258.325 146.092V146.092C258.582 146.583 258.453 147.21 258.068 147.513L258.063 147.516L258.06 147.519C258.059 147.519 258.058 147.52 258.056 147.522L258.045 147.53C258.042 147.532 258.037 147.536 258.032 147.54Z" fill="#393E46"/>
<path d="M234.211 153.048C234.014 153.739 234.198 154.527 234.672 155.081C234.907 155.356 234.583 155.745 234.243 155.606C234.012 155.511 233.824 155.342 233.772 155.124C233.674 154.718 233.479 154.386 233.418 153.957C233.359 153.546 233.239 153.098 233.484 152.755C233.506 152.726 233.53 152.696 233.557 152.672C233.838 152.388 234.32 152.671 234.211 153.048Z" fill="#393E46"/>
<path d="M192.325 320.71L175.451 306.085C174.433 305.201 172.904 305.326 172.036 306.364L108.183 382.705C107.857 383.096 107.902 383.684 108.288 384.018L126.309 399.638C128.426 401.473 131.601 401.212 133.405 399.059L192.894 327.935C194.696 325.778 194.442 322.543 192.325 320.71Z" fill="white"/>
<path fill-rule="evenodd" clip-rule="evenodd" d="M192.075 320.999C194.034 322.695 194.271 325.691 192.602 327.69L133.113 398.813C131.445 400.804 128.513 401.043 126.558 399.349L108.537 383.728C108.311 383.532 108.282 383.182 108.476 382.951M108.476 382.951L172.328 306.61C173.06 305.735 174.345 305.631 175.201 306.374L192.075 320.999M108.183 382.705C107.857 383.096 107.902 383.684 108.288 384.018L126.309 399.638C128.426 401.473 131.601 401.212 133.405 399.059L192.894 327.935C194.696 325.778 194.442 322.543 192.325 320.71L175.451 306.085C174.433 305.201 172.904 305.326 172.036 306.364L108.183 382.705Z" fill="#393E46"/>
<path d="M171.483 326.64C173.711 328.441 175.964 330.252 178.366 332.128C179.223 332.798 179.35 334.065 178.643 334.896L176.351 337.593C175.69 338.369 174.543 338.476 173.754 337.833L166.886 332.228C166.075 331.564 165.948 330.36 166.598 329.534C167.349 328.578 168.131 327.644 168.999 326.771C169.674 326.095 170.742 326.04 171.483 326.64Z" fill="white"/>
<path fill-rule="evenodd" clip-rule="evenodd" d="M171.243 326.937C173.471 328.739 175.726 330.551 178.132 332.429C178.816 332.965 178.919 333.982 178.352 334.648H178.352L176.061 337.344C175.533 337.964 174.622 338.047 173.995 337.537M173.995 337.537L167.127 331.931C166.48 331.401 166.375 330.435 166.898 329.771C167.644 328.82 168.416 327.899 169.269 327.042C169.806 326.504 170.653 326.46 171.243 326.937M166.886 332.228L173.754 337.833C174.543 338.476 175.69 338.369 176.351 337.593L178.643 334.896C179.35 334.065 179.223 332.798 178.366 332.128C175.964 330.252 173.711 328.441 171.483 326.64C170.742 326.04 169.674 326.095 168.999 326.771C168.131 327.644 167.349 328.578 166.598 329.534C165.948 330.36 166.075 331.564 166.886 332.228Z" fill="#393E46"/>
<path opacity="0.3294" d="M242.029 277.744C246.217 291.767 246.276 306.717 242.181 320.763C241.637 322.628 239.474 323.666 237.489 323.037C233.126 321.658 229.595 318.208 227.987 314.324C225.939 309.368 226.496 303.875 227.84 298.738C229.182 293.602 231.276 288.616 232.269 283.42C232.759 280.853 234.033 278.418 235.705 276.526C237.571 274.418 241.247 275.122 242.029 277.744Z" fill="#00ADB5"/>
<path d="M277.16 257.904C273.692 259.932 268.389 264.15 266.127 268.079C265.452 269.251 264.547 270.228 265.309 271.282C266.677 273.174 268.534 275.491 269.923 277.412C271.038 278.952 273.23 279.788 274.538 278.337C279.663 272.645 281.279 270.718 285.109 266.464C285.882 265.608 285.789 264.333 285.132 263.404C283.813 261.545 282.088 259.966 280.456 258.298C279.153 256.972 278.199 257.297 277.16 257.904Z" fill="#393E46"/>
<path d="M265.464 256.743C265.64 257.734 265.557 258.989 265.243 259.873C264.31 262.497 264.539 266.174 265.849 268.388C266.597 267.546 267.345 266.701 268.002 265.606C269.119 265.045 270.382 265.424 271.323 266.603C272.263 267.782 272.857 269.733 272.634 271.773C272.843 273.011 273.836 273.615 274.45 272.881C275.067 272.145 275.08 270.337 274.478 269.572C274.763 271.139 276.023 271.886 276.809 270.955C277.596 270.024 277.641 267.735 276.891 266.716C276.941 267.709 277.533 268.484 278.111 268.416C278.688 268.347 279.192 267.539 279.339 266.576C279.486 265.613 279.31 264.552 278.947 263.776C279.258 265.165 280.422 265.715 281.103 264.793C281.782 263.871 281.742 261.797 281.066 260.861C279.056 257.661 276.356 255.419 273.722 254.908C271.048 255.823 268.335 256.018 265.464 256.743Z" fill="#F0F0F0"/>
<path fill-rule="evenodd" clip-rule="evenodd" d="M265.243 259.873C265.557 258.989 265.64 257.734 265.464 256.743C266.634 256.448 267.779 256.24 268.905 256.036C270.541 255.74 272.139 255.45 273.722 254.908C276.357 255.419 279.056 257.661 281.066 260.861C281.742 261.797 281.782 263.871 281.103 264.793C280.714 265.32 280.167 265.366 279.712 265.05C279.516 264.914 279.337 264.71 279.195 264.449C279.267 264.706 279.321 264.979 279.354 265.256C279.406 265.693 279.405 266.144 279.339 266.576C279.192 267.539 278.688 268.347 278.111 268.416C278.005 268.428 277.899 268.412 277.795 268.372C277.646 268.314 277.504 268.206 277.378 268.059C277.404 268.238 277.42 268.423 277.425 268.608C277.453 269.509 277.244 270.44 276.809 270.955C276.37 271.475 275.784 271.472 275.301 271.095C275.147 270.974 275.003 270.814 274.877 270.621C274.91 270.832 274.924 271.051 274.921 271.27C274.91 271.899 274.753 272.52 274.45 272.881C273.836 273.615 272.843 273.011 272.634 271.773C272.857 269.733 272.263 267.782 271.323 266.603C270.382 265.424 269.119 265.045 268.002 265.606C267.423 266.57 266.773 267.341 266.116 268.087C266.027 268.188 265.938 268.288 265.849 268.388C265.781 268.273 265.716 268.155 265.654 268.032C264.518 265.796 264.358 262.36 265.243 259.873ZM265.927 267.723C265.459 266.745 265.172 265.528 265.086 264.258C264.984 262.777 265.157 261.256 265.603 260.002C265.903 259.154 266.004 258.012 265.891 257.032C266.932 256.783 267.952 256.598 268.968 256.413C269.224 256.367 269.481 256.321 269.736 256.273C271.078 256.025 272.415 255.751 273.748 255.303C276.208 255.823 278.788 257.952 280.743 261.065L280.75 261.075L280.757 261.086C281.03 261.464 281.202 262.127 281.211 262.837C281.22 263.55 281.065 264.2 280.796 264.565C280.668 264.739 280.537 264.819 280.424 264.849C280.311 264.879 280.184 264.869 280.049 264.805C279.879 264.725 279.697 264.558 279.55 264.302C279.479 264.058 279.392 263.826 279.293 263.613L278.575 263.859C278.634 264.125 278.723 264.372 278.838 264.591C279.002 265.192 279.059 265.881 278.962 266.518C278.895 266.955 278.749 267.344 278.567 267.622C278.379 267.91 278.193 268.021 278.066 268.036C277.993 268.044 277.873 268.014 277.737 267.884C277.648 267.358 277.473 266.863 277.198 266.489L276.447 265.469L276.51 266.736C276.538 267.299 276.72 267.815 276.995 268.19C277.001 268.199 277.007 268.207 277.014 268.215C277.038 268.423 277.049 268.64 277.045 268.861C277.03 269.639 276.83 270.34 276.518 270.708C276.372 270.881 276.224 270.954 276.095 270.974C275.963 270.995 275.811 270.967 275.65 270.871C275.51 270.788 275.367 270.655 275.24 270.475C275.164 270.045 275.015 269.638 274.777 269.335L274.102 269.641C274.178 270.059 274.32 270.438 274.511 270.755C274.531 270.908 274.54 271.069 274.539 271.235C274.535 271.836 274.384 272.366 274.158 272.635C274.055 272.758 273.958 272.802 273.881 272.813C273.801 272.825 273.702 272.808 273.589 272.739C273.363 272.602 273.118 272.271 273.02 271.759C273.235 269.65 272.622 267.62 271.62 266.364C270.6 265.085 269.151 264.601 267.831 265.264L267.732 265.314L267.675 265.409C267.142 266.297 266.547 267.017 265.927 267.723Z" fill="#393E46"/>
<path d="M260.47 216.824C266.541 229.026 272.614 241.226 279.147 253.739C273.547 257.529 266.353 259.094 259.59 257.988C255.902 249.725 252.217 241.462 249.438 234.193C249.067 226.498 254.25 218.841 260.47 216.824Z" fill="#393E46"/>
<path fill-rule="evenodd" clip-rule="evenodd" d="M278.65 253.611C273.23 257.172 266.35 258.652 259.854 257.643C256.203 249.462 252.567 241.301 249.817 234.114C249.651 230.377 250.824 226.641 252.802 223.588C254.724 220.622 257.387 218.327 260.277 217.294C266.249 229.297 272.228 241.303 278.65 253.611ZM260.47 216.824C266.541 229.026 272.614 241.226 279.147 253.739C273.547 257.529 266.353 259.094 259.59 257.988C255.902 249.725 252.217 241.462 249.438 234.193C249.067 226.498 254.25 218.841 260.47 216.824Z" fill="#393E46"/>
<path d="M268.412 238.738C267.045 238.288 265.35 238.922 264.74 240.112C264.131 241.302 264.692 242.876 265.96 243.522C267.227 244.167 269.013 243.792 269.831 242.706C270.649 241.622 270.672 239.483 268.412 238.738Z" fill="white"/>
<path d="M265.3 226.87C266.037 228.367 266.771 229.864 267.508 231.363C266.243 231.681 264.774 231.122 264.144 230.084C263.514 229.046 263.781 227.631 265.3 226.87Z" fill="white"/>
<path d="M274.122 316.572C274.451 316.604 277.667 317.728 277.517 318.027C274.004 325.105 267.094 330.545 259.578 332.474C251.842 334.459 243.268 332.73 236.858 327.894C231.765 324.052 224.007 319.372 219.243 315.525C219.2 315.488 219.15 315.461 219.096 315.443C215.016 314.06 213.241 315.402 208.989 316.033C204.71 316.669 200.315 317.414 196.099 316.424C191.923 315.443 185.248 311.436 186.709 307.588C186.736 307.52 186.777 307.459 186.832 307.409C193.983 300.722 204.082 294.714 213.264 291.489C222.479 288.252 234.003 289.636 240.059 297.413C248.866 308.724 259.846 315.141 274.122 316.572Z" fill="#393E46"/>
<path d="M271.398 317.071C273.56 334.383 275.72 351.698 278.211 368.572C278.266 368.945 278.352 369.31 278.472 369.669C281.271 378.048 285.389 385.966 290.543 392.926C291.694 393.128 292.846 393.332 293.979 393.45C293.818 393.982 293.655 394.513 293.551 394.818C289.612 395.963 285.369 396.01 281.332 395.363C277.355 390.525 273.375 385.685 269.252 380.922C268.171 379.672 267.647 378.014 267.826 376.358C267.973 375.009 268.182 373.64 268.542 372.215C269.084 370.078 268.608 367.807 267.305 366.042C256.548 351.485 251.14 332.889 252.486 314.714C258.094 314.795 263.699 314.877 271.398 317.071Z" fill="#F0F0F0"/>
<path fill-rule="evenodd" clip-rule="evenodd" d="M290.327 393.276L290.575 393.32C291.539 393.489 292.514 393.66 293.48 393.779C293.397 394.052 293.318 394.305 293.253 394.505C289.48 395.564 285.421 395.614 281.535 395.008C277.588 390.207 273.635 385.402 269.54 380.671C268.528 379.502 268.038 377.949 268.205 376.4C268.352 375.062 268.558 373.711 268.912 372.309C269.483 370.058 268.981 367.669 267.612 365.814C256.98 351.426 251.599 333.07 252.841 315.101C258.263 315.181 263.69 315.303 271.05 317.37L271.063 317.463C273.21 334.66 275.359 351.861 277.833 368.627M271.398 317.071L271.441 317.413C273.589 334.612 275.736 351.81 278.211 368.572C278.266 368.945 278.352 369.31 278.472 369.669C281.271 378.048 285.389 385.966 290.543 392.926L290.636 392.942C291.626 393.116 292.616 393.289 293.593 393.407C293.722 393.422 293.851 393.437 293.979 393.45C293.941 393.576 293.903 393.701 293.866 393.823C293.745 394.22 293.63 394.585 293.551 394.818C289.612 395.963 285.369 396.01 281.332 395.363C277.355 390.525 273.375 385.685 269.252 380.922C268.171 379.672 267.647 378.014 267.826 376.358C267.973 375.009 268.182 373.64 268.542 372.215C269.084 370.078 268.608 367.807 267.305 366.042C256.548 351.485 251.14 332.889 252.486 314.714C258.094 314.795 263.699 314.877 271.398 317.071ZM278.11 369.79C280.922 378.207 285.058 386.161 290.237 393.154L290.327 393.276M278.11 369.79C277.982 369.41 277.891 369.022 277.833 368.627L278.11 369.79Z" fill="#393E46"/>
<path d="M228.842 303.381C228.276 310.728 224.914 317.817 219.839 322.669C209.932 338.024 203.163 355.465 199.924 373.604C200.057 379.628 200.191 385.654 200.769 391.534C201.943 392.722 203.117 393.908 204.579 395.294C203.858 396.547 203.79 394.097 203.07 395.351C200.552 394.535 198.233 394.321 195.765 393.617C193.439 389.874 191.497 387.105 189.582 382.813C189.117 378.404 188.269 374.674 187.521 370.184C188.559 368.208 189.598 366.234 192.102 364.662C187.945 346.025 192.268 325.61 204.321 310.397C200.597 306.692 201.587 299.855 205.354 296.199C209.124 292.544 214.733 291.558 219.928 291.922C225.123 292.285 230.17 293.809 235.836 293.886C233.405 296.864 229.162 299.242 228.842 303.381Z" fill="#F0F0F0"/>
<path fill-rule="evenodd" clip-rule="evenodd" d="M228.461 303.351C227.902 310.607 224.581 317.607 219.576 322.392L219.543 322.424L219.519 322.461C209.584 337.859 202.796 355.349 199.548 373.537L199.542 373.575L199.543 373.623C199.676 379.641 199.81 385.678 200.39 391.572L200.403 391.707L200.498 391.804C201.394 392.711 202.293 393.619 203.321 394.616C203.233 394.638 203.152 394.681 203.08 394.736C203.021 394.781 202.965 394.837 202.914 394.9C201.731 394.534 200.592 394.294 199.474 394.067C199.355 394.043 199.236 394.019 199.117 393.995C198.079 393.786 197.057 393.581 196.01 393.289C195.592 392.616 195.185 391.975 194.791 391.352C193.028 388.567 191.484 386.129 189.955 382.712C189.638 379.726 189.144 377.037 188.628 374.228C188.391 372.94 188.15 371.627 187.919 370.248C188.935 368.315 189.941 366.47 192.304 364.986L192.533 364.843L192.475 364.579C188.342 346.051 192.641 325.755 204.62 310.634L204.832 310.366L204.59 310.125C202.828 308.373 202.163 305.861 202.409 303.316C202.653 300.77 203.806 298.234 205.62 296.473C209.277 292.927 214.756 291.943 219.902 292.303C222.132 292.459 224.334 292.831 226.593 293.212C226.941 293.271 227.292 293.33 227.643 293.388C230.015 293.783 232.453 294.152 235.017 294.248C234.551 294.758 234.035 295.259 233.501 295.766C233.362 295.897 233.223 296.029 233.082 296.161C232.472 296.736 231.849 297.324 231.27 297.935C229.846 299.44 228.632 301.149 228.461 303.351ZM235.517 294.263C234.861 295.009 234.105 295.723 233.34 296.443C231.23 298.432 229.067 300.472 228.842 303.381C228.276 310.728 224.914 317.817 219.839 322.669C209.932 338.024 203.163 355.465 199.924 373.604V373.607C200.057 379.63 200.191 385.655 200.769 391.534C201.943 392.722 203.117 393.908 204.579 395.294C204.219 395.921 204.022 395.621 203.824 395.322C203.627 395.023 203.43 394.724 203.07 395.351C201.686 394.902 200.362 394.636 199.041 394.37C197.958 394.152 196.877 393.935 195.765 393.617C195.321 392.903 194.891 392.225 194.473 391.564C192.699 388.762 191.132 386.287 189.582 382.813C189.266 379.817 188.773 377.134 188.255 374.314C188.011 372.984 187.761 371.623 187.521 370.184C188.559 368.208 189.598 366.234 192.102 364.662C187.945 346.025 192.268 325.61 204.321 310.397C200.597 306.692 201.587 299.855 205.354 296.199C209.124 292.544 214.733 291.558 219.928 291.922C222.178 292.079 224.401 292.454 226.658 292.835C229.461 293.309 232.318 293.791 235.347 293.876C235.51 293.88 235.673 293.884 235.836 293.886C235.733 294.013 235.626 294.138 235.517 294.263Z" fill="#393E46"/>
<path d="M268.678 368.74C271.273 370.738 272.572 374.274 272.298 377.568C272.166 379.145 272.62 380.712 273.581 381.954C275.802 384.832 278.05 387.719 280.43 390.653C281.962 392.543 284.447 393.336 286.763 392.677C288.937 392.059 291.148 391.471 296.067 393.265C296.76 393.517 297.47 393.729 298.197 393.842C298.92 393.956 299.591 394.444 299.891 395.128C300.278 396.016 299.999 397.154 298.129 398.094C293.039 399.18 287.742 399.398 282.468 399.134C281.203 399.071 280.009 398.533 279.097 397.638C275.888 394.487 272.728 391.355 269.714 388.112C269.254 387.616 268.438 387.964 268.461 388.645C268.558 391.462 268.685 394.274 268.971 397.068C269.055 397.892 268.416 398.61 267.602 398.588C267.105 398.574 266.584 398.578 266.015 398.623C265.571 398.66 265.181 398.319 265.147 397.867C264.888 394.192 264.642 390.526 264.583 386.976C264.563 385.72 264.248 384.491 263.692 383.367C261.913 379.762 263.128 374.431 268.556 368.75C268.587 368.714 268.64 368.709 268.678 368.74Z" fill="#393E46"/>
<path d="M191.807 362.74C193.586 365.148 193.951 368.784 193.04 371.891C192.603 373.377 192.662 374.967 193.217 376.341C194.499 379.521 195.8 382.714 197.206 385.978C198.11 388.079 199.472 388.727 201.566 388.534C203.262 388.534 204.771 389.15 209.882 391.441C210.469 391.837 210.973 392.15 211.564 392.397C212.543 392.807 212.618 393.238 212.729 393.951C212.872 394.876 212.403 395.916 210.626 396.461C206.1 396.54 201.576 395.748 197.172 394.496C196.116 394.196 195.218 393.454 194.631 392.425C192.569 388.797 190.547 385.195 188.672 381.515C188.387 380.955 187.625 381.134 187.503 381.79C187.002 384.509 186.526 387.23 186.191 389.962C186.091 390.769 185.402 391.336 184.717 391.162C184.3 391.055 183.858 390.962 183.369 390.898C182.986 390.849 182.725 390.449 182.793 390.008C183.335 386.435 183.885 382.873 184.57 379.455C184.812 378.247 184.801 377.009 184.565 375.825C183.809 372.032 185.794 366.833 191.7 362.729C191.737 362.701 191.782 362.704 191.807 362.74Z" fill="#393E46"/>
<path d="M259.938 228.605C261.146 258.374 267.598 287.913 279.704 315.987C280.035 316.755 279.772 317.654 279.083 318.111C269.779 324.277 257.651 325.867 247.132 322.218C237.298 318.806 229.097 310.892 226.228 300.921C225.734 299.204 224.714 307.527 223.876 309.879C222.2 314.581 214.123 320.914 205.944 311.558C204.42 312.34 201.251 312.566 200.541 310.041C198.067 311.894 193.542 312.902 189.336 310.429C188.774 310.347 186.301 307.987 186.709 307.588C197.223 297.332 198.864 281.492 200.603 266.76C202.608 249.751 205.245 230.849 219.809 221.502C228.241 217.344 243.177 226.845 259.938 228.605Z" fill="white"/>
<path fill-rule="evenodd" clip-rule="evenodd" d="M200.213 310.274C197.681 311.974 193.362 312.796 189.336 310.429C188.774 310.347 186.301 307.987 186.709 307.588C196.978 297.572 198.783 282.229 200.481 267.794C200.522 267.448 200.562 267.104 200.603 266.76C202.608 249.751 205.245 230.849 219.809 221.502C224.727 219.077 231.859 221.299 240.276 223.921C246.287 225.794 252.954 227.872 259.938 228.605C261.146 258.374 267.598 287.913 279.704 315.987C280.035 316.755 279.772 317.654 279.083 318.111C269.779 324.277 257.651 325.867 247.132 322.218C237.335 318.819 229.16 310.953 226.261 301.036C226.259 301.029 226.257 301.023 226.256 301.017C226.246 300.985 226.237 300.953 226.228 300.921C226.127 300.57 226.004 300.639 225.866 300.989C225.863 300.996 225.859 301.004 225.856 301.011C225.595 301.692 225.278 303.357 224.945 305.106C224.59 306.966 224.218 308.92 223.876 309.879C222.2 314.581 214.123 320.914 205.944 311.558C204.501 312.298 201.581 312.54 200.674 310.418C200.623 310.3 200.579 310.174 200.541 310.041C200.436 310.12 200.326 310.198 200.213 310.274ZM279.354 316.139C279.613 316.739 279.405 317.439 278.872 317.792C269.666 323.894 257.662 325.467 247.257 321.856C237.526 318.48 229.426 310.653 226.595 300.815C226.562 300.704 226.508 300.544 226.391 300.434C226.32 300.367 226.206 300.301 226.059 300.307C225.923 300.313 225.823 300.38 225.767 300.43C225.663 300.522 225.596 300.653 225.551 300.752C225.5 300.865 225.452 301.001 225.405 301.152C225.22 301.751 225.016 302.726 224.806 303.801C224.728 304.202 224.649 304.618 224.569 305.038C224.432 305.756 224.293 306.486 224.154 307.169C223.932 308.257 223.716 309.192 223.517 309.75C222.716 311.996 220.364 314.662 217.237 315.625C214.155 316.574 210.241 315.892 206.231 311.306L206.035 311.082L205.77 311.218C205.074 311.575 203.981 311.81 202.994 311.661C202.026 311.515 201.212 311.016 200.909 309.937L200.758 309.401L200.313 309.734C197.945 311.508 193.586 312.484 189.529 310.099L189.465 310.061L189.391 310.05C189.403 310.052 189.36 310.043 189.242 309.972C189.14 309.91 189.012 309.82 188.866 309.706C188.577 309.478 188.24 309.175 187.931 308.859C187.62 308.542 187.351 308.227 187.187 307.978C187.129 307.889 187.091 307.82 187.069 307.77C192.334 302.593 195.374 296.034 197.315 288.954C199.174 282.172 200.031 274.885 200.859 267.847C200.9 267.499 200.941 267.151 200.982 266.804C201.985 258.297 203.143 249.358 205.858 241.382C208.569 233.419 212.822 226.448 219.997 221.837C222.008 220.851 224.432 220.662 227.235 220.99C230.047 221.319 233.2 222.163 236.64 223.2C237.781 223.544 238.953 223.91 240.152 224.283C246.07 226.128 252.664 228.183 259.57 228.95C260.814 258.652 267.273 288.124 279.354 316.139ZM187.044 307.7C187.044 307.697 187.044 307.696 187.044 307.695C187.044 307.695 187.044 307.696 187.044 307.7Z" fill="#393E46"/>
<path d="M175.771 332.655C190.667 315.279 205.555 297.903 220.031 280.543C220.963 279.425 220.75 277.726 219.56 276.9C219.256 276.688 218.937 276.475 218.594 276.264C217.564 275.621 216.228 275.836 215.449 276.776L171.975 329.368C171.029 330.513 171.288 332.239 172.521 333.055C172.582 333.095 172.644 333.134 172.705 333.17C173.713 333.777 175.002 333.549 175.771 332.655Z" fill="#393E46"/>
<path d="M198.981 261.226C206.314 265.953 213.655 270.691 221.216 275.677C222.678 276.639 223.095 278.879 222.089 280.442C221.742 280.98 221.409 281.516 221.094 282.052C220.327 283.356 218.809 283.717 217.669 282.859L196.106 266.664C195.029 265.855 194.705 264.181 195.401 262.93C195.682 262.421 196.01 261.949 196.414 261.533C197.119 260.803 198.154 260.692 198.981 261.226Z" fill="#00ADB5"/>
<path d="M252.4 172.461C252.323 172.441 252.278 172.541 252.341 172.591C254.384 174.147 254.599 177.733 252.641 179.457C250.585 181.268 248.506 178.361 245.841 177.804C238.425 176.259 236.288 168.242 228.25 168.627C228.094 168.634 227.836 168.643 227.684 168.684C204.724 174.744 207.616 206.798 207.616 260.704C207.616 263.001 209.625 264.79 211.873 264.986C215.866 265.331 219.86 265.611 223.847 265.608C225.51 265.608 226.918 264.35 227.147 262.671C228.786 250.742 230.438 238.829 232.269 227.131C240.882 229.421 250.011 229.666 259.034 229.378C259.472 229.364 259.846 229.046 259.937 228.61C260.42 226.302 260.886 223.988 261.194 221.598C261.408 219.938 262.287 218.434 263.622 217.455C268.068 214.191 270.847 208.592 270.605 202.996C270.349 197.076 266.729 191.457 261.938 188.838C260.936 188.291 260.281 187.26 260.177 186.108C260.061 184.827 260.22 183.487 260.696 182.135C260.889 181.59 260.872 180.99 260.671 180.45C259.216 176.539 255.936 173.395 252.4 172.461Z" fill="#393E46"/>
<path fill-rule="evenodd" clip-rule="evenodd" d="M228.25 168.627C232.672 168.415 235.307 170.745 238.019 173.143C240.236 175.103 242.504 177.109 245.841 177.804C246.81 178.006 247.702 178.52 248.543 179.004C250.015 179.851 251.332 180.609 252.641 179.457C254.454 177.86 254.404 174.665 252.762 172.966C252.7 172.901 252.635 172.839 252.568 172.779C252.502 172.719 252.433 172.662 252.362 172.607C252.355 172.601 252.348 172.596 252.341 172.591C252.278 172.541 252.323 172.441 252.4 172.461C252.411 172.464 252.422 172.467 252.433 172.47C252.434 172.471 252.435 172.471 252.435 172.471C252.521 172.494 252.607 172.518 252.693 172.544C252.785 172.572 252.877 172.601 252.969 172.631C256.284 173.736 259.294 176.749 260.671 180.45C260.872 180.99 260.888 181.59 260.696 182.135C260.22 183.487 260.061 184.827 260.176 186.108C260.281 187.26 260.936 188.291 261.938 188.838C266.729 191.457 270.349 197.076 270.605 202.996C270.847 208.592 268.068 214.191 263.622 217.455C262.287 218.434 261.408 219.938 261.194 221.598C260.886 223.988 260.419 226.302 259.937 228.61C259.846 229.046 259.472 229.364 259.034 229.378C250.141 229.662 241.144 229.427 232.64 227.228C232.516 227.196 232.392 227.164 232.269 227.131C232.249 227.258 232.229 227.384 232.21 227.511C230.402 239.087 228.768 250.871 227.147 262.671C226.918 264.35 225.51 265.608 223.847 265.608C219.86 265.611 215.866 265.331 211.873 264.986C209.624 264.79 207.616 263.001 207.616 260.704C207.616 255.034 207.585 249.606 207.554 244.424C207.294 200.343 207.139 174.107 227.684 168.684C227.827 168.646 228.066 168.635 228.224 168.628L228.25 168.627ZM260.816 221.549C261.042 219.787 261.976 218.188 263.396 217.146C267.743 213.956 270.46 208.477 270.224 203.012C269.973 197.226 266.429 191.729 261.755 189.174C260.637 188.563 259.912 187.416 259.796 186.143C259.676 184.805 259.842 183.41 260.336 182.008V182.007C260.497 181.552 260.485 181.045 260.313 180.584C259.059 177.213 256.416 174.442 253.47 173.226C254.023 174.014 254.325 174.98 254.372 175.942C254.441 177.339 253.977 178.79 252.892 179.745C252.307 180.26 251.696 180.455 251.066 180.423C250.458 180.392 249.863 180.15 249.295 179.858C249.009 179.712 248.719 179.546 248.432 179.381C248.406 179.366 248.38 179.351 248.354 179.336C248.09 179.184 247.827 179.033 247.559 178.889C246.969 178.573 246.377 178.306 245.763 178.178" fill="#393E46"/>
<path d="M216.524 203.812C214.296 206.771 216.151 211.7 219.819 212.559C223.486 213.417 227.446 209.851 226.848 206.231C226.249 202.608 220.032 199.149 216.524 203.812Z" fill="white"/>
<path d="M212.775 195.857C214.329 196.564 216.399 195.871 217.178 194.384C217.958 192.896 217.319 190.861 215.818 190.052C214.318 189.241 212.203 189.793 211.319 191.222C210.435 192.655 210.796 194.961 212.775 195.857Z" fill="white"/>
<path d="M178.349 231.19C178.818 231.091 179.287 230.991 179.756 230.891L178.349 231.19Z" fill="#00ADB5"/>
<path d="M224.834 236.292C223.425 237.857 220.705 238.08 219.048 236.765C217.391 235.45 217.067 232.815 218.361 231.156C219.655 229.498 222.352 229.094 224.1 230.296C225.849 231.495 226.627 234.303 224.834 236.292Z" fill="white"/>
<path d="M210.394 252.336C212.577 253.356 215.51 252.395 216.612 250.298C217.713 248.202 216.793 245.327 214.663 244.207C212.532 243.087 209.556 243.914 208.355 245.958C207.153 248.002 207.813 251.127 210.394 252.336Z" fill="white"/>
<path d="M207.538 224.899C209.211 225.16 211.008 224.397 211.945 223.023C212.881 221.649 212.906 219.743 212.008 218.346C211.108 216.95 209.334 216.139 207.654 216.359" fill="white"/>
<path d="M233.916 209.831C232.917 209.922 231.888 209.358 231.446 208.48C231.006 207.6 231.183 206.467 231.872 205.754C232.561 205.043 233.715 204.802 234.644 205.179" fill="white"/>
<path d="M233.037 187.243C232.226 185.13 229.54 183.906 227.351 184.649C225.161 185.392 223.844 187.976 224.563 190.121C225.281 192.264 227.908 193.6 230.127 192.951C232.348 192.301 233.985 189.707 233.037 187.243Z" fill="white"/>
<path d="M220.608 172.06C222.053 173.137 222.196 175.503 220.886 176.734C219.576 177.966 217.149 177.747 216.052 176.289C217.248 174.606 218.788 173.157 220.608 172.06Z" fill="white"/>
<path d="M239.246 226.946C241.27 226.642 242.766 224.481 242.331 222.535C241.895 220.588 239.647 219.232 237.653 219.686C235.658 220.138 234.264 222.289 234.665 224.241C235.069 226.194 237.077 227.273 239.246 226.946Z" fill="white"/>
<path d="M257.022 226.355C258.935 225.319 259.738 222.716 258.726 220.828C257.716 218.941 255.064 218.087 253.094 219.014C251.125 219.943 250.173 222.498 251.07 224.438C251.968 226.377 254.692 227.615 257.022 226.355Z" fill="white"/>
<path d="M266.239 204.001C266.307 205.809 264.814 207.549 262.973 207.808C261.131 208.067 259.192 206.813 258.728 205.06C258.264 203.306 259.338 201.296 261.078 200.658C262.819 200.022 266.114 200.619 266.239 204.001Z" fill="white"/>
<path d="M250.351 203.53C250.539 201.783 249.086 200.027 247.291 199.832C245.496 199.637 243.68 201.038 243.468 202.783C243.255 204.527 244.685 206.303 246.475 206.521C248.268 206.739 250.154 205.365 250.351 203.53Z" fill="white"/>
<path d="M258.978 189.281C258.382 188.55 257.172 188.389 256.396 188.939C255.621 189.488 255.406 190.658 255.941 191.435C256.474 192.211 257.668 192.466 258.486 191.98C259.304 191.492 259.762 190.245 258.978 189.281Z" fill="white"/>
<path d="M248.488 194.511C249.515 194.113 250.217 193.039 250.156 191.967C250.094 190.894 249.272 189.902 248.207 189.618C247.314 189.38 246.307 189.913 245.926 190.734C245.546 191.553 245.75 192.569 246.332 193.27C246.915 193.97 247.824 194.372 248.488 194.511Z" fill="white"/>
<path d="M259.055 177.523C260.027 178.684 260.528 180.208 260.446 181.816C259.374 181.903 258.288 181.185 257.983 180.183C257.676 179.181 258.175 178 259.055 177.523Z" fill="white"/>
<path d="M252.441 172.548C254.485 171.878 256.942 173.075 257.71 175.115C258.481 177.155 257.441 179.719 255.482 180.612C256.985 182.637 256.5 185.888 254.472 187.367C252.445 188.845 249.265 188.271 247.862 186.17C246.808 188.943 243.245 190.386 240.607 189.107C237.972 187.826 236.829 184.098 238.284 181.52C234.624 182.844 230.125 180.875 228.547 177.262C226.97 173.648 228.554 168.93 232.257 167.147C236.14 171.733 241.154 175.32 246.708 177.479C248.191 178.056 249.979 177.702 251.142 176.605C252.309 175.508 252.79 173.718 252.441 172.548Z" fill="white"/>
<path fill-rule="evenodd" clip-rule="evenodd" d="M237.771 181.683C234.214 182.659 230.052 180.708 228.547 177.262C226.97 173.648 228.554 168.93 232.257 167.147C236.14 171.733 241.154 175.32 246.708 177.479C248.191 178.056 249.979 177.702 251.142 176.605C252.309 175.508 252.79 173.718 252.441 172.548C252.5 172.529 252.56 172.511 252.62 172.494C252.683 172.478 252.746 172.462 252.809 172.449C254.771 172.024 256.987 173.197 257.71 175.115C258.435 177.032 257.559 179.413 255.825 180.433C255.714 180.498 255.6 180.558 255.482 180.612C255.56 180.716 255.632 180.823 255.698 180.933C256.932 182.967 256.396 185.964 254.472 187.367C252.565 188.758 249.637 188.331 248.129 186.527C248.035 186.413 247.945 186.294 247.862 186.17C247.809 186.31 247.75 186.446 247.684 186.579C246.451 189.082 243.113 190.321 240.607 189.107C238.131 187.903 236.973 184.541 238.048 182.002C238.117 181.837 238.196 181.677 238.284 181.52C238.115 181.581 237.944 181.636 237.771 181.683ZM240.773 188.762C239.567 188.176 238.684 187.019 238.277 185.688C237.869 184.356 237.949 182.891 238.616 181.708L239.124 180.81L238.154 181.16C234.687 182.415 230.395 180.541 228.897 177.108C227.436 173.762 228.838 169.407 232.162 167.624C236.058 172.148 241.049 175.689 246.571 177.836C248.191 178.467 250.135 178.081 251.403 176.883C252.042 176.284 252.486 175.502 252.725 174.715C252.92 174.076 252.985 173.412 252.893 172.822C254.668 172.439 256.697 173.508 257.353 175.25C258.054 177.105 257.096 179.455 255.324 180.264L254.894 180.46L255.176 180.84C255.857 181.759 256.098 182.971 255.924 184.138C255.749 185.304 255.166 186.388 254.247 187.057C252.398 188.407 249.463 187.879 248.18 185.957L247.769 185.341L247.506 186.033C246.53 188.601 243.206 189.942 240.773 188.762Z" fill="#393E46"/>
<path d="M236.033 127.869C243.243 125.674 252.046 130.119 254.258 138.773C254.423 139.416 253.61 139.882 253.075 139.448L246.767 134.342C246.246 133.919 245.462 134.406 245.675 135.019C245.99 135.93 246.295 136.845 246.582 137.776C247.034 139.243 246.704 140.845 245.648 142.01C244.539 143.234 243.152 144.224 241.604 144.87C241.425 142.725 240.494 140.645 239.002 139.049C238.964 139.007 238.898 139.049 238.916 139.101C240.201 142.576 239.82 146.573 238.184 149.751C237.649 150.789 236.364 151.279 235.208 150.878C234.116 150.498 232.819 150.625 231.908 151.332C230.493 152.429 230.553 154.632 231.756 155.942C232.959 157.253 235.065 157.41 236.715 156.697C240.917 160.783 241.257 166.902 237.406 170.634C236.203 171.802 234.569 172.431 232.867 172.433C230.385 172.438 227.91 171.667 225.999 170.314L227.599 164.288C226.523 166.273 225.446 168.256 224.247 170.573C219.7 171.579 214.771 170.875 210.72 168.642C215.929 165.743 218.189 159.622 219.052 153.876C219.915 148.129 219.827 142.14 222.112 136.77C224.397 131.398 230.099 126.722 236.033 127.869Z" fill="#393E46"/>
<path d="M220.773 265.555C220.53 266.361 220.644 267.388 221.076 268.108C222.359 270.248 222.047 273.246 220.244 275.052C219.216 274.363 218.184 273.675 217.28 272.783C215.744 272.326 214.005 272.635 212.711 273.596C211.417 274.556 210.598 276.149 210.905 277.811C210.619 278.82 209.252 279.315 208.407 278.715C207.559 278.116 207.538 276.639 208.368 276.017C207.974 277.296 206.24 277.904 205.156 277.144C204.073 276.385 204.012 274.518 205.046 273.689C204.978 274.497 204.164 275.129 203.368 275.074C202.573 275.02 201.881 274.359 201.677 273.573C201.474 272.787 201.716 271.922 202.217 271.288C201.791 272.421 200.186 272.869 199.25 272.117C198.314 271.365 198.368 269.673 199.298 268.912C202.065 266.303 205.78 264.474 209.404 264.056C213.085 264.803 216.82 264.965 220.773 265.555Z" fill="#F0F0F0"/>
<path fill-rule="evenodd" clip-rule="evenodd" d="M201.318 272.257C200.665 272.588 199.829 272.582 199.25 272.117C198.314 271.365 198.368 269.673 199.298 268.912C202.065 266.303 205.78 264.474 209.404 264.056C211.588 264.499 213.79 264.736 216.046 264.979C217.47 265.132 218.916 265.288 220.392 265.499C220.518 265.517 220.645 265.536 220.773 265.555C220.737 265.675 220.708 265.801 220.688 265.929C220.571 266.661 220.708 267.496 221.076 268.108C222.359 270.248 222.047 273.246 220.244 275.052L220.229 275.041C219.205 274.356 218.18 273.671 217.28 272.783C215.744 272.326 214.005 272.635 212.711 273.596C211.417 274.556 210.598 276.149 210.905 277.811C210.619 278.82 209.252 279.315 208.407 278.715C207.99 278.421 207.773 277.914 207.759 277.401C207.754 277.223 207.774 277.043 207.818 276.872C207.687 276.992 207.54 277.097 207.382 277.183C206.693 277.563 205.808 277.601 205.156 277.144C204.566 276.73 204.279 275.987 204.308 275.263C204.314 275.101 204.336 274.94 204.374 274.784C204.243 274.875 204.098 274.947 203.947 274.998C203.761 275.059 203.564 275.088 203.368 275.074C202.573 275.02 201.881 274.359 201.677 273.573C201.587 273.224 201.584 272.86 201.653 272.508C201.698 272.277 201.773 272.053 201.874 271.84C201.717 272.01 201.527 272.151 201.318 272.257ZM201.558 271.618C201.659 271.415 201.78 271.225 201.918 271.051L202.574 271.423C202.484 271.661 202.355 271.872 202.196 272.054C201.992 272.508 201.927 273.016 202.047 273.476C202.217 274.131 202.789 274.651 203.394 274.693C203.621 274.708 203.848 274.649 204.046 274.539C204.181 274.099 204.431 273.692 204.807 273.39L205.5 272.834L205.426 273.721C205.382 274.24 205.106 274.692 204.718 275.004C204.694 275.142 204.684 275.285 204.689 275.43C204.707 276.003 204.953 276.534 205.375 276.83H205.376C205.797 277.126 206.367 277.169 206.895 276.984C207.112 276.908 207.312 276.796 207.483 276.656C207.6 276.291 207.815 275.954 208.14 275.711L209.08 275.005L208.733 276.13C208.62 276.495 208.42 276.811 208.165 277.068C208.147 277.165 208.138 277.266 208.14 277.369C208.146 277.798 208.324 278.189 208.627 278.403V278.403C208.927 278.616 209.344 278.648 209.736 278.507C210.1 278.375 210.391 278.111 210.512 277.784C210.224 275.985 211.122 274.299 212.484 273.289C213.874 272.256 215.737 271.925 217.389 272.416L217.48 272.443L217.548 272.51C218.346 273.298 219.25 273.924 220.188 274.554C221.672 272.858 221.892 270.211 220.749 268.305C220.334 267.613 220.182 266.69 220.31 265.874C218.852 265.666 217.423 265.512 216.008 265.36C215.653 265.321 215.299 265.283 214.945 265.245C213.075 265.039 211.226 264.813 209.388 264.443C205.872 264.864 202.258 266.646 199.559 269.191L199.55 269.2L199.539 269.208C199.178 269.504 198.967 270.002 198.956 270.526C198.945 271.05 199.135 271.534 199.489 271.818C199.842 272.102 200.344 272.175 200.822 272.041C201.107 271.961 201.363 271.815 201.558 271.618Z" fill="#393E46"/>
<path d="M398.894 328.316C395.471 349.878 408.533 364.741 420.216 373.973L426.642 378.921H512.482C510.969 377.087 506.154 369.746 498.996 355.048C490.049 336.676 483.955 307.854 482.399 291.793C480.843 275.731 476.906 266.121 472.108 259.081C467.311 252.04 455.393 239.955 448.521 231.704C441.648 223.454 406.233 226.096 393.007 227.417C379.782 228.737 343.34 228.733 333.874 233.244C326.302 236.852 327.401 239.071 326.743 242.039C326.743 250.065 338.686 249.512 344.175 248.339V251.749C339.922 253.949 331.733 257.76 329.486 260.07C326.085 270.515 336.836 272.824 342.322 271.174C345.304 269.634 353.9 269.945 357.012 273.641C360.124 277.337 347.898 273.153 342.322 274.583L332.338 287.006C330.256 293.875 334.6 299.211 343.309 296.682C355.896 293.027 384.501 304.224 388.002 313.465C390.803 320.857 396.431 325.346 398.894 326.666C400.321 318.232 402.317 306.754 398.894 328.316Z" fill="white"/>
<path fill-rule="evenodd" clip-rule="evenodd" d="M423.139 226.353C411.796 226.148 399.653 227.137 393.045 227.797C389.149 228.186 383.234 228.461 376.595 228.769C371.954 228.985 366.959 229.216 362.054 229.515C356.083 229.879 350.237 230.343 345.297 230.995C340.341 231.65 336.344 232.49 334.038 233.589C330.273 235.383 328.745 236.796 328.05 238.065C327.703 238.699 327.551 239.319 327.447 239.98C327.413 240.195 327.383 240.422 327.352 240.657C327.293 241.11 327.23 241.594 327.124 242.08C327.135 243.957 327.833 245.309 328.946 246.287C330.081 247.283 331.673 247.911 333.474 248.263C337.077 248.968 341.379 248.545 344.095 247.964L344.557 247.866V251.982L344.35 252.089C343.505 252.526 342.516 253.021 341.451 253.554C339.811 254.375 337.993 255.285 336.256 256.206C334.83 256.963 333.472 257.72 332.332 258.43C331.229 259.116 330.355 259.745 329.821 260.275C329.019 262.785 329.071 264.768 329.642 266.31C330.22 267.869 331.347 269.021 332.759 269.825C335.593 271.436 339.522 271.606 342.179 270.818C342.984 270.411 344.12 270.14 345.399 270.01C346.702 269.877 348.181 269.887 349.663 270.064C352.603 270.415 355.652 271.433 357.304 273.394C357.51 273.639 357.668 273.868 357.767 274.083C357.866 274.297 357.922 274.528 357.877 274.758C357.78 275.258 357.293 275.445 356.884 275.522C356.438 275.606 355.847 275.608 355.178 275.568C354.504 275.528 353.721 275.443 352.879 275.341C352.506 275.296 352.121 275.248 351.729 275.199C350.337 275.025 348.837 274.837 347.38 274.734C345.562 274.605 343.853 274.611 342.538 274.923L332.682 287.188C331.698 290.502 332.274 293.36 334.044 295.094C335.824 296.84 338.925 297.557 343.203 296.314C346.426 295.379 350.637 295.401 355.167 296.085C359.704 296.769 364.596 298.123 369.198 299.88C373.8 301.636 378.125 303.801 381.526 306.113C384.911 308.415 387.44 310.903 388.359 313.329C390.955 320.182 396.019 324.502 398.609 326.063C399.302 321.974 400.098 317.35 400.338 316.166C400.354 316.088 400.368 316.022 400.38 315.971C400.389 315.932 400.403 315.872 400.421 315.826C400.423 315.821 400.44 315.774 400.476 315.728C400.487 315.713 400.549 315.628 400.672 315.592C400.731 315.579 400.857 315.583 400.921 315.602C400.973 315.627 401.053 315.689 401.082 315.722C401.133 315.788 401.149 315.852 401.153 315.868C401.16 315.894 401.162 315.915 401.163 315.926C401.166 315.95 401.166 315.97 401.166 315.981C401.165 316.023 401.16 316.079 401.153 316.136C401.128 316.377 401.052 316.922 400.916 317.832C400.644 319.659 400.127 322.986 399.271 328.376C395.881 349.726 408.801 364.465 420.45 373.671L420.452 373.672L426.772 378.538H511.701C509.772 375.933 505.18 368.619 498.653 355.216C489.679 336.789 483.578 307.918 482.019 291.83C480.467 275.82 476.548 266.274 471.793 259.296C469.411 255.801 465.25 251.039 460.809 246.102C459.758 244.934 458.692 243.757 457.631 242.586C454.216 238.816 450.854 235.103 448.228 231.95C447.421 230.981 446.175 230.15 444.553 229.448C442.934 228.747 440.963 228.186 438.733 227.743C434.271 226.858 428.812 226.456 423.139 226.353ZM398.716 327.004C398.652 327.409 398.585 327.825 398.517 328.256C395.06 350.029 408.262 365.014 419.979 374.273L419.983 374.276L426.512 379.303H513.292L512.776 378.677C511.293 376.88 506.494 369.573 499.339 354.88C490.419 336.564 484.332 307.79 482.779 291.756C481.217 275.643 477.263 265.968 472.423 258.865C470.007 255.319 465.81 250.519 461.375 245.59C460.32 244.417 459.251 243.236 458.188 242.062C454.776 238.295 451.429 234.599 448.814 231.459C447.902 230.364 446.538 229.474 444.856 228.746C443.171 228.017 441.144 227.442 438.881 226.993C434.356 226.094 428.846 225.692 423.153 225.589C411.765 225.383 399.588 226.375 392.97 227.036C389.088 227.423 383.213 227.696 376.598 228.003C371.954 228.218 366.946 228.451 362.007 228.752C356.031 229.116 350.165 229.58 345.197 230.237C340.244 230.891 336.136 231.742 333.71 232.898C329.903 234.713 328.194 236.213 327.381 237.697C326.974 238.44 326.804 239.157 326.693 239.86C326.652 240.117 326.62 240.364 326.588 240.609C326.531 241.051 326.475 241.485 326.37 241.956L326.361 241.997V242.039C326.361 244.155 327.154 245.73 328.443 246.862C329.719 247.982 331.456 248.648 333.327 249.014C336.867 249.706 341.009 249.349 343.793 248.807V251.515C343.014 251.916 342.106 252.371 341.132 252.859C339.481 253.685 337.638 254.608 335.899 255.53C334.466 256.29 333.091 257.057 331.929 257.78C330.775 258.499 329.808 259.19 329.212 259.803L329.15 259.867L329.123 259.951C328.253 262.623 328.275 264.817 328.927 266.577C329.58 268.337 330.847 269.617 332.383 270.49C335.434 272.225 339.604 272.391 342.431 271.541L342.465 271.53L342.496 271.514C343.181 271.16 344.224 270.899 345.476 270.771C346.721 270.644 348.144 270.653 349.573 270.824C352.454 271.167 355.259 272.153 356.72 273.887C356.903 274.104 357.014 274.275 357.075 274.406C357.136 274.538 357.131 274.598 357.128 274.61C357.127 274.615 357.126 274.618 357.123 274.622C357.12 274.627 357.108 274.64 357.082 274.657C357.024 274.695 356.918 274.737 356.743 274.77C356.393 274.836 355.881 274.844 355.224 274.804C354.574 274.766 353.81 274.683 352.97 274.582C352.605 274.538 352.225 274.49 351.835 274.441C350.44 274.267 348.914 274.075 347.434 273.971C345.544 273.837 343.683 273.838 342.227 274.212L342.104 274.244L331.994 286.824L331.972 286.895C330.905 290.42 331.463 293.636 333.51 295.642C335.557 297.648 338.983 298.336 343.415 297.049C346.485 296.157 350.57 296.164 355.053 296.841C359.529 297.517 364.367 298.854 368.927 300.595C373.487 302.336 377.757 304.475 381.097 306.746C384.454 309.029 386.814 311.406 387.645 313.601C390.484 321.095 396.184 325.648 398.714 327.003L398.716 327.004Z" fill="#393E46"/>
<path d="M338.693 110.749C338.693 102.299 345.529 95.4482 353.962 95.4482H447.207C455.64 95.4482 462.476 102.299 462.476 110.749V313.5C462.476 321.951 455.64 328.801 447.207 328.801H353.962C345.529 328.801 338.693 321.951 338.693 313.5V110.749Z" fill="#393E46"/>
<path d="M347.304 112.01C347.304 111.799 347.475 111.628 347.686 111.628H452.048C452.259 111.628 452.43 111.799 452.43 112.01V316.194C452.43 316.405 452.259 316.576 452.048 316.576H347.686C347.475 316.576 347.304 316.405 347.304 316.194V112.01Z" fill="white"/>
<path d="M370.646 178.745H364.401C351.354 206.821 380.092 237.77 396.092 249.736H403.61C416.615 237.804 422.908 231.547 430.957 218.953C439.007 206.36 438.154 187.904 438.193 179.547H432.41H428.015C410.804 183.318 403.725 175.036 402.338 170.423H396.092C387.672 181.493 375.62 180.584 370.646 178.745Z" fill="white"/>
<path fill-rule="evenodd" clip-rule="evenodd" d="M395.902 170.041H402.621L402.703 170.313C404.024 174.706 410.886 182.908 427.932 179.174L427.973 179.165H438.576L438.574 179.55C438.571 180.274 438.574 181.077 438.578 181.947C438.595 186.073 438.619 191.709 437.958 197.703C437.157 204.961 435.349 212.791 431.278 219.16C423.201 231.796 416.88 238.079 403.867 250.019L403.758 250.119H395.965L395.863 250.043C387.833 244.038 376.611 233.274 369.025 220.478C361.441 207.684 357.454 192.787 364.054 178.584L364.157 178.363H370.714L370.778 178.387C375.649 180.187 387.501 181.086 395.787 170.191L395.902 170.041ZM396.28 170.806C387.768 181.845 375.669 180.979 370.578 179.128H364.644C358.34 192.935 362.198 207.462 369.681 220.087C377.171 232.722 388.254 243.378 396.218 249.354H403.461C416.385 237.494 422.635 231.264 430.635 218.747C434.614 212.522 436.404 204.827 437.199 197.619C437.855 191.673 437.832 186.09 437.814 181.963C437.811 181.238 437.808 180.559 437.809 179.93H428.055C411.031 183.645 403.698 175.668 402.058 170.806H396.28Z" fill="#393E46"/>
<path d="M374.044 183.608H368.572C357.14 207.44 382.321 233.711 396.341 243.868H402.929C414.325 233.74 419.837 228.428 426.891 217.738C433.945 207.048 433.197 191.382 433.231 184.289H428.164H424.313C409.232 187.489 403.03 180.459 401.814 176.543H396.341C388.963 185.94 378.402 185.169 374.044 183.608Z" fill="white"/>
<path fill-rule="evenodd" clip-rule="evenodd" d="M396.156 176.161H402.095L402.178 176.43C403.325 180.122 409.308 187.082 424.234 183.915L424.273 183.907H433.615L433.613 184.291C433.61 184.906 433.613 185.587 433.617 186.325C433.632 189.827 433.653 194.615 433.073 199.708C432.371 205.874 430.785 212.532 427.21 217.95C420.129 228.682 414.585 234.02 403.182 244.155L403.073 244.251H396.218L396.117 244.178C389.078 239.079 379.239 229.937 372.587 219.066C365.937 208.199 362.431 195.527 368.228 183.442L368.332 183.225H374.111L374.173 183.248C378.434 184.774 388.798 185.532 396.041 176.307L396.156 176.161ZM396.526 176.926C389.054 186.296 378.448 185.563 373.979 183.991H368.813C363.322 195.673 366.69 207.967 373.237 218.666C379.792 229.378 389.491 238.415 396.465 243.486H402.784C414.099 233.427 419.57 228.142 426.573 217.528C430.052 212.255 431.619 205.735 432.315 199.622C432.889 194.578 432.869 189.844 432.853 186.341C432.851 185.748 432.848 185.19 432.849 184.671H424.353C409.471 187.816 403.012 181.091 401.539 176.926H396.526Z" fill="#393E46"/>
<path d="M382.273 214.987L386.485 207.74L397.067 214.28L415.939 191.302L422.478 196.635L398.302 224.178L382.273 214.987Z" fill="#393E46"/>
<path fill-rule="evenodd" clip-rule="evenodd" d="M415.886 190.766L423.028 196.589L398.383 224.665L381.75 215.127L386.352 207.209L396.984 213.779L415.886 190.766ZM415.993 191.839L397.151 214.78L386.618 208.271L382.797 214.846L398.221 223.69L421.93 196.68L415.993 191.839Z" fill="#393E46"/>
<path d="M437.038 265.418C441.335 270.716 456.94 285.829 464.206 292.723C483.832 303.878 494.472 343.616 496.125 347.799C497.447 351.145 511.249 372.491 512.591 378.921L469.811 378.205L442.513 351.633C426.398 337.876 431.915 312.589 428.567 300.625C428.4 300.027 428.095 297.613 422.805 290.455C417.516 283.297 414.904 282.559 414.072 282.169C393.666 273.373 392.785 268.206 391.581 264.248C390.239 259.832 392.826 254.379 395.718 252.985C398.611 251.591 407.288 253.45 416.791 254.379C426.295 255.309 431.666 258.795 437.038 265.418Z" fill="white"/>
<path fill-rule="evenodd" clip-rule="evenodd" d="M408.843 253.051C411.35 253.377 414.042 253.726 416.828 253.999C421.621 254.468 425.394 255.584 428.652 257.431C431.909 259.277 434.63 261.842 437.334 265.176C441.605 270.443 457.146 285.496 464.435 292.414C469.392 295.243 473.762 299.857 477.552 305.225C481.355 310.612 484.588 316.779 487.254 322.718C489.92 328.659 492.023 334.379 493.562 338.873C494.331 341.121 494.959 343.062 495.447 344.572L495.491 344.706C495.957 346.152 496.285 347.166 496.48 347.658C496.797 348.461 497.887 350.39 499.396 352.976C499.933 353.897 500.522 354.897 501.143 355.954C502.252 357.842 503.467 359.909 504.681 362.012C506.573 365.293 508.47 368.676 509.978 371.642C511.479 374.596 512.617 377.178 512.965 378.842L513.063 379.311L469.654 378.585L442.256 351.917C434.094 344.943 431.43 335.064 430.373 325.499C429.948 321.653 429.781 317.841 429.626 314.282C429.588 313.414 429.551 312.561 429.511 311.726C429.306 307.453 429.023 303.671 428.2 300.728C428.187 300.681 428.173 300.626 428.157 300.559C428.066 300.185 427.893 299.472 427.263 298.166C426.519 296.621 425.134 294.249 422.499 290.683C419.868 287.121 417.914 285.175 416.53 284.074C415.363 283.146 414.599 282.816 414.132 282.614C414.051 282.579 413.979 282.548 413.916 282.518C403.701 278.115 398.33 274.602 395.358 271.667C392.575 268.918 391.909 266.682 391.345 264.787C391.302 264.643 391.259 264.5 391.217 264.36C390.513 262.048 390.843 259.489 391.707 257.341C392.568 255.202 393.989 253.394 395.552 252.64C396.357 252.253 397.514 252.109 398.893 252.102C400.283 252.095 401.954 252.227 403.817 252.431C405.377 252.602 407.064 252.82 408.843 253.051ZM398.897 252.867C397.537 252.874 396.526 253.02 395.884 253.33C394.555 253.971 393.236 255.587 392.415 257.627C391.599 259.658 391.307 262.033 391.947 264.136C391.99 264.279 392.033 264.422 392.075 264.567C392.631 266.43 393.251 268.511 395.894 271.122C398.765 273.958 404.035 277.426 414.223 281.818L414.229 281.82L414.234 281.822C414.292 281.85 414.361 281.88 414.44 281.914C414.91 282.117 415.755 282.481 417.005 283.475C418.457 284.63 420.455 286.631 423.112 290.227C425.766 293.818 427.179 296.233 427.951 297.834C428.616 299.214 428.805 299.992 428.896 300.366C428.911 300.429 428.923 300.48 428.935 300.521C429.785 303.56 430.068 307.426 430.274 311.689C430.314 312.531 430.351 313.389 430.39 314.26C430.545 317.817 430.71 321.597 431.131 325.415C432.182 334.92 434.815 344.559 442.76 351.342L442.77 351.351L469.969 377.825L512.105 378.53C511.682 376.968 510.659 374.669 509.297 371.99C507.799 369.041 505.911 365.673 504.02 362.395C502.807 360.294 501.597 358.234 500.488 356.347C499.866 355.291 499.277 354.287 498.738 353.362C497.245 350.805 496.114 348.811 495.77 347.94C495.566 347.423 495.233 346.393 494.778 344.983L494.721 344.807C494.234 343.298 493.607 341.362 492.839 339.122C491.305 334.64 489.211 328.944 486.558 323.032C483.903 317.12 480.694 311 476.929 305.667C473.163 300.332 468.856 295.806 464.017 293.056L463.977 293.033L463.943 293.001C456.687 286.116 441.058 270.982 436.742 265.659C434.074 262.371 431.423 259.881 428.276 258.097C425.13 256.313 421.465 255.221 416.754 254.76C413.973 254.489 411.239 254.134 408.711 253.806C406.932 253.575 405.254 253.357 403.734 253.191C401.879 252.988 400.243 252.86 398.897 252.867Z" fill="#393E46"/>
<path d="M397.429 265.772C394.436 262.687 396.171 257.823 397.413 255.777C400.166 252.185 415.046 256.31 415.794 259.009C416.542 261.708 412.753 271.421 409.948 271.564C407.143 271.706 401.17 269.629 397.429 265.772Z" fill="white"/>
<path fill-rule="evenodd" clip-rule="evenodd" d="M415.132 257.641C415.631 258.016 416.033 258.441 416.162 258.906C416.273 259.304 416.293 259.801 416.254 260.344C416.214 260.893 416.113 261.515 415.963 262.174C415.663 263.492 415.164 264.986 414.554 266.397C413.945 267.805 413.217 269.147 412.455 270.152C412.073 270.655 411.675 271.085 411.268 271.397C410.864 271.707 410.425 271.922 409.968 271.945C408.484 272.02 406.228 271.513 403.891 270.519C401.545 269.521 399.07 268.012 397.156 266.038C395.553 264.386 395.231 262.267 395.454 260.34C395.677 258.417 396.444 256.637 397.087 255.577L397.098 255.559L397.111 255.543C397.516 255.013 398.126 254.651 398.841 254.41C399.558 254.17 400.406 254.043 401.325 254.004C403.163 253.926 405.34 254.196 407.438 254.66C409.538 255.124 411.581 255.788 413.153 256.512C413.939 256.873 414.619 257.255 415.132 257.641ZM397.728 255.993C398.012 255.632 398.465 255.344 399.084 255.136C399.711 254.926 400.483 254.806 401.358 254.769C403.107 254.694 405.214 254.952 407.274 255.407C409.332 255.862 411.321 256.511 412.835 257.207C413.592 257.556 414.219 257.912 414.673 258.253C415.143 258.606 415.369 258.901 415.427 259.111C415.504 259.388 415.528 259.785 415.492 260.289C415.456 260.789 415.363 261.371 415.219 262.004C414.931 263.27 414.448 264.719 413.854 266.092C413.259 267.467 412.56 268.749 411.847 269.689C411.49 270.16 411.138 270.533 410.804 270.79C410.467 271.048 410.174 271.169 409.93 271.181C408.609 271.248 406.475 270.788 404.189 269.815C401.912 268.846 399.53 267.388 397.703 265.505C396.313 264.073 396.006 262.216 396.212 260.429C396.418 258.648 397.132 256.981 397.728 255.993Z" fill="#393E46"/>
<path d="M510.254 369.903L425.693 377.872C419.682 381.582 428.198 397.868 433.207 405.548C470.473 409.257 511.483 404.003 527.329 400.911C531.423 393.15 519.006 372.227 510.254 369.903Z" fill="#393E46"/>
<path fill-rule="evenodd" clip-rule="evenodd" d="M510.285 369.516L510.351 369.533C512.639 370.141 515.115 371.944 517.463 374.371C519.82 376.807 522.084 379.91 523.94 383.179C525.796 386.447 527.255 389.898 527.99 393.031C528.722 396.15 528.755 399.026 527.667 401.09L527.581 401.252L527.402 401.287C511.533 404.383 470.484 409.644 433.168 405.929L432.987 405.911L432.887 405.758C430.373 401.904 426.976 395.885 424.959 390.353C423.952 387.59 423.277 384.919 423.245 382.687C423.213 380.457 423.825 378.576 425.493 377.547L425.569 377.5L510.285 369.516ZM425.819 378.245C424.535 379.081 423.979 380.608 424.009 382.676C424.039 384.782 424.68 387.358 425.676 390.09C427.64 395.476 430.941 401.355 433.426 405.186C470.452 408.841 511.144 403.658 527.073 400.572C527.95 398.761 527.945 396.177 527.247 393.206C526.533 390.162 525.107 386.78 523.277 383.557C521.447 380.335 519.221 377.286 516.915 374.903C514.626 372.537 512.292 370.862 510.22 370.291L425.819 378.245Z" fill="#393E46"/>
<path fill-rule="evenodd" clip-rule="evenodd" d="M508.565 382.714C511.22 382.585 513.268 380.323 513.138 377.662C513.009 375.002 510.752 372.95 508.097 373.079C505.442 373.209 503.394 375.471 503.524 378.132C503.653 380.792 505.911 382.844 508.565 382.714ZM508.602 383.479C511.678 383.328 514.051 380.708 513.901 377.625C513.751 374.542 511.135 372.165 508.06 372.315C504.984 372.465 502.611 375.087 502.761 378.169C502.911 381.252 505.526 383.629 508.602 383.479Z" fill="white"/>
<path fill-rule="evenodd" clip-rule="evenodd" d="M509.212 396.004C510.988 395.917 512.358 394.404 512.271 392.624C512.185 390.844 510.675 389.471 508.898 389.558C507.123 389.645 505.753 391.158 505.84 392.938C505.926 394.718 507.436 396.09 509.212 396.004ZM509.249 396.768C511.447 396.66 513.141 394.788 513.034 392.586C512.927 390.385 511.059 388.687 508.861 388.794C506.664 388.901 504.97 390.773 505.077 392.975C505.184 395.177 507.052 396.875 509.249 396.768Z" fill="white"/>
<path fill-rule="evenodd" clip-rule="evenodd" d="M492.52 383.498C494.222 383.415 495.535 381.964 495.453 380.257C495.37 378.551 493.922 377.235 492.219 377.318C490.516 377.401 489.203 378.852 489.286 380.559C489.369 382.265 490.817 383.581 492.52 383.498ZM492.557 384.262C494.681 384.158 496.319 382.349 496.215 380.22C496.112 378.092 494.306 376.45 492.182 376.554C490.058 376.658 488.42 378.468 488.524 380.596C488.627 382.724 490.433 384.366 492.557 384.262Z" fill="white"/>
<path fill-rule="evenodd" clip-rule="evenodd" d="M492.088 399.238C494.451 399.123 496.272 397.11 496.157 394.743C496.042 392.376 494.034 390.551 491.672 390.666C489.31 390.781 487.488 392.794 487.603 395.161C487.718 397.528 489.727 399.353 492.088 399.238ZM492.126 400.002C494.909 399.866 497.055 397.495 496.919 394.706C496.784 391.917 494.417 389.766 491.634 389.902C488.852 390.038 486.705 392.409 486.841 395.198C486.977 397.987 489.342 400.138 492.126 400.002Z" fill="white"/>
<path fill-rule="evenodd" clip-rule="evenodd" d="M477.121 386.648C479.482 386.533 481.304 384.52 481.189 382.153C481.073 379.786 479.066 377.961 476.703 378.077C474.342 378.192 472.52 380.204 472.635 382.571C472.751 384.938 474.759 386.763 477.121 386.648ZM477.157 387.412C479.941 387.276 482.087 384.905 481.951 382.116C481.816 379.327 479.449 377.176 476.666 377.312C473.883 377.448 471.737 379.819 471.873 382.608C472.009 385.397 474.375 387.548 477.157 387.412Z" fill="white"/>
<path fill-rule="evenodd" clip-rule="evenodd" d="M475.949 400.826C477.285 400.761 478.316 399.622 478.251 398.282C478.186 396.943 477.049 395.91 475.713 395.975C474.377 396.04 473.346 397.179 473.411 398.519C473.476 399.858 474.613 400.891 475.949 400.826ZM475.986 401.59C477.744 401.504 479.099 400.006 479.014 398.245C478.928 396.483 477.434 395.125 475.676 395.211C473.918 395.297 472.562 396.794 472.648 398.556C472.734 400.317 474.229 401.676 475.986 401.59Z" fill="white"/>
<path fill-rule="evenodd" clip-rule="evenodd" d="M458.577 401.675C461.452 401.534 463.668 399.085 463.528 396.204C463.388 393.323 460.944 391.102 458.069 391.242C455.195 391.383 452.978 393.832 453.118 396.712C453.258 399.593 455.702 401.815 458.577 401.675ZM458.614 402.439C461.91 402.277 464.451 399.47 464.291 396.167C464.13 392.864 461.328 390.317 458.032 390.478C454.737 390.639 452.195 393.447 452.356 396.749C452.516 400.052 455.318 402.599 458.614 402.439Z" fill="white"/>
<path fill-rule="evenodd" clip-rule="evenodd" d="M455.217 384.522C456.7 384.449 457.844 383.186 457.772 381.699C457.699 380.213 456.438 379.066 454.955 379.139C453.472 379.212 452.329 380.475 452.401 381.961C452.473 383.448 453.734 384.594 455.217 384.522ZM455.255 385.285C457.158 385.192 458.627 383.57 458.534 381.662C458.441 379.753 456.823 378.282 454.918 378.375C453.014 378.468 451.546 380.09 451.639 381.999C451.731 383.907 453.35 385.378 455.255 385.285Z" fill="white"/>
<path fill-rule="evenodd" clip-rule="evenodd" d="M434.922 390.841C437.503 390.715 439.494 388.515 439.368 385.928C439.242 383.341 437.047 381.346 434.466 381.472C431.884 381.598 429.893 383.798 430.019 386.385C430.145 388.972 432.34 390.967 434.922 390.841ZM434.959 391.605C437.961 391.459 440.277 388.9 440.131 385.891C439.984 382.882 437.432 380.561 434.428 380.708C431.426 380.855 429.11 383.413 429.257 386.422C429.403 389.431 431.956 391.752 434.959 391.605Z" fill="white"/>
<path fill-rule="evenodd" clip-rule="evenodd" d="M438.921 404.766C440.697 404.679 442.067 403.166 441.98 401.386C441.894 399.606 440.384 398.234 438.608 398.32C436.832 398.407 435.462 399.92 435.549 401.7C435.635 403.48 437.146 404.853 438.921 404.766ZM438.959 405.53C441.155 405.423 442.85 403.551 442.743 401.349C442.636 399.147 440.768 397.449 438.57 397.556C436.374 397.664 434.679 399.536 434.786 401.738C434.893 403.939 436.761 405.637 438.959 405.53Z" fill="white"/>
<path fill-rule="evenodd" clip-rule="evenodd" d="M83.474 86.9912C96.6576 73.8216 112.667 65.1485 135.189 64.6808C196.017 63.3725 222.941 109.367 193.406 161.158C176.193 191.344 193.354 192.591 202.992 185.899C206.886 183.174 208.291 184.191 206.541 188.36C198.536 207.068 127.143 237.088 82.8602 193.5C64.2382 175.197 57.4226 155.306 62.1089 133.07C64.0582 123.826 66.2596 124.348 64.8982 133.781C63.8298 141.002 64.2561 149.2 66.007 155.676C69.012 166.692 76.0523 178.283 85.0766 186.976C111.402 212.284 149.205 216.329 178.803 202.781C181.893 201.343 192.097 195.79 192.486 195.306C192.846 194.857 171.242 192.762 187.572 164.881C195.641 151.063 198.514 144.784 200.546 136.289C207.706 106.428 188.829 81.4869 153.309 73.8158C108.813 64.2056 86.5355 85.5875 72.2131 112.81C67.8282 121.115 65.3158 120.343 68.9612 111.328C73.0306 101.003 78.3587 92.0909 83.474 86.9912Z" fill="#6A727F"/>
<path d="M105.416 164.162L91.6295 153.295C90.8761 152.727 90.6298 151.725 91.082 151.069C93.2915 147.862 97.5478 146.767 101.73 148.329L114.199 155.417L105.416 164.162Z" fill="white"/>
<path fill-rule="evenodd" clip-rule="evenodd" d="M91.6295 153.295L105.416 164.162L114.199 155.417L101.73 148.329C97.5478 146.767 93.2915 147.862 91.082 151.069C90.6298 151.725 90.8761 152.727 91.6295 153.295ZM101.408 149.025L112.947 155.585L105.357 163.142L92.0951 152.688L92.0881 152.683C91.5672 152.291 91.5528 151.731 91.7097 151.504C93.6734 148.654 97.5051 147.591 101.408 149.025Z" fill="#393E46"/>
<path d="M110.042 168.798L120.914 182.643C121.481 183.397 122.481 183.645 123.135 183.191L123.957 182.622C126.664 180.75 127.588 177.142 126.27 173.596L118.797 160.025L110.042 168.798Z" fill="white"/>
<path fill-rule="evenodd" clip-rule="evenodd" d="M123.957 182.622C126.664 180.75 127.588 177.142 126.27 173.596L118.797 160.025L110.042 168.798L120.914 182.643C121.481 183.397 122.481 183.645 123.135 183.191L123.957 182.622ZM111.061 168.859L121.519 182.176L121.524 182.182C121.916 182.705 122.474 182.72 122.701 182.562L123.523 181.993C125.875 180.366 126.767 177.182 125.574 173.916L118.619 161.285L111.061 168.859Z" fill="#393E46"/>
<path d="M109.151 121.602C107.42 119.867 107.283 117.102 108.829 115.2C111.042 112.479 113.814 109.45 115.476 107.784C117.751 105.504 117.95 105.776 120.38 104.283C120.738 104.063 121.2 104.117 121.497 104.414L126.303 109.23C126.599 109.528 126.652 109.99 126.433 110.349C124.943 112.784 125.215 112.983 122.94 115.263C121.277 116.929 118.255 119.707 115.54 121.924C113.641 123.474 110.883 123.337 109.151 121.602Z" fill="white"/>
<path d="M130.856 138.025L147.865 120.98L95.175 104.389C94.0899 104.112 93.0117 104.376 92.2935 105.096L87.8422 109.557C86.3515 111.051 86.9913 113.789 89.0958 114.922L130.856 138.025Z" fill="white"/>
<path fill-rule="evenodd" clip-rule="evenodd" d="M89.461 114.25L130.722 137.077L146.434 121.331L94.9674 105.126C94.1182 104.915 93.3342 105.135 92.8335 105.636L88.3822 110.098C87.8555 110.625 87.6767 111.397 87.8641 112.2C88.0522 113.005 88.6026 113.788 89.4569 114.248L89.461 114.25ZM95.175 104.389L147.865 120.98L130.856 138.025L89.0958 114.922C86.9913 113.789 86.3515 111.051 87.8422 109.557L92.2935 105.096C93.0117 104.376 94.0899 104.112 95.175 104.389Z" fill="#393E46"/>
<path d="M136.153 143.332L153.162 126.288L169.717 179.09C169.993 180.178 169.729 181.259 169.012 181.978L164.56 186.439C163.07 187.932 160.336 187.291 159.207 185.182L136.153 143.332Z" fill="white"/>
<path fill-rule="evenodd" clip-rule="evenodd" d="M159.877 184.816L159.879 184.82C160.338 185.677 161.119 186.228 161.922 186.417C162.723 186.605 163.494 186.425 164.02 185.897L168.472 181.437C168.973 180.935 169.192 180.149 168.982 179.298L152.811 127.721L137.099 143.467L159.877 184.816ZM136.153 143.332L153.162 126.288L169.717 179.09C169.993 180.178 169.729 181.259 169.012 181.978L164.56 186.439C163.07 187.932 160.336 187.291 159.207 185.182L136.153 143.332Z" fill="#393E46"/>
<path d="M168.256 119.122L139.681 147.758C134.887 152.562 129.789 157.044 124.453 161.147L110.858 171.598C107.71 174.018 103.967 174.311 101.955 172.295C99.9435 170.278 100.235 166.527 102.65 163.373L113.079 149.749C117.173 144.401 121.645 139.293 126.44 134.488L155.014 105.852C158.92 101.938 163.406 98.6758 168.146 96.4368C172.228 94.5081 176.566 93.3004 178.673 95.4123C180.78 97.5242 179.575 101.872 177.651 105.962C175.417 110.712 172.162 115.207 168.256 119.122Z" fill="white"/>
<path fill-rule="evenodd" clip-rule="evenodd" d="M103.255 163.839C100.947 166.855 100.88 170.135 102.495 171.754C104.11 173.372 107.383 173.305 110.393 170.991L110.858 171.598C107.71 174.018 103.967 174.311 101.955 172.295C99.9435 170.278 100.235 166.527 102.65 163.373L113.079 149.749C117.173 144.401 121.645 139.293 126.44 134.488L155.014 105.852C158.92 101.938 163.406 98.6758 168.146 96.4368C172.228 94.5081 176.566 93.3004 178.673 95.4123C180.78 97.5242 179.575 101.872 177.651 105.962L176.96 105.635C177.909 103.617 178.656 101.586 178.919 99.8315C179.184 98.0567 178.93 96.7518 178.133 95.9529C177.336 95.1545 176.034 94.9001 174.263 95.166C172.513 95.4291 170.485 96.1772 168.471 97.1288C163.821 99.3262 159.405 102.534 155.554 106.393L126.979 135.028C122.208 139.81 117.758 144.893 113.685 150.215L103.255 163.839ZM177.651 105.962C175.417 110.712 172.162 115.207 168.256 119.122L139.681 147.758C134.887 152.562 129.789 157.044 124.453 161.147L110.858 171.598L110.393 170.991L123.988 160.54C129.298 156.458 134.37 151.998 139.141 147.216L167.716 118.581C171.567 114.722 174.768 110.297 176.96 105.635L177.651 105.962Z" fill="#393E46"/>
<path d="M170.624 113.638L169.648 114.616C168.742 115.524 158.606 105.365 159.511 104.457L160.487 103.48C161.102 102.863 162.005 102.669 162.74 102.995C166.403 104.618 169.487 107.71 171.108 111.38C171.433 112.117 171.239 113.021 170.624 113.638Z" fill="white"/>
<path fill-rule="evenodd" clip-rule="evenodd" d="M169.344 113.838L170.084 113.097C170.5 112.68 170.594 112.107 170.41 111.69C168.866 108.193 165.921 105.241 162.432 103.695C162.014 103.51 161.443 103.603 161.027 104.021L160.287 104.762C160.298 104.784 160.31 104.807 160.324 104.833C160.484 105.135 160.776 105.561 161.185 106.082C161.997 107.116 163.185 108.419 164.44 109.676C165.695 110.934 166.995 112.125 168.027 112.938C168.548 113.349 168.972 113.641 169.273 113.801C169.299 113.815 169.322 113.827 169.344 113.838ZM169.648 114.616L170.624 113.638C171.239 113.021 171.433 112.117 171.108 111.38C169.487 107.71 166.403 104.618 162.74 102.995C162.005 102.669 161.102 102.863 160.487 103.48L159.511 104.457C158.606 105.365 168.742 115.524 169.648 114.616Z" fill="#393E46"/>
<path d="M105.043 170.562C104.695 170.562 104.347 170.429 104.083 170.163C103.552 169.632 103.552 168.769 104.083 168.238L115.948 156.347C116.478 155.815 117.339 155.815 117.869 156.347C118.4 156.879 118.4 157.741 117.869 158.272L106.004 170.163C105.738 170.429 105.391 170.562 105.043 170.562Z" fill="white"/>
<path fill-rule="evenodd" clip-rule="evenodd" d="M104.622 169.623C104.738 169.739 104.89 169.797 105.043 169.797C105.197 169.797 105.348 169.739 105.464 169.623L117.329 157.732H117.33C117.562 157.499 117.562 157.121 117.329 156.888C117.097 156.656 116.72 156.655 116.487 156.888L104.622 168.779V168.779C104.39 169.012 104.39 169.39 104.622 169.623ZM104.083 168.238C103.552 168.769 103.552 169.632 104.083 170.163C104.347 170.429 104.695 170.562 105.043 170.562C105.391 170.562 105.738 170.429 106.004 170.163L117.869 158.272C118.4 157.741 118.4 156.879 117.869 156.347C117.339 155.815 116.478 155.815 115.948 156.347L104.083 168.238Z" fill="#393E46"/>
</svg>
