<svg width="66" height="86" viewBox="0 0 66 86" fill="none" xmlns="http://www.w3.org/2000/svg">
<path d="M63 12.4315C57.9496 4.43795 46.199 1.55009 37.9837 6.29396C36.0125 7.35485 34.369 8.92999 33.2296 10.8502C30.5765 15.6544 32.7044 21.6445 35.4585 26.3884C37.4787 29.9061 39.3574 32.8476 42.6032 35.253C48.3741 39.5145 56.4345 32.5729 51.8824 27.0719C51.8353 27.0183 37.9635 14.2741 22.1524 26.3683C19.2434 28.5996 18.1996 30.7705 16.8663 34.1743C15.533 37.5781 15.9842 42.791 16.8058 45.4845C18.4556 50.9118 19.102 53.9873 23.7551 59.6894C25.6271 61.9809 28.8796 64.5069 31.8357 65.3847C32.6428 65.6492 33.5023 65.7155 34.3407 65.5778C35.1791 65.4401 35.9715 65.1026 36.6504 64.594C39.2228 62.5437 38.8255 57.7261 37.445 54.9589C34.5764 49.1965 30.1388 45.3907 23.7551 44.4058C17.3714 43.4208 8.94062 46.7509 5.86325 52.3859C3.0485 57.4916 3.66127 63.9374 6.1124 69.224C8.56352 74.5106 12.6442 78.8592 16.7586 83" stroke="#A6B5FF" stroke-width="7" stroke-miterlimit="10"/>
</svg>
