<svg width="15" height="15" viewBox="0 0 15 15" fill="none" xmlns="http://www.w3.org/2000/svg">
<path d="M10.9706 10.4688C10.0915 9.58981 8.89934 9.09602 7.65623 9.09602C6.41312 9.09602 5.22092 9.58981 4.34186 10.4688M11.25 2.37752C10.3887 1.88026 9.36514 1.74551 8.40449 2.0029C7.44384 2.26029 6.62478 2.88875 6.12748 3.75002L12.6225 7.50002C13.1197 6.63872 13.2545 5.61517 12.9971 4.65452C12.7397 3.69387 12.1113 2.87482 11.25 2.37752Z" stroke="black" stroke-width="2" stroke-linecap="round" stroke-linejoin="round"/>
<path d="M10.4575 6.25005C11.4938 4.4563 11.8481 2.72255 11.25 2.37755C10.6519 2.03255 9.32812 3.2063 8.2925 5.00005M9.375 5.62505L7.5 8.87255M1.875 12.0313C2.06956 11.9346 2.28281 11.8813 2.5 11.875C2.74344 11.87 2.98445 11.9242 3.20223 12.0331C3.42002 12.142 3.60802 12.3022 3.75 12.5C3.89198 12.6979 4.07998 12.8581 4.29777 12.967C4.51555 13.0759 4.75656 13.1301 5 13.125C5.24344 13.1301 5.48445 13.0759 5.70224 12.967C5.92002 12.8581 6.10802 12.6979 6.25 12.5C6.39198 12.3022 6.57998 12.142 6.79776 12.0331C7.01555 11.9242 7.25656 11.87 7.5 11.875C7.74344 11.87 7.98445 11.9242 8.20224 12.0331C8.42002 12.142 8.60802 12.3022 8.75 12.5C8.89198 12.6979 9.07998 12.8581 9.29776 12.967C9.51555 13.0759 9.75656 13.1301 10 13.125C10.2434 13.1301 10.4845 13.0759 10.7022 12.967C10.92 12.8581 11.108 12.6979 11.25 12.5C11.392 12.3022 11.58 12.142 11.7978 12.0331C12.0155 11.9242 12.2566 11.87 12.5 11.875C12.7172 11.8813 12.9304 11.9346 13.125 12.0313" stroke="black" stroke-width="2" stroke-linecap="round" stroke-linejoin="round"/>
</svg>
