<svg width="179" height="125" viewBox="0 0 179 125" fill="none" xmlns="http://www.w3.org/2000/svg">
    <path
        d="M40.2273 76.888C49.5837 92.2557 37.5258 99.3542 41.5088 109.415C42.8166 112.717 55.9237 128.647 65.1595 110.41C68.4876 103.839 69.2555 103.229 79.5999 97.9354C89.9442 92.6418 97.4703 83.2775 92.8085 71.5912C88.1469 59.9049 96.2606 63.7387 104.155 52.437C112.049 41.135 93.27 15.5018 73.7341 12.8803C54.1983 10.2589 59.6094 22.95 42.8842 30.237C26.1591 37.5241 24.931 59.3097 32.8465 67.6233C40.7617 75.937 37.1073 71.7635 40.2273 76.888Z"
        fill="#00ADB5" />
    <path
        d="M137.856 48.825C151.677 51.4922 154.792 39.4844 163.412 39.4993C166.243 39.5042 181.249 45.0241 168.906 58.2992C164.459 63.0826 164.138 63.8977 162.084 73.9455C160.031 83.9931 154.249 93.0596 144.228 93.0142C134.208 92.9688 138.809 98.3061 131.593 108.287C124.378 118.269 100.691 111.255 94.7537 96.299C88.8163 81.343 99.7677 81.674 102.098 65.8334C104.429 49.9931 121.13 42.0604 129.176 45.8102C137.223 49.5599 133.247 47.9354 137.856 48.825Z"
        fill="#ADFBFF" />
    <path
        d="M118.925 75.3681C118.925 95.1176 102.159 111.128 81.477 111.128C60.7952 111.128 44.0293 95.1176 44.0293 75.3681C44.0293 55.6186 60.7952 39.6084 81.477 39.6084C102.159 39.6084 118.925 55.6186 118.925 75.3681Z"
        fill="white" />
    <path fill-rule="evenodd" clip-rule="evenodd"
        d="M81.477 110.91C102.048 110.91 118.707 94.9888 118.707 75.3681C118.707 55.7474 102.048 39.8257 81.477 39.8257C60.9062 39.8257 44.2469 55.7474 44.2469 75.3681C44.2469 94.9888 60.9062 110.91 81.477 110.91ZM81.477 111.128C102.159 111.128 118.925 95.1176 118.925 75.3681C118.925 55.6186 102.159 39.6084 81.477 39.6084C60.7952 39.6084 44.0293 55.6186 44.0293 75.3681C44.0293 95.1176 60.7952 111.128 81.477 111.128Z"
        fill="#393E46" />
    <path
        d="M56.5213 62.83C55.9671 62.6011 53.6782 62.401 52.603 62.3295C49.4682 64.5419 47.3785 68.8141 46.7254 70.6736C46.805 70.8007 46.9785 71.1504 47.036 71.5319C47.1076 72.0087 46.5342 73.0815 46.3669 73.8921C46.1997 74.7027 48.0872 77.3012 48.4218 77.7543C48.7561 78.2072 51.6233 79.8045 51.91 80.0192C52.1968 80.2337 52.9375 81.0919 53.0569 83.023C53.1764 84.9541 54.8966 85.6456 55.8522 86.2654C56.6169 86.7613 56.5372 88.1726 56.4019 88.8163C55.9001 92.5594 57.047 92.5116 57.1424 92.6785C57.219 92.812 57.5885 92.9089 57.7638 92.9408V92.7978C57.8115 91.9157 59.1734 89.4363 60.2725 88.5779C61.3715 87.7197 60.9653 86.9806 61.4671 85.6456C61.9687 84.3104 61.9687 84.072 61.8733 83.643C61.7777 83.2138 58.17 80.782 57.1664 80.639C56.163 80.496 54.2515 80.4721 53.5586 80.2337C52.8657 79.9953 51.4561 78.3265 51.1455 77.9212C50.8349 77.5159 51.1455 76.7292 51.4561 76.1807C51.7667 75.6324 53.1525 75.5848 54.5622 75.3703C55.9718 75.1556 59.03 71.1743 59.5795 70.4353C60.1292 69.6962 59.3168 68.671 58.5761 67.6697C57.8354 66.6685 58.4566 65.6195 58.5761 64.9758C58.6955 64.3321 57.2143 63.1162 56.5213 62.83Z"
        fill="#F0F0F0" />
    <path
        d="M105.41 85.9536C105.138 85.4198 103.532 83.781 102.762 83.0282C98.9392 82.6714 94.5655 84.5568 92.8565 85.5441C92.8341 85.6923 92.7376 86.0705 92.5324 86.3973C92.2758 86.8059 89.5997 84.4721 88.9441 84.9787C88.2882 85.4855 86.449 89.6148 86.4074 90.1759C86.3657 90.737 88.2873 95.9299 88.3651 96.2789C88.4426 96.6281 88.9186 97.3343 87.7493 98.8778C86.5802 100.421 89.2911 102.217 89.6122 103.308C89.869 104.181 85.9306 102.908 85.408 103.308C82.585 105.823 85.2116 107.848 85.2645 108.033C85.3124 108.199 86.3708 108.634 86.483 108.772L87.0325 108.629C87.3671 108.676 90.0644 107.872 91.4587 107.935C92.8528 107.997 93.0267 107.172 94.2786 106.485C95.5306 105.797 95.4565 105.284 95.8934 105.229C107.747 103.717 104.856 98.4221 104.187 97.6617C103.519 96.9013 97.2945 96.91 96.924 96.2789C96.5536 95.6479 93.4596 96.2789 92.8565 95.7067C92.4861 95.3553 92.8662 94.4143 93.4596 94.2C94.0532 93.9855 94.531 93.447 95.7411 94.2C96.9511 94.9527 101.87 93.9171 102.77 93.7131C103.669 93.509 103.721 92.2032 103.812 90.9621C103.903 89.7207 105.059 89.3281 105.57 88.9171C106.08 88.5061 105.749 86.6208 105.41 85.9536Z"
        fill="#F0F0F0" />
    <path
        d="M82.7296 48.8288C85.2458 48.405 83.8215 47.5151 84.6094 45.0021C85.2113 43.0822 87.1747 42.456 88.2067 42.3646L89.2705 42.1996C90.3799 42.4633 93.7456 43.4631 97.6388 46.0149C103.114 49.6034 107.059 56.3444 108.169 61.3217C108.923 64.7048 97.7512 75.7453 85.07 72.1318C77.4926 69.9726 77.2094 62.0667 77.1204 59.5772L77.1194 59.5514C77.0262 56.9489 74.5574 57.407 74.4463 56.0338C74.3354 54.6605 75.4086 53.8341 77.1787 54.0203C78.9488 54.2062 78.7693 52.905 79.6229 50.5422C80.306 48.6518 81.9786 48.6122 82.7296 48.8288Z"
        fill="#F0F0F0" />
    <path
        d="M106.039 20.2339C132.153 20.3257 137.227 45.331 136.063 57.8494C139.021 58.0428 138.701 57.8651 138.681 56.9858C137.91 42.629 136.393 36.5743 130.611 28.4901C122.541 18.8002 108.709 17.0421 101.944 17.6537C80.0223 19.3966 64.5447 41.964 59.5459 53.03L62.3163 53.8324L62.6775 53.03C75.7824 24.7291 97.0458 19.374 106.039 20.2339Z"
        fill="#D9D9D9" />
    <path fill-rule="evenodd" clip-rule="evenodd"
        d="M115.773 19.2609C110.467 17.6887 105.325 17.4025 101.949 17.7078H101.948C91.0054 18.5779 81.6669 24.6461 74.4375 31.884C67.2329 39.0969 62.1278 47.4669 59.6215 52.9951L62.286 53.7671L62.628 53.0076L62.6284 53.0071C75.7412 24.6891 97.023 19.3186 106.042 20.1797C119.119 20.2264 126.932 26.5126 131.328 34.3553C135.709 42.1714 136.694 51.5317 136.122 57.7988C136.833 57.8447 137.349 57.8686 137.722 57.8655C138.108 57.8622 138.334 57.8303 138.466 57.7704C138.53 57.7413 138.57 57.7067 138.596 57.6671C138.622 57.6269 138.636 57.5772 138.642 57.5137C138.649 57.4496 138.646 57.375 138.641 57.2863C138.64 57.2656 138.639 57.2439 138.637 57.2218C138.633 57.1506 138.629 57.0722 138.627 56.9879C138.241 49.8108 137.669 44.7129 136.473 40.4003C135.276 36.0893 133.455 32.5608 130.568 28.5234C126.542 23.6899 121.077 20.8331 115.773 19.2609ZM115.804 19.1569C121.123 20.7332 126.609 23.5999 130.653 28.4555L130.654 28.4569L130.655 28.4586C133.549 32.5047 135.377 36.045 136.577 40.3714C137.778 44.696 138.35 49.8038 138.735 56.983L138.736 56.9839V56.9846C138.737 57.067 138.742 57.1428 138.746 57.2138C138.747 57.2365 138.749 57.2586 138.75 57.2805C138.755 57.3689 138.758 57.451 138.751 57.5242C138.743 57.598 138.726 57.6662 138.687 57.7259C138.648 57.7862 138.591 57.8334 138.511 57.8693C138.356 57.9397 138.109 57.9709 137.723 57.974C137.335 57.9771 136.799 57.9519 136.06 57.9036L136.004 57.8999L136.009 57.8443C136.59 51.5933 135.614 42.224 131.233 34.4082C126.854 26.5961 119.074 20.3341 106.039 20.2883H106.037L106.034 20.2881C97.0648 19.4302 75.823 24.7716 62.7273 53.0525L62.7271 53.0526L62.3466 53.8977L59.4707 53.0646L59.4964 53.0076C61.998 47.4695 67.1207 39.0556 74.3603 31.8075C81.5997 24.5596 90.961 18.4726 101.94 17.5995C105.329 17.2932 110.485 17.5805 115.804 19.1569Z"
        fill="#393E46" />
    <path fill-rule="evenodd" clip-rule="evenodd"
        d="M54.7794 43.4385C56.0049 41.7874 58.0215 40.9394 60.0623 41.2175C62.0958 41.5222 63.8373 42.8781 64.6534 44.7914C65.4355 46.7045 65.1609 48.9372 64.45 50.8776C64.0412 52.0012 63.503 53.0706 62.8464 54.0644C62.7755 54.1593 62.688 54.2401 62.5879 54.303C62.4829 54.343 62.3693 54.3558 62.2574 54.3402C60.4699 54.0405 58.7463 53.4178 57.1696 52.5022C55.8515 51.7387 54.7924 50.5869 54.136 49.2031C53.3084 47.2905 53.5541 45.0899 54.7794 43.4385ZM58.066 48.4515C58.6333 49.0097 59.4731 49.1717 60.1933 48.862C60.6667 48.6624 61.0387 48.2787 61.2266 47.7964C61.4147 47.3142 61.4029 46.7734 61.194 46.2945C60.8803 45.5615 60.1626 45.0859 59.3761 45.0899C58.5896 45.0938 57.8895 45.5767 57.6027 46.3128C57.3157 47.049 57.4986 47.8932 58.066 48.4515Z"
        fill="#393E46" />
    <path fill-rule="evenodd" clip-rule="evenodd"
        d="M60.0931 41.0026L60.0946 41.0028C62.204 41.3189 64.0085 42.7247 64.8534 44.7064L64.8541 44.7079L64.8547 44.7093C65.6655 46.692 65.3748 48.9851 64.6544 50.9519C64.2399 52.0914 63.6941 53.1761 63.028 54.1839L63.0247 54.1891L63.0209 54.1941C62.9341 54.3104 62.8267 54.4098 62.7037 54.4868L62.6856 54.4983L62.6655 54.5059C62.526 54.559 62.3752 54.576 62.2272 54.5554L62.2241 54.5549L62.2212 54.5544C60.4077 54.2503 58.6592 53.6186 57.06 52.6899C55.7035 51.9043 54.6142 50.7192 53.9391 49.2961L53.9375 49.2928L53.9362 49.2893C53.0782 47.3068 53.332 45.0239 54.6043 43.3094C55.877 41.5944 57.9723 40.7136 60.0917 41.0022L60.0931 41.0026ZM57.1695 52.5022C58.7463 53.4179 60.4698 54.0405 62.2573 54.3402C62.3692 54.3558 62.4828 54.343 62.588 54.303C62.6879 54.2403 62.7755 54.1593 62.8463 54.0644C63.5029 53.0706 64.0411 52.0012 64.4499 50.8776C65.1607 48.9372 65.4354 46.7045 64.6532 44.7914C63.8372 42.8781 62.0957 41.5223 60.0622 41.2175C58.0216 40.9396 56.0047 41.7874 54.7792 43.4387C53.5539 45.0899 53.3082 47.2905 54.1359 49.2033C54.7922 50.5869 55.8513 51.7387 57.1695 52.5022ZM60.1078 48.6622L60.1085 48.6619C60.527 48.4855 60.8569 48.1459 61.0236 47.7178C61.1905 47.2895 61.1805 46.808 60.9943 46.3812L60.9936 46.3798C60.7135 45.7254 60.0742 45.3035 59.3772 45.3071C58.6809 45.3106 58.0603 45.7377 57.8054 46.3916C57.5503 47.0462 57.7127 47.799 58.2187 48.2969C58.7243 48.7943 59.47 48.9366 60.1071 48.6626L60.1078 48.6622ZM60.1932 48.862C59.473 49.1717 58.6332 49.0097 58.0658 48.4515C57.4986 47.8933 57.3157 47.049 57.6026 46.3128C57.8895 45.5767 58.5896 45.0938 59.376 45.0899C60.1625 45.0859 60.8801 45.5615 61.1938 46.2945C61.4027 46.7734 61.4145 47.3142 61.2266 47.7964C61.0385 48.2787 60.6665 48.6624 60.1932 48.862Z"
        fill="#393E46" />
    <path
        d="M142.639 100.174C141.936 104.584 144.619 107.623 147.019 109.512L148.339 110.523H165.97C165.659 110.149 164.67 108.647 163.2 105.641C161.362 101.884 160.11 95.9894 159.791 92.7046C159.471 89.4198 158.663 87.4545 157.677 86.0145C156.692 84.5746 154.244 82.1032 152.832 80.4159C151.421 78.7284 144.146 79.2689 141.43 79.5388C138.713 79.8089 131.228 79.8082 129.284 80.7306C127.729 81.4685 127.954 81.9223 127.819 82.5294C127.819 84.1709 130.272 84.0576 131.4 83.8177V84.5151C130.526 84.965 128.844 85.7445 128.383 86.2169C127.684 88.353 129.892 88.8253 131.019 88.4879C131.632 88.1729 133.397 88.2363 134.036 88.9924C134.676 89.7483 132.164 88.8925 131.019 89.1851L128.968 91.7258C128.541 93.1305 129.433 94.2216 131.222 93.7045C133.807 92.9571 139.683 95.2471 140.402 97.1368C140.977 98.6487 142.133 99.5666 142.639 99.8367C142.932 98.1118 143.342 95.7644 142.639 100.174Z"
        fill="white" />
    <path fill-rule="evenodd" clip-rule="evenodd"
        d="M147.618 79.352C145.29 79.3101 142.797 79.5121 141.441 79.647C140.64 79.7266 139.423 79.7829 138.059 79.8459C137.105 79.8901 136.08 79.9375 135.074 79.9984C133.848 80.0729 132.648 80.1676 131.634 80.3009C130.616 80.4349 129.799 80.6063 129.331 80.8288C128.559 81.1948 128.252 81.4804 128.114 81.7313C128.045 81.8566 128.015 81.9796 127.994 82.1131C127.987 82.1555 127.981 82.201 127.975 82.2488C127.963 82.3411 127.95 82.4413 127.928 82.541C127.931 82.9145 128.07 83.1816 128.292 83.3753C128.52 83.5743 128.841 83.701 129.207 83.7725C129.942 83.9155 130.821 83.8298 131.377 83.7116L131.509 83.6835V84.5814L131.45 84.6117C131.275 84.7015 131.072 84.803 130.853 84.9119C130.517 85.0796 130.144 85.2652 129.788 85.4536C129.495 85.6082 129.216 85.7626 128.983 85.9072C128.761 86.0454 128.586 86.1705 128.478 86.2753C128.317 86.7803 128.329 87.1766 128.443 87.4827C128.559 87.7935 128.785 88.0241 129.07 88.1856C129.643 88.5099 130.44 88.545 130.979 88.3868C131.148 88.3018 131.385 88.2464 131.648 88.2195C131.918 88.1922 132.224 88.1944 132.531 88.2308C133.137 88.3028 133.773 88.5123 134.12 88.9224C134.163 88.9735 134.197 89.0229 134.219 89.0701C134.241 89.117 134.255 89.1711 134.244 89.2266C134.22 89.3494 134.101 89.3911 134.016 89.407C133.92 89.4249 133.796 89.425 133.658 89.4169C133.519 89.4086 133.357 89.3911 133.184 89.3703C133.107 89.3612 133.028 89.3513 132.947 89.3412C132.661 89.3056 132.354 89.2673 132.056 89.2462C131.688 89.2202 131.345 89.2216 131.081 89.2819L129.067 91.7774C128.869 92.4455 128.988 93.0147 129.34 93.3582C129.695 93.7048 130.319 93.8525 131.192 93.6002C131.86 93.4072 132.73 93.4122 133.662 93.5525C134.596 93.6929 135.603 93.9704 136.55 94.3303C137.497 94.6901 138.388 95.1338 139.089 95.6084C139.785 96.0798 140.311 96.5932 140.504 97.0983C141.022 98.4598 142.021 99.3295 142.558 99.6641C142.698 98.8392 142.857 97.9217 142.906 97.6833C142.909 97.6672 142.912 97.6536 142.915 97.6427C142.916 97.635 142.92 97.6205 142.924 97.6089C142.925 97.6067 142.93 97.594 142.94 97.5814L142.94 97.581C142.943 97.5764 142.961 97.553 142.995 97.5428C143.012 97.5391 143.048 97.5403 143.066 97.5457C143.081 97.5528 143.104 97.5705 143.112 97.5798C143.127 97.5982 143.131 97.6165 143.133 97.621C143.134 97.625 143.134 97.6285 143.135 97.6314C143.135 97.634 143.135 97.6359 143.135 97.6375C143.136 97.6439 143.136 97.6492 143.136 97.652C143.136 97.6622 143.135 97.675 143.133 97.6865C143.128 97.7365 143.112 97.8487 143.084 98.0346C143.029 98.4082 142.922 99.0888 142.746 100.191C142.053 104.541 144.695 107.545 147.085 109.426C147.085 109.426 147.086 109.426 147.086 109.426L148.375 110.415H165.749C165.332 109.841 164.404 108.351 163.102 105.689C161.257 101.916 160.003 96.0074 159.682 92.7152C159.364 89.4451 158.56 87.4979 157.587 86.0758C157.099 85.3631 156.246 84.3908 155.334 83.3807C155.118 83.1421 154.899 82.9017 154.681 82.6621C153.98 81.8908 153.289 81.1309 152.749 80.4855C152.587 80.2924 152.336 80.1248 152.005 79.9823C151.675 79.8402 151.273 79.7258 150.816 79.6356C149.902 79.455 148.783 79.3729 147.618 79.352ZM142.569 99.9224C142.557 99.9984 142.544 100.077 142.531 100.157C141.819 104.627 144.542 107.701 146.951 109.597L146.952 109.598L148.302 110.632H166.201L166.054 110.454C165.752 110.09 164.767 108.598 163.298 105.594C161.468 101.852 160.218 95.9713 159.899 92.6943C159.578 89.3947 158.765 87.4112 157.767 85.9534C157.269 85.2263 156.406 84.2429 155.495 83.2353C155.278 82.9952 155.058 82.7536 154.84 82.5135C154.139 81.7429 153.452 80.9879 152.916 80.3463C152.724 80.1174 152.439 79.9328 152.092 79.7829C151.743 79.6326 151.324 79.5145 150.858 79.4224C149.926 79.2382 148.793 79.1558 147.622 79.1347C145.281 79.0926 142.779 79.2957 141.419 79.4309C140.623 79.51 139.417 79.5656 138.059 79.6285C137.106 79.6724 136.076 79.7201 135.061 79.7817C133.833 79.8561 132.627 79.9512 131.606 80.0855C130.589 80.2194 129.74 80.3937 129.237 80.6326C128.453 81.0043 128.095 81.3148 127.924 81.6269C127.838 81.7831 127.802 81.9335 127.779 82.0791C127.77 82.1335 127.764 82.1847 127.757 82.2349C127.745 82.3245 127.734 82.4107 127.713 82.5059L127.71 82.5175V82.5294C127.71 82.9707 127.877 83.3013 128.148 83.5386C128.416 83.7725 128.779 83.9103 129.166 83.9856C129.883 84.1254 130.717 84.0577 131.291 83.9501V84.4489C131.135 84.5284 130.955 84.6183 130.762 84.7145C130.422 84.8838 130.043 85.0732 129.686 85.2616C129.391 85.4172 129.108 85.5745 128.868 85.7228C128.631 85.8702 128.43 86.0132 128.305 86.1413L128.287 86.1593L128.279 86.1833C128.099 86.7346 128.102 87.1904 128.239 87.5583C128.376 87.9262 128.642 88.193 128.963 88.3745C129.598 88.7341 130.463 88.768 131.05 88.5921L131.06 88.5892L131.069 88.5845C131.205 88.5147 131.415 88.4616 131.67 88.4358C131.923 88.41 132.213 88.4119 132.505 88.4465C133.095 88.5164 133.661 88.7166 133.953 89.0625C133.99 89.1058 134.011 89.1383 134.022 89.1617C134.025 89.1688 134.027 89.1742 134.028 89.1783C134.02 89.1823 134.005 89.1882 133.976 89.1936C133.908 89.2064 133.806 89.2081 133.671 89.2C133.538 89.1922 133.382 89.1754 133.21 89.1548C133.135 89.1458 133.057 89.1361 132.977 89.126C132.691 89.0904 132.376 89.0511 132.071 89.0296C131.683 89.0021 131.296 89.0021 130.992 89.0798L130.957 89.0888L128.871 91.6742L128.864 91.6943C128.643 92.4223 128.757 93.093 129.188 93.5135C129.619 93.9344 130.336 94.0738 131.252 93.8089C131.877 93.6283 132.711 93.6292 133.63 93.7671C134.546 93.905 135.538 94.178 136.473 94.5332C137.408 94.8887 138.283 95.3251 138.966 95.7881C139.655 96.2542 140.133 96.7358 140.3 97.1754C140.879 98.6981 142.035 99.6304 142.569 99.9224ZM134.036 89.1733C134.036 89.1733 134.036 89.1736 134.035 89.1743C134.035 89.1736 134.036 89.1731 134.036 89.1733Z"
        fill="#393E46" />
    <path
        d="M130.274 56.8933C130.274 54.4943 132.223 52.5493 134.627 52.5493H151.345C153.75 52.5493 155.699 54.4943 155.699 56.8933V95.9292C155.699 98.3282 153.75 100.273 151.345 100.273H134.627C132.223 100.273 130.274 98.3282 130.274 95.9292V56.8933Z"
        fill="#393E46" />
    <path
        d="M132.042 55.9671C132.042 55.9072 132.091 55.8586 132.151 55.8586H153.526C153.586 55.8586 153.635 55.9072 153.635 55.9671V97.6645C153.635 97.7244 153.586 97.773 153.526 97.773H132.151C132.091 97.773 132.042 97.7244 132.042 97.6645V55.9671Z"
        fill="white" />
    <path d="M139.63 73.098L151.514 71.3773L148.378 49.8089L136.494 51.5296L139.63 73.098Z"
        fill="white" />
    <path fill-rule="evenodd" clip-rule="evenodd"
        d="M151.638 71.4692L148.47 49.6858L136.371 51.4377L139.538 73.2209L151.638 71.4692ZM151.391 71.2853L139.722 72.9749L136.617 51.6214L148.286 49.932L151.391 71.2853Z"
        fill="#393E46" />
    <path
        d="M149.717 67.2053C147.647 67.834 147.411 69.7171 147.552 70.58L143.202 71.2098C142.889 69.062 141.047 68.5672 140.165 68.5883L138.284 55.6563C140.266 54.6749 140.549 52.9676 140.443 52.2368L144.524 51.646C145.041 53.9469 146.922 54.1773 147.797 54.0048L149.717 67.2053Z"
        fill="#F3F3F3" />
    <path fill-rule="evenodd" clip-rule="evenodd"
        d="M149.838 67.282L147.889 53.876L147.777 53.8982C147.358 53.9806 146.695 53.9668 146.076 53.6558C145.462 53.3475 144.882 52.7422 144.63 51.6221L144.608 51.5241L140.32 52.1449L140.335 52.2524C140.436 52.9439 140.17 54.6015 138.236 55.5589L138.166 55.5938L140.071 68.6991L140.168 68.6969C140.591 68.6868 141.25 68.8011 141.839 69.1771C142.424 69.5506 142.943 70.1844 143.095 71.2254L143.11 71.3329L147.677 70.6716L147.66 70.5625C147.592 70.1489 147.615 69.4846 147.905 68.8497C148.193 68.2192 148.746 67.6139 149.749 67.3092L149.838 67.282ZM149.596 67.1297C148.585 67.4621 148.01 68.0952 147.707 68.7597C147.421 69.3864 147.377 70.0379 147.43 70.4881L143.293 71.0869C143.112 70.0426 142.57 69.3864 141.956 68.9941C141.368 68.6186 140.717 68.4867 140.259 68.4794L138.404 55.7178C140.282 54.7524 140.632 53.1354 140.563 52.3291L144.441 51.7677C144.718 52.8871 145.322 53.5204 145.978 53.8497C146.595 54.1596 147.249 54.1968 147.706 54.1305L149.596 67.1297Z"
        fill="#393E46" />
    <path
        d="M143.571 58.6378C142.011 58.8637 140.93 60.309 141.156 61.866C141.382 63.423 142.831 64.5019 144.391 64.276C145.951 64.05 147.033 62.6047 146.807 61.0478C146.58 59.4908 145.132 58.4119 143.571 58.6378Z"
        fill="#393E46" />
    <path
        d="M145.738 61.4726L145.888 60.9669L144.739 61.1686L144.89 60.7109L144.528 60.6437L144.334 61.2123L144.068 61.1629L144.273 60.5964L143.879 60.5234L143.647 61.1203L142.796 60.9626L142.577 61.4908L143.46 61.6544L143.247 62.2668L143.619 62.3359L143.819 61.7922L144.042 61.8338L143.825 62.469L144.208 62.54L144.37 62.0248L145.314 62.7451L145.453 62.2967L144.577 61.6247L145.738 61.4726Z"
        fill="#D9D9D9" />
    <path fill-rule="evenodd" clip-rule="evenodd"
        d="M146.042 60.8296L145.823 61.5712L144.851 61.6982L145.579 62.2568L145.372 62.9261L144.427 62.2053L144.283 62.6645L143.682 62.5528L143.899 61.9176L143.89 61.9159L143.689 62.4595L143.102 62.3506L143.315 61.7382L142.425 61.5731L142.729 60.8399L143.578 60.9972L143.811 60.4003L144.419 60.513L144.214 61.0796L144.262 61.0883L144.456 60.5199L145.032 60.6269L144.899 61.0303L146.042 60.8296ZM145.734 61.1044L144.578 61.3071L144.748 60.795L144.601 60.7678L144.407 61.3362L143.923 61.2464L144.127 60.6799L143.948 60.6466L143.716 61.2436L142.863 61.0855L142.729 61.4086L143.604 61.5708L143.391 62.1832L143.548 62.2124L143.749 61.6688L144.186 61.75L143.969 62.3852L144.133 62.4157L144.313 61.8445L145.256 62.5642L145.327 62.3369L144.302 61.5511L145.654 61.3741L145.734 61.1044Z"
        fill="#393E46" />
    <path
        d="M145.789 61.3099L145.932 60.8386L144.781 61.0125L144.927 60.5859L144.563 60.5184L144.376 61.048L144.108 60.9983L144.306 60.4707L143.91 60.3973L143.685 60.9529L142.828 60.7942L142.615 61.2857L143.504 61.4503L143.298 62.0206L143.672 62.09L143.866 61.584L144.091 61.6257L143.881 62.2173L144.267 62.2888L144.422 61.8089L145.38 62.4952L145.513 62.0774L144.624 61.437L145.789 61.3099Z"
        fill="white" />
    <path fill-rule="evenodd" clip-rule="evenodd"
        d="M146.086 60.7055L145.872 61.4101L144.917 61.5142L145.64 62.0355L145.438 62.6707L144.48 61.9839L144.341 62.4131L143.736 62.3009L143.946 61.7093L143.935 61.7074L143.741 62.2135L143.152 62.1041L143.358 61.5338L142.461 61.3676L142.763 60.6716L143.617 60.83L143.842 60.2744L144.454 60.3876L144.256 60.9152L144.304 60.9242L144.491 60.3947L145.07 60.5021L144.942 60.8783L146.086 60.7055ZM145.778 60.9718L144.62 61.1466L144.783 60.6698L144.634 60.6421L144.447 61.1717L143.961 61.0814L144.159 60.554L143.978 60.5204L143.752 61.076L142.894 60.9167L142.769 61.2038L143.649 61.367L143.443 61.9373L143.603 61.9668L143.797 61.4607L144.236 61.5422L144.026 62.1338L144.192 62.1646L144.365 61.6338L145.321 62.3198L145.385 62.1195L144.331 61.3598L145.705 61.2098L145.778 60.9718Z"
        fill="#393E46" />
    <path d="M138.395 58.9792L150.172 54.4991L142.006 33.125L130.229 37.6049L138.395 58.9792Z"
        fill="white" />
    <path fill-rule="evenodd" clip-rule="evenodd"
        d="M150.313 54.5618L142.069 32.9848L130.088 37.5421L138.332 59.1193L150.313 54.5618ZM150.032 54.4363L138.458 58.839L130.369 37.6676L141.943 33.2651L150.032 54.4363Z"
        fill="#393E46" />
    <path
        d="M147.374 50.6371C145.398 51.7543 145.589 53.737 145.931 54.5886L141.62 56.2285C140.807 54.0999 138.806 54.0145 137.908 54.2379L133.011 41.4223C134.816 39.9638 134.713 38.1506 134.437 37.4262L138.481 35.8878C139.54 38.1262 141.518 37.9321 142.376 37.5552L147.374 50.6371Z"
        fill="#F3F3F3" />
    <path fill-rule="evenodd" clip-rule="evenodd"
        d="M147.509 50.6856L142.436 37.41L142.332 37.456C141.921 37.6364 141.237 37.7744 140.53 37.5971C139.829 37.4212 139.095 36.9328 138.579 35.8416L138.536 35.7507L134.296 37.3636L134.335 37.465C134.598 38.1524 134.705 39.9134 132.943 41.3379L132.881 41.3875L137.84 54.3667L137.934 54.3435C138.365 54.2361 139.068 54.2024 139.759 54.4534C140.445 54.7027 141.124 55.2341 141.519 56.2673L141.557 56.3688L146.073 54.651L146.032 54.5483C145.868 54.1394 145.738 53.4527 145.89 52.7349C146.04 52.0216 146.468 51.2739 147.427 50.7316L147.509 50.6856ZM147.239 50.5897C146.278 51.1608 145.835 51.9404 145.677 52.6901C145.527 53.3991 145.633 54.0777 145.791 54.5258L141.682 56.089C141.258 55.059 140.552 54.5106 139.833 54.2493C139.143 53.9986 138.445 54.0133 137.975 54.1111L133.141 41.4567C134.847 40.0365 134.831 38.2971 134.574 37.4903L138.426 36.0249C138.967 37.1098 139.731 37.6203 140.477 37.8076C141.181 37.9844 141.862 37.8715 142.314 37.6982L147.239 50.5897Z"
        fill="#393E46" />
    <path
        d="M139.111 43.2668C137.565 43.8549 136.789 45.5826 137.378 47.1255C137.968 48.6685 139.699 49.4425 141.246 48.8542C142.792 48.2661 143.568 46.5384 142.978 44.9955C142.389 43.4526 140.657 42.6785 139.111 43.2668Z"
        fill="#393E46" />
    <path
        d="M141.982 45.6752L142.018 45.1233L140.888 45.5926L140.938 45.089L140.552 45.103L140.484 45.7297L140.2 45.74L140.279 45.1129L139.86 45.1281L139.759 45.7928L138.851 45.8257L138.748 46.4169L139.689 46.3826L139.612 47.0587L140.009 47.0441L140.089 46.4417L140.328 46.433L140.251 47.1333L140.659 47.1184L140.707 46.5538L141.84 47.0757L141.879 46.5847L140.827 46.0966L141.982 45.6752Z"
        fill="#D9D9D9" />
    <path fill-rule="evenodd" clip-rule="evenodd"
        d="M142.138 44.9557L142.085 45.7529L141.11 46.1086L141.993 46.518L141.935 47.2396L140.802 46.7173L140.759 47.2235L140.129 47.2464L140.205 46.5461L140.185 46.5467L140.104 47.1494L139.489 47.1717L139.566 46.4958L138.617 46.5303L138.758 45.7204L139.664 45.6875L139.765 45.0229L140.403 44.9997L140.324 45.6267L140.385 45.6245L140.453 44.9979L141.058 44.9759L141.014 45.4226L142.138 44.9557ZM141.898 45.2907L140.761 45.7626L140.817 45.202L140.65 45.2081L140.581 45.8348L140.076 45.8532L140.155 45.2261L139.953 45.2334L139.852 45.898L138.943 45.9309L138.877 46.3035L139.811 46.2696L139.734 46.9455L139.913 46.9391L139.993 46.3364L140.449 46.3198L140.372 47.0203L140.559 47.0135L140.611 46.3902L141.743 46.9117L141.764 46.6513L140.542 46.0847L141.877 45.5975L141.898 45.2907Z"
        fill="#393E46" />
    <path
        d="M141.995 45.4971L142.034 44.9816L140.895 45.4228L140.946 44.9526L140.558 44.9668L140.488 45.5519L140.203 45.5623L140.284 44.9766L139.862 44.992L139.758 45.6127L138.845 45.6458L138.739 46.1979L139.687 46.1636L139.607 46.7947L140.007 46.7803L140.089 46.2174L140.329 46.2088L140.25 46.8627L140.661 46.8478L140.71 46.3206L141.849 46.8047L141.889 46.3463L140.832 45.8935L141.995 45.4971Z"
        fill="white" />
    <path fill-rule="evenodd" clip-rule="evenodd"
        d="M142.155 44.8182L142.099 45.5767L141.135 45.9051L142.005 46.2775L141.944 46.9633L140.805 46.4789L140.761 46.9529L140.127 46.9759L140.206 46.322L140.184 46.3227L140.102 46.8856L139.483 46.9079L139.563 46.2768L138.607 46.3115L138.754 45.5405L139.666 45.5074L139.769 44.8868L140.41 44.8636L140.328 45.4491L140.391 45.4467L140.461 44.8617L141.068 44.8395L141.023 45.2569L142.155 44.8182ZM141.912 45.1453L140.767 45.5888L140.825 45.0658L140.655 45.0718L140.585 45.657L140.077 45.6756L140.159 45.09L139.955 45.0973L139.851 45.718L138.936 45.7512L138.872 46.0845L139.811 46.0504L139.731 46.6816L139.912 46.675L139.995 46.1124L140.453 46.0957L140.373 46.7497L140.562 46.7429L140.616 46.1624L141.753 46.6461L141.774 46.4152L140.529 45.8819L141.892 45.4176L141.912 45.1453Z"
        fill="#393E46" />
    <path
        d="M136.17 83.581C136.17 87.2767 139.172 90.2727 142.876 90.2727C146.58 90.2727 149.582 87.2767 149.582 83.581C149.582 79.8854 146.58 76.8894 142.876 76.8894C139.172 76.8894 136.17 79.8854 136.17 83.581Z"
        fill="#393E46" />
    <path
        d="M142.175 87.1106H143.465V81.9266L144.608 83.0663L145.455 81.9266L142.802 79.9778L140.223 82.1839L141.144 83.0663L142.175 82.1839V87.1106Z"
        fill="white" />
    <path d="M135.654 52.5393L149.619 52.5746L151.056 55.8483H136.06L135.654 52.5393Z"
        fill="#393E46" />
    <path fill-rule="evenodd" clip-rule="evenodd"
        d="M149.477 52.7914L150.723 55.6311H136.252L135.9 52.7571L149.477 52.7914ZM149.619 52.5746L151.056 55.8483H136.06L135.654 52.5393L149.619 52.5746Z"
        fill="#393E46" />
    <path
        d="M150.474 87.3106C151.357 88.3942 154.562 91.4849 156.054 92.8949C160.086 95.1761 162.271 103.303 162.61 104.159C162.882 104.843 165.717 109.208 165.993 110.523L157.206 110.377L151.599 104.943C148.289 102.129 149.422 96.9577 148.734 94.5107C148.7 94.3887 148.637 93.8947 147.551 92.4309C146.464 90.9671 145.928 90.8161 145.757 90.7363C141.565 88.9375 141.385 87.8807 141.137 87.0713C140.862 86.1683 141.393 85.0531 141.987 84.768C142.581 84.4829 144.363 84.863 146.315 85.0531C148.267 85.2432 149.371 85.956 150.474 87.3106Z"
        fill="white" />
    <path fill-rule="evenodd" clip-rule="evenodd"
        d="M144.688 84.7514C145.202 84.8179 145.753 84.8892 146.326 84.9449C147.314 85.041 148.093 85.2703 148.767 85.6506C149.44 86.0306 150.002 86.5582 150.559 87.242C151.434 88.3163 154.621 91.3904 156.12 92.807C157.142 93.3887 158.042 94.3354 158.82 95.434C159.603 96.5377 160.268 97.8011 160.816 99.0168C161.364 100.233 161.796 101.404 162.113 102.323C162.271 102.783 162.4 103.18 162.5 103.489L162.509 103.515C162.605 103.812 162.672 104.019 162.712 104.118C162.776 104.28 162.998 104.672 163.309 105.202C163.419 105.39 163.54 105.595 163.667 105.811C163.895 106.197 164.145 106.62 164.394 107.05C164.783 107.721 165.173 108.413 165.483 109.021C165.791 109.625 166.027 110.156 166.099 110.501L166.127 110.634L157.161 110.485L151.525 105.023C149.841 103.589 149.292 101.56 149.075 99.6011C148.987 98.8135 148.953 98.0325 148.921 97.3047C148.913 97.1273 148.906 96.9531 148.898 96.7825C148.855 95.9082 148.798 95.1382 148.629 94.54C148.627 94.5303 148.624 94.5187 148.621 94.505C148.602 94.4285 148.567 94.2851 148.439 94.0211C148.287 93.7074 148.004 93.2239 147.463 92.4955C146.924 91.7687 146.524 91.3727 146.243 91.1496C146.006 90.9623 145.853 90.8963 145.757 90.8551C145.74 90.848 145.726 90.8416 145.712 90.8354C143.613 89.9344 142.506 89.2143 141.892 88.6101C141.315 88.0424 141.176 87.5791 141.06 87.1903C141.051 87.1607 141.042 87.1316 141.033 87.1028C140.886 86.6219 140.956 86.0912 141.135 85.6472C141.313 85.206 141.609 84.8286 141.94 84.67C142.111 84.5876 142.355 84.5582 142.639 84.5568C142.926 84.5552 143.271 84.5826 143.654 84.6241C143.976 84.6593 144.323 84.7041 144.688 84.7514ZM142.64 84.7739C142.362 84.7755 142.16 84.8054 142.034 84.8657C141.771 84.9922 141.504 85.3149 141.337 85.7284C141.171 86.139 141.113 86.6176 141.241 87.0395C141.25 87.0687 141.259 87.098 141.268 87.1276C141.382 87.5073 141.507 87.9269 142.044 88.4553C142.63 89.0315 143.709 89.7389 145.8 90.6366L145.801 90.6371L145.803 90.638C145.815 90.6434 145.829 90.6494 145.845 90.6563C145.941 90.6979 146.118 90.7737 146.378 90.9796C146.679 91.2178 147.091 91.6293 147.638 92.3662C148.184 93.1016 148.475 93.597 148.635 93.9266C148.773 94.2119 148.813 94.3736 148.831 94.4503C148.834 94.4629 148.837 94.4732 148.839 94.4813C149.015 95.1067 149.073 95.9006 149.115 96.7722C149.123 96.9444 149.131 97.1202 149.139 97.2983C149.171 98.0258 149.205 98.7974 149.291 99.5772C149.507 101.519 150.046 103.48 151.669 104.86L151.672 104.862L157.251 110.269L165.852 110.412C165.761 110.098 165.558 109.646 165.289 109.12C164.982 108.517 164.594 107.829 164.206 107.159C163.957 106.729 163.708 106.308 163.481 105.922C163.353 105.706 163.232 105.501 163.121 105.312C162.815 104.79 162.581 104.379 162.509 104.198C162.467 104.092 162.398 103.88 162.305 103.593L162.293 103.556C162.193 103.247 162.064 102.852 161.907 102.394C161.592 101.478 161.162 100.314 160.618 99.1058C160.073 97.8977 159.415 96.648 158.643 95.5596C157.87 94.4702 156.989 93.5487 156.001 92.9893L155.989 92.9827L155.979 92.9737C154.49 91.5661 151.278 88.4695 150.39 87.379C149.843 86.7083 149.301 86.202 148.659 85.8397C148.018 85.4773 147.269 85.255 146.305 85.161C145.734 85.1054 145.171 85.0327 144.65 84.9655C144.285 84.9185 143.941 84.874 143.63 84.8402C143.249 84.7986 142.915 84.7725 142.64 84.7739Z"
        fill="#393E46" />
    <path
        d="M142.338 87.3831C141.724 86.7521 142.08 85.7573 142.335 85.3388C142.901 84.6044 145.957 85.4479 146.111 85.9998C146.264 86.5519 145.486 88.5383 144.91 88.5675C144.334 88.5966 143.107 88.1717 142.338 87.3831Z"
        fill="white" />
    <path fill-rule="evenodd" clip-rule="evenodd"
        d="M145.993 85.696C146.096 85.7735 146.186 85.8655 146.215 85.9707C146.239 86.057 146.243 86.1626 146.235 86.2753C146.227 86.3895 146.206 86.5182 146.175 86.6539C146.113 86.9257 146.01 87.233 145.884 87.523C145.758 87.8123 145.607 88.0892 145.449 88.2973C145.369 88.4013 145.286 88.4915 145.199 88.5576C145.114 88.6231 145.017 88.6707 144.915 88.6759C144.604 88.6917 144.136 88.586 143.654 88.3819C143.169 88.1766 142.657 87.866 142.26 87.4588C141.922 87.112 141.856 86.6685 141.902 86.2689C141.949 85.8703 142.108 85.5022 142.242 85.2824L142.245 85.2774L142.249 85.2727C142.337 85.1581 142.468 85.081 142.619 85.0308C142.769 84.9803 142.947 84.9541 143.137 84.9461C143.518 84.93 143.968 84.9856 144.401 85.0808C144.834 85.1762 145.255 85.3127 145.581 85.4617C145.743 85.5362 145.885 85.6151 145.993 85.696ZM142.425 85.4006C142.478 85.3336 142.565 85.2777 142.688 85.2367C142.813 85.1948 142.968 85.1707 143.146 85.1631C143.502 85.148 143.932 85.2001 144.354 85.2929C144.775 85.3857 145.181 85.5177 145.49 85.6591C145.644 85.7299 145.771 85.8016 145.862 85.8696C145.957 85.941 145.996 85.9962 146.006 86.0289C146.02 86.0807 146.025 86.1581 146.018 86.2597C146.011 86.3599 145.992 86.4773 145.963 86.6058C145.904 86.8627 145.805 87.1572 145.684 87.4366C145.562 87.7164 145.42 87.9763 145.275 88.1659C145.203 88.2607 145.133 88.3348 145.067 88.3852C145 88.4361 144.946 88.4569 144.904 88.459C144.639 88.4723 144.206 88.38 143.739 88.182C143.274 87.9849 142.788 87.6889 142.416 87.3075C142.139 87.0232 142.077 86.6539 142.118 86.2938C142.16 85.9356 142.304 85.5999 142.425 85.4006Z"
        fill="#393E46" />
    <path
        d="M165.512 108.679L148.143 110.309C146.909 111.068 148.658 114.399 149.687 115.969C157.341 116.728 165.765 115.653 169.019 115.021C169.86 113.434 167.31 109.155 165.512 108.679Z"
        fill="#393E46" />
    <path fill-rule="evenodd" clip-rule="evenodd"
        d="M165.521 108.57L165.54 108.574C166.018 108.701 166.531 109.074 167.015 109.572C167.501 110.072 167.967 110.709 168.35 111.38C168.732 112.05 169.033 112.758 169.185 113.403C169.336 114.043 169.344 114.64 169.116 115.072L169.091 115.118L169.04 115.128C165.779 115.761 157.344 116.837 149.676 116.078L149.624 116.072L149.596 116.029C149.079 115.24 148.379 114.007 147.964 112.872C147.757 112.306 147.617 111.756 147.61 111.294C147.604 110.834 147.731 110.436 148.086 110.217L148.108 110.204L165.521 108.57ZM148.18 110.415C147.933 110.579 147.822 110.877 147.828 111.291C147.834 111.717 147.964 112.24 148.168 112.798C148.569 113.89 149.241 115.084 149.749 115.867C157.335 116.61 165.667 115.556 168.946 114.925C169.115 114.564 169.114 114.05 168.973 113.452C168.827 112.833 168.536 112.144 168.161 111.487C167.786 110.83 167.33 110.209 166.859 109.723C166.392 109.243 165.919 108.906 165.503 108.789L148.18 110.415Z"
        fill="#393E46" />
    <path fill-rule="evenodd" clip-rule="evenodd"
        d="M165.162 111.239C165.674 111.214 166.069 110.779 166.044 110.269C166.019 109.758 165.584 109.364 165.072 109.389C164.56 109.414 164.165 109.848 164.19 110.359C164.215 110.87 164.65 111.263 165.162 111.239ZM165.173 111.456C165.805 111.425 166.292 110.889 166.261 110.258C166.23 109.628 165.693 109.142 165.061 109.172C164.429 109.203 163.942 109.739 163.973 110.37C164.004 111 164.541 111.486 165.173 111.456Z"
        fill="white" />
    <path fill-rule="evenodd" clip-rule="evenodd"
        d="M165.295 113.957C165.626 113.94 165.882 113.659 165.866 113.329C165.849 112.998 165.568 112.744 165.237 112.76C164.905 112.776 164.65 113.057 164.666 113.387C164.682 113.718 164.964 113.973 165.295 113.957ZM165.306 114.173C165.757 114.151 166.105 113.769 166.083 113.318C166.061 112.868 165.677 112.521 165.226 112.543C164.775 112.565 164.427 112.948 164.449 113.398C164.471 113.848 164.854 114.195 165.306 114.173Z"
        fill="white" />
    <path fill-rule="evenodd" clip-rule="evenodd"
        d="M161.867 111.399C162.183 111.383 162.427 111.115 162.411 110.8C162.396 110.484 162.127 110.241 161.811 110.256C161.495 110.272 161.251 110.54 161.266 110.855C161.282 111.171 161.551 111.414 161.867 111.399ZM161.877 111.616C162.314 111.595 162.65 111.225 162.629 110.789C162.607 110.354 162.236 110.018 161.8 110.039C161.364 110.061 161.028 110.431 161.049 110.866C161.07 111.301 161.441 111.637 161.877 111.616Z"
        fill="white" />
    <path fill-rule="evenodd" clip-rule="evenodd"
        d="M161.778 114.618C162.23 114.596 162.578 114.213 162.556 113.762C162.534 113.312 162.15 112.965 161.699 112.986C161.247 113.008 160.899 113.391 160.921 113.842C160.943 114.293 161.327 114.64 161.778 114.618ZM161.789 114.835C162.361 114.807 162.801 114.322 162.774 113.752C162.746 113.182 162.26 112.742 161.688 112.77C161.116 112.797 160.675 113.282 160.703 113.853C160.731 114.423 161.217 114.863 161.789 114.835Z"
        fill="white" />
    <path fill-rule="evenodd" clip-rule="evenodd"
        d="M158.704 112.043C159.155 112.021 159.503 111.638 159.481 111.187C159.459 110.737 159.075 110.389 158.624 110.411C158.172 110.433 157.824 110.816 157.846 111.267C157.868 111.717 158.252 112.065 158.704 112.043ZM158.714 112.26C159.286 112.232 159.727 111.747 159.699 111.177C159.671 110.606 159.185 110.167 158.613 110.194C158.042 110.222 157.601 110.707 157.629 111.278C157.657 111.848 158.143 112.288 158.714 112.26Z"
        fill="white" />
    <path fill-rule="evenodd" clip-rule="evenodd"
        d="M158.463 114.943C158.704 114.931 158.89 114.727 158.878 114.486C158.866 114.246 158.661 114.06 158.42 114.072C158.18 114.084 157.994 114.288 158.005 114.529C158.017 114.769 158.222 114.954 158.463 114.943ZM158.474 115.16C158.834 115.142 159.113 114.836 159.095 114.476C159.078 114.115 158.771 113.837 158.41 113.855C158.049 113.873 157.77 114.179 157.788 114.539C157.806 114.899 158.113 115.177 158.474 115.16Z"
        fill="white" />
    <path fill-rule="evenodd" clip-rule="evenodd"
        d="M154.895 115.116C155.452 115.089 155.881 114.617 155.854 114.061C155.827 113.505 155.354 113.077 154.797 113.104C154.24 113.131 153.81 113.604 153.838 114.159C153.865 114.715 154.338 115.143 154.895 115.116ZM154.906 115.333C155.583 115.3 156.105 114.726 156.072 114.051C156.039 113.375 155.463 112.854 154.786 112.887C154.109 112.92 153.587 113.494 153.62 114.17C153.653 114.845 154.229 115.366 154.906 115.333Z"
        fill="white" />
    <path fill-rule="evenodd" clip-rule="evenodd"
        d="M154.205 111.608C154.476 111.595 154.685 111.365 154.671 111.094C154.658 110.824 154.428 110.615 154.157 110.629C153.886 110.642 153.677 110.872 153.69 111.142C153.703 111.413 153.934 111.621 154.205 111.608ZM154.215 111.825C154.606 111.806 154.908 111.474 154.889 111.084C154.87 110.694 154.537 110.393 154.146 110.412C153.755 110.431 153.453 110.762 153.473 111.153C153.492 111.543 153.824 111.844 154.215 111.825Z"
        fill="white" />
    <path fill-rule="evenodd" clip-rule="evenodd"
        d="M150.036 112.901C150.533 112.876 150.916 112.455 150.892 111.959C150.867 111.464 150.445 111.082 149.948 111.106C149.452 111.13 149.069 111.551 149.093 112.047C149.117 112.543 149.539 112.925 150.036 112.901ZM150.047 113.118C150.663 113.087 151.139 112.564 151.109 111.949C151.079 111.333 150.555 110.859 149.938 110.889C149.321 110.919 148.845 111.442 148.875 112.057C148.906 112.673 149.43 113.148 150.047 113.118Z"
        fill="white" />
    <path fill-rule="evenodd" clip-rule="evenodd"
        d="M150.858 115.748C151.189 115.732 151.444 115.451 151.428 115.121C151.412 114.79 151.13 114.535 150.799 114.551C150.468 114.568 150.213 114.849 150.229 115.179C150.245 115.51 150.526 115.765 150.858 115.748ZM150.868 115.965C151.319 115.943 151.668 115.56 151.646 115.11C151.623 114.66 151.24 114.313 150.789 114.334C150.337 114.356 149.989 114.739 150.011 115.19C150.033 115.64 150.417 115.987 150.868 115.965Z"
        fill="white" />
</svg>
    