<svg width="11" height="13" viewBox="0 0 11 13" fill="none" xmlns="http://www.w3.org/2000/svg">
<path d="M1.31688 0.250001C1.21343 0.249839 1.11337 0.286865 1.03496 0.354328C0.956536 0.42179 0.904979 0.515193 0.889687 0.617501C0.845937 0.913751 0.5 3.27063 0.5 4.3125C0.5 4.99875 0.795625 5.61688 1.265 6.045C1.48219 6.24281 1.59375 6.44281 1.59375 6.62063C1.59375 6.63469 1.59344 6.64625 1.59219 6.65875C1.56281 7.02562 1.28125 10.555 1.28125 11.1875C1.28125 11.6019 1.44587 11.9993 1.7389 12.2924C2.03192 12.5854 2.42935 12.75 2.84375 12.75C3.25815 12.75 3.65558 12.5854 3.9486 12.2924C4.24163 11.9993 4.40625 11.6019 4.40625 11.1875C4.40625 10.555 4.12469 7.02562 4.09531 6.65875L4.09375 6.62063C4.09375 6.44281 4.20531 6.24281 4.4225 6.045C4.66383 5.82558 4.85657 5.55807 4.98832 5.2597C5.12007 4.96132 5.18792 4.63867 5.1875 4.3125C5.1875 3.27063 4.84156 0.912501 4.79781 0.617501C4.78253 0.515246 4.73102 0.421885 4.65266 0.35443C4.57431 0.286974 4.47433 0.249914 4.37094 0.250001H4.36531C4.11656 0.250001 3.93813 0.454688 3.93813 0.678125V3.9625C3.93813 4.00846 3.92907 4.05398 3.91148 4.09644C3.89389 4.1389 3.86811 4.17749 3.83561 4.20999C3.80311 4.24249 3.76453 4.26827 3.72206 4.28586C3.6796 4.30345 3.63409 4.3125 3.58812 4.3125C3.54216 4.3125 3.49665 4.30345 3.45419 4.28586C3.41172 4.26827 3.37314 4.24249 3.34064 4.20999C3.30814 4.17749 3.28236 4.1389 3.26477 4.09644C3.24718 4.05398 3.23812 4.00846 3.23812 3.9625V0.662188C3.23986 0.60864 3.23067 0.5553 3.21112 0.505418C3.19157 0.455536 3.16207 0.410156 3.12441 0.372044C3.08676 0.333931 3.04174 0.303884 2.9921 0.283732C2.94245 0.263581 2.88923 0.253747 2.83566 0.254831C2.7821 0.255914 2.72931 0.267891 2.68053 0.290033C2.63174 0.312175 2.58797 0.344018 2.55189 0.383621C2.51581 0.423225 2.48817 0.46976 2.47065 0.520391C2.45313 0.571023 2.44611 0.624691 2.45 0.678125V3.9625C2.45 4.05533 2.41313 4.14435 2.34749 4.20999C2.28185 4.27563 2.19283 4.3125 2.1 4.3125C2.00717 4.3125 1.91815 4.27563 1.85251 4.20999C1.78687 4.14435 1.75 4.05533 1.75 3.9625V0.678125C1.75 0.564742 1.70502 0.455988 1.62494 0.375726C1.54485 0.295464 1.4362 0.250249 1.32281 0.250001H1.31688ZM7.65938 6.5L7.63969 6.785C7.61031 7.21063 7.57094 7.785 7.53219 8.38C7.45469 9.55937 7.375 10.8472 7.375 11.1875C7.375 11.6019 7.53962 11.9993 7.83265 12.2924C8.12567 12.5854 8.5231 12.75 8.9375 12.75C9.3519 12.75 9.74933 12.5854 10.0424 12.2924C10.3354 11.9993 10.5 11.6019 10.5 11.1875C10.5 10.8097 10.4016 9.37687 10.3162 8.14L10.3134 8.09937C10.2453 7.10813 10.1875 6.2625 10.1875 6.10938V0.640625C10.1875 0.425001 10.0125 0.250001 9.79688 0.250001H9.64062C7.69906 0.250001 6.125 1.82406 6.125 3.76563V5.48438C6.125 5.75374 6.232 6.01206 6.42247 6.20253C6.61294 6.393 6.87126 6.5 7.14062 6.5H7.65938Z" fill="black"/>
</svg>
