<svg width="13" height="14" viewBox="0 0 13 14" fill="none" xmlns="http://www.w3.org/2000/svg">
<path d="M4.69188 2.405C5.06563 1.31125 6.57688 1.27813 7.02 2.30563L7.0575 2.40563L7.56188 3.88063C7.67747 4.2189 7.86426 4.52844 8.10965 4.78839C8.35504 5.04834 8.65332 5.25263 8.98438 5.3875L9.12 5.43812L10.595 5.94188C11.6888 6.31563 11.7219 7.82687 10.695 8.27L10.595 8.3075L9.12 8.81188C8.78162 8.92739 8.47195 9.11414 8.21189 9.35954C7.95183 9.60493 7.74744 9.90325 7.6125 10.2344L7.56188 10.3694L7.05813 11.845C6.68438 12.9388 5.17313 12.9719 4.73063 11.945L4.69188 11.845L4.18813 10.37C4.07262 10.0316 3.88586 9.72194 3.64047 9.46189C3.39507 9.20183 3.09675 8.99743 2.76563 8.8625L2.63063 8.81188L1.15563 8.30812C0.0612541 7.93437 0.0281292 6.42312 1.05563 5.98062L1.15563 5.94188L2.63063 5.43812C2.9689 5.32254 3.27845 5.13575 3.53839 4.89036C3.79834 4.64497 4.00264 4.34668 4.1375 4.01562L4.18813 3.88063L4.69188 2.405ZM10.875 0.25C10.9919 0.25 11.1065 0.282799 11.2057 0.34467C11.3049 0.406541 11.3848 0.495002 11.4363 0.6L11.4663 0.673125L11.685 1.31438L12.3269 1.53313C12.4441 1.57293 12.5468 1.64663 12.622 1.74488C12.6973 1.84313 12.7417 1.96151 12.7496 2.08501C12.7575 2.20851 12.7285 2.33158 12.6664 2.43862C12.6043 2.54565 12.5118 2.63184 12.4006 2.68625L12.3269 2.71625L11.6856 2.935L11.4669 3.57687C11.427 3.69402 11.3532 3.79669 11.255 3.87187C11.1567 3.94705 11.0383 3.99137 10.9148 3.9992C10.7913 4.00703 10.6682 3.97803 10.5612 3.91586C10.4542 3.8537 10.3681 3.76117 10.3138 3.65L10.2838 3.57687L10.065 2.93563L9.42313 2.71688C9.30595 2.67707 9.20323 2.60337 9.12799 2.50512C9.05274 2.40687 9.00836 2.28849 9.00046 2.16499C8.99256 2.04149 9.0215 1.91842 9.08362 1.81138C9.14573 1.70435 9.23823 1.61816 9.34938 1.56375L9.42313 1.53375L10.0644 1.315L10.2831 0.673125C10.3253 0.549641 10.405 0.442443 10.5112 0.366562C10.6173 0.290681 10.7445 0.249922 10.875 0.25Z" fill="black"/>
</svg>
